%TF.GenerationSoftware,KiCad,Pcbnew,(5.1.4)-1*%
%TF.CreationDate,2020-10-28T09:08:47+02:00*%
%TF.ProjectId,Borta Dators,426f7274-6120-4446-9174-6f72732e6b69,rev?*%
%TF.SameCoordinates,Original*%
%TF.FileFunction,Soldermask,Bot*%
%TF.FilePolarity,Negative*%
%FSLAX46Y46*%
G04 Gerber Fmt 4.6, Leading zero omitted, Abs format (unit mm)*
G04 Created by KiCad (PCBNEW (5.1.4)-1) date 2020-10-28 09:08:47*
%MOMM*%
%LPD*%
G04 APERTURE LIST*
%ADD10C,1.624000*%
%ADD11C,1.800000*%
%ADD12C,0.100000*%
%ADD13C,1.800000*%
%ADD14O,1.800000X1.800000*%
%ADD15R,1.800000X1.800000*%
G04 APERTURE END LIST*
D10*
%TO.C,J3*%
X103570000Y-110770000D03*
X103570000Y-108230000D03*
X106110000Y-108230000D03*
X108650000Y-108230000D03*
X111190000Y-108230000D03*
X113730000Y-108230000D03*
X116270000Y-108230000D03*
X118810000Y-108230000D03*
X121350000Y-108230000D03*
X123890000Y-108230000D03*
X126430000Y-108230000D03*
X126430000Y-110770000D03*
X123890000Y-110770000D03*
X121350000Y-110770000D03*
X118810000Y-110770000D03*
X116270000Y-110770000D03*
X113730000Y-110770000D03*
X111190000Y-110770000D03*
X108650000Y-110770000D03*
X106110000Y-110770000D03*
%TD*%
%TO.C,BT1*%
X90890000Y-71550000D03*
X89620000Y-98450000D03*
X92160000Y-98450000D03*
%TD*%
D11*
%TO.C,J1*%
X94488000Y-57150000D03*
D12*
G36*
X93215208Y-57150000D02*
G01*
X94488000Y-55877208D01*
X95760792Y-57150000D01*
X94488000Y-58422792D01*
X93215208Y-57150000D01*
X93215208Y-57150000D01*
G37*
D11*
X92691949Y-58946051D03*
D13*
X92691949Y-58946051D02*
X92691949Y-58946051D01*
D11*
X90895898Y-60742102D03*
D13*
X90895898Y-60742102D02*
X90895898Y-60742102D01*
D11*
X89099846Y-62538154D03*
D13*
X89099846Y-62538154D02*
X89099846Y-62538154D01*
D11*
X87303795Y-64334205D03*
D13*
X87303795Y-64334205D02*
X87303795Y-64334205D01*
D11*
X85507744Y-66130256D03*
D13*
X85507744Y-66130256D02*
X85507744Y-66130256D01*
%TD*%
D14*
%TO.C,SW1*%
X115824000Y-53340000D03*
X115824000Y-55880000D03*
D15*
X115824000Y-58420000D03*
%TD*%
%TO.C,SW2*%
X125857000Y-58547000D03*
D14*
X125857000Y-56007000D03*
X125857000Y-53467000D03*
%TD*%
D15*
%TO.C,SW3*%
X106180000Y-55740000D03*
D14*
X103640000Y-55740000D03*
X106180000Y-53200000D03*
X103640000Y-53200000D03*
%TD*%
M02*
