M48
; DRILL file {KiCad (5.1.4)-1} date 28.10.2020 09:10:07
; FORMAT={-:-/ absolute / metric / decimal}
; #@! TF.CreationDate,2020-10-28T09:10:07+02:00
; #@! TF.GenerationSoftware,Kicad,Pcbnew,(5.1.4)-1
; #@! TF.FileFunction,Plated,1,2,PTH
FMAT,2
METRIC
T1C0.400
T2C0.762
T3C1.000
T4C1.100
%
G90
G05
T1
X86.589Y-110.363
X89.637Y-109.55
X94.615Y-109.601
X97.917Y-110.541
X98.069Y-104.673
X102.997Y-79.273
X103.886Y-77.851
X104.648Y-98.679
X105.156Y-84.328
X105.32Y-95.739
X105.664Y-88.646
X106.045Y-80.01
X106.299Y-95.944
X106.299Y-100.33
X106.807Y-87.249
X107.569Y-103.708
X108.331Y-98.806
X108.424Y-91.406
X109.093Y-72.39
X110.068Y-95.463
X110.236Y-76.2
X110.617Y-72.39
X110.744Y-69.723
X110.998Y-101.473
X111.252Y-95.377
X111.658Y-83.617
X112.014Y-88.9
X112.37Y-80.264
X113.284Y-81.915
X114.681Y-95.123
X115.062Y-67.056
X116.078Y-95.389
X116.459Y-89.662
X117.475Y-89.027
X118.11Y-103.759
X118.135Y-63.221
X118.872Y-67.056
X118.872Y-102.743
X120.396Y-102.489
X121.158Y-104.648
X121.412Y-69.723
X121.539Y-88.138
X121.793Y-102.489
X122.174Y-78.867
X123.317Y-78.867
X123.422Y-87.1
X123.571Y-95.885
X123.596Y-63.246
X124.46Y-78.867
X124.46Y-88.773
X124.968Y-67.056
X124.968Y-73.66
X125.095Y-94.996
X125.349Y-97.663
X127.0Y-98.679
X127.266Y-84.328
X128.016Y-69.469
X128.016Y-73.025
X128.016Y-77.089
X129.476Y-87.947
X130.246Y-103.136
X131.318Y-71.374
X131.318Y-72.517
X131.318Y-73.787
X131.318Y-74.93
X132.715Y-74.93
X134.112Y-103.251
X134.493Y-101.473
X135.001Y-106.883
X138.887Y-99.517
X138.938Y-104.394
T2
X89.62Y-98.45
X90.89Y-71.55
X92.16Y-98.45
T3
X85.508Y-66.13
X87.304Y-64.334
X89.1Y-62.538
X90.896Y-60.742
X92.692Y-58.946
X94.488Y-57.15
X115.824Y-53.34
X115.824Y-55.88
X115.824Y-58.42
X103.64Y-53.2
X103.64Y-55.74
X106.18Y-53.2
X106.18Y-55.74
X125.857Y-53.467
X125.857Y-56.007
X125.857Y-58.547
T4
X103.57Y-108.23
X103.57Y-110.77
X106.11Y-108.23
X106.11Y-110.77
X108.65Y-108.23
X108.65Y-110.77
X111.19Y-108.23
X111.19Y-110.77
X113.73Y-108.23
X113.73Y-110.77
X116.27Y-108.23
X116.27Y-110.77
X118.81Y-108.23
X118.81Y-110.77
X121.35Y-108.23
X121.35Y-110.77
X123.89Y-108.23
X123.89Y-110.77
X126.43Y-108.23
X126.43Y-110.77
T0
M30
