%TF.GenerationSoftware,KiCad,Pcbnew,(5.1.4)-1*%
%TF.CreationDate,2020-10-28T09:08:47+02:00*%
%TF.ProjectId,Borta Dators,426f7274-6120-4446-9174-6f72732e6b69,rev?*%
%TF.SameCoordinates,Original*%
%TF.FileFunction,Legend,Top*%
%TF.FilePolarity,Positive*%
%FSLAX46Y46*%
G04 Gerber Fmt 4.6, Leading zero omitted, Abs format (unit mm)*
G04 Created by KiCad (PCBNEW (5.1.4)-1) date 2020-10-28 09:08:47*
%MOMM*%
%LPD*%
G04 APERTURE LIST*
%ADD10C,0.120000*%
%ADD11C,0.150000*%
G04 APERTURE END LIST*
D10*
%TO.C,BT1*%
X80790000Y-99300000D02*
X80790000Y-70700000D01*
X80790000Y-99300000D02*
X100990000Y-99300000D01*
X100990000Y-99300000D02*
X100990000Y-70700000D01*
X80790000Y-70700000D02*
X100990000Y-70700000D01*
%TO.C,C1*%
X86104000Y-109645267D02*
X86104000Y-109302733D01*
X87124000Y-109645267D02*
X87124000Y-109302733D01*
%TO.C,C2*%
X109504762Y-78385271D02*
X109262553Y-78627480D01*
X110226011Y-79106520D02*
X109983802Y-79348729D01*
%TO.C,C3*%
X111278271Y-80659480D02*
X111520480Y-80417271D01*
X111999520Y-81380729D02*
X112241729Y-81138520D01*
%TO.C,C4*%
X107046520Y-82380447D02*
X107288729Y-82138238D01*
X106325271Y-81659198D02*
X106567480Y-81416989D01*
%TO.C,D1*%
X146220000Y-55605000D02*
X143760000Y-55605000D01*
X146220000Y-57075000D02*
X146220000Y-55605000D01*
X143760000Y-57075000D02*
X146220000Y-57075000D01*
%TO.C,D2*%
X143760000Y-61075000D02*
X146220000Y-61075000D01*
X146220000Y-61075000D02*
X146220000Y-59605000D01*
X146220000Y-59605000D02*
X143760000Y-59605000D01*
%TO.C,D3*%
X143760000Y-65075000D02*
X146220000Y-65075000D01*
X146220000Y-65075000D02*
X146220000Y-63605000D01*
X146220000Y-63605000D02*
X143760000Y-63605000D01*
%TO.C,D4*%
X143760000Y-69075000D02*
X146220000Y-69075000D01*
X146220000Y-69075000D02*
X146220000Y-67605000D01*
X146220000Y-67605000D02*
X143760000Y-67605000D01*
%TO.C,D5*%
X146220000Y-71605000D02*
X143760000Y-71605000D01*
X146220000Y-73075000D02*
X146220000Y-71605000D01*
X143760000Y-73075000D02*
X146220000Y-73075000D01*
%TO.C,D6*%
X143760000Y-77075000D02*
X146220000Y-77075000D01*
X146220000Y-77075000D02*
X146220000Y-75605000D01*
X146220000Y-75605000D02*
X143760000Y-75605000D01*
%TO.C,D7*%
X146220000Y-79605000D02*
X143760000Y-79605000D01*
X146220000Y-81075000D02*
X146220000Y-79605000D01*
X143760000Y-81075000D02*
X146220000Y-81075000D01*
%TO.C,J1*%
X92649522Y-57107574D02*
X94530426Y-58988478D01*
X92649522Y-57107574D02*
X83626840Y-66130256D01*
X83626840Y-66130256D02*
X85507744Y-68011160D01*
X94530426Y-58988478D02*
X85507744Y-68011160D01*
X96368904Y-57150000D02*
X95428452Y-58090452D01*
X95428452Y-56209548D02*
X96368904Y-57150000D01*
%TO.C,J2*%
X149410000Y-94820000D02*
X149410000Y-107820000D01*
X133410000Y-94820000D02*
X133410000Y-107820000D01*
X149410000Y-107820000D02*
X133410000Y-107820000D01*
X133410000Y-94820000D02*
X149410000Y-94820000D01*
%TO.C,Q1*%
X93782000Y-102999000D02*
X92852000Y-102999000D01*
X90622000Y-102999000D02*
X91552000Y-102999000D01*
X90622000Y-102999000D02*
X90622000Y-105159000D01*
X93782000Y-102999000D02*
X93782000Y-104459000D01*
%TO.C,R1*%
X97439267Y-111050800D02*
X97096733Y-111050800D01*
X97439267Y-110030800D02*
X97096733Y-110030800D01*
%TO.C,R3*%
X108639480Y-83465271D02*
X108397271Y-83707480D01*
X109360729Y-84186520D02*
X109118520Y-84428729D01*
%TO.C,R4*%
X139731267Y-56850000D02*
X139388733Y-56850000D01*
X139731267Y-55830000D02*
X139388733Y-55830000D01*
%TO.C,R5*%
X139731267Y-59830000D02*
X139388733Y-59830000D01*
X139731267Y-60850000D02*
X139388733Y-60850000D01*
%TO.C,R6*%
X139731267Y-63830000D02*
X139388733Y-63830000D01*
X139731267Y-64850000D02*
X139388733Y-64850000D01*
%TO.C,R7*%
X139731267Y-68850000D02*
X139388733Y-68850000D01*
X139731267Y-67830000D02*
X139388733Y-67830000D01*
%TO.C,R8*%
X139731267Y-71830000D02*
X139388733Y-71830000D01*
X139731267Y-72850000D02*
X139388733Y-72850000D01*
%TO.C,R9*%
X139731267Y-76850000D02*
X139388733Y-76850000D01*
X139731267Y-75830000D02*
X139388733Y-75830000D01*
%TO.C,R10*%
X139731267Y-79830000D02*
X139388733Y-79830000D01*
X139731267Y-80850000D02*
X139388733Y-80850000D01*
%TO.C,R11*%
X87124000Y-105492733D02*
X87124000Y-105835267D01*
X86104000Y-105492733D02*
X86104000Y-105835267D01*
%TO.C,SW1*%
X115824000Y-59750000D02*
X114494000Y-59750000D01*
X114494000Y-59750000D02*
X114494000Y-58420000D01*
X114494000Y-57150000D02*
X114494000Y-52010000D01*
X117154000Y-52010000D02*
X114494000Y-52010000D01*
X117154000Y-57150000D02*
X117154000Y-52010000D01*
X117154000Y-57150000D02*
X114494000Y-57150000D01*
%TO.C,SW2*%
X127187000Y-57277000D02*
X124527000Y-57277000D01*
X127187000Y-57277000D02*
X127187000Y-52137000D01*
X127187000Y-52137000D02*
X124527000Y-52137000D01*
X124527000Y-57277000D02*
X124527000Y-52137000D01*
X124527000Y-59877000D02*
X124527000Y-58547000D01*
X125857000Y-59877000D02*
X124527000Y-59877000D01*
%TO.C,SW3*%
X107510000Y-51870000D02*
X102310000Y-51870000D01*
X107510000Y-54470000D02*
X107510000Y-51870000D01*
X102310000Y-57070000D02*
X102310000Y-51870000D01*
X107510000Y-54470000D02*
X104910000Y-54470000D01*
X104910000Y-54470000D02*
X104910000Y-57070000D01*
X104910000Y-57070000D02*
X102310000Y-57070000D01*
X107510000Y-55740000D02*
X107510000Y-57070000D01*
X107510000Y-57070000D02*
X106180000Y-57070000D01*
%TO.C,U1*%
X116970000Y-69110000D02*
X116970000Y-67210000D01*
X114650000Y-67710000D02*
X114650000Y-69110000D01*
%TO.C,U2*%
X124650000Y-67710000D02*
X124650000Y-69110000D01*
X126970000Y-69110000D02*
X126970000Y-67210000D01*
%TO.C,U3*%
X90100000Y-111180000D02*
X91900000Y-111180000D01*
X91900000Y-107960000D02*
X89450000Y-107960000D01*
%TO.C,U4*%
X96808000Y-104360000D02*
X96808000Y-103594000D01*
X97756000Y-104360000D02*
X96808000Y-104360000D01*
X97756000Y-103412000D02*
X97756000Y-104360000D01*
X96990000Y-103412000D02*
X97756000Y-103412000D01*
%TO.C,U5*%
X114530868Y-94010179D02*
X114743000Y-94222311D01*
X114743000Y-94222311D02*
X114955132Y-94010179D01*
X109849821Y-89329132D02*
X109637689Y-89117000D01*
X109637689Y-89117000D02*
X109849821Y-88904868D01*
X119636179Y-88904868D02*
X119848311Y-89117000D01*
X119848311Y-89117000D02*
X119636179Y-89329132D01*
X114955132Y-84223821D02*
X114743000Y-84011689D01*
X114743000Y-84011689D02*
X114530868Y-84223821D01*
X114530868Y-84223821D02*
X113601023Y-83293976D01*
%TO.C,J3*%
D11*
X114666666Y-103872380D02*
X114666666Y-104586666D01*
X114619047Y-104729523D01*
X114523809Y-104824761D01*
X114380952Y-104872380D01*
X114285714Y-104872380D01*
X115047619Y-103872380D02*
X115666666Y-103872380D01*
X115333333Y-104253333D01*
X115476190Y-104253333D01*
X115571428Y-104300952D01*
X115619047Y-104348571D01*
X115666666Y-104443809D01*
X115666666Y-104681904D01*
X115619047Y-104777142D01*
X115571428Y-104824761D01*
X115476190Y-104872380D01*
X115190476Y-104872380D01*
X115095238Y-104824761D01*
X115047619Y-104777142D01*
%TO.C,BT1*%
X88338571Y-85765714D02*
X88386190Y-85622857D01*
X88433809Y-85575238D01*
X88529047Y-85527619D01*
X88671904Y-85527619D01*
X88767142Y-85575238D01*
X88814761Y-85622857D01*
X88862380Y-85718095D01*
X88862380Y-86099047D01*
X87862380Y-86099047D01*
X87862380Y-85765714D01*
X87910000Y-85670476D01*
X87957619Y-85622857D01*
X88052857Y-85575238D01*
X88148095Y-85575238D01*
X88243333Y-85622857D01*
X88290952Y-85670476D01*
X88338571Y-85765714D01*
X88338571Y-86099047D01*
X87862380Y-85241904D02*
X87862380Y-84670476D01*
X88862380Y-84956190D02*
X87862380Y-84956190D01*
X88862380Y-83813333D02*
X88862380Y-84384761D01*
X88862380Y-84099047D02*
X87862380Y-84099047D01*
X88005238Y-84194285D01*
X88100476Y-84289523D01*
X88148095Y-84384761D01*
%TO.C,C1*%
X85541142Y-109640666D02*
X85588761Y-109688285D01*
X85636380Y-109831142D01*
X85636380Y-109926380D01*
X85588761Y-110069238D01*
X85493523Y-110164476D01*
X85398285Y-110212095D01*
X85207809Y-110259714D01*
X85064952Y-110259714D01*
X84874476Y-110212095D01*
X84779238Y-110164476D01*
X84684000Y-110069238D01*
X84636380Y-109926380D01*
X84636380Y-109831142D01*
X84684000Y-109688285D01*
X84731619Y-109640666D01*
X85636380Y-108688285D02*
X85636380Y-109259714D01*
X85636380Y-108974000D02*
X84636380Y-108974000D01*
X84779238Y-109069238D01*
X84874476Y-109164476D01*
X84922095Y-109259714D01*
%TO.C,C2*%
X108801338Y-78159758D02*
X108801338Y-78227101D01*
X108733994Y-78361788D01*
X108666651Y-78429132D01*
X108531963Y-78496475D01*
X108397276Y-78496475D01*
X108296261Y-78462804D01*
X108127902Y-78361788D01*
X108026887Y-78260773D01*
X107925872Y-78092414D01*
X107892200Y-77991399D01*
X107892200Y-77856712D01*
X107959544Y-77722025D01*
X108026887Y-77654681D01*
X108161574Y-77587338D01*
X108228918Y-77587338D01*
X108498292Y-77317964D02*
X108498292Y-77250620D01*
X108531963Y-77149605D01*
X108700322Y-76981246D01*
X108801338Y-76947575D01*
X108868681Y-76947575D01*
X108969696Y-76981246D01*
X109037040Y-77048590D01*
X109104383Y-77183277D01*
X109104383Y-77991399D01*
X109542116Y-77553666D01*
%TO.C,C3*%
X110883524Y-80258226D02*
X110883524Y-80325569D01*
X110816180Y-80460256D01*
X110748837Y-80527600D01*
X110614149Y-80594943D01*
X110479462Y-80594943D01*
X110378447Y-80561272D01*
X110210088Y-80460256D01*
X110109073Y-80359241D01*
X110008058Y-80190882D01*
X109974386Y-80089867D01*
X109974386Y-79955180D01*
X110041730Y-79820493D01*
X110109073Y-79753149D01*
X110243760Y-79685806D01*
X110311104Y-79685806D01*
X110479462Y-79382760D02*
X110917195Y-78945027D01*
X110950867Y-79450104D01*
X111051882Y-79349088D01*
X111152898Y-79315417D01*
X111220241Y-79315417D01*
X111321256Y-79349088D01*
X111489615Y-79517447D01*
X111523287Y-79618462D01*
X111523287Y-79685806D01*
X111489615Y-79786821D01*
X111287585Y-79988852D01*
X111186569Y-80022524D01*
X111119226Y-80022524D01*
%TO.C,C4*%
X105798686Y-81253107D02*
X105798686Y-81320450D01*
X105731342Y-81455137D01*
X105663999Y-81522481D01*
X105529311Y-81589824D01*
X105394624Y-81589824D01*
X105293609Y-81556153D01*
X105125250Y-81455137D01*
X105024235Y-81354122D01*
X104923220Y-81185763D01*
X104889548Y-81084748D01*
X104889548Y-80950061D01*
X104956892Y-80815374D01*
X105024235Y-80748030D01*
X105158922Y-80680687D01*
X105226266Y-80680687D01*
X106000716Y-80242954D02*
X106472121Y-80714359D01*
X105562983Y-80141939D02*
X105899701Y-80815374D01*
X106337434Y-80377641D01*
%TO.C,D1*%
X143821904Y-58222380D02*
X143821904Y-57222380D01*
X144060000Y-57222380D01*
X144202857Y-57270000D01*
X144298095Y-57365238D01*
X144345714Y-57460476D01*
X144393333Y-57650952D01*
X144393333Y-57793809D01*
X144345714Y-57984285D01*
X144298095Y-58079523D01*
X144202857Y-58174761D01*
X144060000Y-58222380D01*
X143821904Y-58222380D01*
X145345714Y-58222380D02*
X144774285Y-58222380D01*
X145060000Y-58222380D02*
X145060000Y-57222380D01*
X144964761Y-57365238D01*
X144869523Y-57460476D01*
X144774285Y-57508095D01*
%TO.C,D2*%
X143821904Y-62222380D02*
X143821904Y-61222380D01*
X144060000Y-61222380D01*
X144202857Y-61270000D01*
X144298095Y-61365238D01*
X144345714Y-61460476D01*
X144393333Y-61650952D01*
X144393333Y-61793809D01*
X144345714Y-61984285D01*
X144298095Y-62079523D01*
X144202857Y-62174761D01*
X144060000Y-62222380D01*
X143821904Y-62222380D01*
X144774285Y-61317619D02*
X144821904Y-61270000D01*
X144917142Y-61222380D01*
X145155238Y-61222380D01*
X145250476Y-61270000D01*
X145298095Y-61317619D01*
X145345714Y-61412857D01*
X145345714Y-61508095D01*
X145298095Y-61650952D01*
X144726666Y-62222380D01*
X145345714Y-62222380D01*
%TO.C,D3*%
X143821904Y-66222380D02*
X143821904Y-65222380D01*
X144060000Y-65222380D01*
X144202857Y-65270000D01*
X144298095Y-65365238D01*
X144345714Y-65460476D01*
X144393333Y-65650952D01*
X144393333Y-65793809D01*
X144345714Y-65984285D01*
X144298095Y-66079523D01*
X144202857Y-66174761D01*
X144060000Y-66222380D01*
X143821904Y-66222380D01*
X144726666Y-65222380D02*
X145345714Y-65222380D01*
X145012380Y-65603333D01*
X145155238Y-65603333D01*
X145250476Y-65650952D01*
X145298095Y-65698571D01*
X145345714Y-65793809D01*
X145345714Y-66031904D01*
X145298095Y-66127142D01*
X145250476Y-66174761D01*
X145155238Y-66222380D01*
X144869523Y-66222380D01*
X144774285Y-66174761D01*
X144726666Y-66127142D01*
%TO.C,D4*%
X143821904Y-70222380D02*
X143821904Y-69222380D01*
X144060000Y-69222380D01*
X144202857Y-69270000D01*
X144298095Y-69365238D01*
X144345714Y-69460476D01*
X144393333Y-69650952D01*
X144393333Y-69793809D01*
X144345714Y-69984285D01*
X144298095Y-70079523D01*
X144202857Y-70174761D01*
X144060000Y-70222380D01*
X143821904Y-70222380D01*
X145250476Y-69555714D02*
X145250476Y-70222380D01*
X145012380Y-69174761D02*
X144774285Y-69889047D01*
X145393333Y-69889047D01*
%TO.C,D5*%
X143821904Y-74222380D02*
X143821904Y-73222380D01*
X144060000Y-73222380D01*
X144202857Y-73270000D01*
X144298095Y-73365238D01*
X144345714Y-73460476D01*
X144393333Y-73650952D01*
X144393333Y-73793809D01*
X144345714Y-73984285D01*
X144298095Y-74079523D01*
X144202857Y-74174761D01*
X144060000Y-74222380D01*
X143821904Y-74222380D01*
X145298095Y-73222380D02*
X144821904Y-73222380D01*
X144774285Y-73698571D01*
X144821904Y-73650952D01*
X144917142Y-73603333D01*
X145155238Y-73603333D01*
X145250476Y-73650952D01*
X145298095Y-73698571D01*
X145345714Y-73793809D01*
X145345714Y-74031904D01*
X145298095Y-74127142D01*
X145250476Y-74174761D01*
X145155238Y-74222380D01*
X144917142Y-74222380D01*
X144821904Y-74174761D01*
X144774285Y-74127142D01*
%TO.C,D6*%
X143821904Y-78222380D02*
X143821904Y-77222380D01*
X144060000Y-77222380D01*
X144202857Y-77270000D01*
X144298095Y-77365238D01*
X144345714Y-77460476D01*
X144393333Y-77650952D01*
X144393333Y-77793809D01*
X144345714Y-77984285D01*
X144298095Y-78079523D01*
X144202857Y-78174761D01*
X144060000Y-78222380D01*
X143821904Y-78222380D01*
X145250476Y-77222380D02*
X145060000Y-77222380D01*
X144964761Y-77270000D01*
X144917142Y-77317619D01*
X144821904Y-77460476D01*
X144774285Y-77650952D01*
X144774285Y-78031904D01*
X144821904Y-78127142D01*
X144869523Y-78174761D01*
X144964761Y-78222380D01*
X145155238Y-78222380D01*
X145250476Y-78174761D01*
X145298095Y-78127142D01*
X145345714Y-78031904D01*
X145345714Y-77793809D01*
X145298095Y-77698571D01*
X145250476Y-77650952D01*
X145155238Y-77603333D01*
X144964761Y-77603333D01*
X144869523Y-77650952D01*
X144821904Y-77698571D01*
X144774285Y-77793809D01*
%TO.C,D7*%
X143821904Y-82222380D02*
X143821904Y-81222380D01*
X144060000Y-81222380D01*
X144202857Y-81270000D01*
X144298095Y-81365238D01*
X144345714Y-81460476D01*
X144393333Y-81650952D01*
X144393333Y-81793809D01*
X144345714Y-81984285D01*
X144298095Y-82079523D01*
X144202857Y-82174761D01*
X144060000Y-82222380D01*
X143821904Y-82222380D01*
X144726666Y-81222380D02*
X145393333Y-81222380D01*
X144964761Y-82222380D01*
%TO.C,J1*%
X96598208Y-54568386D02*
X96093132Y-55073462D01*
X95958445Y-55140806D01*
X95823758Y-55140806D01*
X95689071Y-55073462D01*
X95621728Y-55006119D01*
X96598208Y-55982600D02*
X96194147Y-55578539D01*
X96396178Y-55780569D02*
X97103285Y-55073462D01*
X96934926Y-55107134D01*
X96800239Y-55107134D01*
X96699224Y-55073462D01*
%TO.C,J2*%
X146042380Y-111163333D02*
X146756666Y-111163333D01*
X146899523Y-111210952D01*
X146994761Y-111306190D01*
X147042380Y-111449047D01*
X147042380Y-111544285D01*
X146137619Y-110734761D02*
X146090000Y-110687142D01*
X146042380Y-110591904D01*
X146042380Y-110353809D01*
X146090000Y-110258571D01*
X146137619Y-110210952D01*
X146232857Y-110163333D01*
X146328095Y-110163333D01*
X146470952Y-110210952D01*
X147042380Y-110782380D01*
X147042380Y-110163333D01*
%TO.C,Q1*%
X90249619Y-103854238D02*
X90202000Y-103949476D01*
X90106761Y-104044714D01*
X89963904Y-104187571D01*
X89916285Y-104282809D01*
X89916285Y-104378047D01*
X90154380Y-104330428D02*
X90106761Y-104425666D01*
X90011523Y-104520904D01*
X89821047Y-104568523D01*
X89487714Y-104568523D01*
X89297238Y-104520904D01*
X89202000Y-104425666D01*
X89154380Y-104330428D01*
X89154380Y-104139952D01*
X89202000Y-104044714D01*
X89297238Y-103949476D01*
X89487714Y-103901857D01*
X89821047Y-103901857D01*
X90011523Y-103949476D01*
X90106761Y-104044714D01*
X90154380Y-104139952D01*
X90154380Y-104330428D01*
X90154380Y-102949476D02*
X90154380Y-103520904D01*
X90154380Y-103235190D02*
X89154380Y-103235190D01*
X89297238Y-103330428D01*
X89392476Y-103425666D01*
X89440095Y-103520904D01*
%TO.C,R1*%
X97101333Y-112423180D02*
X96768000Y-111946990D01*
X96529904Y-112423180D02*
X96529904Y-111423180D01*
X96910857Y-111423180D01*
X97006095Y-111470800D01*
X97053714Y-111518419D01*
X97101333Y-111613657D01*
X97101333Y-111756514D01*
X97053714Y-111851752D01*
X97006095Y-111899371D01*
X96910857Y-111946990D01*
X96529904Y-111946990D01*
X98053714Y-112423180D02*
X97482285Y-112423180D01*
X97768000Y-112423180D02*
X97768000Y-111423180D01*
X97672761Y-111566038D01*
X97577523Y-111661276D01*
X97482285Y-111708895D01*
%TO.C,R3*%
X108025030Y-83368732D02*
X107452610Y-83267717D01*
X107620969Y-83772793D02*
X106913862Y-83065687D01*
X107183236Y-82796312D01*
X107284251Y-82762641D01*
X107351595Y-82762641D01*
X107452610Y-82796312D01*
X107553625Y-82897328D01*
X107587297Y-82998343D01*
X107587297Y-83065687D01*
X107553625Y-83166702D01*
X107284251Y-83436076D01*
X107553625Y-82425923D02*
X107991358Y-81988190D01*
X108025030Y-82493267D01*
X108126045Y-82392251D01*
X108227061Y-82358580D01*
X108294404Y-82358580D01*
X108395419Y-82392251D01*
X108563778Y-82560610D01*
X108597450Y-82661625D01*
X108597450Y-82728969D01*
X108563778Y-82829984D01*
X108361748Y-83032015D01*
X108260732Y-83065687D01*
X108193389Y-83065687D01*
%TO.C,R4*%
X139393333Y-58222380D02*
X139060000Y-57746190D01*
X138821904Y-58222380D02*
X138821904Y-57222380D01*
X139202857Y-57222380D01*
X139298095Y-57270000D01*
X139345714Y-57317619D01*
X139393333Y-57412857D01*
X139393333Y-57555714D01*
X139345714Y-57650952D01*
X139298095Y-57698571D01*
X139202857Y-57746190D01*
X138821904Y-57746190D01*
X140250476Y-57555714D02*
X140250476Y-58222380D01*
X140012380Y-57174761D02*
X139774285Y-57889047D01*
X140393333Y-57889047D01*
%TO.C,R5*%
X139393333Y-62222380D02*
X139060000Y-61746190D01*
X138821904Y-62222380D02*
X138821904Y-61222380D01*
X139202857Y-61222380D01*
X139298095Y-61270000D01*
X139345714Y-61317619D01*
X139393333Y-61412857D01*
X139393333Y-61555714D01*
X139345714Y-61650952D01*
X139298095Y-61698571D01*
X139202857Y-61746190D01*
X138821904Y-61746190D01*
X140298095Y-61222380D02*
X139821904Y-61222380D01*
X139774285Y-61698571D01*
X139821904Y-61650952D01*
X139917142Y-61603333D01*
X140155238Y-61603333D01*
X140250476Y-61650952D01*
X140298095Y-61698571D01*
X140345714Y-61793809D01*
X140345714Y-62031904D01*
X140298095Y-62127142D01*
X140250476Y-62174761D01*
X140155238Y-62222380D01*
X139917142Y-62222380D01*
X139821904Y-62174761D01*
X139774285Y-62127142D01*
%TO.C,R6*%
X139393333Y-66222380D02*
X139060000Y-65746190D01*
X138821904Y-66222380D02*
X138821904Y-65222380D01*
X139202857Y-65222380D01*
X139298095Y-65270000D01*
X139345714Y-65317619D01*
X139393333Y-65412857D01*
X139393333Y-65555714D01*
X139345714Y-65650952D01*
X139298095Y-65698571D01*
X139202857Y-65746190D01*
X138821904Y-65746190D01*
X140250476Y-65222380D02*
X140060000Y-65222380D01*
X139964761Y-65270000D01*
X139917142Y-65317619D01*
X139821904Y-65460476D01*
X139774285Y-65650952D01*
X139774285Y-66031904D01*
X139821904Y-66127142D01*
X139869523Y-66174761D01*
X139964761Y-66222380D01*
X140155238Y-66222380D01*
X140250476Y-66174761D01*
X140298095Y-66127142D01*
X140345714Y-66031904D01*
X140345714Y-65793809D01*
X140298095Y-65698571D01*
X140250476Y-65650952D01*
X140155238Y-65603333D01*
X139964761Y-65603333D01*
X139869523Y-65650952D01*
X139821904Y-65698571D01*
X139774285Y-65793809D01*
%TO.C,R7*%
X139393333Y-70222380D02*
X139060000Y-69746190D01*
X138821904Y-70222380D02*
X138821904Y-69222380D01*
X139202857Y-69222380D01*
X139298095Y-69270000D01*
X139345714Y-69317619D01*
X139393333Y-69412857D01*
X139393333Y-69555714D01*
X139345714Y-69650952D01*
X139298095Y-69698571D01*
X139202857Y-69746190D01*
X138821904Y-69746190D01*
X139726666Y-69222380D02*
X140393333Y-69222380D01*
X139964761Y-70222380D01*
%TO.C,R8*%
X139393333Y-74222380D02*
X139060000Y-73746190D01*
X138821904Y-74222380D02*
X138821904Y-73222380D01*
X139202857Y-73222380D01*
X139298095Y-73270000D01*
X139345714Y-73317619D01*
X139393333Y-73412857D01*
X139393333Y-73555714D01*
X139345714Y-73650952D01*
X139298095Y-73698571D01*
X139202857Y-73746190D01*
X138821904Y-73746190D01*
X139964761Y-73650952D02*
X139869523Y-73603333D01*
X139821904Y-73555714D01*
X139774285Y-73460476D01*
X139774285Y-73412857D01*
X139821904Y-73317619D01*
X139869523Y-73270000D01*
X139964761Y-73222380D01*
X140155238Y-73222380D01*
X140250476Y-73270000D01*
X140298095Y-73317619D01*
X140345714Y-73412857D01*
X140345714Y-73460476D01*
X140298095Y-73555714D01*
X140250476Y-73603333D01*
X140155238Y-73650952D01*
X139964761Y-73650952D01*
X139869523Y-73698571D01*
X139821904Y-73746190D01*
X139774285Y-73841428D01*
X139774285Y-74031904D01*
X139821904Y-74127142D01*
X139869523Y-74174761D01*
X139964761Y-74222380D01*
X140155238Y-74222380D01*
X140250476Y-74174761D01*
X140298095Y-74127142D01*
X140345714Y-74031904D01*
X140345714Y-73841428D01*
X140298095Y-73746190D01*
X140250476Y-73698571D01*
X140155238Y-73650952D01*
%TO.C,R9*%
X139393333Y-78222380D02*
X139060000Y-77746190D01*
X138821904Y-78222380D02*
X138821904Y-77222380D01*
X139202857Y-77222380D01*
X139298095Y-77270000D01*
X139345714Y-77317619D01*
X139393333Y-77412857D01*
X139393333Y-77555714D01*
X139345714Y-77650952D01*
X139298095Y-77698571D01*
X139202857Y-77746190D01*
X138821904Y-77746190D01*
X139869523Y-78222380D02*
X140060000Y-78222380D01*
X140155238Y-78174761D01*
X140202857Y-78127142D01*
X140298095Y-77984285D01*
X140345714Y-77793809D01*
X140345714Y-77412857D01*
X140298095Y-77317619D01*
X140250476Y-77270000D01*
X140155238Y-77222380D01*
X139964761Y-77222380D01*
X139869523Y-77270000D01*
X139821904Y-77317619D01*
X139774285Y-77412857D01*
X139774285Y-77650952D01*
X139821904Y-77746190D01*
X139869523Y-77793809D01*
X139964761Y-77841428D01*
X140155238Y-77841428D01*
X140250476Y-77793809D01*
X140298095Y-77746190D01*
X140345714Y-77650952D01*
%TO.C,R10*%
X138917142Y-82222380D02*
X138583809Y-81746190D01*
X138345714Y-82222380D02*
X138345714Y-81222380D01*
X138726666Y-81222380D01*
X138821904Y-81270000D01*
X138869523Y-81317619D01*
X138917142Y-81412857D01*
X138917142Y-81555714D01*
X138869523Y-81650952D01*
X138821904Y-81698571D01*
X138726666Y-81746190D01*
X138345714Y-81746190D01*
X139869523Y-82222380D02*
X139298095Y-82222380D01*
X139583809Y-82222380D02*
X139583809Y-81222380D01*
X139488571Y-81365238D01*
X139393333Y-81460476D01*
X139298095Y-81508095D01*
X140488571Y-81222380D02*
X140583809Y-81222380D01*
X140679047Y-81270000D01*
X140726666Y-81317619D01*
X140774285Y-81412857D01*
X140821904Y-81603333D01*
X140821904Y-81841428D01*
X140774285Y-82031904D01*
X140726666Y-82127142D01*
X140679047Y-82174761D01*
X140583809Y-82222380D01*
X140488571Y-82222380D01*
X140393333Y-82174761D01*
X140345714Y-82127142D01*
X140298095Y-82031904D01*
X140250476Y-81841428D01*
X140250476Y-81603333D01*
X140298095Y-81412857D01*
X140345714Y-81317619D01*
X140393333Y-81270000D01*
X140488571Y-81222380D01*
%TO.C,R11*%
X85542380Y-106306857D02*
X85066190Y-106640190D01*
X85542380Y-106878285D02*
X84542380Y-106878285D01*
X84542380Y-106497333D01*
X84590000Y-106402095D01*
X84637619Y-106354476D01*
X84732857Y-106306857D01*
X84875714Y-106306857D01*
X84970952Y-106354476D01*
X85018571Y-106402095D01*
X85066190Y-106497333D01*
X85066190Y-106878285D01*
X85542380Y-105354476D02*
X85542380Y-105925904D01*
X85542380Y-105640190D02*
X84542380Y-105640190D01*
X84685238Y-105735428D01*
X84780476Y-105830666D01*
X84828095Y-105925904D01*
X85542380Y-104402095D02*
X85542380Y-104973523D01*
X85542380Y-104687809D02*
X84542380Y-104687809D01*
X84685238Y-104783047D01*
X84780476Y-104878285D01*
X84828095Y-104973523D01*
%TO.C,SW1*%
X118150666Y-53364761D02*
X118293523Y-53412380D01*
X118531619Y-53412380D01*
X118626857Y-53364761D01*
X118674476Y-53317142D01*
X118722095Y-53221904D01*
X118722095Y-53126666D01*
X118674476Y-53031428D01*
X118626857Y-52983809D01*
X118531619Y-52936190D01*
X118341142Y-52888571D01*
X118245904Y-52840952D01*
X118198285Y-52793333D01*
X118150666Y-52698095D01*
X118150666Y-52602857D01*
X118198285Y-52507619D01*
X118245904Y-52460000D01*
X118341142Y-52412380D01*
X118579238Y-52412380D01*
X118722095Y-52460000D01*
X119055428Y-52412380D02*
X119293523Y-53412380D01*
X119484000Y-52698095D01*
X119674476Y-53412380D01*
X119912571Y-52412380D01*
X120817333Y-53412380D02*
X120245904Y-53412380D01*
X120531619Y-53412380D02*
X120531619Y-52412380D01*
X120436380Y-52555238D01*
X120341142Y-52650476D01*
X120245904Y-52698095D01*
%TO.C,SW2*%
X128023666Y-53591761D02*
X128166523Y-53639380D01*
X128404619Y-53639380D01*
X128499857Y-53591761D01*
X128547476Y-53544142D01*
X128595095Y-53448904D01*
X128595095Y-53353666D01*
X128547476Y-53258428D01*
X128499857Y-53210809D01*
X128404619Y-53163190D01*
X128214142Y-53115571D01*
X128118904Y-53067952D01*
X128071285Y-53020333D01*
X128023666Y-52925095D01*
X128023666Y-52829857D01*
X128071285Y-52734619D01*
X128118904Y-52687000D01*
X128214142Y-52639380D01*
X128452238Y-52639380D01*
X128595095Y-52687000D01*
X128928428Y-52639380D02*
X129166523Y-53639380D01*
X129357000Y-52925095D01*
X129547476Y-53639380D01*
X129785571Y-52639380D01*
X130118904Y-52734619D02*
X130166523Y-52687000D01*
X130261761Y-52639380D01*
X130499857Y-52639380D01*
X130595095Y-52687000D01*
X130642714Y-52734619D01*
X130690333Y-52829857D01*
X130690333Y-52925095D01*
X130642714Y-53067952D01*
X130071285Y-53639380D01*
X130690333Y-53639380D01*
%TO.C,SW3*%
X98616666Y-57994761D02*
X98759523Y-58042380D01*
X98997619Y-58042380D01*
X99092857Y-57994761D01*
X99140476Y-57947142D01*
X99188095Y-57851904D01*
X99188095Y-57756666D01*
X99140476Y-57661428D01*
X99092857Y-57613809D01*
X98997619Y-57566190D01*
X98807142Y-57518571D01*
X98711904Y-57470952D01*
X98664285Y-57423333D01*
X98616666Y-57328095D01*
X98616666Y-57232857D01*
X98664285Y-57137619D01*
X98711904Y-57090000D01*
X98807142Y-57042380D01*
X99045238Y-57042380D01*
X99188095Y-57090000D01*
X99521428Y-57042380D02*
X99759523Y-58042380D01*
X99950000Y-57328095D01*
X100140476Y-58042380D01*
X100378571Y-57042380D01*
X100664285Y-57042380D02*
X101283333Y-57042380D01*
X100950000Y-57423333D01*
X101092857Y-57423333D01*
X101188095Y-57470952D01*
X101235714Y-57518571D01*
X101283333Y-57613809D01*
X101283333Y-57851904D01*
X101235714Y-57947142D01*
X101188095Y-57994761D01*
X101092857Y-58042380D01*
X100807142Y-58042380D01*
X100711904Y-57994761D01*
X100664285Y-57947142D01*
%TO.C,U1*%
X117262380Y-69171904D02*
X118071904Y-69171904D01*
X118167142Y-69124285D01*
X118214761Y-69076666D01*
X118262380Y-68981428D01*
X118262380Y-68790952D01*
X118214761Y-68695714D01*
X118167142Y-68648095D01*
X118071904Y-68600476D01*
X117262380Y-68600476D01*
X118262380Y-67600476D02*
X118262380Y-68171904D01*
X118262380Y-67886190D02*
X117262380Y-67886190D01*
X117405238Y-67981428D01*
X117500476Y-68076666D01*
X117548095Y-68171904D01*
%TO.C,U2*%
X127262380Y-69171904D02*
X128071904Y-69171904D01*
X128167142Y-69124285D01*
X128214761Y-69076666D01*
X128262380Y-68981428D01*
X128262380Y-68790952D01*
X128214761Y-68695714D01*
X128167142Y-68648095D01*
X128071904Y-68600476D01*
X127262380Y-68600476D01*
X127357619Y-68171904D02*
X127310000Y-68124285D01*
X127262380Y-68029047D01*
X127262380Y-67790952D01*
X127310000Y-67695714D01*
X127357619Y-67648095D01*
X127452857Y-67600476D01*
X127548095Y-67600476D01*
X127690952Y-67648095D01*
X128262380Y-68219523D01*
X128262380Y-67600476D01*
%TO.C,U3*%
X90238095Y-106122380D02*
X90238095Y-106931904D01*
X90285714Y-107027142D01*
X90333333Y-107074761D01*
X90428571Y-107122380D01*
X90619047Y-107122380D01*
X90714285Y-107074761D01*
X90761904Y-107027142D01*
X90809523Y-106931904D01*
X90809523Y-106122380D01*
X91190476Y-106122380D02*
X91809523Y-106122380D01*
X91476190Y-106503333D01*
X91619047Y-106503333D01*
X91714285Y-106550952D01*
X91761904Y-106598571D01*
X91809523Y-106693809D01*
X91809523Y-106931904D01*
X91761904Y-107027142D01*
X91714285Y-107074761D01*
X91619047Y-107122380D01*
X91333333Y-107122380D01*
X91238095Y-107074761D01*
X91190476Y-107027142D01*
%TO.C,U4*%
X96520095Y-101974380D02*
X96520095Y-102783904D01*
X96567714Y-102879142D01*
X96615333Y-102926761D01*
X96710571Y-102974380D01*
X96901047Y-102974380D01*
X96996285Y-102926761D01*
X97043904Y-102879142D01*
X97091523Y-102783904D01*
X97091523Y-101974380D01*
X97996285Y-102307714D02*
X97996285Y-102974380D01*
X97758190Y-101926761D02*
X97520095Y-102641047D01*
X98139142Y-102641047D01*
%TO.C,U5*%
X118749265Y-84033238D02*
X118176845Y-84605658D01*
X118143173Y-84706673D01*
X118143173Y-84774017D01*
X118176845Y-84875032D01*
X118311532Y-85009719D01*
X118412547Y-85043391D01*
X118479891Y-85043391D01*
X118580906Y-85009719D01*
X119153326Y-84437299D01*
X119826761Y-85110734D02*
X119490043Y-84774017D01*
X119119654Y-85077063D01*
X119186997Y-85077063D01*
X119288013Y-85110734D01*
X119456371Y-85279093D01*
X119490043Y-85380108D01*
X119490043Y-85447452D01*
X119456371Y-85548467D01*
X119288013Y-85716826D01*
X119186997Y-85750498D01*
X119119654Y-85750498D01*
X119018639Y-85716826D01*
X118850280Y-85548467D01*
X118816608Y-85447452D01*
X118816608Y-85380108D01*
%TD*%
M02*
