%TF.GenerationSoftware,KiCad,Pcbnew,(5.1.4)-1*%
%TF.CreationDate,2020-10-28T09:08:47+02:00*%
%TF.ProjectId,Borta Dators,426f7274-6120-4446-9174-6f72732e6b69,rev?*%
%TF.SameCoordinates,Original*%
%TF.FileFunction,Paste,Top*%
%TF.FilePolarity,Positive*%
%FSLAX46Y46*%
G04 Gerber Fmt 4.6, Leading zero omitted, Abs format (unit mm)*
G04 Created by KiCad (PCBNEW (5.1.4)-1) date 2020-10-28 09:08:47*
%MOMM*%
%LPD*%
G04 APERTURE LIST*
%ADD10C,0.100000*%
%ADD11C,0.950000*%
%ADD12R,1.100000X0.750000*%
%ADD13R,1.100000X0.850000*%
%ADD14R,1.800000X1.170000*%
%ADD15R,1.350000X1.550000*%
%ADD16R,1.350000X1.900000*%
%ADD17R,0.800000X0.900000*%
%ADD18R,0.400000X1.500000*%
%ADD19R,1.560000X0.650000*%
%ADD20C,0.200000*%
%ADD21C,0.500000*%
G04 APERTURE END LIST*
D10*
%TO.C,C1*%
G36*
X86874779Y-109825144D02*
G01*
X86897834Y-109828563D01*
X86920443Y-109834227D01*
X86942387Y-109842079D01*
X86963457Y-109852044D01*
X86983448Y-109864026D01*
X87002168Y-109877910D01*
X87019438Y-109893562D01*
X87035090Y-109910832D01*
X87048974Y-109929552D01*
X87060956Y-109949543D01*
X87070921Y-109970613D01*
X87078773Y-109992557D01*
X87084437Y-110015166D01*
X87087856Y-110038221D01*
X87089000Y-110061500D01*
X87089000Y-110636500D01*
X87087856Y-110659779D01*
X87084437Y-110682834D01*
X87078773Y-110705443D01*
X87070921Y-110727387D01*
X87060956Y-110748457D01*
X87048974Y-110768448D01*
X87035090Y-110787168D01*
X87019438Y-110804438D01*
X87002168Y-110820090D01*
X86983448Y-110833974D01*
X86963457Y-110845956D01*
X86942387Y-110855921D01*
X86920443Y-110863773D01*
X86897834Y-110869437D01*
X86874779Y-110872856D01*
X86851500Y-110874000D01*
X86376500Y-110874000D01*
X86353221Y-110872856D01*
X86330166Y-110869437D01*
X86307557Y-110863773D01*
X86285613Y-110855921D01*
X86264543Y-110845956D01*
X86244552Y-110833974D01*
X86225832Y-110820090D01*
X86208562Y-110804438D01*
X86192910Y-110787168D01*
X86179026Y-110768448D01*
X86167044Y-110748457D01*
X86157079Y-110727387D01*
X86149227Y-110705443D01*
X86143563Y-110682834D01*
X86140144Y-110659779D01*
X86139000Y-110636500D01*
X86139000Y-110061500D01*
X86140144Y-110038221D01*
X86143563Y-110015166D01*
X86149227Y-109992557D01*
X86157079Y-109970613D01*
X86167044Y-109949543D01*
X86179026Y-109929552D01*
X86192910Y-109910832D01*
X86208562Y-109893562D01*
X86225832Y-109877910D01*
X86244552Y-109864026D01*
X86264543Y-109852044D01*
X86285613Y-109842079D01*
X86307557Y-109834227D01*
X86330166Y-109828563D01*
X86353221Y-109825144D01*
X86376500Y-109824000D01*
X86851500Y-109824000D01*
X86874779Y-109825144D01*
X86874779Y-109825144D01*
G37*
D11*
X86614000Y-110349000D03*
D10*
G36*
X86874779Y-108075144D02*
G01*
X86897834Y-108078563D01*
X86920443Y-108084227D01*
X86942387Y-108092079D01*
X86963457Y-108102044D01*
X86983448Y-108114026D01*
X87002168Y-108127910D01*
X87019438Y-108143562D01*
X87035090Y-108160832D01*
X87048974Y-108179552D01*
X87060956Y-108199543D01*
X87070921Y-108220613D01*
X87078773Y-108242557D01*
X87084437Y-108265166D01*
X87087856Y-108288221D01*
X87089000Y-108311500D01*
X87089000Y-108886500D01*
X87087856Y-108909779D01*
X87084437Y-108932834D01*
X87078773Y-108955443D01*
X87070921Y-108977387D01*
X87060956Y-108998457D01*
X87048974Y-109018448D01*
X87035090Y-109037168D01*
X87019438Y-109054438D01*
X87002168Y-109070090D01*
X86983448Y-109083974D01*
X86963457Y-109095956D01*
X86942387Y-109105921D01*
X86920443Y-109113773D01*
X86897834Y-109119437D01*
X86874779Y-109122856D01*
X86851500Y-109124000D01*
X86376500Y-109124000D01*
X86353221Y-109122856D01*
X86330166Y-109119437D01*
X86307557Y-109113773D01*
X86285613Y-109105921D01*
X86264543Y-109095956D01*
X86244552Y-109083974D01*
X86225832Y-109070090D01*
X86208562Y-109054438D01*
X86192910Y-109037168D01*
X86179026Y-109018448D01*
X86167044Y-108998457D01*
X86157079Y-108977387D01*
X86149227Y-108955443D01*
X86143563Y-108932834D01*
X86140144Y-108909779D01*
X86139000Y-108886500D01*
X86139000Y-108311500D01*
X86140144Y-108288221D01*
X86143563Y-108265166D01*
X86149227Y-108242557D01*
X86157079Y-108220613D01*
X86167044Y-108199543D01*
X86179026Y-108179552D01*
X86192910Y-108160832D01*
X86208562Y-108143562D01*
X86225832Y-108127910D01*
X86244552Y-108114026D01*
X86264543Y-108102044D01*
X86285613Y-108092079D01*
X86307557Y-108084227D01*
X86330166Y-108078563D01*
X86353221Y-108075144D01*
X86376500Y-108074000D01*
X86851500Y-108074000D01*
X86874779Y-108075144D01*
X86874779Y-108075144D01*
G37*
D11*
X86614000Y-108599000D03*
%TD*%
D10*
%TO.C,C2*%
G36*
X109184198Y-78878131D02*
G01*
X109207253Y-78881550D01*
X109229862Y-78887214D01*
X109251806Y-78895066D01*
X109272876Y-78905031D01*
X109292867Y-78917013D01*
X109311587Y-78930897D01*
X109328857Y-78946549D01*
X109664733Y-79282425D01*
X109680385Y-79299695D01*
X109694269Y-79318415D01*
X109706251Y-79338406D01*
X109716216Y-79359476D01*
X109724068Y-79381420D01*
X109729732Y-79404029D01*
X109733151Y-79427084D01*
X109734295Y-79450363D01*
X109733151Y-79473642D01*
X109729732Y-79496697D01*
X109724068Y-79519306D01*
X109716216Y-79541250D01*
X109706251Y-79562320D01*
X109694269Y-79582311D01*
X109680385Y-79601031D01*
X109664733Y-79618301D01*
X109258147Y-80024887D01*
X109240877Y-80040539D01*
X109222157Y-80054423D01*
X109202166Y-80066405D01*
X109181096Y-80076370D01*
X109159152Y-80084222D01*
X109136543Y-80089886D01*
X109113488Y-80093305D01*
X109090209Y-80094449D01*
X109066930Y-80093305D01*
X109043875Y-80089886D01*
X109021266Y-80084222D01*
X108999322Y-80076370D01*
X108978252Y-80066405D01*
X108958261Y-80054423D01*
X108939541Y-80040539D01*
X108922271Y-80024887D01*
X108586395Y-79689011D01*
X108570743Y-79671741D01*
X108556859Y-79653021D01*
X108544877Y-79633030D01*
X108534912Y-79611960D01*
X108527060Y-79590016D01*
X108521396Y-79567407D01*
X108517977Y-79544352D01*
X108516833Y-79521073D01*
X108517977Y-79497794D01*
X108521396Y-79474739D01*
X108527060Y-79452130D01*
X108534912Y-79430186D01*
X108544877Y-79409116D01*
X108556859Y-79389125D01*
X108570743Y-79370405D01*
X108586395Y-79353135D01*
X108992981Y-78946549D01*
X109010251Y-78930897D01*
X109028971Y-78917013D01*
X109048962Y-78905031D01*
X109070032Y-78895066D01*
X109091976Y-78887214D01*
X109114585Y-78881550D01*
X109137640Y-78878131D01*
X109160919Y-78876987D01*
X109184198Y-78878131D01*
X109184198Y-78878131D01*
G37*
D11*
X109125564Y-79485718D03*
D10*
G36*
X110421634Y-77640695D02*
G01*
X110444689Y-77644114D01*
X110467298Y-77649778D01*
X110489242Y-77657630D01*
X110510312Y-77667595D01*
X110530303Y-77679577D01*
X110549023Y-77693461D01*
X110566293Y-77709113D01*
X110902169Y-78044989D01*
X110917821Y-78062259D01*
X110931705Y-78080979D01*
X110943687Y-78100970D01*
X110953652Y-78122040D01*
X110961504Y-78143984D01*
X110967168Y-78166593D01*
X110970587Y-78189648D01*
X110971731Y-78212927D01*
X110970587Y-78236206D01*
X110967168Y-78259261D01*
X110961504Y-78281870D01*
X110953652Y-78303814D01*
X110943687Y-78324884D01*
X110931705Y-78344875D01*
X110917821Y-78363595D01*
X110902169Y-78380865D01*
X110495583Y-78787451D01*
X110478313Y-78803103D01*
X110459593Y-78816987D01*
X110439602Y-78828969D01*
X110418532Y-78838934D01*
X110396588Y-78846786D01*
X110373979Y-78852450D01*
X110350924Y-78855869D01*
X110327645Y-78857013D01*
X110304366Y-78855869D01*
X110281311Y-78852450D01*
X110258702Y-78846786D01*
X110236758Y-78838934D01*
X110215688Y-78828969D01*
X110195697Y-78816987D01*
X110176977Y-78803103D01*
X110159707Y-78787451D01*
X109823831Y-78451575D01*
X109808179Y-78434305D01*
X109794295Y-78415585D01*
X109782313Y-78395594D01*
X109772348Y-78374524D01*
X109764496Y-78352580D01*
X109758832Y-78329971D01*
X109755413Y-78306916D01*
X109754269Y-78283637D01*
X109755413Y-78260358D01*
X109758832Y-78237303D01*
X109764496Y-78214694D01*
X109772348Y-78192750D01*
X109782313Y-78171680D01*
X109794295Y-78151689D01*
X109808179Y-78132969D01*
X109823831Y-78115699D01*
X110230417Y-77709113D01*
X110247687Y-77693461D01*
X110266407Y-77679577D01*
X110286398Y-77667595D01*
X110307468Y-77657630D01*
X110329412Y-77649778D01*
X110352021Y-77644114D01*
X110375076Y-77640695D01*
X110398355Y-77639551D01*
X110421634Y-77640695D01*
X110421634Y-77640695D01*
G37*
D11*
X110363000Y-78248282D03*
%TD*%
D10*
%TO.C,C3*%
G36*
X111199916Y-80910131D02*
G01*
X111222971Y-80913550D01*
X111245580Y-80919214D01*
X111267524Y-80927066D01*
X111288594Y-80937031D01*
X111308585Y-80949013D01*
X111327305Y-80962897D01*
X111344575Y-80978549D01*
X111680451Y-81314425D01*
X111696103Y-81331695D01*
X111709987Y-81350415D01*
X111721969Y-81370406D01*
X111731934Y-81391476D01*
X111739786Y-81413420D01*
X111745450Y-81436029D01*
X111748869Y-81459084D01*
X111750013Y-81482363D01*
X111748869Y-81505642D01*
X111745450Y-81528697D01*
X111739786Y-81551306D01*
X111731934Y-81573250D01*
X111721969Y-81594320D01*
X111709987Y-81614311D01*
X111696103Y-81633031D01*
X111680451Y-81650301D01*
X111273865Y-82056887D01*
X111256595Y-82072539D01*
X111237875Y-82086423D01*
X111217884Y-82098405D01*
X111196814Y-82108370D01*
X111174870Y-82116222D01*
X111152261Y-82121886D01*
X111129206Y-82125305D01*
X111105927Y-82126449D01*
X111082648Y-82125305D01*
X111059593Y-82121886D01*
X111036984Y-82116222D01*
X111015040Y-82108370D01*
X110993970Y-82098405D01*
X110973979Y-82086423D01*
X110955259Y-82072539D01*
X110937989Y-82056887D01*
X110602113Y-81721011D01*
X110586461Y-81703741D01*
X110572577Y-81685021D01*
X110560595Y-81665030D01*
X110550630Y-81643960D01*
X110542778Y-81622016D01*
X110537114Y-81599407D01*
X110533695Y-81576352D01*
X110532551Y-81553073D01*
X110533695Y-81529794D01*
X110537114Y-81506739D01*
X110542778Y-81484130D01*
X110550630Y-81462186D01*
X110560595Y-81441116D01*
X110572577Y-81421125D01*
X110586461Y-81402405D01*
X110602113Y-81385135D01*
X111008699Y-80978549D01*
X111025969Y-80962897D01*
X111044689Y-80949013D01*
X111064680Y-80937031D01*
X111085750Y-80927066D01*
X111107694Y-80919214D01*
X111130303Y-80913550D01*
X111153358Y-80910131D01*
X111176637Y-80908987D01*
X111199916Y-80910131D01*
X111199916Y-80910131D01*
G37*
D11*
X111141282Y-81517718D03*
D10*
G36*
X112437352Y-79672695D02*
G01*
X112460407Y-79676114D01*
X112483016Y-79681778D01*
X112504960Y-79689630D01*
X112526030Y-79699595D01*
X112546021Y-79711577D01*
X112564741Y-79725461D01*
X112582011Y-79741113D01*
X112917887Y-80076989D01*
X112933539Y-80094259D01*
X112947423Y-80112979D01*
X112959405Y-80132970D01*
X112969370Y-80154040D01*
X112977222Y-80175984D01*
X112982886Y-80198593D01*
X112986305Y-80221648D01*
X112987449Y-80244927D01*
X112986305Y-80268206D01*
X112982886Y-80291261D01*
X112977222Y-80313870D01*
X112969370Y-80335814D01*
X112959405Y-80356884D01*
X112947423Y-80376875D01*
X112933539Y-80395595D01*
X112917887Y-80412865D01*
X112511301Y-80819451D01*
X112494031Y-80835103D01*
X112475311Y-80848987D01*
X112455320Y-80860969D01*
X112434250Y-80870934D01*
X112412306Y-80878786D01*
X112389697Y-80884450D01*
X112366642Y-80887869D01*
X112343363Y-80889013D01*
X112320084Y-80887869D01*
X112297029Y-80884450D01*
X112274420Y-80878786D01*
X112252476Y-80870934D01*
X112231406Y-80860969D01*
X112211415Y-80848987D01*
X112192695Y-80835103D01*
X112175425Y-80819451D01*
X111839549Y-80483575D01*
X111823897Y-80466305D01*
X111810013Y-80447585D01*
X111798031Y-80427594D01*
X111788066Y-80406524D01*
X111780214Y-80384580D01*
X111774550Y-80361971D01*
X111771131Y-80338916D01*
X111769987Y-80315637D01*
X111771131Y-80292358D01*
X111774550Y-80269303D01*
X111780214Y-80246694D01*
X111788066Y-80224750D01*
X111798031Y-80203680D01*
X111810013Y-80183689D01*
X111823897Y-80164969D01*
X111839549Y-80147699D01*
X112246135Y-79741113D01*
X112263405Y-79725461D01*
X112282125Y-79711577D01*
X112302116Y-79699595D01*
X112323186Y-79689630D01*
X112345130Y-79681778D01*
X112367739Y-79676114D01*
X112390794Y-79672695D01*
X112414073Y-79671551D01*
X112437352Y-79672695D01*
X112437352Y-79672695D01*
G37*
D11*
X112378718Y-80280282D03*
%TD*%
D10*
%TO.C,C4*%
G36*
X107484352Y-80672413D02*
G01*
X107507407Y-80675832D01*
X107530016Y-80681496D01*
X107551960Y-80689348D01*
X107573030Y-80699313D01*
X107593021Y-80711295D01*
X107611741Y-80725179D01*
X107629011Y-80740831D01*
X107964887Y-81076707D01*
X107980539Y-81093977D01*
X107994423Y-81112697D01*
X108006405Y-81132688D01*
X108016370Y-81153758D01*
X108024222Y-81175702D01*
X108029886Y-81198311D01*
X108033305Y-81221366D01*
X108034449Y-81244645D01*
X108033305Y-81267924D01*
X108029886Y-81290979D01*
X108024222Y-81313588D01*
X108016370Y-81335532D01*
X108006405Y-81356602D01*
X107994423Y-81376593D01*
X107980539Y-81395313D01*
X107964887Y-81412583D01*
X107558301Y-81819169D01*
X107541031Y-81834821D01*
X107522311Y-81848705D01*
X107502320Y-81860687D01*
X107481250Y-81870652D01*
X107459306Y-81878504D01*
X107436697Y-81884168D01*
X107413642Y-81887587D01*
X107390363Y-81888731D01*
X107367084Y-81887587D01*
X107344029Y-81884168D01*
X107321420Y-81878504D01*
X107299476Y-81870652D01*
X107278406Y-81860687D01*
X107258415Y-81848705D01*
X107239695Y-81834821D01*
X107222425Y-81819169D01*
X106886549Y-81483293D01*
X106870897Y-81466023D01*
X106857013Y-81447303D01*
X106845031Y-81427312D01*
X106835066Y-81406242D01*
X106827214Y-81384298D01*
X106821550Y-81361689D01*
X106818131Y-81338634D01*
X106816987Y-81315355D01*
X106818131Y-81292076D01*
X106821550Y-81269021D01*
X106827214Y-81246412D01*
X106835066Y-81224468D01*
X106845031Y-81203398D01*
X106857013Y-81183407D01*
X106870897Y-81164687D01*
X106886549Y-81147417D01*
X107293135Y-80740831D01*
X107310405Y-80725179D01*
X107329125Y-80711295D01*
X107349116Y-80699313D01*
X107370186Y-80689348D01*
X107392130Y-80681496D01*
X107414739Y-80675832D01*
X107437794Y-80672413D01*
X107461073Y-80671269D01*
X107484352Y-80672413D01*
X107484352Y-80672413D01*
G37*
D11*
X107425718Y-81280000D03*
D10*
G36*
X106246916Y-81909849D02*
G01*
X106269971Y-81913268D01*
X106292580Y-81918932D01*
X106314524Y-81926784D01*
X106335594Y-81936749D01*
X106355585Y-81948731D01*
X106374305Y-81962615D01*
X106391575Y-81978267D01*
X106727451Y-82314143D01*
X106743103Y-82331413D01*
X106756987Y-82350133D01*
X106768969Y-82370124D01*
X106778934Y-82391194D01*
X106786786Y-82413138D01*
X106792450Y-82435747D01*
X106795869Y-82458802D01*
X106797013Y-82482081D01*
X106795869Y-82505360D01*
X106792450Y-82528415D01*
X106786786Y-82551024D01*
X106778934Y-82572968D01*
X106768969Y-82594038D01*
X106756987Y-82614029D01*
X106743103Y-82632749D01*
X106727451Y-82650019D01*
X106320865Y-83056605D01*
X106303595Y-83072257D01*
X106284875Y-83086141D01*
X106264884Y-83098123D01*
X106243814Y-83108088D01*
X106221870Y-83115940D01*
X106199261Y-83121604D01*
X106176206Y-83125023D01*
X106152927Y-83126167D01*
X106129648Y-83125023D01*
X106106593Y-83121604D01*
X106083984Y-83115940D01*
X106062040Y-83108088D01*
X106040970Y-83098123D01*
X106020979Y-83086141D01*
X106002259Y-83072257D01*
X105984989Y-83056605D01*
X105649113Y-82720729D01*
X105633461Y-82703459D01*
X105619577Y-82684739D01*
X105607595Y-82664748D01*
X105597630Y-82643678D01*
X105589778Y-82621734D01*
X105584114Y-82599125D01*
X105580695Y-82576070D01*
X105579551Y-82552791D01*
X105580695Y-82529512D01*
X105584114Y-82506457D01*
X105589778Y-82483848D01*
X105597630Y-82461904D01*
X105607595Y-82440834D01*
X105619577Y-82420843D01*
X105633461Y-82402123D01*
X105649113Y-82384853D01*
X106055699Y-81978267D01*
X106072969Y-81962615D01*
X106091689Y-81948731D01*
X106111680Y-81936749D01*
X106132750Y-81926784D01*
X106154694Y-81918932D01*
X106177303Y-81913268D01*
X106200358Y-81909849D01*
X106223637Y-81908705D01*
X106246916Y-81909849D01*
X106246916Y-81909849D01*
G37*
D11*
X106188282Y-82517436D03*
%TD*%
D10*
%TO.C,D1*%
G36*
X143995779Y-55866144D02*
G01*
X144018834Y-55869563D01*
X144041443Y-55875227D01*
X144063387Y-55883079D01*
X144084457Y-55893044D01*
X144104448Y-55905026D01*
X144123168Y-55918910D01*
X144140438Y-55934562D01*
X144156090Y-55951832D01*
X144169974Y-55970552D01*
X144181956Y-55990543D01*
X144191921Y-56011613D01*
X144199773Y-56033557D01*
X144205437Y-56056166D01*
X144208856Y-56079221D01*
X144210000Y-56102500D01*
X144210000Y-56577500D01*
X144208856Y-56600779D01*
X144205437Y-56623834D01*
X144199773Y-56646443D01*
X144191921Y-56668387D01*
X144181956Y-56689457D01*
X144169974Y-56709448D01*
X144156090Y-56728168D01*
X144140438Y-56745438D01*
X144123168Y-56761090D01*
X144104448Y-56774974D01*
X144084457Y-56786956D01*
X144063387Y-56796921D01*
X144041443Y-56804773D01*
X144018834Y-56810437D01*
X143995779Y-56813856D01*
X143972500Y-56815000D01*
X143397500Y-56815000D01*
X143374221Y-56813856D01*
X143351166Y-56810437D01*
X143328557Y-56804773D01*
X143306613Y-56796921D01*
X143285543Y-56786956D01*
X143265552Y-56774974D01*
X143246832Y-56761090D01*
X143229562Y-56745438D01*
X143213910Y-56728168D01*
X143200026Y-56709448D01*
X143188044Y-56689457D01*
X143178079Y-56668387D01*
X143170227Y-56646443D01*
X143164563Y-56623834D01*
X143161144Y-56600779D01*
X143160000Y-56577500D01*
X143160000Y-56102500D01*
X143161144Y-56079221D01*
X143164563Y-56056166D01*
X143170227Y-56033557D01*
X143178079Y-56011613D01*
X143188044Y-55990543D01*
X143200026Y-55970552D01*
X143213910Y-55951832D01*
X143229562Y-55934562D01*
X143246832Y-55918910D01*
X143265552Y-55905026D01*
X143285543Y-55893044D01*
X143306613Y-55883079D01*
X143328557Y-55875227D01*
X143351166Y-55869563D01*
X143374221Y-55866144D01*
X143397500Y-55865000D01*
X143972500Y-55865000D01*
X143995779Y-55866144D01*
X143995779Y-55866144D01*
G37*
D11*
X143685000Y-56340000D03*
D10*
G36*
X145745779Y-55866144D02*
G01*
X145768834Y-55869563D01*
X145791443Y-55875227D01*
X145813387Y-55883079D01*
X145834457Y-55893044D01*
X145854448Y-55905026D01*
X145873168Y-55918910D01*
X145890438Y-55934562D01*
X145906090Y-55951832D01*
X145919974Y-55970552D01*
X145931956Y-55990543D01*
X145941921Y-56011613D01*
X145949773Y-56033557D01*
X145955437Y-56056166D01*
X145958856Y-56079221D01*
X145960000Y-56102500D01*
X145960000Y-56577500D01*
X145958856Y-56600779D01*
X145955437Y-56623834D01*
X145949773Y-56646443D01*
X145941921Y-56668387D01*
X145931956Y-56689457D01*
X145919974Y-56709448D01*
X145906090Y-56728168D01*
X145890438Y-56745438D01*
X145873168Y-56761090D01*
X145854448Y-56774974D01*
X145834457Y-56786956D01*
X145813387Y-56796921D01*
X145791443Y-56804773D01*
X145768834Y-56810437D01*
X145745779Y-56813856D01*
X145722500Y-56815000D01*
X145147500Y-56815000D01*
X145124221Y-56813856D01*
X145101166Y-56810437D01*
X145078557Y-56804773D01*
X145056613Y-56796921D01*
X145035543Y-56786956D01*
X145015552Y-56774974D01*
X144996832Y-56761090D01*
X144979562Y-56745438D01*
X144963910Y-56728168D01*
X144950026Y-56709448D01*
X144938044Y-56689457D01*
X144928079Y-56668387D01*
X144920227Y-56646443D01*
X144914563Y-56623834D01*
X144911144Y-56600779D01*
X144910000Y-56577500D01*
X144910000Y-56102500D01*
X144911144Y-56079221D01*
X144914563Y-56056166D01*
X144920227Y-56033557D01*
X144928079Y-56011613D01*
X144938044Y-55990543D01*
X144950026Y-55970552D01*
X144963910Y-55951832D01*
X144979562Y-55934562D01*
X144996832Y-55918910D01*
X145015552Y-55905026D01*
X145035543Y-55893044D01*
X145056613Y-55883079D01*
X145078557Y-55875227D01*
X145101166Y-55869563D01*
X145124221Y-55866144D01*
X145147500Y-55865000D01*
X145722500Y-55865000D01*
X145745779Y-55866144D01*
X145745779Y-55866144D01*
G37*
D11*
X145435000Y-56340000D03*
%TD*%
D10*
%TO.C,D2*%
G36*
X145745779Y-59866144D02*
G01*
X145768834Y-59869563D01*
X145791443Y-59875227D01*
X145813387Y-59883079D01*
X145834457Y-59893044D01*
X145854448Y-59905026D01*
X145873168Y-59918910D01*
X145890438Y-59934562D01*
X145906090Y-59951832D01*
X145919974Y-59970552D01*
X145931956Y-59990543D01*
X145941921Y-60011613D01*
X145949773Y-60033557D01*
X145955437Y-60056166D01*
X145958856Y-60079221D01*
X145960000Y-60102500D01*
X145960000Y-60577500D01*
X145958856Y-60600779D01*
X145955437Y-60623834D01*
X145949773Y-60646443D01*
X145941921Y-60668387D01*
X145931956Y-60689457D01*
X145919974Y-60709448D01*
X145906090Y-60728168D01*
X145890438Y-60745438D01*
X145873168Y-60761090D01*
X145854448Y-60774974D01*
X145834457Y-60786956D01*
X145813387Y-60796921D01*
X145791443Y-60804773D01*
X145768834Y-60810437D01*
X145745779Y-60813856D01*
X145722500Y-60815000D01*
X145147500Y-60815000D01*
X145124221Y-60813856D01*
X145101166Y-60810437D01*
X145078557Y-60804773D01*
X145056613Y-60796921D01*
X145035543Y-60786956D01*
X145015552Y-60774974D01*
X144996832Y-60761090D01*
X144979562Y-60745438D01*
X144963910Y-60728168D01*
X144950026Y-60709448D01*
X144938044Y-60689457D01*
X144928079Y-60668387D01*
X144920227Y-60646443D01*
X144914563Y-60623834D01*
X144911144Y-60600779D01*
X144910000Y-60577500D01*
X144910000Y-60102500D01*
X144911144Y-60079221D01*
X144914563Y-60056166D01*
X144920227Y-60033557D01*
X144928079Y-60011613D01*
X144938044Y-59990543D01*
X144950026Y-59970552D01*
X144963910Y-59951832D01*
X144979562Y-59934562D01*
X144996832Y-59918910D01*
X145015552Y-59905026D01*
X145035543Y-59893044D01*
X145056613Y-59883079D01*
X145078557Y-59875227D01*
X145101166Y-59869563D01*
X145124221Y-59866144D01*
X145147500Y-59865000D01*
X145722500Y-59865000D01*
X145745779Y-59866144D01*
X145745779Y-59866144D01*
G37*
D11*
X145435000Y-60340000D03*
D10*
G36*
X143995779Y-59866144D02*
G01*
X144018834Y-59869563D01*
X144041443Y-59875227D01*
X144063387Y-59883079D01*
X144084457Y-59893044D01*
X144104448Y-59905026D01*
X144123168Y-59918910D01*
X144140438Y-59934562D01*
X144156090Y-59951832D01*
X144169974Y-59970552D01*
X144181956Y-59990543D01*
X144191921Y-60011613D01*
X144199773Y-60033557D01*
X144205437Y-60056166D01*
X144208856Y-60079221D01*
X144210000Y-60102500D01*
X144210000Y-60577500D01*
X144208856Y-60600779D01*
X144205437Y-60623834D01*
X144199773Y-60646443D01*
X144191921Y-60668387D01*
X144181956Y-60689457D01*
X144169974Y-60709448D01*
X144156090Y-60728168D01*
X144140438Y-60745438D01*
X144123168Y-60761090D01*
X144104448Y-60774974D01*
X144084457Y-60786956D01*
X144063387Y-60796921D01*
X144041443Y-60804773D01*
X144018834Y-60810437D01*
X143995779Y-60813856D01*
X143972500Y-60815000D01*
X143397500Y-60815000D01*
X143374221Y-60813856D01*
X143351166Y-60810437D01*
X143328557Y-60804773D01*
X143306613Y-60796921D01*
X143285543Y-60786956D01*
X143265552Y-60774974D01*
X143246832Y-60761090D01*
X143229562Y-60745438D01*
X143213910Y-60728168D01*
X143200026Y-60709448D01*
X143188044Y-60689457D01*
X143178079Y-60668387D01*
X143170227Y-60646443D01*
X143164563Y-60623834D01*
X143161144Y-60600779D01*
X143160000Y-60577500D01*
X143160000Y-60102500D01*
X143161144Y-60079221D01*
X143164563Y-60056166D01*
X143170227Y-60033557D01*
X143178079Y-60011613D01*
X143188044Y-59990543D01*
X143200026Y-59970552D01*
X143213910Y-59951832D01*
X143229562Y-59934562D01*
X143246832Y-59918910D01*
X143265552Y-59905026D01*
X143285543Y-59893044D01*
X143306613Y-59883079D01*
X143328557Y-59875227D01*
X143351166Y-59869563D01*
X143374221Y-59866144D01*
X143397500Y-59865000D01*
X143972500Y-59865000D01*
X143995779Y-59866144D01*
X143995779Y-59866144D01*
G37*
D11*
X143685000Y-60340000D03*
%TD*%
D10*
%TO.C,D3*%
G36*
X145745779Y-63866144D02*
G01*
X145768834Y-63869563D01*
X145791443Y-63875227D01*
X145813387Y-63883079D01*
X145834457Y-63893044D01*
X145854448Y-63905026D01*
X145873168Y-63918910D01*
X145890438Y-63934562D01*
X145906090Y-63951832D01*
X145919974Y-63970552D01*
X145931956Y-63990543D01*
X145941921Y-64011613D01*
X145949773Y-64033557D01*
X145955437Y-64056166D01*
X145958856Y-64079221D01*
X145960000Y-64102500D01*
X145960000Y-64577500D01*
X145958856Y-64600779D01*
X145955437Y-64623834D01*
X145949773Y-64646443D01*
X145941921Y-64668387D01*
X145931956Y-64689457D01*
X145919974Y-64709448D01*
X145906090Y-64728168D01*
X145890438Y-64745438D01*
X145873168Y-64761090D01*
X145854448Y-64774974D01*
X145834457Y-64786956D01*
X145813387Y-64796921D01*
X145791443Y-64804773D01*
X145768834Y-64810437D01*
X145745779Y-64813856D01*
X145722500Y-64815000D01*
X145147500Y-64815000D01*
X145124221Y-64813856D01*
X145101166Y-64810437D01*
X145078557Y-64804773D01*
X145056613Y-64796921D01*
X145035543Y-64786956D01*
X145015552Y-64774974D01*
X144996832Y-64761090D01*
X144979562Y-64745438D01*
X144963910Y-64728168D01*
X144950026Y-64709448D01*
X144938044Y-64689457D01*
X144928079Y-64668387D01*
X144920227Y-64646443D01*
X144914563Y-64623834D01*
X144911144Y-64600779D01*
X144910000Y-64577500D01*
X144910000Y-64102500D01*
X144911144Y-64079221D01*
X144914563Y-64056166D01*
X144920227Y-64033557D01*
X144928079Y-64011613D01*
X144938044Y-63990543D01*
X144950026Y-63970552D01*
X144963910Y-63951832D01*
X144979562Y-63934562D01*
X144996832Y-63918910D01*
X145015552Y-63905026D01*
X145035543Y-63893044D01*
X145056613Y-63883079D01*
X145078557Y-63875227D01*
X145101166Y-63869563D01*
X145124221Y-63866144D01*
X145147500Y-63865000D01*
X145722500Y-63865000D01*
X145745779Y-63866144D01*
X145745779Y-63866144D01*
G37*
D11*
X145435000Y-64340000D03*
D10*
G36*
X143995779Y-63866144D02*
G01*
X144018834Y-63869563D01*
X144041443Y-63875227D01*
X144063387Y-63883079D01*
X144084457Y-63893044D01*
X144104448Y-63905026D01*
X144123168Y-63918910D01*
X144140438Y-63934562D01*
X144156090Y-63951832D01*
X144169974Y-63970552D01*
X144181956Y-63990543D01*
X144191921Y-64011613D01*
X144199773Y-64033557D01*
X144205437Y-64056166D01*
X144208856Y-64079221D01*
X144210000Y-64102500D01*
X144210000Y-64577500D01*
X144208856Y-64600779D01*
X144205437Y-64623834D01*
X144199773Y-64646443D01*
X144191921Y-64668387D01*
X144181956Y-64689457D01*
X144169974Y-64709448D01*
X144156090Y-64728168D01*
X144140438Y-64745438D01*
X144123168Y-64761090D01*
X144104448Y-64774974D01*
X144084457Y-64786956D01*
X144063387Y-64796921D01*
X144041443Y-64804773D01*
X144018834Y-64810437D01*
X143995779Y-64813856D01*
X143972500Y-64815000D01*
X143397500Y-64815000D01*
X143374221Y-64813856D01*
X143351166Y-64810437D01*
X143328557Y-64804773D01*
X143306613Y-64796921D01*
X143285543Y-64786956D01*
X143265552Y-64774974D01*
X143246832Y-64761090D01*
X143229562Y-64745438D01*
X143213910Y-64728168D01*
X143200026Y-64709448D01*
X143188044Y-64689457D01*
X143178079Y-64668387D01*
X143170227Y-64646443D01*
X143164563Y-64623834D01*
X143161144Y-64600779D01*
X143160000Y-64577500D01*
X143160000Y-64102500D01*
X143161144Y-64079221D01*
X143164563Y-64056166D01*
X143170227Y-64033557D01*
X143178079Y-64011613D01*
X143188044Y-63990543D01*
X143200026Y-63970552D01*
X143213910Y-63951832D01*
X143229562Y-63934562D01*
X143246832Y-63918910D01*
X143265552Y-63905026D01*
X143285543Y-63893044D01*
X143306613Y-63883079D01*
X143328557Y-63875227D01*
X143351166Y-63869563D01*
X143374221Y-63866144D01*
X143397500Y-63865000D01*
X143972500Y-63865000D01*
X143995779Y-63866144D01*
X143995779Y-63866144D01*
G37*
D11*
X143685000Y-64340000D03*
%TD*%
D10*
%TO.C,D4*%
G36*
X145745779Y-67866144D02*
G01*
X145768834Y-67869563D01*
X145791443Y-67875227D01*
X145813387Y-67883079D01*
X145834457Y-67893044D01*
X145854448Y-67905026D01*
X145873168Y-67918910D01*
X145890438Y-67934562D01*
X145906090Y-67951832D01*
X145919974Y-67970552D01*
X145931956Y-67990543D01*
X145941921Y-68011613D01*
X145949773Y-68033557D01*
X145955437Y-68056166D01*
X145958856Y-68079221D01*
X145960000Y-68102500D01*
X145960000Y-68577500D01*
X145958856Y-68600779D01*
X145955437Y-68623834D01*
X145949773Y-68646443D01*
X145941921Y-68668387D01*
X145931956Y-68689457D01*
X145919974Y-68709448D01*
X145906090Y-68728168D01*
X145890438Y-68745438D01*
X145873168Y-68761090D01*
X145854448Y-68774974D01*
X145834457Y-68786956D01*
X145813387Y-68796921D01*
X145791443Y-68804773D01*
X145768834Y-68810437D01*
X145745779Y-68813856D01*
X145722500Y-68815000D01*
X145147500Y-68815000D01*
X145124221Y-68813856D01*
X145101166Y-68810437D01*
X145078557Y-68804773D01*
X145056613Y-68796921D01*
X145035543Y-68786956D01*
X145015552Y-68774974D01*
X144996832Y-68761090D01*
X144979562Y-68745438D01*
X144963910Y-68728168D01*
X144950026Y-68709448D01*
X144938044Y-68689457D01*
X144928079Y-68668387D01*
X144920227Y-68646443D01*
X144914563Y-68623834D01*
X144911144Y-68600779D01*
X144910000Y-68577500D01*
X144910000Y-68102500D01*
X144911144Y-68079221D01*
X144914563Y-68056166D01*
X144920227Y-68033557D01*
X144928079Y-68011613D01*
X144938044Y-67990543D01*
X144950026Y-67970552D01*
X144963910Y-67951832D01*
X144979562Y-67934562D01*
X144996832Y-67918910D01*
X145015552Y-67905026D01*
X145035543Y-67893044D01*
X145056613Y-67883079D01*
X145078557Y-67875227D01*
X145101166Y-67869563D01*
X145124221Y-67866144D01*
X145147500Y-67865000D01*
X145722500Y-67865000D01*
X145745779Y-67866144D01*
X145745779Y-67866144D01*
G37*
D11*
X145435000Y-68340000D03*
D10*
G36*
X143995779Y-67866144D02*
G01*
X144018834Y-67869563D01*
X144041443Y-67875227D01*
X144063387Y-67883079D01*
X144084457Y-67893044D01*
X144104448Y-67905026D01*
X144123168Y-67918910D01*
X144140438Y-67934562D01*
X144156090Y-67951832D01*
X144169974Y-67970552D01*
X144181956Y-67990543D01*
X144191921Y-68011613D01*
X144199773Y-68033557D01*
X144205437Y-68056166D01*
X144208856Y-68079221D01*
X144210000Y-68102500D01*
X144210000Y-68577500D01*
X144208856Y-68600779D01*
X144205437Y-68623834D01*
X144199773Y-68646443D01*
X144191921Y-68668387D01*
X144181956Y-68689457D01*
X144169974Y-68709448D01*
X144156090Y-68728168D01*
X144140438Y-68745438D01*
X144123168Y-68761090D01*
X144104448Y-68774974D01*
X144084457Y-68786956D01*
X144063387Y-68796921D01*
X144041443Y-68804773D01*
X144018834Y-68810437D01*
X143995779Y-68813856D01*
X143972500Y-68815000D01*
X143397500Y-68815000D01*
X143374221Y-68813856D01*
X143351166Y-68810437D01*
X143328557Y-68804773D01*
X143306613Y-68796921D01*
X143285543Y-68786956D01*
X143265552Y-68774974D01*
X143246832Y-68761090D01*
X143229562Y-68745438D01*
X143213910Y-68728168D01*
X143200026Y-68709448D01*
X143188044Y-68689457D01*
X143178079Y-68668387D01*
X143170227Y-68646443D01*
X143164563Y-68623834D01*
X143161144Y-68600779D01*
X143160000Y-68577500D01*
X143160000Y-68102500D01*
X143161144Y-68079221D01*
X143164563Y-68056166D01*
X143170227Y-68033557D01*
X143178079Y-68011613D01*
X143188044Y-67990543D01*
X143200026Y-67970552D01*
X143213910Y-67951832D01*
X143229562Y-67934562D01*
X143246832Y-67918910D01*
X143265552Y-67905026D01*
X143285543Y-67893044D01*
X143306613Y-67883079D01*
X143328557Y-67875227D01*
X143351166Y-67869563D01*
X143374221Y-67866144D01*
X143397500Y-67865000D01*
X143972500Y-67865000D01*
X143995779Y-67866144D01*
X143995779Y-67866144D01*
G37*
D11*
X143685000Y-68340000D03*
%TD*%
D10*
%TO.C,D5*%
G36*
X143995779Y-71866144D02*
G01*
X144018834Y-71869563D01*
X144041443Y-71875227D01*
X144063387Y-71883079D01*
X144084457Y-71893044D01*
X144104448Y-71905026D01*
X144123168Y-71918910D01*
X144140438Y-71934562D01*
X144156090Y-71951832D01*
X144169974Y-71970552D01*
X144181956Y-71990543D01*
X144191921Y-72011613D01*
X144199773Y-72033557D01*
X144205437Y-72056166D01*
X144208856Y-72079221D01*
X144210000Y-72102500D01*
X144210000Y-72577500D01*
X144208856Y-72600779D01*
X144205437Y-72623834D01*
X144199773Y-72646443D01*
X144191921Y-72668387D01*
X144181956Y-72689457D01*
X144169974Y-72709448D01*
X144156090Y-72728168D01*
X144140438Y-72745438D01*
X144123168Y-72761090D01*
X144104448Y-72774974D01*
X144084457Y-72786956D01*
X144063387Y-72796921D01*
X144041443Y-72804773D01*
X144018834Y-72810437D01*
X143995779Y-72813856D01*
X143972500Y-72815000D01*
X143397500Y-72815000D01*
X143374221Y-72813856D01*
X143351166Y-72810437D01*
X143328557Y-72804773D01*
X143306613Y-72796921D01*
X143285543Y-72786956D01*
X143265552Y-72774974D01*
X143246832Y-72761090D01*
X143229562Y-72745438D01*
X143213910Y-72728168D01*
X143200026Y-72709448D01*
X143188044Y-72689457D01*
X143178079Y-72668387D01*
X143170227Y-72646443D01*
X143164563Y-72623834D01*
X143161144Y-72600779D01*
X143160000Y-72577500D01*
X143160000Y-72102500D01*
X143161144Y-72079221D01*
X143164563Y-72056166D01*
X143170227Y-72033557D01*
X143178079Y-72011613D01*
X143188044Y-71990543D01*
X143200026Y-71970552D01*
X143213910Y-71951832D01*
X143229562Y-71934562D01*
X143246832Y-71918910D01*
X143265552Y-71905026D01*
X143285543Y-71893044D01*
X143306613Y-71883079D01*
X143328557Y-71875227D01*
X143351166Y-71869563D01*
X143374221Y-71866144D01*
X143397500Y-71865000D01*
X143972500Y-71865000D01*
X143995779Y-71866144D01*
X143995779Y-71866144D01*
G37*
D11*
X143685000Y-72340000D03*
D10*
G36*
X145745779Y-71866144D02*
G01*
X145768834Y-71869563D01*
X145791443Y-71875227D01*
X145813387Y-71883079D01*
X145834457Y-71893044D01*
X145854448Y-71905026D01*
X145873168Y-71918910D01*
X145890438Y-71934562D01*
X145906090Y-71951832D01*
X145919974Y-71970552D01*
X145931956Y-71990543D01*
X145941921Y-72011613D01*
X145949773Y-72033557D01*
X145955437Y-72056166D01*
X145958856Y-72079221D01*
X145960000Y-72102500D01*
X145960000Y-72577500D01*
X145958856Y-72600779D01*
X145955437Y-72623834D01*
X145949773Y-72646443D01*
X145941921Y-72668387D01*
X145931956Y-72689457D01*
X145919974Y-72709448D01*
X145906090Y-72728168D01*
X145890438Y-72745438D01*
X145873168Y-72761090D01*
X145854448Y-72774974D01*
X145834457Y-72786956D01*
X145813387Y-72796921D01*
X145791443Y-72804773D01*
X145768834Y-72810437D01*
X145745779Y-72813856D01*
X145722500Y-72815000D01*
X145147500Y-72815000D01*
X145124221Y-72813856D01*
X145101166Y-72810437D01*
X145078557Y-72804773D01*
X145056613Y-72796921D01*
X145035543Y-72786956D01*
X145015552Y-72774974D01*
X144996832Y-72761090D01*
X144979562Y-72745438D01*
X144963910Y-72728168D01*
X144950026Y-72709448D01*
X144938044Y-72689457D01*
X144928079Y-72668387D01*
X144920227Y-72646443D01*
X144914563Y-72623834D01*
X144911144Y-72600779D01*
X144910000Y-72577500D01*
X144910000Y-72102500D01*
X144911144Y-72079221D01*
X144914563Y-72056166D01*
X144920227Y-72033557D01*
X144928079Y-72011613D01*
X144938044Y-71990543D01*
X144950026Y-71970552D01*
X144963910Y-71951832D01*
X144979562Y-71934562D01*
X144996832Y-71918910D01*
X145015552Y-71905026D01*
X145035543Y-71893044D01*
X145056613Y-71883079D01*
X145078557Y-71875227D01*
X145101166Y-71869563D01*
X145124221Y-71866144D01*
X145147500Y-71865000D01*
X145722500Y-71865000D01*
X145745779Y-71866144D01*
X145745779Y-71866144D01*
G37*
D11*
X145435000Y-72340000D03*
%TD*%
D10*
%TO.C,D6*%
G36*
X145745779Y-75866144D02*
G01*
X145768834Y-75869563D01*
X145791443Y-75875227D01*
X145813387Y-75883079D01*
X145834457Y-75893044D01*
X145854448Y-75905026D01*
X145873168Y-75918910D01*
X145890438Y-75934562D01*
X145906090Y-75951832D01*
X145919974Y-75970552D01*
X145931956Y-75990543D01*
X145941921Y-76011613D01*
X145949773Y-76033557D01*
X145955437Y-76056166D01*
X145958856Y-76079221D01*
X145960000Y-76102500D01*
X145960000Y-76577500D01*
X145958856Y-76600779D01*
X145955437Y-76623834D01*
X145949773Y-76646443D01*
X145941921Y-76668387D01*
X145931956Y-76689457D01*
X145919974Y-76709448D01*
X145906090Y-76728168D01*
X145890438Y-76745438D01*
X145873168Y-76761090D01*
X145854448Y-76774974D01*
X145834457Y-76786956D01*
X145813387Y-76796921D01*
X145791443Y-76804773D01*
X145768834Y-76810437D01*
X145745779Y-76813856D01*
X145722500Y-76815000D01*
X145147500Y-76815000D01*
X145124221Y-76813856D01*
X145101166Y-76810437D01*
X145078557Y-76804773D01*
X145056613Y-76796921D01*
X145035543Y-76786956D01*
X145015552Y-76774974D01*
X144996832Y-76761090D01*
X144979562Y-76745438D01*
X144963910Y-76728168D01*
X144950026Y-76709448D01*
X144938044Y-76689457D01*
X144928079Y-76668387D01*
X144920227Y-76646443D01*
X144914563Y-76623834D01*
X144911144Y-76600779D01*
X144910000Y-76577500D01*
X144910000Y-76102500D01*
X144911144Y-76079221D01*
X144914563Y-76056166D01*
X144920227Y-76033557D01*
X144928079Y-76011613D01*
X144938044Y-75990543D01*
X144950026Y-75970552D01*
X144963910Y-75951832D01*
X144979562Y-75934562D01*
X144996832Y-75918910D01*
X145015552Y-75905026D01*
X145035543Y-75893044D01*
X145056613Y-75883079D01*
X145078557Y-75875227D01*
X145101166Y-75869563D01*
X145124221Y-75866144D01*
X145147500Y-75865000D01*
X145722500Y-75865000D01*
X145745779Y-75866144D01*
X145745779Y-75866144D01*
G37*
D11*
X145435000Y-76340000D03*
D10*
G36*
X143995779Y-75866144D02*
G01*
X144018834Y-75869563D01*
X144041443Y-75875227D01*
X144063387Y-75883079D01*
X144084457Y-75893044D01*
X144104448Y-75905026D01*
X144123168Y-75918910D01*
X144140438Y-75934562D01*
X144156090Y-75951832D01*
X144169974Y-75970552D01*
X144181956Y-75990543D01*
X144191921Y-76011613D01*
X144199773Y-76033557D01*
X144205437Y-76056166D01*
X144208856Y-76079221D01*
X144210000Y-76102500D01*
X144210000Y-76577500D01*
X144208856Y-76600779D01*
X144205437Y-76623834D01*
X144199773Y-76646443D01*
X144191921Y-76668387D01*
X144181956Y-76689457D01*
X144169974Y-76709448D01*
X144156090Y-76728168D01*
X144140438Y-76745438D01*
X144123168Y-76761090D01*
X144104448Y-76774974D01*
X144084457Y-76786956D01*
X144063387Y-76796921D01*
X144041443Y-76804773D01*
X144018834Y-76810437D01*
X143995779Y-76813856D01*
X143972500Y-76815000D01*
X143397500Y-76815000D01*
X143374221Y-76813856D01*
X143351166Y-76810437D01*
X143328557Y-76804773D01*
X143306613Y-76796921D01*
X143285543Y-76786956D01*
X143265552Y-76774974D01*
X143246832Y-76761090D01*
X143229562Y-76745438D01*
X143213910Y-76728168D01*
X143200026Y-76709448D01*
X143188044Y-76689457D01*
X143178079Y-76668387D01*
X143170227Y-76646443D01*
X143164563Y-76623834D01*
X143161144Y-76600779D01*
X143160000Y-76577500D01*
X143160000Y-76102500D01*
X143161144Y-76079221D01*
X143164563Y-76056166D01*
X143170227Y-76033557D01*
X143178079Y-76011613D01*
X143188044Y-75990543D01*
X143200026Y-75970552D01*
X143213910Y-75951832D01*
X143229562Y-75934562D01*
X143246832Y-75918910D01*
X143265552Y-75905026D01*
X143285543Y-75893044D01*
X143306613Y-75883079D01*
X143328557Y-75875227D01*
X143351166Y-75869563D01*
X143374221Y-75866144D01*
X143397500Y-75865000D01*
X143972500Y-75865000D01*
X143995779Y-75866144D01*
X143995779Y-75866144D01*
G37*
D11*
X143685000Y-76340000D03*
%TD*%
D10*
%TO.C,D7*%
G36*
X143995779Y-79866144D02*
G01*
X144018834Y-79869563D01*
X144041443Y-79875227D01*
X144063387Y-79883079D01*
X144084457Y-79893044D01*
X144104448Y-79905026D01*
X144123168Y-79918910D01*
X144140438Y-79934562D01*
X144156090Y-79951832D01*
X144169974Y-79970552D01*
X144181956Y-79990543D01*
X144191921Y-80011613D01*
X144199773Y-80033557D01*
X144205437Y-80056166D01*
X144208856Y-80079221D01*
X144210000Y-80102500D01*
X144210000Y-80577500D01*
X144208856Y-80600779D01*
X144205437Y-80623834D01*
X144199773Y-80646443D01*
X144191921Y-80668387D01*
X144181956Y-80689457D01*
X144169974Y-80709448D01*
X144156090Y-80728168D01*
X144140438Y-80745438D01*
X144123168Y-80761090D01*
X144104448Y-80774974D01*
X144084457Y-80786956D01*
X144063387Y-80796921D01*
X144041443Y-80804773D01*
X144018834Y-80810437D01*
X143995779Y-80813856D01*
X143972500Y-80815000D01*
X143397500Y-80815000D01*
X143374221Y-80813856D01*
X143351166Y-80810437D01*
X143328557Y-80804773D01*
X143306613Y-80796921D01*
X143285543Y-80786956D01*
X143265552Y-80774974D01*
X143246832Y-80761090D01*
X143229562Y-80745438D01*
X143213910Y-80728168D01*
X143200026Y-80709448D01*
X143188044Y-80689457D01*
X143178079Y-80668387D01*
X143170227Y-80646443D01*
X143164563Y-80623834D01*
X143161144Y-80600779D01*
X143160000Y-80577500D01*
X143160000Y-80102500D01*
X143161144Y-80079221D01*
X143164563Y-80056166D01*
X143170227Y-80033557D01*
X143178079Y-80011613D01*
X143188044Y-79990543D01*
X143200026Y-79970552D01*
X143213910Y-79951832D01*
X143229562Y-79934562D01*
X143246832Y-79918910D01*
X143265552Y-79905026D01*
X143285543Y-79893044D01*
X143306613Y-79883079D01*
X143328557Y-79875227D01*
X143351166Y-79869563D01*
X143374221Y-79866144D01*
X143397500Y-79865000D01*
X143972500Y-79865000D01*
X143995779Y-79866144D01*
X143995779Y-79866144D01*
G37*
D11*
X143685000Y-80340000D03*
D10*
G36*
X145745779Y-79866144D02*
G01*
X145768834Y-79869563D01*
X145791443Y-79875227D01*
X145813387Y-79883079D01*
X145834457Y-79893044D01*
X145854448Y-79905026D01*
X145873168Y-79918910D01*
X145890438Y-79934562D01*
X145906090Y-79951832D01*
X145919974Y-79970552D01*
X145931956Y-79990543D01*
X145941921Y-80011613D01*
X145949773Y-80033557D01*
X145955437Y-80056166D01*
X145958856Y-80079221D01*
X145960000Y-80102500D01*
X145960000Y-80577500D01*
X145958856Y-80600779D01*
X145955437Y-80623834D01*
X145949773Y-80646443D01*
X145941921Y-80668387D01*
X145931956Y-80689457D01*
X145919974Y-80709448D01*
X145906090Y-80728168D01*
X145890438Y-80745438D01*
X145873168Y-80761090D01*
X145854448Y-80774974D01*
X145834457Y-80786956D01*
X145813387Y-80796921D01*
X145791443Y-80804773D01*
X145768834Y-80810437D01*
X145745779Y-80813856D01*
X145722500Y-80815000D01*
X145147500Y-80815000D01*
X145124221Y-80813856D01*
X145101166Y-80810437D01*
X145078557Y-80804773D01*
X145056613Y-80796921D01*
X145035543Y-80786956D01*
X145015552Y-80774974D01*
X144996832Y-80761090D01*
X144979562Y-80745438D01*
X144963910Y-80728168D01*
X144950026Y-80709448D01*
X144938044Y-80689457D01*
X144928079Y-80668387D01*
X144920227Y-80646443D01*
X144914563Y-80623834D01*
X144911144Y-80600779D01*
X144910000Y-80577500D01*
X144910000Y-80102500D01*
X144911144Y-80079221D01*
X144914563Y-80056166D01*
X144920227Y-80033557D01*
X144928079Y-80011613D01*
X144938044Y-79990543D01*
X144950026Y-79970552D01*
X144963910Y-79951832D01*
X144979562Y-79934562D01*
X144996832Y-79918910D01*
X145015552Y-79905026D01*
X145035543Y-79893044D01*
X145056613Y-79883079D01*
X145078557Y-79875227D01*
X145101166Y-79869563D01*
X145124221Y-79866144D01*
X145147500Y-79865000D01*
X145722500Y-79865000D01*
X145745779Y-79866144D01*
X145745779Y-79866144D01*
G37*
D11*
X145435000Y-80340000D03*
%TD*%
D12*
%TO.C,J2*%
X137010000Y-96720000D03*
D13*
X137010000Y-97820000D03*
X137010000Y-98920000D03*
X137010000Y-100020000D03*
X137010000Y-101120000D03*
X137010000Y-102220000D03*
X137010000Y-103320000D03*
X137010000Y-104420000D03*
D14*
X137360000Y-95620000D03*
D15*
X137140000Y-106920000D03*
D16*
X147610000Y-103620000D03*
X147610000Y-97520000D03*
%TD*%
D17*
%TO.C,Q1*%
X91252000Y-104759000D03*
X93152000Y-104759000D03*
X92202000Y-102759000D03*
%TD*%
D10*
%TO.C,R1*%
G36*
X98453779Y-110066944D02*
G01*
X98476834Y-110070363D01*
X98499443Y-110076027D01*
X98521387Y-110083879D01*
X98542457Y-110093844D01*
X98562448Y-110105826D01*
X98581168Y-110119710D01*
X98598438Y-110135362D01*
X98614090Y-110152632D01*
X98627974Y-110171352D01*
X98639956Y-110191343D01*
X98649921Y-110212413D01*
X98657773Y-110234357D01*
X98663437Y-110256966D01*
X98666856Y-110280021D01*
X98668000Y-110303300D01*
X98668000Y-110778300D01*
X98666856Y-110801579D01*
X98663437Y-110824634D01*
X98657773Y-110847243D01*
X98649921Y-110869187D01*
X98639956Y-110890257D01*
X98627974Y-110910248D01*
X98614090Y-110928968D01*
X98598438Y-110946238D01*
X98581168Y-110961890D01*
X98562448Y-110975774D01*
X98542457Y-110987756D01*
X98521387Y-110997721D01*
X98499443Y-111005573D01*
X98476834Y-111011237D01*
X98453779Y-111014656D01*
X98430500Y-111015800D01*
X97855500Y-111015800D01*
X97832221Y-111014656D01*
X97809166Y-111011237D01*
X97786557Y-111005573D01*
X97764613Y-110997721D01*
X97743543Y-110987756D01*
X97723552Y-110975774D01*
X97704832Y-110961890D01*
X97687562Y-110946238D01*
X97671910Y-110928968D01*
X97658026Y-110910248D01*
X97646044Y-110890257D01*
X97636079Y-110869187D01*
X97628227Y-110847243D01*
X97622563Y-110824634D01*
X97619144Y-110801579D01*
X97618000Y-110778300D01*
X97618000Y-110303300D01*
X97619144Y-110280021D01*
X97622563Y-110256966D01*
X97628227Y-110234357D01*
X97636079Y-110212413D01*
X97646044Y-110191343D01*
X97658026Y-110171352D01*
X97671910Y-110152632D01*
X97687562Y-110135362D01*
X97704832Y-110119710D01*
X97723552Y-110105826D01*
X97743543Y-110093844D01*
X97764613Y-110083879D01*
X97786557Y-110076027D01*
X97809166Y-110070363D01*
X97832221Y-110066944D01*
X97855500Y-110065800D01*
X98430500Y-110065800D01*
X98453779Y-110066944D01*
X98453779Y-110066944D01*
G37*
D11*
X98143000Y-110540800D03*
D10*
G36*
X96703779Y-110066944D02*
G01*
X96726834Y-110070363D01*
X96749443Y-110076027D01*
X96771387Y-110083879D01*
X96792457Y-110093844D01*
X96812448Y-110105826D01*
X96831168Y-110119710D01*
X96848438Y-110135362D01*
X96864090Y-110152632D01*
X96877974Y-110171352D01*
X96889956Y-110191343D01*
X96899921Y-110212413D01*
X96907773Y-110234357D01*
X96913437Y-110256966D01*
X96916856Y-110280021D01*
X96918000Y-110303300D01*
X96918000Y-110778300D01*
X96916856Y-110801579D01*
X96913437Y-110824634D01*
X96907773Y-110847243D01*
X96899921Y-110869187D01*
X96889956Y-110890257D01*
X96877974Y-110910248D01*
X96864090Y-110928968D01*
X96848438Y-110946238D01*
X96831168Y-110961890D01*
X96812448Y-110975774D01*
X96792457Y-110987756D01*
X96771387Y-110997721D01*
X96749443Y-111005573D01*
X96726834Y-111011237D01*
X96703779Y-111014656D01*
X96680500Y-111015800D01*
X96105500Y-111015800D01*
X96082221Y-111014656D01*
X96059166Y-111011237D01*
X96036557Y-111005573D01*
X96014613Y-110997721D01*
X95993543Y-110987756D01*
X95973552Y-110975774D01*
X95954832Y-110961890D01*
X95937562Y-110946238D01*
X95921910Y-110928968D01*
X95908026Y-110910248D01*
X95896044Y-110890257D01*
X95886079Y-110869187D01*
X95878227Y-110847243D01*
X95872563Y-110824634D01*
X95869144Y-110801579D01*
X95868000Y-110778300D01*
X95868000Y-110303300D01*
X95869144Y-110280021D01*
X95872563Y-110256966D01*
X95878227Y-110234357D01*
X95886079Y-110212413D01*
X95896044Y-110191343D01*
X95908026Y-110171352D01*
X95921910Y-110152632D01*
X95937562Y-110135362D01*
X95954832Y-110119710D01*
X95973552Y-110105826D01*
X95993543Y-110093844D01*
X96014613Y-110083879D01*
X96036557Y-110076027D01*
X96059166Y-110070363D01*
X96082221Y-110066944D01*
X96105500Y-110065800D01*
X96680500Y-110065800D01*
X96703779Y-110066944D01*
X96703779Y-110066944D01*
G37*
D11*
X96393000Y-110540800D03*
%TD*%
D10*
%TO.C,R3*%
G36*
X108318916Y-83958131D02*
G01*
X108341971Y-83961550D01*
X108364580Y-83967214D01*
X108386524Y-83975066D01*
X108407594Y-83985031D01*
X108427585Y-83997013D01*
X108446305Y-84010897D01*
X108463575Y-84026549D01*
X108799451Y-84362425D01*
X108815103Y-84379695D01*
X108828987Y-84398415D01*
X108840969Y-84418406D01*
X108850934Y-84439476D01*
X108858786Y-84461420D01*
X108864450Y-84484029D01*
X108867869Y-84507084D01*
X108869013Y-84530363D01*
X108867869Y-84553642D01*
X108864450Y-84576697D01*
X108858786Y-84599306D01*
X108850934Y-84621250D01*
X108840969Y-84642320D01*
X108828987Y-84662311D01*
X108815103Y-84681031D01*
X108799451Y-84698301D01*
X108392865Y-85104887D01*
X108375595Y-85120539D01*
X108356875Y-85134423D01*
X108336884Y-85146405D01*
X108315814Y-85156370D01*
X108293870Y-85164222D01*
X108271261Y-85169886D01*
X108248206Y-85173305D01*
X108224927Y-85174449D01*
X108201648Y-85173305D01*
X108178593Y-85169886D01*
X108155984Y-85164222D01*
X108134040Y-85156370D01*
X108112970Y-85146405D01*
X108092979Y-85134423D01*
X108074259Y-85120539D01*
X108056989Y-85104887D01*
X107721113Y-84769011D01*
X107705461Y-84751741D01*
X107691577Y-84733021D01*
X107679595Y-84713030D01*
X107669630Y-84691960D01*
X107661778Y-84670016D01*
X107656114Y-84647407D01*
X107652695Y-84624352D01*
X107651551Y-84601073D01*
X107652695Y-84577794D01*
X107656114Y-84554739D01*
X107661778Y-84532130D01*
X107669630Y-84510186D01*
X107679595Y-84489116D01*
X107691577Y-84469125D01*
X107705461Y-84450405D01*
X107721113Y-84433135D01*
X108127699Y-84026549D01*
X108144969Y-84010897D01*
X108163689Y-83997013D01*
X108183680Y-83985031D01*
X108204750Y-83975066D01*
X108226694Y-83967214D01*
X108249303Y-83961550D01*
X108272358Y-83958131D01*
X108295637Y-83956987D01*
X108318916Y-83958131D01*
X108318916Y-83958131D01*
G37*
D11*
X108260282Y-84565718D03*
D10*
G36*
X109556352Y-82720695D02*
G01*
X109579407Y-82724114D01*
X109602016Y-82729778D01*
X109623960Y-82737630D01*
X109645030Y-82747595D01*
X109665021Y-82759577D01*
X109683741Y-82773461D01*
X109701011Y-82789113D01*
X110036887Y-83124989D01*
X110052539Y-83142259D01*
X110066423Y-83160979D01*
X110078405Y-83180970D01*
X110088370Y-83202040D01*
X110096222Y-83223984D01*
X110101886Y-83246593D01*
X110105305Y-83269648D01*
X110106449Y-83292927D01*
X110105305Y-83316206D01*
X110101886Y-83339261D01*
X110096222Y-83361870D01*
X110088370Y-83383814D01*
X110078405Y-83404884D01*
X110066423Y-83424875D01*
X110052539Y-83443595D01*
X110036887Y-83460865D01*
X109630301Y-83867451D01*
X109613031Y-83883103D01*
X109594311Y-83896987D01*
X109574320Y-83908969D01*
X109553250Y-83918934D01*
X109531306Y-83926786D01*
X109508697Y-83932450D01*
X109485642Y-83935869D01*
X109462363Y-83937013D01*
X109439084Y-83935869D01*
X109416029Y-83932450D01*
X109393420Y-83926786D01*
X109371476Y-83918934D01*
X109350406Y-83908969D01*
X109330415Y-83896987D01*
X109311695Y-83883103D01*
X109294425Y-83867451D01*
X108958549Y-83531575D01*
X108942897Y-83514305D01*
X108929013Y-83495585D01*
X108917031Y-83475594D01*
X108907066Y-83454524D01*
X108899214Y-83432580D01*
X108893550Y-83409971D01*
X108890131Y-83386916D01*
X108888987Y-83363637D01*
X108890131Y-83340358D01*
X108893550Y-83317303D01*
X108899214Y-83294694D01*
X108907066Y-83272750D01*
X108917031Y-83251680D01*
X108929013Y-83231689D01*
X108942897Y-83212969D01*
X108958549Y-83195699D01*
X109365135Y-82789113D01*
X109382405Y-82773461D01*
X109401125Y-82759577D01*
X109421116Y-82747595D01*
X109442186Y-82737630D01*
X109464130Y-82729778D01*
X109486739Y-82724114D01*
X109509794Y-82720695D01*
X109533073Y-82719551D01*
X109556352Y-82720695D01*
X109556352Y-82720695D01*
G37*
D11*
X109497718Y-83328282D03*
%TD*%
D10*
%TO.C,R4*%
G36*
X140745779Y-55866144D02*
G01*
X140768834Y-55869563D01*
X140791443Y-55875227D01*
X140813387Y-55883079D01*
X140834457Y-55893044D01*
X140854448Y-55905026D01*
X140873168Y-55918910D01*
X140890438Y-55934562D01*
X140906090Y-55951832D01*
X140919974Y-55970552D01*
X140931956Y-55990543D01*
X140941921Y-56011613D01*
X140949773Y-56033557D01*
X140955437Y-56056166D01*
X140958856Y-56079221D01*
X140960000Y-56102500D01*
X140960000Y-56577500D01*
X140958856Y-56600779D01*
X140955437Y-56623834D01*
X140949773Y-56646443D01*
X140941921Y-56668387D01*
X140931956Y-56689457D01*
X140919974Y-56709448D01*
X140906090Y-56728168D01*
X140890438Y-56745438D01*
X140873168Y-56761090D01*
X140854448Y-56774974D01*
X140834457Y-56786956D01*
X140813387Y-56796921D01*
X140791443Y-56804773D01*
X140768834Y-56810437D01*
X140745779Y-56813856D01*
X140722500Y-56815000D01*
X140147500Y-56815000D01*
X140124221Y-56813856D01*
X140101166Y-56810437D01*
X140078557Y-56804773D01*
X140056613Y-56796921D01*
X140035543Y-56786956D01*
X140015552Y-56774974D01*
X139996832Y-56761090D01*
X139979562Y-56745438D01*
X139963910Y-56728168D01*
X139950026Y-56709448D01*
X139938044Y-56689457D01*
X139928079Y-56668387D01*
X139920227Y-56646443D01*
X139914563Y-56623834D01*
X139911144Y-56600779D01*
X139910000Y-56577500D01*
X139910000Y-56102500D01*
X139911144Y-56079221D01*
X139914563Y-56056166D01*
X139920227Y-56033557D01*
X139928079Y-56011613D01*
X139938044Y-55990543D01*
X139950026Y-55970552D01*
X139963910Y-55951832D01*
X139979562Y-55934562D01*
X139996832Y-55918910D01*
X140015552Y-55905026D01*
X140035543Y-55893044D01*
X140056613Y-55883079D01*
X140078557Y-55875227D01*
X140101166Y-55869563D01*
X140124221Y-55866144D01*
X140147500Y-55865000D01*
X140722500Y-55865000D01*
X140745779Y-55866144D01*
X140745779Y-55866144D01*
G37*
D11*
X140435000Y-56340000D03*
D10*
G36*
X138995779Y-55866144D02*
G01*
X139018834Y-55869563D01*
X139041443Y-55875227D01*
X139063387Y-55883079D01*
X139084457Y-55893044D01*
X139104448Y-55905026D01*
X139123168Y-55918910D01*
X139140438Y-55934562D01*
X139156090Y-55951832D01*
X139169974Y-55970552D01*
X139181956Y-55990543D01*
X139191921Y-56011613D01*
X139199773Y-56033557D01*
X139205437Y-56056166D01*
X139208856Y-56079221D01*
X139210000Y-56102500D01*
X139210000Y-56577500D01*
X139208856Y-56600779D01*
X139205437Y-56623834D01*
X139199773Y-56646443D01*
X139191921Y-56668387D01*
X139181956Y-56689457D01*
X139169974Y-56709448D01*
X139156090Y-56728168D01*
X139140438Y-56745438D01*
X139123168Y-56761090D01*
X139104448Y-56774974D01*
X139084457Y-56786956D01*
X139063387Y-56796921D01*
X139041443Y-56804773D01*
X139018834Y-56810437D01*
X138995779Y-56813856D01*
X138972500Y-56815000D01*
X138397500Y-56815000D01*
X138374221Y-56813856D01*
X138351166Y-56810437D01*
X138328557Y-56804773D01*
X138306613Y-56796921D01*
X138285543Y-56786956D01*
X138265552Y-56774974D01*
X138246832Y-56761090D01*
X138229562Y-56745438D01*
X138213910Y-56728168D01*
X138200026Y-56709448D01*
X138188044Y-56689457D01*
X138178079Y-56668387D01*
X138170227Y-56646443D01*
X138164563Y-56623834D01*
X138161144Y-56600779D01*
X138160000Y-56577500D01*
X138160000Y-56102500D01*
X138161144Y-56079221D01*
X138164563Y-56056166D01*
X138170227Y-56033557D01*
X138178079Y-56011613D01*
X138188044Y-55990543D01*
X138200026Y-55970552D01*
X138213910Y-55951832D01*
X138229562Y-55934562D01*
X138246832Y-55918910D01*
X138265552Y-55905026D01*
X138285543Y-55893044D01*
X138306613Y-55883079D01*
X138328557Y-55875227D01*
X138351166Y-55869563D01*
X138374221Y-55866144D01*
X138397500Y-55865000D01*
X138972500Y-55865000D01*
X138995779Y-55866144D01*
X138995779Y-55866144D01*
G37*
D11*
X138685000Y-56340000D03*
%TD*%
D10*
%TO.C,R5*%
G36*
X138995779Y-59866144D02*
G01*
X139018834Y-59869563D01*
X139041443Y-59875227D01*
X139063387Y-59883079D01*
X139084457Y-59893044D01*
X139104448Y-59905026D01*
X139123168Y-59918910D01*
X139140438Y-59934562D01*
X139156090Y-59951832D01*
X139169974Y-59970552D01*
X139181956Y-59990543D01*
X139191921Y-60011613D01*
X139199773Y-60033557D01*
X139205437Y-60056166D01*
X139208856Y-60079221D01*
X139210000Y-60102500D01*
X139210000Y-60577500D01*
X139208856Y-60600779D01*
X139205437Y-60623834D01*
X139199773Y-60646443D01*
X139191921Y-60668387D01*
X139181956Y-60689457D01*
X139169974Y-60709448D01*
X139156090Y-60728168D01*
X139140438Y-60745438D01*
X139123168Y-60761090D01*
X139104448Y-60774974D01*
X139084457Y-60786956D01*
X139063387Y-60796921D01*
X139041443Y-60804773D01*
X139018834Y-60810437D01*
X138995779Y-60813856D01*
X138972500Y-60815000D01*
X138397500Y-60815000D01*
X138374221Y-60813856D01*
X138351166Y-60810437D01*
X138328557Y-60804773D01*
X138306613Y-60796921D01*
X138285543Y-60786956D01*
X138265552Y-60774974D01*
X138246832Y-60761090D01*
X138229562Y-60745438D01*
X138213910Y-60728168D01*
X138200026Y-60709448D01*
X138188044Y-60689457D01*
X138178079Y-60668387D01*
X138170227Y-60646443D01*
X138164563Y-60623834D01*
X138161144Y-60600779D01*
X138160000Y-60577500D01*
X138160000Y-60102500D01*
X138161144Y-60079221D01*
X138164563Y-60056166D01*
X138170227Y-60033557D01*
X138178079Y-60011613D01*
X138188044Y-59990543D01*
X138200026Y-59970552D01*
X138213910Y-59951832D01*
X138229562Y-59934562D01*
X138246832Y-59918910D01*
X138265552Y-59905026D01*
X138285543Y-59893044D01*
X138306613Y-59883079D01*
X138328557Y-59875227D01*
X138351166Y-59869563D01*
X138374221Y-59866144D01*
X138397500Y-59865000D01*
X138972500Y-59865000D01*
X138995779Y-59866144D01*
X138995779Y-59866144D01*
G37*
D11*
X138685000Y-60340000D03*
D10*
G36*
X140745779Y-59866144D02*
G01*
X140768834Y-59869563D01*
X140791443Y-59875227D01*
X140813387Y-59883079D01*
X140834457Y-59893044D01*
X140854448Y-59905026D01*
X140873168Y-59918910D01*
X140890438Y-59934562D01*
X140906090Y-59951832D01*
X140919974Y-59970552D01*
X140931956Y-59990543D01*
X140941921Y-60011613D01*
X140949773Y-60033557D01*
X140955437Y-60056166D01*
X140958856Y-60079221D01*
X140960000Y-60102500D01*
X140960000Y-60577500D01*
X140958856Y-60600779D01*
X140955437Y-60623834D01*
X140949773Y-60646443D01*
X140941921Y-60668387D01*
X140931956Y-60689457D01*
X140919974Y-60709448D01*
X140906090Y-60728168D01*
X140890438Y-60745438D01*
X140873168Y-60761090D01*
X140854448Y-60774974D01*
X140834457Y-60786956D01*
X140813387Y-60796921D01*
X140791443Y-60804773D01*
X140768834Y-60810437D01*
X140745779Y-60813856D01*
X140722500Y-60815000D01*
X140147500Y-60815000D01*
X140124221Y-60813856D01*
X140101166Y-60810437D01*
X140078557Y-60804773D01*
X140056613Y-60796921D01*
X140035543Y-60786956D01*
X140015552Y-60774974D01*
X139996832Y-60761090D01*
X139979562Y-60745438D01*
X139963910Y-60728168D01*
X139950026Y-60709448D01*
X139938044Y-60689457D01*
X139928079Y-60668387D01*
X139920227Y-60646443D01*
X139914563Y-60623834D01*
X139911144Y-60600779D01*
X139910000Y-60577500D01*
X139910000Y-60102500D01*
X139911144Y-60079221D01*
X139914563Y-60056166D01*
X139920227Y-60033557D01*
X139928079Y-60011613D01*
X139938044Y-59990543D01*
X139950026Y-59970552D01*
X139963910Y-59951832D01*
X139979562Y-59934562D01*
X139996832Y-59918910D01*
X140015552Y-59905026D01*
X140035543Y-59893044D01*
X140056613Y-59883079D01*
X140078557Y-59875227D01*
X140101166Y-59869563D01*
X140124221Y-59866144D01*
X140147500Y-59865000D01*
X140722500Y-59865000D01*
X140745779Y-59866144D01*
X140745779Y-59866144D01*
G37*
D11*
X140435000Y-60340000D03*
%TD*%
D10*
%TO.C,R6*%
G36*
X138995779Y-63866144D02*
G01*
X139018834Y-63869563D01*
X139041443Y-63875227D01*
X139063387Y-63883079D01*
X139084457Y-63893044D01*
X139104448Y-63905026D01*
X139123168Y-63918910D01*
X139140438Y-63934562D01*
X139156090Y-63951832D01*
X139169974Y-63970552D01*
X139181956Y-63990543D01*
X139191921Y-64011613D01*
X139199773Y-64033557D01*
X139205437Y-64056166D01*
X139208856Y-64079221D01*
X139210000Y-64102500D01*
X139210000Y-64577500D01*
X139208856Y-64600779D01*
X139205437Y-64623834D01*
X139199773Y-64646443D01*
X139191921Y-64668387D01*
X139181956Y-64689457D01*
X139169974Y-64709448D01*
X139156090Y-64728168D01*
X139140438Y-64745438D01*
X139123168Y-64761090D01*
X139104448Y-64774974D01*
X139084457Y-64786956D01*
X139063387Y-64796921D01*
X139041443Y-64804773D01*
X139018834Y-64810437D01*
X138995779Y-64813856D01*
X138972500Y-64815000D01*
X138397500Y-64815000D01*
X138374221Y-64813856D01*
X138351166Y-64810437D01*
X138328557Y-64804773D01*
X138306613Y-64796921D01*
X138285543Y-64786956D01*
X138265552Y-64774974D01*
X138246832Y-64761090D01*
X138229562Y-64745438D01*
X138213910Y-64728168D01*
X138200026Y-64709448D01*
X138188044Y-64689457D01*
X138178079Y-64668387D01*
X138170227Y-64646443D01*
X138164563Y-64623834D01*
X138161144Y-64600779D01*
X138160000Y-64577500D01*
X138160000Y-64102500D01*
X138161144Y-64079221D01*
X138164563Y-64056166D01*
X138170227Y-64033557D01*
X138178079Y-64011613D01*
X138188044Y-63990543D01*
X138200026Y-63970552D01*
X138213910Y-63951832D01*
X138229562Y-63934562D01*
X138246832Y-63918910D01*
X138265552Y-63905026D01*
X138285543Y-63893044D01*
X138306613Y-63883079D01*
X138328557Y-63875227D01*
X138351166Y-63869563D01*
X138374221Y-63866144D01*
X138397500Y-63865000D01*
X138972500Y-63865000D01*
X138995779Y-63866144D01*
X138995779Y-63866144D01*
G37*
D11*
X138685000Y-64340000D03*
D10*
G36*
X140745779Y-63866144D02*
G01*
X140768834Y-63869563D01*
X140791443Y-63875227D01*
X140813387Y-63883079D01*
X140834457Y-63893044D01*
X140854448Y-63905026D01*
X140873168Y-63918910D01*
X140890438Y-63934562D01*
X140906090Y-63951832D01*
X140919974Y-63970552D01*
X140931956Y-63990543D01*
X140941921Y-64011613D01*
X140949773Y-64033557D01*
X140955437Y-64056166D01*
X140958856Y-64079221D01*
X140960000Y-64102500D01*
X140960000Y-64577500D01*
X140958856Y-64600779D01*
X140955437Y-64623834D01*
X140949773Y-64646443D01*
X140941921Y-64668387D01*
X140931956Y-64689457D01*
X140919974Y-64709448D01*
X140906090Y-64728168D01*
X140890438Y-64745438D01*
X140873168Y-64761090D01*
X140854448Y-64774974D01*
X140834457Y-64786956D01*
X140813387Y-64796921D01*
X140791443Y-64804773D01*
X140768834Y-64810437D01*
X140745779Y-64813856D01*
X140722500Y-64815000D01*
X140147500Y-64815000D01*
X140124221Y-64813856D01*
X140101166Y-64810437D01*
X140078557Y-64804773D01*
X140056613Y-64796921D01*
X140035543Y-64786956D01*
X140015552Y-64774974D01*
X139996832Y-64761090D01*
X139979562Y-64745438D01*
X139963910Y-64728168D01*
X139950026Y-64709448D01*
X139938044Y-64689457D01*
X139928079Y-64668387D01*
X139920227Y-64646443D01*
X139914563Y-64623834D01*
X139911144Y-64600779D01*
X139910000Y-64577500D01*
X139910000Y-64102500D01*
X139911144Y-64079221D01*
X139914563Y-64056166D01*
X139920227Y-64033557D01*
X139928079Y-64011613D01*
X139938044Y-63990543D01*
X139950026Y-63970552D01*
X139963910Y-63951832D01*
X139979562Y-63934562D01*
X139996832Y-63918910D01*
X140015552Y-63905026D01*
X140035543Y-63893044D01*
X140056613Y-63883079D01*
X140078557Y-63875227D01*
X140101166Y-63869563D01*
X140124221Y-63866144D01*
X140147500Y-63865000D01*
X140722500Y-63865000D01*
X140745779Y-63866144D01*
X140745779Y-63866144D01*
G37*
D11*
X140435000Y-64340000D03*
%TD*%
D10*
%TO.C,R7*%
G36*
X140745779Y-67866144D02*
G01*
X140768834Y-67869563D01*
X140791443Y-67875227D01*
X140813387Y-67883079D01*
X140834457Y-67893044D01*
X140854448Y-67905026D01*
X140873168Y-67918910D01*
X140890438Y-67934562D01*
X140906090Y-67951832D01*
X140919974Y-67970552D01*
X140931956Y-67990543D01*
X140941921Y-68011613D01*
X140949773Y-68033557D01*
X140955437Y-68056166D01*
X140958856Y-68079221D01*
X140960000Y-68102500D01*
X140960000Y-68577500D01*
X140958856Y-68600779D01*
X140955437Y-68623834D01*
X140949773Y-68646443D01*
X140941921Y-68668387D01*
X140931956Y-68689457D01*
X140919974Y-68709448D01*
X140906090Y-68728168D01*
X140890438Y-68745438D01*
X140873168Y-68761090D01*
X140854448Y-68774974D01*
X140834457Y-68786956D01*
X140813387Y-68796921D01*
X140791443Y-68804773D01*
X140768834Y-68810437D01*
X140745779Y-68813856D01*
X140722500Y-68815000D01*
X140147500Y-68815000D01*
X140124221Y-68813856D01*
X140101166Y-68810437D01*
X140078557Y-68804773D01*
X140056613Y-68796921D01*
X140035543Y-68786956D01*
X140015552Y-68774974D01*
X139996832Y-68761090D01*
X139979562Y-68745438D01*
X139963910Y-68728168D01*
X139950026Y-68709448D01*
X139938044Y-68689457D01*
X139928079Y-68668387D01*
X139920227Y-68646443D01*
X139914563Y-68623834D01*
X139911144Y-68600779D01*
X139910000Y-68577500D01*
X139910000Y-68102500D01*
X139911144Y-68079221D01*
X139914563Y-68056166D01*
X139920227Y-68033557D01*
X139928079Y-68011613D01*
X139938044Y-67990543D01*
X139950026Y-67970552D01*
X139963910Y-67951832D01*
X139979562Y-67934562D01*
X139996832Y-67918910D01*
X140015552Y-67905026D01*
X140035543Y-67893044D01*
X140056613Y-67883079D01*
X140078557Y-67875227D01*
X140101166Y-67869563D01*
X140124221Y-67866144D01*
X140147500Y-67865000D01*
X140722500Y-67865000D01*
X140745779Y-67866144D01*
X140745779Y-67866144D01*
G37*
D11*
X140435000Y-68340000D03*
D10*
G36*
X138995779Y-67866144D02*
G01*
X139018834Y-67869563D01*
X139041443Y-67875227D01*
X139063387Y-67883079D01*
X139084457Y-67893044D01*
X139104448Y-67905026D01*
X139123168Y-67918910D01*
X139140438Y-67934562D01*
X139156090Y-67951832D01*
X139169974Y-67970552D01*
X139181956Y-67990543D01*
X139191921Y-68011613D01*
X139199773Y-68033557D01*
X139205437Y-68056166D01*
X139208856Y-68079221D01*
X139210000Y-68102500D01*
X139210000Y-68577500D01*
X139208856Y-68600779D01*
X139205437Y-68623834D01*
X139199773Y-68646443D01*
X139191921Y-68668387D01*
X139181956Y-68689457D01*
X139169974Y-68709448D01*
X139156090Y-68728168D01*
X139140438Y-68745438D01*
X139123168Y-68761090D01*
X139104448Y-68774974D01*
X139084457Y-68786956D01*
X139063387Y-68796921D01*
X139041443Y-68804773D01*
X139018834Y-68810437D01*
X138995779Y-68813856D01*
X138972500Y-68815000D01*
X138397500Y-68815000D01*
X138374221Y-68813856D01*
X138351166Y-68810437D01*
X138328557Y-68804773D01*
X138306613Y-68796921D01*
X138285543Y-68786956D01*
X138265552Y-68774974D01*
X138246832Y-68761090D01*
X138229562Y-68745438D01*
X138213910Y-68728168D01*
X138200026Y-68709448D01*
X138188044Y-68689457D01*
X138178079Y-68668387D01*
X138170227Y-68646443D01*
X138164563Y-68623834D01*
X138161144Y-68600779D01*
X138160000Y-68577500D01*
X138160000Y-68102500D01*
X138161144Y-68079221D01*
X138164563Y-68056166D01*
X138170227Y-68033557D01*
X138178079Y-68011613D01*
X138188044Y-67990543D01*
X138200026Y-67970552D01*
X138213910Y-67951832D01*
X138229562Y-67934562D01*
X138246832Y-67918910D01*
X138265552Y-67905026D01*
X138285543Y-67893044D01*
X138306613Y-67883079D01*
X138328557Y-67875227D01*
X138351166Y-67869563D01*
X138374221Y-67866144D01*
X138397500Y-67865000D01*
X138972500Y-67865000D01*
X138995779Y-67866144D01*
X138995779Y-67866144D01*
G37*
D11*
X138685000Y-68340000D03*
%TD*%
D10*
%TO.C,R8*%
G36*
X138995779Y-71866144D02*
G01*
X139018834Y-71869563D01*
X139041443Y-71875227D01*
X139063387Y-71883079D01*
X139084457Y-71893044D01*
X139104448Y-71905026D01*
X139123168Y-71918910D01*
X139140438Y-71934562D01*
X139156090Y-71951832D01*
X139169974Y-71970552D01*
X139181956Y-71990543D01*
X139191921Y-72011613D01*
X139199773Y-72033557D01*
X139205437Y-72056166D01*
X139208856Y-72079221D01*
X139210000Y-72102500D01*
X139210000Y-72577500D01*
X139208856Y-72600779D01*
X139205437Y-72623834D01*
X139199773Y-72646443D01*
X139191921Y-72668387D01*
X139181956Y-72689457D01*
X139169974Y-72709448D01*
X139156090Y-72728168D01*
X139140438Y-72745438D01*
X139123168Y-72761090D01*
X139104448Y-72774974D01*
X139084457Y-72786956D01*
X139063387Y-72796921D01*
X139041443Y-72804773D01*
X139018834Y-72810437D01*
X138995779Y-72813856D01*
X138972500Y-72815000D01*
X138397500Y-72815000D01*
X138374221Y-72813856D01*
X138351166Y-72810437D01*
X138328557Y-72804773D01*
X138306613Y-72796921D01*
X138285543Y-72786956D01*
X138265552Y-72774974D01*
X138246832Y-72761090D01*
X138229562Y-72745438D01*
X138213910Y-72728168D01*
X138200026Y-72709448D01*
X138188044Y-72689457D01*
X138178079Y-72668387D01*
X138170227Y-72646443D01*
X138164563Y-72623834D01*
X138161144Y-72600779D01*
X138160000Y-72577500D01*
X138160000Y-72102500D01*
X138161144Y-72079221D01*
X138164563Y-72056166D01*
X138170227Y-72033557D01*
X138178079Y-72011613D01*
X138188044Y-71990543D01*
X138200026Y-71970552D01*
X138213910Y-71951832D01*
X138229562Y-71934562D01*
X138246832Y-71918910D01*
X138265552Y-71905026D01*
X138285543Y-71893044D01*
X138306613Y-71883079D01*
X138328557Y-71875227D01*
X138351166Y-71869563D01*
X138374221Y-71866144D01*
X138397500Y-71865000D01*
X138972500Y-71865000D01*
X138995779Y-71866144D01*
X138995779Y-71866144D01*
G37*
D11*
X138685000Y-72340000D03*
D10*
G36*
X140745779Y-71866144D02*
G01*
X140768834Y-71869563D01*
X140791443Y-71875227D01*
X140813387Y-71883079D01*
X140834457Y-71893044D01*
X140854448Y-71905026D01*
X140873168Y-71918910D01*
X140890438Y-71934562D01*
X140906090Y-71951832D01*
X140919974Y-71970552D01*
X140931956Y-71990543D01*
X140941921Y-72011613D01*
X140949773Y-72033557D01*
X140955437Y-72056166D01*
X140958856Y-72079221D01*
X140960000Y-72102500D01*
X140960000Y-72577500D01*
X140958856Y-72600779D01*
X140955437Y-72623834D01*
X140949773Y-72646443D01*
X140941921Y-72668387D01*
X140931956Y-72689457D01*
X140919974Y-72709448D01*
X140906090Y-72728168D01*
X140890438Y-72745438D01*
X140873168Y-72761090D01*
X140854448Y-72774974D01*
X140834457Y-72786956D01*
X140813387Y-72796921D01*
X140791443Y-72804773D01*
X140768834Y-72810437D01*
X140745779Y-72813856D01*
X140722500Y-72815000D01*
X140147500Y-72815000D01*
X140124221Y-72813856D01*
X140101166Y-72810437D01*
X140078557Y-72804773D01*
X140056613Y-72796921D01*
X140035543Y-72786956D01*
X140015552Y-72774974D01*
X139996832Y-72761090D01*
X139979562Y-72745438D01*
X139963910Y-72728168D01*
X139950026Y-72709448D01*
X139938044Y-72689457D01*
X139928079Y-72668387D01*
X139920227Y-72646443D01*
X139914563Y-72623834D01*
X139911144Y-72600779D01*
X139910000Y-72577500D01*
X139910000Y-72102500D01*
X139911144Y-72079221D01*
X139914563Y-72056166D01*
X139920227Y-72033557D01*
X139928079Y-72011613D01*
X139938044Y-71990543D01*
X139950026Y-71970552D01*
X139963910Y-71951832D01*
X139979562Y-71934562D01*
X139996832Y-71918910D01*
X140015552Y-71905026D01*
X140035543Y-71893044D01*
X140056613Y-71883079D01*
X140078557Y-71875227D01*
X140101166Y-71869563D01*
X140124221Y-71866144D01*
X140147500Y-71865000D01*
X140722500Y-71865000D01*
X140745779Y-71866144D01*
X140745779Y-71866144D01*
G37*
D11*
X140435000Y-72340000D03*
%TD*%
D10*
%TO.C,R9*%
G36*
X140745779Y-75866144D02*
G01*
X140768834Y-75869563D01*
X140791443Y-75875227D01*
X140813387Y-75883079D01*
X140834457Y-75893044D01*
X140854448Y-75905026D01*
X140873168Y-75918910D01*
X140890438Y-75934562D01*
X140906090Y-75951832D01*
X140919974Y-75970552D01*
X140931956Y-75990543D01*
X140941921Y-76011613D01*
X140949773Y-76033557D01*
X140955437Y-76056166D01*
X140958856Y-76079221D01*
X140960000Y-76102500D01*
X140960000Y-76577500D01*
X140958856Y-76600779D01*
X140955437Y-76623834D01*
X140949773Y-76646443D01*
X140941921Y-76668387D01*
X140931956Y-76689457D01*
X140919974Y-76709448D01*
X140906090Y-76728168D01*
X140890438Y-76745438D01*
X140873168Y-76761090D01*
X140854448Y-76774974D01*
X140834457Y-76786956D01*
X140813387Y-76796921D01*
X140791443Y-76804773D01*
X140768834Y-76810437D01*
X140745779Y-76813856D01*
X140722500Y-76815000D01*
X140147500Y-76815000D01*
X140124221Y-76813856D01*
X140101166Y-76810437D01*
X140078557Y-76804773D01*
X140056613Y-76796921D01*
X140035543Y-76786956D01*
X140015552Y-76774974D01*
X139996832Y-76761090D01*
X139979562Y-76745438D01*
X139963910Y-76728168D01*
X139950026Y-76709448D01*
X139938044Y-76689457D01*
X139928079Y-76668387D01*
X139920227Y-76646443D01*
X139914563Y-76623834D01*
X139911144Y-76600779D01*
X139910000Y-76577500D01*
X139910000Y-76102500D01*
X139911144Y-76079221D01*
X139914563Y-76056166D01*
X139920227Y-76033557D01*
X139928079Y-76011613D01*
X139938044Y-75990543D01*
X139950026Y-75970552D01*
X139963910Y-75951832D01*
X139979562Y-75934562D01*
X139996832Y-75918910D01*
X140015552Y-75905026D01*
X140035543Y-75893044D01*
X140056613Y-75883079D01*
X140078557Y-75875227D01*
X140101166Y-75869563D01*
X140124221Y-75866144D01*
X140147500Y-75865000D01*
X140722500Y-75865000D01*
X140745779Y-75866144D01*
X140745779Y-75866144D01*
G37*
D11*
X140435000Y-76340000D03*
D10*
G36*
X138995779Y-75866144D02*
G01*
X139018834Y-75869563D01*
X139041443Y-75875227D01*
X139063387Y-75883079D01*
X139084457Y-75893044D01*
X139104448Y-75905026D01*
X139123168Y-75918910D01*
X139140438Y-75934562D01*
X139156090Y-75951832D01*
X139169974Y-75970552D01*
X139181956Y-75990543D01*
X139191921Y-76011613D01*
X139199773Y-76033557D01*
X139205437Y-76056166D01*
X139208856Y-76079221D01*
X139210000Y-76102500D01*
X139210000Y-76577500D01*
X139208856Y-76600779D01*
X139205437Y-76623834D01*
X139199773Y-76646443D01*
X139191921Y-76668387D01*
X139181956Y-76689457D01*
X139169974Y-76709448D01*
X139156090Y-76728168D01*
X139140438Y-76745438D01*
X139123168Y-76761090D01*
X139104448Y-76774974D01*
X139084457Y-76786956D01*
X139063387Y-76796921D01*
X139041443Y-76804773D01*
X139018834Y-76810437D01*
X138995779Y-76813856D01*
X138972500Y-76815000D01*
X138397500Y-76815000D01*
X138374221Y-76813856D01*
X138351166Y-76810437D01*
X138328557Y-76804773D01*
X138306613Y-76796921D01*
X138285543Y-76786956D01*
X138265552Y-76774974D01*
X138246832Y-76761090D01*
X138229562Y-76745438D01*
X138213910Y-76728168D01*
X138200026Y-76709448D01*
X138188044Y-76689457D01*
X138178079Y-76668387D01*
X138170227Y-76646443D01*
X138164563Y-76623834D01*
X138161144Y-76600779D01*
X138160000Y-76577500D01*
X138160000Y-76102500D01*
X138161144Y-76079221D01*
X138164563Y-76056166D01*
X138170227Y-76033557D01*
X138178079Y-76011613D01*
X138188044Y-75990543D01*
X138200026Y-75970552D01*
X138213910Y-75951832D01*
X138229562Y-75934562D01*
X138246832Y-75918910D01*
X138265552Y-75905026D01*
X138285543Y-75893044D01*
X138306613Y-75883079D01*
X138328557Y-75875227D01*
X138351166Y-75869563D01*
X138374221Y-75866144D01*
X138397500Y-75865000D01*
X138972500Y-75865000D01*
X138995779Y-75866144D01*
X138995779Y-75866144D01*
G37*
D11*
X138685000Y-76340000D03*
%TD*%
D10*
%TO.C,R10*%
G36*
X138995779Y-79866144D02*
G01*
X139018834Y-79869563D01*
X139041443Y-79875227D01*
X139063387Y-79883079D01*
X139084457Y-79893044D01*
X139104448Y-79905026D01*
X139123168Y-79918910D01*
X139140438Y-79934562D01*
X139156090Y-79951832D01*
X139169974Y-79970552D01*
X139181956Y-79990543D01*
X139191921Y-80011613D01*
X139199773Y-80033557D01*
X139205437Y-80056166D01*
X139208856Y-80079221D01*
X139210000Y-80102500D01*
X139210000Y-80577500D01*
X139208856Y-80600779D01*
X139205437Y-80623834D01*
X139199773Y-80646443D01*
X139191921Y-80668387D01*
X139181956Y-80689457D01*
X139169974Y-80709448D01*
X139156090Y-80728168D01*
X139140438Y-80745438D01*
X139123168Y-80761090D01*
X139104448Y-80774974D01*
X139084457Y-80786956D01*
X139063387Y-80796921D01*
X139041443Y-80804773D01*
X139018834Y-80810437D01*
X138995779Y-80813856D01*
X138972500Y-80815000D01*
X138397500Y-80815000D01*
X138374221Y-80813856D01*
X138351166Y-80810437D01*
X138328557Y-80804773D01*
X138306613Y-80796921D01*
X138285543Y-80786956D01*
X138265552Y-80774974D01*
X138246832Y-80761090D01*
X138229562Y-80745438D01*
X138213910Y-80728168D01*
X138200026Y-80709448D01*
X138188044Y-80689457D01*
X138178079Y-80668387D01*
X138170227Y-80646443D01*
X138164563Y-80623834D01*
X138161144Y-80600779D01*
X138160000Y-80577500D01*
X138160000Y-80102500D01*
X138161144Y-80079221D01*
X138164563Y-80056166D01*
X138170227Y-80033557D01*
X138178079Y-80011613D01*
X138188044Y-79990543D01*
X138200026Y-79970552D01*
X138213910Y-79951832D01*
X138229562Y-79934562D01*
X138246832Y-79918910D01*
X138265552Y-79905026D01*
X138285543Y-79893044D01*
X138306613Y-79883079D01*
X138328557Y-79875227D01*
X138351166Y-79869563D01*
X138374221Y-79866144D01*
X138397500Y-79865000D01*
X138972500Y-79865000D01*
X138995779Y-79866144D01*
X138995779Y-79866144D01*
G37*
D11*
X138685000Y-80340000D03*
D10*
G36*
X140745779Y-79866144D02*
G01*
X140768834Y-79869563D01*
X140791443Y-79875227D01*
X140813387Y-79883079D01*
X140834457Y-79893044D01*
X140854448Y-79905026D01*
X140873168Y-79918910D01*
X140890438Y-79934562D01*
X140906090Y-79951832D01*
X140919974Y-79970552D01*
X140931956Y-79990543D01*
X140941921Y-80011613D01*
X140949773Y-80033557D01*
X140955437Y-80056166D01*
X140958856Y-80079221D01*
X140960000Y-80102500D01*
X140960000Y-80577500D01*
X140958856Y-80600779D01*
X140955437Y-80623834D01*
X140949773Y-80646443D01*
X140941921Y-80668387D01*
X140931956Y-80689457D01*
X140919974Y-80709448D01*
X140906090Y-80728168D01*
X140890438Y-80745438D01*
X140873168Y-80761090D01*
X140854448Y-80774974D01*
X140834457Y-80786956D01*
X140813387Y-80796921D01*
X140791443Y-80804773D01*
X140768834Y-80810437D01*
X140745779Y-80813856D01*
X140722500Y-80815000D01*
X140147500Y-80815000D01*
X140124221Y-80813856D01*
X140101166Y-80810437D01*
X140078557Y-80804773D01*
X140056613Y-80796921D01*
X140035543Y-80786956D01*
X140015552Y-80774974D01*
X139996832Y-80761090D01*
X139979562Y-80745438D01*
X139963910Y-80728168D01*
X139950026Y-80709448D01*
X139938044Y-80689457D01*
X139928079Y-80668387D01*
X139920227Y-80646443D01*
X139914563Y-80623834D01*
X139911144Y-80600779D01*
X139910000Y-80577500D01*
X139910000Y-80102500D01*
X139911144Y-80079221D01*
X139914563Y-80056166D01*
X139920227Y-80033557D01*
X139928079Y-80011613D01*
X139938044Y-79990543D01*
X139950026Y-79970552D01*
X139963910Y-79951832D01*
X139979562Y-79934562D01*
X139996832Y-79918910D01*
X140015552Y-79905026D01*
X140035543Y-79893044D01*
X140056613Y-79883079D01*
X140078557Y-79875227D01*
X140101166Y-79869563D01*
X140124221Y-79866144D01*
X140147500Y-79865000D01*
X140722500Y-79865000D01*
X140745779Y-79866144D01*
X140745779Y-79866144D01*
G37*
D11*
X140435000Y-80340000D03*
%TD*%
D10*
%TO.C,R11*%
G36*
X86874779Y-104265144D02*
G01*
X86897834Y-104268563D01*
X86920443Y-104274227D01*
X86942387Y-104282079D01*
X86963457Y-104292044D01*
X86983448Y-104304026D01*
X87002168Y-104317910D01*
X87019438Y-104333562D01*
X87035090Y-104350832D01*
X87048974Y-104369552D01*
X87060956Y-104389543D01*
X87070921Y-104410613D01*
X87078773Y-104432557D01*
X87084437Y-104455166D01*
X87087856Y-104478221D01*
X87089000Y-104501500D01*
X87089000Y-105076500D01*
X87087856Y-105099779D01*
X87084437Y-105122834D01*
X87078773Y-105145443D01*
X87070921Y-105167387D01*
X87060956Y-105188457D01*
X87048974Y-105208448D01*
X87035090Y-105227168D01*
X87019438Y-105244438D01*
X87002168Y-105260090D01*
X86983448Y-105273974D01*
X86963457Y-105285956D01*
X86942387Y-105295921D01*
X86920443Y-105303773D01*
X86897834Y-105309437D01*
X86874779Y-105312856D01*
X86851500Y-105314000D01*
X86376500Y-105314000D01*
X86353221Y-105312856D01*
X86330166Y-105309437D01*
X86307557Y-105303773D01*
X86285613Y-105295921D01*
X86264543Y-105285956D01*
X86244552Y-105273974D01*
X86225832Y-105260090D01*
X86208562Y-105244438D01*
X86192910Y-105227168D01*
X86179026Y-105208448D01*
X86167044Y-105188457D01*
X86157079Y-105167387D01*
X86149227Y-105145443D01*
X86143563Y-105122834D01*
X86140144Y-105099779D01*
X86139000Y-105076500D01*
X86139000Y-104501500D01*
X86140144Y-104478221D01*
X86143563Y-104455166D01*
X86149227Y-104432557D01*
X86157079Y-104410613D01*
X86167044Y-104389543D01*
X86179026Y-104369552D01*
X86192910Y-104350832D01*
X86208562Y-104333562D01*
X86225832Y-104317910D01*
X86244552Y-104304026D01*
X86264543Y-104292044D01*
X86285613Y-104282079D01*
X86307557Y-104274227D01*
X86330166Y-104268563D01*
X86353221Y-104265144D01*
X86376500Y-104264000D01*
X86851500Y-104264000D01*
X86874779Y-104265144D01*
X86874779Y-104265144D01*
G37*
D11*
X86614000Y-104789000D03*
D10*
G36*
X86874779Y-106015144D02*
G01*
X86897834Y-106018563D01*
X86920443Y-106024227D01*
X86942387Y-106032079D01*
X86963457Y-106042044D01*
X86983448Y-106054026D01*
X87002168Y-106067910D01*
X87019438Y-106083562D01*
X87035090Y-106100832D01*
X87048974Y-106119552D01*
X87060956Y-106139543D01*
X87070921Y-106160613D01*
X87078773Y-106182557D01*
X87084437Y-106205166D01*
X87087856Y-106228221D01*
X87089000Y-106251500D01*
X87089000Y-106826500D01*
X87087856Y-106849779D01*
X87084437Y-106872834D01*
X87078773Y-106895443D01*
X87070921Y-106917387D01*
X87060956Y-106938457D01*
X87048974Y-106958448D01*
X87035090Y-106977168D01*
X87019438Y-106994438D01*
X87002168Y-107010090D01*
X86983448Y-107023974D01*
X86963457Y-107035956D01*
X86942387Y-107045921D01*
X86920443Y-107053773D01*
X86897834Y-107059437D01*
X86874779Y-107062856D01*
X86851500Y-107064000D01*
X86376500Y-107064000D01*
X86353221Y-107062856D01*
X86330166Y-107059437D01*
X86307557Y-107053773D01*
X86285613Y-107045921D01*
X86264543Y-107035956D01*
X86244552Y-107023974D01*
X86225832Y-107010090D01*
X86208562Y-106994438D01*
X86192910Y-106977168D01*
X86179026Y-106958448D01*
X86167044Y-106938457D01*
X86157079Y-106917387D01*
X86149227Y-106895443D01*
X86143563Y-106872834D01*
X86140144Y-106849779D01*
X86139000Y-106826500D01*
X86139000Y-106251500D01*
X86140144Y-106228221D01*
X86143563Y-106205166D01*
X86149227Y-106182557D01*
X86157079Y-106160613D01*
X86167044Y-106139543D01*
X86179026Y-106119552D01*
X86192910Y-106100832D01*
X86208562Y-106083562D01*
X86225832Y-106067910D01*
X86244552Y-106054026D01*
X86264543Y-106042044D01*
X86285613Y-106032079D01*
X86307557Y-106024227D01*
X86330166Y-106018563D01*
X86353221Y-106015144D01*
X86376500Y-106014000D01*
X86851500Y-106014000D01*
X86874779Y-106015144D01*
X86874779Y-106015144D01*
G37*
D11*
X86614000Y-106539000D03*
%TD*%
D18*
%TO.C,U1*%
X116460000Y-67080000D03*
X115810000Y-67080000D03*
X115160000Y-67080000D03*
X115160000Y-69740000D03*
X116460000Y-69740000D03*
%TD*%
%TO.C,U2*%
X126460000Y-69740000D03*
X125160000Y-69740000D03*
X125160000Y-67080000D03*
X125810000Y-67080000D03*
X126460000Y-67080000D03*
%TD*%
D19*
%TO.C,U3*%
X89650000Y-108620000D03*
X89650000Y-109570000D03*
X89650000Y-110520000D03*
X92350000Y-110520000D03*
X92350000Y-108620000D03*
%TD*%
D20*
%TO.C,U4*%
X97457000Y-104061000D03*
X97107000Y-104061000D03*
X97457000Y-103711000D03*
X97107000Y-103711000D03*
%TD*%
D10*
%TO.C,U5*%
G36*
X113429427Y-83530202D02*
G01*
X113441561Y-83532002D01*
X113453461Y-83534982D01*
X113465010Y-83539115D01*
X113476100Y-83544360D01*
X113486621Y-83550666D01*
X113496474Y-83557974D01*
X113505563Y-83566212D01*
X114389446Y-84450095D01*
X114397684Y-84459184D01*
X114404992Y-84469037D01*
X114411298Y-84479558D01*
X114416543Y-84490648D01*
X114420676Y-84502197D01*
X114423656Y-84514097D01*
X114425456Y-84526231D01*
X114426058Y-84538483D01*
X114425456Y-84550735D01*
X114423656Y-84562869D01*
X114420676Y-84574769D01*
X114416543Y-84586318D01*
X114411298Y-84597408D01*
X114404992Y-84607929D01*
X114397684Y-84617782D01*
X114389446Y-84626871D01*
X114212669Y-84803648D01*
X114203580Y-84811886D01*
X114193727Y-84819194D01*
X114183206Y-84825500D01*
X114172116Y-84830745D01*
X114160567Y-84834878D01*
X114148667Y-84837858D01*
X114136533Y-84839658D01*
X114124281Y-84840260D01*
X114112029Y-84839658D01*
X114099895Y-84837858D01*
X114087995Y-84834878D01*
X114076446Y-84830745D01*
X114065356Y-84825500D01*
X114054835Y-84819194D01*
X114044982Y-84811886D01*
X114035893Y-84803648D01*
X113152010Y-83919765D01*
X113143772Y-83910676D01*
X113136464Y-83900823D01*
X113130158Y-83890302D01*
X113124913Y-83879212D01*
X113120780Y-83867663D01*
X113117800Y-83855763D01*
X113116000Y-83843629D01*
X113115398Y-83831377D01*
X113116000Y-83819125D01*
X113117800Y-83806991D01*
X113120780Y-83795091D01*
X113124913Y-83783542D01*
X113130158Y-83772452D01*
X113136464Y-83761931D01*
X113143772Y-83752078D01*
X113152010Y-83742989D01*
X113328787Y-83566212D01*
X113337876Y-83557974D01*
X113347729Y-83550666D01*
X113358250Y-83544360D01*
X113369340Y-83539115D01*
X113380889Y-83534982D01*
X113392789Y-83532002D01*
X113404923Y-83530202D01*
X113417175Y-83529600D01*
X113429427Y-83530202D01*
X113429427Y-83530202D01*
G37*
D21*
X113770728Y-84184930D03*
D10*
G36*
X112863742Y-84095888D02*
G01*
X112875876Y-84097688D01*
X112887776Y-84100668D01*
X112899325Y-84104801D01*
X112910415Y-84110046D01*
X112920936Y-84116352D01*
X112930789Y-84123660D01*
X112939878Y-84131898D01*
X113823761Y-85015781D01*
X113831999Y-85024870D01*
X113839307Y-85034723D01*
X113845613Y-85045244D01*
X113850858Y-85056334D01*
X113854991Y-85067883D01*
X113857971Y-85079783D01*
X113859771Y-85091917D01*
X113860373Y-85104169D01*
X113859771Y-85116421D01*
X113857971Y-85128555D01*
X113854991Y-85140455D01*
X113850858Y-85152004D01*
X113845613Y-85163094D01*
X113839307Y-85173615D01*
X113831999Y-85183468D01*
X113823761Y-85192557D01*
X113646984Y-85369334D01*
X113637895Y-85377572D01*
X113628042Y-85384880D01*
X113617521Y-85391186D01*
X113606431Y-85396431D01*
X113594882Y-85400564D01*
X113582982Y-85403544D01*
X113570848Y-85405344D01*
X113558596Y-85405946D01*
X113546344Y-85405344D01*
X113534210Y-85403544D01*
X113522310Y-85400564D01*
X113510761Y-85396431D01*
X113499671Y-85391186D01*
X113489150Y-85384880D01*
X113479297Y-85377572D01*
X113470208Y-85369334D01*
X112586325Y-84485451D01*
X112578087Y-84476362D01*
X112570779Y-84466509D01*
X112564473Y-84455988D01*
X112559228Y-84444898D01*
X112555095Y-84433349D01*
X112552115Y-84421449D01*
X112550315Y-84409315D01*
X112549713Y-84397063D01*
X112550315Y-84384811D01*
X112552115Y-84372677D01*
X112555095Y-84360777D01*
X112559228Y-84349228D01*
X112564473Y-84338138D01*
X112570779Y-84327617D01*
X112578087Y-84317764D01*
X112586325Y-84308675D01*
X112763102Y-84131898D01*
X112772191Y-84123660D01*
X112782044Y-84116352D01*
X112792565Y-84110046D01*
X112803655Y-84104801D01*
X112815204Y-84100668D01*
X112827104Y-84097688D01*
X112839238Y-84095888D01*
X112851490Y-84095286D01*
X112863742Y-84095888D01*
X112863742Y-84095888D01*
G37*
D21*
X113205043Y-84750616D03*
D10*
G36*
X112298056Y-84661573D02*
G01*
X112310190Y-84663373D01*
X112322090Y-84666353D01*
X112333639Y-84670486D01*
X112344729Y-84675731D01*
X112355250Y-84682037D01*
X112365103Y-84689345D01*
X112374192Y-84697583D01*
X113258075Y-85581466D01*
X113266313Y-85590555D01*
X113273621Y-85600408D01*
X113279927Y-85610929D01*
X113285172Y-85622019D01*
X113289305Y-85633568D01*
X113292285Y-85645468D01*
X113294085Y-85657602D01*
X113294687Y-85669854D01*
X113294085Y-85682106D01*
X113292285Y-85694240D01*
X113289305Y-85706140D01*
X113285172Y-85717689D01*
X113279927Y-85728779D01*
X113273621Y-85739300D01*
X113266313Y-85749153D01*
X113258075Y-85758242D01*
X113081298Y-85935019D01*
X113072209Y-85943257D01*
X113062356Y-85950565D01*
X113051835Y-85956871D01*
X113040745Y-85962116D01*
X113029196Y-85966249D01*
X113017296Y-85969229D01*
X113005162Y-85971029D01*
X112992910Y-85971631D01*
X112980658Y-85971029D01*
X112968524Y-85969229D01*
X112956624Y-85966249D01*
X112945075Y-85962116D01*
X112933985Y-85956871D01*
X112923464Y-85950565D01*
X112913611Y-85943257D01*
X112904522Y-85935019D01*
X112020639Y-85051136D01*
X112012401Y-85042047D01*
X112005093Y-85032194D01*
X111998787Y-85021673D01*
X111993542Y-85010583D01*
X111989409Y-84999034D01*
X111986429Y-84987134D01*
X111984629Y-84975000D01*
X111984027Y-84962748D01*
X111984629Y-84950496D01*
X111986429Y-84938362D01*
X111989409Y-84926462D01*
X111993542Y-84914913D01*
X111998787Y-84903823D01*
X112005093Y-84893302D01*
X112012401Y-84883449D01*
X112020639Y-84874360D01*
X112197416Y-84697583D01*
X112206505Y-84689345D01*
X112216358Y-84682037D01*
X112226879Y-84675731D01*
X112237969Y-84670486D01*
X112249518Y-84666353D01*
X112261418Y-84663373D01*
X112273552Y-84661573D01*
X112285804Y-84660971D01*
X112298056Y-84661573D01*
X112298056Y-84661573D01*
G37*
D21*
X112639357Y-85316301D03*
D10*
G36*
X111732371Y-85227258D02*
G01*
X111744505Y-85229058D01*
X111756405Y-85232038D01*
X111767954Y-85236171D01*
X111779044Y-85241416D01*
X111789565Y-85247722D01*
X111799418Y-85255030D01*
X111808507Y-85263268D01*
X112692390Y-86147151D01*
X112700628Y-86156240D01*
X112707936Y-86166093D01*
X112714242Y-86176614D01*
X112719487Y-86187704D01*
X112723620Y-86199253D01*
X112726600Y-86211153D01*
X112728400Y-86223287D01*
X112729002Y-86235539D01*
X112728400Y-86247791D01*
X112726600Y-86259925D01*
X112723620Y-86271825D01*
X112719487Y-86283374D01*
X112714242Y-86294464D01*
X112707936Y-86304985D01*
X112700628Y-86314838D01*
X112692390Y-86323927D01*
X112515613Y-86500704D01*
X112506524Y-86508942D01*
X112496671Y-86516250D01*
X112486150Y-86522556D01*
X112475060Y-86527801D01*
X112463511Y-86531934D01*
X112451611Y-86534914D01*
X112439477Y-86536714D01*
X112427225Y-86537316D01*
X112414973Y-86536714D01*
X112402839Y-86534914D01*
X112390939Y-86531934D01*
X112379390Y-86527801D01*
X112368300Y-86522556D01*
X112357779Y-86516250D01*
X112347926Y-86508942D01*
X112338837Y-86500704D01*
X111454954Y-85616821D01*
X111446716Y-85607732D01*
X111439408Y-85597879D01*
X111433102Y-85587358D01*
X111427857Y-85576268D01*
X111423724Y-85564719D01*
X111420744Y-85552819D01*
X111418944Y-85540685D01*
X111418342Y-85528433D01*
X111418944Y-85516181D01*
X111420744Y-85504047D01*
X111423724Y-85492147D01*
X111427857Y-85480598D01*
X111433102Y-85469508D01*
X111439408Y-85458987D01*
X111446716Y-85449134D01*
X111454954Y-85440045D01*
X111631731Y-85263268D01*
X111640820Y-85255030D01*
X111650673Y-85247722D01*
X111661194Y-85241416D01*
X111672284Y-85236171D01*
X111683833Y-85232038D01*
X111695733Y-85229058D01*
X111707867Y-85227258D01*
X111720119Y-85226656D01*
X111732371Y-85227258D01*
X111732371Y-85227258D01*
G37*
D21*
X112073672Y-85881986D03*
D10*
G36*
X111166685Y-85792944D02*
G01*
X111178819Y-85794744D01*
X111190719Y-85797724D01*
X111202268Y-85801857D01*
X111213358Y-85807102D01*
X111223879Y-85813408D01*
X111233732Y-85820716D01*
X111242821Y-85828954D01*
X112126704Y-86712837D01*
X112134942Y-86721926D01*
X112142250Y-86731779D01*
X112148556Y-86742300D01*
X112153801Y-86753390D01*
X112157934Y-86764939D01*
X112160914Y-86776839D01*
X112162714Y-86788973D01*
X112163316Y-86801225D01*
X112162714Y-86813477D01*
X112160914Y-86825611D01*
X112157934Y-86837511D01*
X112153801Y-86849060D01*
X112148556Y-86860150D01*
X112142250Y-86870671D01*
X112134942Y-86880524D01*
X112126704Y-86889613D01*
X111949927Y-87066390D01*
X111940838Y-87074628D01*
X111930985Y-87081936D01*
X111920464Y-87088242D01*
X111909374Y-87093487D01*
X111897825Y-87097620D01*
X111885925Y-87100600D01*
X111873791Y-87102400D01*
X111861539Y-87103002D01*
X111849287Y-87102400D01*
X111837153Y-87100600D01*
X111825253Y-87097620D01*
X111813704Y-87093487D01*
X111802614Y-87088242D01*
X111792093Y-87081936D01*
X111782240Y-87074628D01*
X111773151Y-87066390D01*
X110889268Y-86182507D01*
X110881030Y-86173418D01*
X110873722Y-86163565D01*
X110867416Y-86153044D01*
X110862171Y-86141954D01*
X110858038Y-86130405D01*
X110855058Y-86118505D01*
X110853258Y-86106371D01*
X110852656Y-86094119D01*
X110853258Y-86081867D01*
X110855058Y-86069733D01*
X110858038Y-86057833D01*
X110862171Y-86046284D01*
X110867416Y-86035194D01*
X110873722Y-86024673D01*
X110881030Y-86014820D01*
X110889268Y-86005731D01*
X111066045Y-85828954D01*
X111075134Y-85820716D01*
X111084987Y-85813408D01*
X111095508Y-85807102D01*
X111106598Y-85801857D01*
X111118147Y-85797724D01*
X111130047Y-85794744D01*
X111142181Y-85792944D01*
X111154433Y-85792342D01*
X111166685Y-85792944D01*
X111166685Y-85792944D01*
G37*
D21*
X111507986Y-86447672D03*
D10*
G36*
X110601000Y-86358629D02*
G01*
X110613134Y-86360429D01*
X110625034Y-86363409D01*
X110636583Y-86367542D01*
X110647673Y-86372787D01*
X110658194Y-86379093D01*
X110668047Y-86386401D01*
X110677136Y-86394639D01*
X111561019Y-87278522D01*
X111569257Y-87287611D01*
X111576565Y-87297464D01*
X111582871Y-87307985D01*
X111588116Y-87319075D01*
X111592249Y-87330624D01*
X111595229Y-87342524D01*
X111597029Y-87354658D01*
X111597631Y-87366910D01*
X111597029Y-87379162D01*
X111595229Y-87391296D01*
X111592249Y-87403196D01*
X111588116Y-87414745D01*
X111582871Y-87425835D01*
X111576565Y-87436356D01*
X111569257Y-87446209D01*
X111561019Y-87455298D01*
X111384242Y-87632075D01*
X111375153Y-87640313D01*
X111365300Y-87647621D01*
X111354779Y-87653927D01*
X111343689Y-87659172D01*
X111332140Y-87663305D01*
X111320240Y-87666285D01*
X111308106Y-87668085D01*
X111295854Y-87668687D01*
X111283602Y-87668085D01*
X111271468Y-87666285D01*
X111259568Y-87663305D01*
X111248019Y-87659172D01*
X111236929Y-87653927D01*
X111226408Y-87647621D01*
X111216555Y-87640313D01*
X111207466Y-87632075D01*
X110323583Y-86748192D01*
X110315345Y-86739103D01*
X110308037Y-86729250D01*
X110301731Y-86718729D01*
X110296486Y-86707639D01*
X110292353Y-86696090D01*
X110289373Y-86684190D01*
X110287573Y-86672056D01*
X110286971Y-86659804D01*
X110287573Y-86647552D01*
X110289373Y-86635418D01*
X110292353Y-86623518D01*
X110296486Y-86611969D01*
X110301731Y-86600879D01*
X110308037Y-86590358D01*
X110315345Y-86580505D01*
X110323583Y-86571416D01*
X110500360Y-86394639D01*
X110509449Y-86386401D01*
X110519302Y-86379093D01*
X110529823Y-86372787D01*
X110540913Y-86367542D01*
X110552462Y-86363409D01*
X110564362Y-86360429D01*
X110576496Y-86358629D01*
X110588748Y-86358027D01*
X110601000Y-86358629D01*
X110601000Y-86358629D01*
G37*
D21*
X110942301Y-87013357D03*
D10*
G36*
X110035315Y-86924315D02*
G01*
X110047449Y-86926115D01*
X110059349Y-86929095D01*
X110070898Y-86933228D01*
X110081988Y-86938473D01*
X110092509Y-86944779D01*
X110102362Y-86952087D01*
X110111451Y-86960325D01*
X110995334Y-87844208D01*
X111003572Y-87853297D01*
X111010880Y-87863150D01*
X111017186Y-87873671D01*
X111022431Y-87884761D01*
X111026564Y-87896310D01*
X111029544Y-87908210D01*
X111031344Y-87920344D01*
X111031946Y-87932596D01*
X111031344Y-87944848D01*
X111029544Y-87956982D01*
X111026564Y-87968882D01*
X111022431Y-87980431D01*
X111017186Y-87991521D01*
X111010880Y-88002042D01*
X111003572Y-88011895D01*
X110995334Y-88020984D01*
X110818557Y-88197761D01*
X110809468Y-88205999D01*
X110799615Y-88213307D01*
X110789094Y-88219613D01*
X110778004Y-88224858D01*
X110766455Y-88228991D01*
X110754555Y-88231971D01*
X110742421Y-88233771D01*
X110730169Y-88234373D01*
X110717917Y-88233771D01*
X110705783Y-88231971D01*
X110693883Y-88228991D01*
X110682334Y-88224858D01*
X110671244Y-88219613D01*
X110660723Y-88213307D01*
X110650870Y-88205999D01*
X110641781Y-88197761D01*
X109757898Y-87313878D01*
X109749660Y-87304789D01*
X109742352Y-87294936D01*
X109736046Y-87284415D01*
X109730801Y-87273325D01*
X109726668Y-87261776D01*
X109723688Y-87249876D01*
X109721888Y-87237742D01*
X109721286Y-87225490D01*
X109721888Y-87213238D01*
X109723688Y-87201104D01*
X109726668Y-87189204D01*
X109730801Y-87177655D01*
X109736046Y-87166565D01*
X109742352Y-87156044D01*
X109749660Y-87146191D01*
X109757898Y-87137102D01*
X109934675Y-86960325D01*
X109943764Y-86952087D01*
X109953617Y-86944779D01*
X109964138Y-86938473D01*
X109975228Y-86933228D01*
X109986777Y-86929095D01*
X109998677Y-86926115D01*
X110010811Y-86924315D01*
X110023063Y-86923713D01*
X110035315Y-86924315D01*
X110035315Y-86924315D01*
G37*
D21*
X110376616Y-87579043D03*
D10*
G36*
X109469629Y-87490000D02*
G01*
X109481763Y-87491800D01*
X109493663Y-87494780D01*
X109505212Y-87498913D01*
X109516302Y-87504158D01*
X109526823Y-87510464D01*
X109536676Y-87517772D01*
X109545765Y-87526010D01*
X110429648Y-88409893D01*
X110437886Y-88418982D01*
X110445194Y-88428835D01*
X110451500Y-88439356D01*
X110456745Y-88450446D01*
X110460878Y-88461995D01*
X110463858Y-88473895D01*
X110465658Y-88486029D01*
X110466260Y-88498281D01*
X110465658Y-88510533D01*
X110463858Y-88522667D01*
X110460878Y-88534567D01*
X110456745Y-88546116D01*
X110451500Y-88557206D01*
X110445194Y-88567727D01*
X110437886Y-88577580D01*
X110429648Y-88586669D01*
X110252871Y-88763446D01*
X110243782Y-88771684D01*
X110233929Y-88778992D01*
X110223408Y-88785298D01*
X110212318Y-88790543D01*
X110200769Y-88794676D01*
X110188869Y-88797656D01*
X110176735Y-88799456D01*
X110164483Y-88800058D01*
X110152231Y-88799456D01*
X110140097Y-88797656D01*
X110128197Y-88794676D01*
X110116648Y-88790543D01*
X110105558Y-88785298D01*
X110095037Y-88778992D01*
X110085184Y-88771684D01*
X110076095Y-88763446D01*
X109192212Y-87879563D01*
X109183974Y-87870474D01*
X109176666Y-87860621D01*
X109170360Y-87850100D01*
X109165115Y-87839010D01*
X109160982Y-87827461D01*
X109158002Y-87815561D01*
X109156202Y-87803427D01*
X109155600Y-87791175D01*
X109156202Y-87778923D01*
X109158002Y-87766789D01*
X109160982Y-87754889D01*
X109165115Y-87743340D01*
X109170360Y-87732250D01*
X109176666Y-87721729D01*
X109183974Y-87711876D01*
X109192212Y-87702787D01*
X109368989Y-87526010D01*
X109378078Y-87517772D01*
X109387931Y-87510464D01*
X109398452Y-87504158D01*
X109409542Y-87498913D01*
X109421091Y-87494780D01*
X109432991Y-87491800D01*
X109445125Y-87490000D01*
X109457377Y-87489398D01*
X109469629Y-87490000D01*
X109469629Y-87490000D01*
G37*
D21*
X109810930Y-88144728D03*
D10*
G36*
X110176735Y-89434544D02*
G01*
X110188869Y-89436344D01*
X110200769Y-89439324D01*
X110212318Y-89443457D01*
X110223408Y-89448702D01*
X110233929Y-89455008D01*
X110243782Y-89462316D01*
X110252871Y-89470554D01*
X110429648Y-89647331D01*
X110437886Y-89656420D01*
X110445194Y-89666273D01*
X110451500Y-89676794D01*
X110456745Y-89687884D01*
X110460878Y-89699433D01*
X110463858Y-89711333D01*
X110465658Y-89723467D01*
X110466260Y-89735719D01*
X110465658Y-89747971D01*
X110463858Y-89760105D01*
X110460878Y-89772005D01*
X110456745Y-89783554D01*
X110451500Y-89794644D01*
X110445194Y-89805165D01*
X110437886Y-89815018D01*
X110429648Y-89824107D01*
X109545765Y-90707990D01*
X109536676Y-90716228D01*
X109526823Y-90723536D01*
X109516302Y-90729842D01*
X109505212Y-90735087D01*
X109493663Y-90739220D01*
X109481763Y-90742200D01*
X109469629Y-90744000D01*
X109457377Y-90744602D01*
X109445125Y-90744000D01*
X109432991Y-90742200D01*
X109421091Y-90739220D01*
X109409542Y-90735087D01*
X109398452Y-90729842D01*
X109387931Y-90723536D01*
X109378078Y-90716228D01*
X109368989Y-90707990D01*
X109192212Y-90531213D01*
X109183974Y-90522124D01*
X109176666Y-90512271D01*
X109170360Y-90501750D01*
X109165115Y-90490660D01*
X109160982Y-90479111D01*
X109158002Y-90467211D01*
X109156202Y-90455077D01*
X109155600Y-90442825D01*
X109156202Y-90430573D01*
X109158002Y-90418439D01*
X109160982Y-90406539D01*
X109165115Y-90394990D01*
X109170360Y-90383900D01*
X109176666Y-90373379D01*
X109183974Y-90363526D01*
X109192212Y-90354437D01*
X110076095Y-89470554D01*
X110085184Y-89462316D01*
X110095037Y-89455008D01*
X110105558Y-89448702D01*
X110116648Y-89443457D01*
X110128197Y-89439324D01*
X110140097Y-89436344D01*
X110152231Y-89434544D01*
X110164483Y-89433942D01*
X110176735Y-89434544D01*
X110176735Y-89434544D01*
G37*
D21*
X109810930Y-90089272D03*
D10*
G36*
X110742421Y-90000229D02*
G01*
X110754555Y-90002029D01*
X110766455Y-90005009D01*
X110778004Y-90009142D01*
X110789094Y-90014387D01*
X110799615Y-90020693D01*
X110809468Y-90028001D01*
X110818557Y-90036239D01*
X110995334Y-90213016D01*
X111003572Y-90222105D01*
X111010880Y-90231958D01*
X111017186Y-90242479D01*
X111022431Y-90253569D01*
X111026564Y-90265118D01*
X111029544Y-90277018D01*
X111031344Y-90289152D01*
X111031946Y-90301404D01*
X111031344Y-90313656D01*
X111029544Y-90325790D01*
X111026564Y-90337690D01*
X111022431Y-90349239D01*
X111017186Y-90360329D01*
X111010880Y-90370850D01*
X111003572Y-90380703D01*
X110995334Y-90389792D01*
X110111451Y-91273675D01*
X110102362Y-91281913D01*
X110092509Y-91289221D01*
X110081988Y-91295527D01*
X110070898Y-91300772D01*
X110059349Y-91304905D01*
X110047449Y-91307885D01*
X110035315Y-91309685D01*
X110023063Y-91310287D01*
X110010811Y-91309685D01*
X109998677Y-91307885D01*
X109986777Y-91304905D01*
X109975228Y-91300772D01*
X109964138Y-91295527D01*
X109953617Y-91289221D01*
X109943764Y-91281913D01*
X109934675Y-91273675D01*
X109757898Y-91096898D01*
X109749660Y-91087809D01*
X109742352Y-91077956D01*
X109736046Y-91067435D01*
X109730801Y-91056345D01*
X109726668Y-91044796D01*
X109723688Y-91032896D01*
X109721888Y-91020762D01*
X109721286Y-91008510D01*
X109721888Y-90996258D01*
X109723688Y-90984124D01*
X109726668Y-90972224D01*
X109730801Y-90960675D01*
X109736046Y-90949585D01*
X109742352Y-90939064D01*
X109749660Y-90929211D01*
X109757898Y-90920122D01*
X110641781Y-90036239D01*
X110650870Y-90028001D01*
X110660723Y-90020693D01*
X110671244Y-90014387D01*
X110682334Y-90009142D01*
X110693883Y-90005009D01*
X110705783Y-90002029D01*
X110717917Y-90000229D01*
X110730169Y-89999627D01*
X110742421Y-90000229D01*
X110742421Y-90000229D01*
G37*
D21*
X110376616Y-90654957D03*
D10*
G36*
X111308106Y-90565915D02*
G01*
X111320240Y-90567715D01*
X111332140Y-90570695D01*
X111343689Y-90574828D01*
X111354779Y-90580073D01*
X111365300Y-90586379D01*
X111375153Y-90593687D01*
X111384242Y-90601925D01*
X111561019Y-90778702D01*
X111569257Y-90787791D01*
X111576565Y-90797644D01*
X111582871Y-90808165D01*
X111588116Y-90819255D01*
X111592249Y-90830804D01*
X111595229Y-90842704D01*
X111597029Y-90854838D01*
X111597631Y-90867090D01*
X111597029Y-90879342D01*
X111595229Y-90891476D01*
X111592249Y-90903376D01*
X111588116Y-90914925D01*
X111582871Y-90926015D01*
X111576565Y-90936536D01*
X111569257Y-90946389D01*
X111561019Y-90955478D01*
X110677136Y-91839361D01*
X110668047Y-91847599D01*
X110658194Y-91854907D01*
X110647673Y-91861213D01*
X110636583Y-91866458D01*
X110625034Y-91870591D01*
X110613134Y-91873571D01*
X110601000Y-91875371D01*
X110588748Y-91875973D01*
X110576496Y-91875371D01*
X110564362Y-91873571D01*
X110552462Y-91870591D01*
X110540913Y-91866458D01*
X110529823Y-91861213D01*
X110519302Y-91854907D01*
X110509449Y-91847599D01*
X110500360Y-91839361D01*
X110323583Y-91662584D01*
X110315345Y-91653495D01*
X110308037Y-91643642D01*
X110301731Y-91633121D01*
X110296486Y-91622031D01*
X110292353Y-91610482D01*
X110289373Y-91598582D01*
X110287573Y-91586448D01*
X110286971Y-91574196D01*
X110287573Y-91561944D01*
X110289373Y-91549810D01*
X110292353Y-91537910D01*
X110296486Y-91526361D01*
X110301731Y-91515271D01*
X110308037Y-91504750D01*
X110315345Y-91494897D01*
X110323583Y-91485808D01*
X111207466Y-90601925D01*
X111216555Y-90593687D01*
X111226408Y-90586379D01*
X111236929Y-90580073D01*
X111248019Y-90574828D01*
X111259568Y-90570695D01*
X111271468Y-90567715D01*
X111283602Y-90565915D01*
X111295854Y-90565313D01*
X111308106Y-90565915D01*
X111308106Y-90565915D01*
G37*
D21*
X110942301Y-91220643D03*
D10*
G36*
X111873791Y-91131600D02*
G01*
X111885925Y-91133400D01*
X111897825Y-91136380D01*
X111909374Y-91140513D01*
X111920464Y-91145758D01*
X111930985Y-91152064D01*
X111940838Y-91159372D01*
X111949927Y-91167610D01*
X112126704Y-91344387D01*
X112134942Y-91353476D01*
X112142250Y-91363329D01*
X112148556Y-91373850D01*
X112153801Y-91384940D01*
X112157934Y-91396489D01*
X112160914Y-91408389D01*
X112162714Y-91420523D01*
X112163316Y-91432775D01*
X112162714Y-91445027D01*
X112160914Y-91457161D01*
X112157934Y-91469061D01*
X112153801Y-91480610D01*
X112148556Y-91491700D01*
X112142250Y-91502221D01*
X112134942Y-91512074D01*
X112126704Y-91521163D01*
X111242821Y-92405046D01*
X111233732Y-92413284D01*
X111223879Y-92420592D01*
X111213358Y-92426898D01*
X111202268Y-92432143D01*
X111190719Y-92436276D01*
X111178819Y-92439256D01*
X111166685Y-92441056D01*
X111154433Y-92441658D01*
X111142181Y-92441056D01*
X111130047Y-92439256D01*
X111118147Y-92436276D01*
X111106598Y-92432143D01*
X111095508Y-92426898D01*
X111084987Y-92420592D01*
X111075134Y-92413284D01*
X111066045Y-92405046D01*
X110889268Y-92228269D01*
X110881030Y-92219180D01*
X110873722Y-92209327D01*
X110867416Y-92198806D01*
X110862171Y-92187716D01*
X110858038Y-92176167D01*
X110855058Y-92164267D01*
X110853258Y-92152133D01*
X110852656Y-92139881D01*
X110853258Y-92127629D01*
X110855058Y-92115495D01*
X110858038Y-92103595D01*
X110862171Y-92092046D01*
X110867416Y-92080956D01*
X110873722Y-92070435D01*
X110881030Y-92060582D01*
X110889268Y-92051493D01*
X111773151Y-91167610D01*
X111782240Y-91159372D01*
X111792093Y-91152064D01*
X111802614Y-91145758D01*
X111813704Y-91140513D01*
X111825253Y-91136380D01*
X111837153Y-91133400D01*
X111849287Y-91131600D01*
X111861539Y-91130998D01*
X111873791Y-91131600D01*
X111873791Y-91131600D01*
G37*
D21*
X111507986Y-91786328D03*
D10*
G36*
X112439477Y-91697286D02*
G01*
X112451611Y-91699086D01*
X112463511Y-91702066D01*
X112475060Y-91706199D01*
X112486150Y-91711444D01*
X112496671Y-91717750D01*
X112506524Y-91725058D01*
X112515613Y-91733296D01*
X112692390Y-91910073D01*
X112700628Y-91919162D01*
X112707936Y-91929015D01*
X112714242Y-91939536D01*
X112719487Y-91950626D01*
X112723620Y-91962175D01*
X112726600Y-91974075D01*
X112728400Y-91986209D01*
X112729002Y-91998461D01*
X112728400Y-92010713D01*
X112726600Y-92022847D01*
X112723620Y-92034747D01*
X112719487Y-92046296D01*
X112714242Y-92057386D01*
X112707936Y-92067907D01*
X112700628Y-92077760D01*
X112692390Y-92086849D01*
X111808507Y-92970732D01*
X111799418Y-92978970D01*
X111789565Y-92986278D01*
X111779044Y-92992584D01*
X111767954Y-92997829D01*
X111756405Y-93001962D01*
X111744505Y-93004942D01*
X111732371Y-93006742D01*
X111720119Y-93007344D01*
X111707867Y-93006742D01*
X111695733Y-93004942D01*
X111683833Y-93001962D01*
X111672284Y-92997829D01*
X111661194Y-92992584D01*
X111650673Y-92986278D01*
X111640820Y-92978970D01*
X111631731Y-92970732D01*
X111454954Y-92793955D01*
X111446716Y-92784866D01*
X111439408Y-92775013D01*
X111433102Y-92764492D01*
X111427857Y-92753402D01*
X111423724Y-92741853D01*
X111420744Y-92729953D01*
X111418944Y-92717819D01*
X111418342Y-92705567D01*
X111418944Y-92693315D01*
X111420744Y-92681181D01*
X111423724Y-92669281D01*
X111427857Y-92657732D01*
X111433102Y-92646642D01*
X111439408Y-92636121D01*
X111446716Y-92626268D01*
X111454954Y-92617179D01*
X112338837Y-91733296D01*
X112347926Y-91725058D01*
X112357779Y-91717750D01*
X112368300Y-91711444D01*
X112379390Y-91706199D01*
X112390939Y-91702066D01*
X112402839Y-91699086D01*
X112414973Y-91697286D01*
X112427225Y-91696684D01*
X112439477Y-91697286D01*
X112439477Y-91697286D01*
G37*
D21*
X112073672Y-92352014D03*
D10*
G36*
X113005162Y-92262971D02*
G01*
X113017296Y-92264771D01*
X113029196Y-92267751D01*
X113040745Y-92271884D01*
X113051835Y-92277129D01*
X113062356Y-92283435D01*
X113072209Y-92290743D01*
X113081298Y-92298981D01*
X113258075Y-92475758D01*
X113266313Y-92484847D01*
X113273621Y-92494700D01*
X113279927Y-92505221D01*
X113285172Y-92516311D01*
X113289305Y-92527860D01*
X113292285Y-92539760D01*
X113294085Y-92551894D01*
X113294687Y-92564146D01*
X113294085Y-92576398D01*
X113292285Y-92588532D01*
X113289305Y-92600432D01*
X113285172Y-92611981D01*
X113279927Y-92623071D01*
X113273621Y-92633592D01*
X113266313Y-92643445D01*
X113258075Y-92652534D01*
X112374192Y-93536417D01*
X112365103Y-93544655D01*
X112355250Y-93551963D01*
X112344729Y-93558269D01*
X112333639Y-93563514D01*
X112322090Y-93567647D01*
X112310190Y-93570627D01*
X112298056Y-93572427D01*
X112285804Y-93573029D01*
X112273552Y-93572427D01*
X112261418Y-93570627D01*
X112249518Y-93567647D01*
X112237969Y-93563514D01*
X112226879Y-93558269D01*
X112216358Y-93551963D01*
X112206505Y-93544655D01*
X112197416Y-93536417D01*
X112020639Y-93359640D01*
X112012401Y-93350551D01*
X112005093Y-93340698D01*
X111998787Y-93330177D01*
X111993542Y-93319087D01*
X111989409Y-93307538D01*
X111986429Y-93295638D01*
X111984629Y-93283504D01*
X111984027Y-93271252D01*
X111984629Y-93259000D01*
X111986429Y-93246866D01*
X111989409Y-93234966D01*
X111993542Y-93223417D01*
X111998787Y-93212327D01*
X112005093Y-93201806D01*
X112012401Y-93191953D01*
X112020639Y-93182864D01*
X112904522Y-92298981D01*
X112913611Y-92290743D01*
X112923464Y-92283435D01*
X112933985Y-92277129D01*
X112945075Y-92271884D01*
X112956624Y-92267751D01*
X112968524Y-92264771D01*
X112980658Y-92262971D01*
X112992910Y-92262369D01*
X113005162Y-92262971D01*
X113005162Y-92262971D01*
G37*
D21*
X112639357Y-92917699D03*
D10*
G36*
X113570848Y-92828656D02*
G01*
X113582982Y-92830456D01*
X113594882Y-92833436D01*
X113606431Y-92837569D01*
X113617521Y-92842814D01*
X113628042Y-92849120D01*
X113637895Y-92856428D01*
X113646984Y-92864666D01*
X113823761Y-93041443D01*
X113831999Y-93050532D01*
X113839307Y-93060385D01*
X113845613Y-93070906D01*
X113850858Y-93081996D01*
X113854991Y-93093545D01*
X113857971Y-93105445D01*
X113859771Y-93117579D01*
X113860373Y-93129831D01*
X113859771Y-93142083D01*
X113857971Y-93154217D01*
X113854991Y-93166117D01*
X113850858Y-93177666D01*
X113845613Y-93188756D01*
X113839307Y-93199277D01*
X113831999Y-93209130D01*
X113823761Y-93218219D01*
X112939878Y-94102102D01*
X112930789Y-94110340D01*
X112920936Y-94117648D01*
X112910415Y-94123954D01*
X112899325Y-94129199D01*
X112887776Y-94133332D01*
X112875876Y-94136312D01*
X112863742Y-94138112D01*
X112851490Y-94138714D01*
X112839238Y-94138112D01*
X112827104Y-94136312D01*
X112815204Y-94133332D01*
X112803655Y-94129199D01*
X112792565Y-94123954D01*
X112782044Y-94117648D01*
X112772191Y-94110340D01*
X112763102Y-94102102D01*
X112586325Y-93925325D01*
X112578087Y-93916236D01*
X112570779Y-93906383D01*
X112564473Y-93895862D01*
X112559228Y-93884772D01*
X112555095Y-93873223D01*
X112552115Y-93861323D01*
X112550315Y-93849189D01*
X112549713Y-93836937D01*
X112550315Y-93824685D01*
X112552115Y-93812551D01*
X112555095Y-93800651D01*
X112559228Y-93789102D01*
X112564473Y-93778012D01*
X112570779Y-93767491D01*
X112578087Y-93757638D01*
X112586325Y-93748549D01*
X113470208Y-92864666D01*
X113479297Y-92856428D01*
X113489150Y-92849120D01*
X113499671Y-92842814D01*
X113510761Y-92837569D01*
X113522310Y-92833436D01*
X113534210Y-92830456D01*
X113546344Y-92828656D01*
X113558596Y-92828054D01*
X113570848Y-92828656D01*
X113570848Y-92828656D01*
G37*
D21*
X113205043Y-93483384D03*
D10*
G36*
X114136533Y-93394342D02*
G01*
X114148667Y-93396142D01*
X114160567Y-93399122D01*
X114172116Y-93403255D01*
X114183206Y-93408500D01*
X114193727Y-93414806D01*
X114203580Y-93422114D01*
X114212669Y-93430352D01*
X114389446Y-93607129D01*
X114397684Y-93616218D01*
X114404992Y-93626071D01*
X114411298Y-93636592D01*
X114416543Y-93647682D01*
X114420676Y-93659231D01*
X114423656Y-93671131D01*
X114425456Y-93683265D01*
X114426058Y-93695517D01*
X114425456Y-93707769D01*
X114423656Y-93719903D01*
X114420676Y-93731803D01*
X114416543Y-93743352D01*
X114411298Y-93754442D01*
X114404992Y-93764963D01*
X114397684Y-93774816D01*
X114389446Y-93783905D01*
X113505563Y-94667788D01*
X113496474Y-94676026D01*
X113486621Y-94683334D01*
X113476100Y-94689640D01*
X113465010Y-94694885D01*
X113453461Y-94699018D01*
X113441561Y-94701998D01*
X113429427Y-94703798D01*
X113417175Y-94704400D01*
X113404923Y-94703798D01*
X113392789Y-94701998D01*
X113380889Y-94699018D01*
X113369340Y-94694885D01*
X113358250Y-94689640D01*
X113347729Y-94683334D01*
X113337876Y-94676026D01*
X113328787Y-94667788D01*
X113152010Y-94491011D01*
X113143772Y-94481922D01*
X113136464Y-94472069D01*
X113130158Y-94461548D01*
X113124913Y-94450458D01*
X113120780Y-94438909D01*
X113117800Y-94427009D01*
X113116000Y-94414875D01*
X113115398Y-94402623D01*
X113116000Y-94390371D01*
X113117800Y-94378237D01*
X113120780Y-94366337D01*
X113124913Y-94354788D01*
X113130158Y-94343698D01*
X113136464Y-94333177D01*
X113143772Y-94323324D01*
X113152010Y-94314235D01*
X114035893Y-93430352D01*
X114044982Y-93422114D01*
X114054835Y-93414806D01*
X114065356Y-93408500D01*
X114076446Y-93403255D01*
X114087995Y-93399122D01*
X114099895Y-93396142D01*
X114112029Y-93394342D01*
X114124281Y-93393740D01*
X114136533Y-93394342D01*
X114136533Y-93394342D01*
G37*
D21*
X113770728Y-94049070D03*
D10*
G36*
X115373971Y-93394342D02*
G01*
X115386105Y-93396142D01*
X115398005Y-93399122D01*
X115409554Y-93403255D01*
X115420644Y-93408500D01*
X115431165Y-93414806D01*
X115441018Y-93422114D01*
X115450107Y-93430352D01*
X116333990Y-94314235D01*
X116342228Y-94323324D01*
X116349536Y-94333177D01*
X116355842Y-94343698D01*
X116361087Y-94354788D01*
X116365220Y-94366337D01*
X116368200Y-94378237D01*
X116370000Y-94390371D01*
X116370602Y-94402623D01*
X116370000Y-94414875D01*
X116368200Y-94427009D01*
X116365220Y-94438909D01*
X116361087Y-94450458D01*
X116355842Y-94461548D01*
X116349536Y-94472069D01*
X116342228Y-94481922D01*
X116333990Y-94491011D01*
X116157213Y-94667788D01*
X116148124Y-94676026D01*
X116138271Y-94683334D01*
X116127750Y-94689640D01*
X116116660Y-94694885D01*
X116105111Y-94699018D01*
X116093211Y-94701998D01*
X116081077Y-94703798D01*
X116068825Y-94704400D01*
X116056573Y-94703798D01*
X116044439Y-94701998D01*
X116032539Y-94699018D01*
X116020990Y-94694885D01*
X116009900Y-94689640D01*
X115999379Y-94683334D01*
X115989526Y-94676026D01*
X115980437Y-94667788D01*
X115096554Y-93783905D01*
X115088316Y-93774816D01*
X115081008Y-93764963D01*
X115074702Y-93754442D01*
X115069457Y-93743352D01*
X115065324Y-93731803D01*
X115062344Y-93719903D01*
X115060544Y-93707769D01*
X115059942Y-93695517D01*
X115060544Y-93683265D01*
X115062344Y-93671131D01*
X115065324Y-93659231D01*
X115069457Y-93647682D01*
X115074702Y-93636592D01*
X115081008Y-93626071D01*
X115088316Y-93616218D01*
X115096554Y-93607129D01*
X115273331Y-93430352D01*
X115282420Y-93422114D01*
X115292273Y-93414806D01*
X115302794Y-93408500D01*
X115313884Y-93403255D01*
X115325433Y-93399122D01*
X115337333Y-93396142D01*
X115349467Y-93394342D01*
X115361719Y-93393740D01*
X115373971Y-93394342D01*
X115373971Y-93394342D01*
G37*
D21*
X115715272Y-94049070D03*
D10*
G36*
X115939656Y-92828656D02*
G01*
X115951790Y-92830456D01*
X115963690Y-92833436D01*
X115975239Y-92837569D01*
X115986329Y-92842814D01*
X115996850Y-92849120D01*
X116006703Y-92856428D01*
X116015792Y-92864666D01*
X116899675Y-93748549D01*
X116907913Y-93757638D01*
X116915221Y-93767491D01*
X116921527Y-93778012D01*
X116926772Y-93789102D01*
X116930905Y-93800651D01*
X116933885Y-93812551D01*
X116935685Y-93824685D01*
X116936287Y-93836937D01*
X116935685Y-93849189D01*
X116933885Y-93861323D01*
X116930905Y-93873223D01*
X116926772Y-93884772D01*
X116921527Y-93895862D01*
X116915221Y-93906383D01*
X116907913Y-93916236D01*
X116899675Y-93925325D01*
X116722898Y-94102102D01*
X116713809Y-94110340D01*
X116703956Y-94117648D01*
X116693435Y-94123954D01*
X116682345Y-94129199D01*
X116670796Y-94133332D01*
X116658896Y-94136312D01*
X116646762Y-94138112D01*
X116634510Y-94138714D01*
X116622258Y-94138112D01*
X116610124Y-94136312D01*
X116598224Y-94133332D01*
X116586675Y-94129199D01*
X116575585Y-94123954D01*
X116565064Y-94117648D01*
X116555211Y-94110340D01*
X116546122Y-94102102D01*
X115662239Y-93218219D01*
X115654001Y-93209130D01*
X115646693Y-93199277D01*
X115640387Y-93188756D01*
X115635142Y-93177666D01*
X115631009Y-93166117D01*
X115628029Y-93154217D01*
X115626229Y-93142083D01*
X115625627Y-93129831D01*
X115626229Y-93117579D01*
X115628029Y-93105445D01*
X115631009Y-93093545D01*
X115635142Y-93081996D01*
X115640387Y-93070906D01*
X115646693Y-93060385D01*
X115654001Y-93050532D01*
X115662239Y-93041443D01*
X115839016Y-92864666D01*
X115848105Y-92856428D01*
X115857958Y-92849120D01*
X115868479Y-92842814D01*
X115879569Y-92837569D01*
X115891118Y-92833436D01*
X115903018Y-92830456D01*
X115915152Y-92828656D01*
X115927404Y-92828054D01*
X115939656Y-92828656D01*
X115939656Y-92828656D01*
G37*
D21*
X116280957Y-93483384D03*
D10*
G36*
X116505342Y-92262971D02*
G01*
X116517476Y-92264771D01*
X116529376Y-92267751D01*
X116540925Y-92271884D01*
X116552015Y-92277129D01*
X116562536Y-92283435D01*
X116572389Y-92290743D01*
X116581478Y-92298981D01*
X117465361Y-93182864D01*
X117473599Y-93191953D01*
X117480907Y-93201806D01*
X117487213Y-93212327D01*
X117492458Y-93223417D01*
X117496591Y-93234966D01*
X117499571Y-93246866D01*
X117501371Y-93259000D01*
X117501973Y-93271252D01*
X117501371Y-93283504D01*
X117499571Y-93295638D01*
X117496591Y-93307538D01*
X117492458Y-93319087D01*
X117487213Y-93330177D01*
X117480907Y-93340698D01*
X117473599Y-93350551D01*
X117465361Y-93359640D01*
X117288584Y-93536417D01*
X117279495Y-93544655D01*
X117269642Y-93551963D01*
X117259121Y-93558269D01*
X117248031Y-93563514D01*
X117236482Y-93567647D01*
X117224582Y-93570627D01*
X117212448Y-93572427D01*
X117200196Y-93573029D01*
X117187944Y-93572427D01*
X117175810Y-93570627D01*
X117163910Y-93567647D01*
X117152361Y-93563514D01*
X117141271Y-93558269D01*
X117130750Y-93551963D01*
X117120897Y-93544655D01*
X117111808Y-93536417D01*
X116227925Y-92652534D01*
X116219687Y-92643445D01*
X116212379Y-92633592D01*
X116206073Y-92623071D01*
X116200828Y-92611981D01*
X116196695Y-92600432D01*
X116193715Y-92588532D01*
X116191915Y-92576398D01*
X116191313Y-92564146D01*
X116191915Y-92551894D01*
X116193715Y-92539760D01*
X116196695Y-92527860D01*
X116200828Y-92516311D01*
X116206073Y-92505221D01*
X116212379Y-92494700D01*
X116219687Y-92484847D01*
X116227925Y-92475758D01*
X116404702Y-92298981D01*
X116413791Y-92290743D01*
X116423644Y-92283435D01*
X116434165Y-92277129D01*
X116445255Y-92271884D01*
X116456804Y-92267751D01*
X116468704Y-92264771D01*
X116480838Y-92262971D01*
X116493090Y-92262369D01*
X116505342Y-92262971D01*
X116505342Y-92262971D01*
G37*
D21*
X116846643Y-92917699D03*
D10*
G36*
X117071027Y-91697286D02*
G01*
X117083161Y-91699086D01*
X117095061Y-91702066D01*
X117106610Y-91706199D01*
X117117700Y-91711444D01*
X117128221Y-91717750D01*
X117138074Y-91725058D01*
X117147163Y-91733296D01*
X118031046Y-92617179D01*
X118039284Y-92626268D01*
X118046592Y-92636121D01*
X118052898Y-92646642D01*
X118058143Y-92657732D01*
X118062276Y-92669281D01*
X118065256Y-92681181D01*
X118067056Y-92693315D01*
X118067658Y-92705567D01*
X118067056Y-92717819D01*
X118065256Y-92729953D01*
X118062276Y-92741853D01*
X118058143Y-92753402D01*
X118052898Y-92764492D01*
X118046592Y-92775013D01*
X118039284Y-92784866D01*
X118031046Y-92793955D01*
X117854269Y-92970732D01*
X117845180Y-92978970D01*
X117835327Y-92986278D01*
X117824806Y-92992584D01*
X117813716Y-92997829D01*
X117802167Y-93001962D01*
X117790267Y-93004942D01*
X117778133Y-93006742D01*
X117765881Y-93007344D01*
X117753629Y-93006742D01*
X117741495Y-93004942D01*
X117729595Y-93001962D01*
X117718046Y-92997829D01*
X117706956Y-92992584D01*
X117696435Y-92986278D01*
X117686582Y-92978970D01*
X117677493Y-92970732D01*
X116793610Y-92086849D01*
X116785372Y-92077760D01*
X116778064Y-92067907D01*
X116771758Y-92057386D01*
X116766513Y-92046296D01*
X116762380Y-92034747D01*
X116759400Y-92022847D01*
X116757600Y-92010713D01*
X116756998Y-91998461D01*
X116757600Y-91986209D01*
X116759400Y-91974075D01*
X116762380Y-91962175D01*
X116766513Y-91950626D01*
X116771758Y-91939536D01*
X116778064Y-91929015D01*
X116785372Y-91919162D01*
X116793610Y-91910073D01*
X116970387Y-91733296D01*
X116979476Y-91725058D01*
X116989329Y-91717750D01*
X116999850Y-91711444D01*
X117010940Y-91706199D01*
X117022489Y-91702066D01*
X117034389Y-91699086D01*
X117046523Y-91697286D01*
X117058775Y-91696684D01*
X117071027Y-91697286D01*
X117071027Y-91697286D01*
G37*
D21*
X117412328Y-92352014D03*
D10*
G36*
X117636713Y-91131600D02*
G01*
X117648847Y-91133400D01*
X117660747Y-91136380D01*
X117672296Y-91140513D01*
X117683386Y-91145758D01*
X117693907Y-91152064D01*
X117703760Y-91159372D01*
X117712849Y-91167610D01*
X118596732Y-92051493D01*
X118604970Y-92060582D01*
X118612278Y-92070435D01*
X118618584Y-92080956D01*
X118623829Y-92092046D01*
X118627962Y-92103595D01*
X118630942Y-92115495D01*
X118632742Y-92127629D01*
X118633344Y-92139881D01*
X118632742Y-92152133D01*
X118630942Y-92164267D01*
X118627962Y-92176167D01*
X118623829Y-92187716D01*
X118618584Y-92198806D01*
X118612278Y-92209327D01*
X118604970Y-92219180D01*
X118596732Y-92228269D01*
X118419955Y-92405046D01*
X118410866Y-92413284D01*
X118401013Y-92420592D01*
X118390492Y-92426898D01*
X118379402Y-92432143D01*
X118367853Y-92436276D01*
X118355953Y-92439256D01*
X118343819Y-92441056D01*
X118331567Y-92441658D01*
X118319315Y-92441056D01*
X118307181Y-92439256D01*
X118295281Y-92436276D01*
X118283732Y-92432143D01*
X118272642Y-92426898D01*
X118262121Y-92420592D01*
X118252268Y-92413284D01*
X118243179Y-92405046D01*
X117359296Y-91521163D01*
X117351058Y-91512074D01*
X117343750Y-91502221D01*
X117337444Y-91491700D01*
X117332199Y-91480610D01*
X117328066Y-91469061D01*
X117325086Y-91457161D01*
X117323286Y-91445027D01*
X117322684Y-91432775D01*
X117323286Y-91420523D01*
X117325086Y-91408389D01*
X117328066Y-91396489D01*
X117332199Y-91384940D01*
X117337444Y-91373850D01*
X117343750Y-91363329D01*
X117351058Y-91353476D01*
X117359296Y-91344387D01*
X117536073Y-91167610D01*
X117545162Y-91159372D01*
X117555015Y-91152064D01*
X117565536Y-91145758D01*
X117576626Y-91140513D01*
X117588175Y-91136380D01*
X117600075Y-91133400D01*
X117612209Y-91131600D01*
X117624461Y-91130998D01*
X117636713Y-91131600D01*
X117636713Y-91131600D01*
G37*
D21*
X117978014Y-91786328D03*
D10*
G36*
X118202398Y-90565915D02*
G01*
X118214532Y-90567715D01*
X118226432Y-90570695D01*
X118237981Y-90574828D01*
X118249071Y-90580073D01*
X118259592Y-90586379D01*
X118269445Y-90593687D01*
X118278534Y-90601925D01*
X119162417Y-91485808D01*
X119170655Y-91494897D01*
X119177963Y-91504750D01*
X119184269Y-91515271D01*
X119189514Y-91526361D01*
X119193647Y-91537910D01*
X119196627Y-91549810D01*
X119198427Y-91561944D01*
X119199029Y-91574196D01*
X119198427Y-91586448D01*
X119196627Y-91598582D01*
X119193647Y-91610482D01*
X119189514Y-91622031D01*
X119184269Y-91633121D01*
X119177963Y-91643642D01*
X119170655Y-91653495D01*
X119162417Y-91662584D01*
X118985640Y-91839361D01*
X118976551Y-91847599D01*
X118966698Y-91854907D01*
X118956177Y-91861213D01*
X118945087Y-91866458D01*
X118933538Y-91870591D01*
X118921638Y-91873571D01*
X118909504Y-91875371D01*
X118897252Y-91875973D01*
X118885000Y-91875371D01*
X118872866Y-91873571D01*
X118860966Y-91870591D01*
X118849417Y-91866458D01*
X118838327Y-91861213D01*
X118827806Y-91854907D01*
X118817953Y-91847599D01*
X118808864Y-91839361D01*
X117924981Y-90955478D01*
X117916743Y-90946389D01*
X117909435Y-90936536D01*
X117903129Y-90926015D01*
X117897884Y-90914925D01*
X117893751Y-90903376D01*
X117890771Y-90891476D01*
X117888971Y-90879342D01*
X117888369Y-90867090D01*
X117888971Y-90854838D01*
X117890771Y-90842704D01*
X117893751Y-90830804D01*
X117897884Y-90819255D01*
X117903129Y-90808165D01*
X117909435Y-90797644D01*
X117916743Y-90787791D01*
X117924981Y-90778702D01*
X118101758Y-90601925D01*
X118110847Y-90593687D01*
X118120700Y-90586379D01*
X118131221Y-90580073D01*
X118142311Y-90574828D01*
X118153860Y-90570695D01*
X118165760Y-90567715D01*
X118177894Y-90565915D01*
X118190146Y-90565313D01*
X118202398Y-90565915D01*
X118202398Y-90565915D01*
G37*
D21*
X118543699Y-91220643D03*
D10*
G36*
X118768083Y-90000229D02*
G01*
X118780217Y-90002029D01*
X118792117Y-90005009D01*
X118803666Y-90009142D01*
X118814756Y-90014387D01*
X118825277Y-90020693D01*
X118835130Y-90028001D01*
X118844219Y-90036239D01*
X119728102Y-90920122D01*
X119736340Y-90929211D01*
X119743648Y-90939064D01*
X119749954Y-90949585D01*
X119755199Y-90960675D01*
X119759332Y-90972224D01*
X119762312Y-90984124D01*
X119764112Y-90996258D01*
X119764714Y-91008510D01*
X119764112Y-91020762D01*
X119762312Y-91032896D01*
X119759332Y-91044796D01*
X119755199Y-91056345D01*
X119749954Y-91067435D01*
X119743648Y-91077956D01*
X119736340Y-91087809D01*
X119728102Y-91096898D01*
X119551325Y-91273675D01*
X119542236Y-91281913D01*
X119532383Y-91289221D01*
X119521862Y-91295527D01*
X119510772Y-91300772D01*
X119499223Y-91304905D01*
X119487323Y-91307885D01*
X119475189Y-91309685D01*
X119462937Y-91310287D01*
X119450685Y-91309685D01*
X119438551Y-91307885D01*
X119426651Y-91304905D01*
X119415102Y-91300772D01*
X119404012Y-91295527D01*
X119393491Y-91289221D01*
X119383638Y-91281913D01*
X119374549Y-91273675D01*
X118490666Y-90389792D01*
X118482428Y-90380703D01*
X118475120Y-90370850D01*
X118468814Y-90360329D01*
X118463569Y-90349239D01*
X118459436Y-90337690D01*
X118456456Y-90325790D01*
X118454656Y-90313656D01*
X118454054Y-90301404D01*
X118454656Y-90289152D01*
X118456456Y-90277018D01*
X118459436Y-90265118D01*
X118463569Y-90253569D01*
X118468814Y-90242479D01*
X118475120Y-90231958D01*
X118482428Y-90222105D01*
X118490666Y-90213016D01*
X118667443Y-90036239D01*
X118676532Y-90028001D01*
X118686385Y-90020693D01*
X118696906Y-90014387D01*
X118707996Y-90009142D01*
X118719545Y-90005009D01*
X118731445Y-90002029D01*
X118743579Y-90000229D01*
X118755831Y-89999627D01*
X118768083Y-90000229D01*
X118768083Y-90000229D01*
G37*
D21*
X119109384Y-90654957D03*
D10*
G36*
X119333769Y-89434544D02*
G01*
X119345903Y-89436344D01*
X119357803Y-89439324D01*
X119369352Y-89443457D01*
X119380442Y-89448702D01*
X119390963Y-89455008D01*
X119400816Y-89462316D01*
X119409905Y-89470554D01*
X120293788Y-90354437D01*
X120302026Y-90363526D01*
X120309334Y-90373379D01*
X120315640Y-90383900D01*
X120320885Y-90394990D01*
X120325018Y-90406539D01*
X120327998Y-90418439D01*
X120329798Y-90430573D01*
X120330400Y-90442825D01*
X120329798Y-90455077D01*
X120327998Y-90467211D01*
X120325018Y-90479111D01*
X120320885Y-90490660D01*
X120315640Y-90501750D01*
X120309334Y-90512271D01*
X120302026Y-90522124D01*
X120293788Y-90531213D01*
X120117011Y-90707990D01*
X120107922Y-90716228D01*
X120098069Y-90723536D01*
X120087548Y-90729842D01*
X120076458Y-90735087D01*
X120064909Y-90739220D01*
X120053009Y-90742200D01*
X120040875Y-90744000D01*
X120028623Y-90744602D01*
X120016371Y-90744000D01*
X120004237Y-90742200D01*
X119992337Y-90739220D01*
X119980788Y-90735087D01*
X119969698Y-90729842D01*
X119959177Y-90723536D01*
X119949324Y-90716228D01*
X119940235Y-90707990D01*
X119056352Y-89824107D01*
X119048114Y-89815018D01*
X119040806Y-89805165D01*
X119034500Y-89794644D01*
X119029255Y-89783554D01*
X119025122Y-89772005D01*
X119022142Y-89760105D01*
X119020342Y-89747971D01*
X119019740Y-89735719D01*
X119020342Y-89723467D01*
X119022142Y-89711333D01*
X119025122Y-89699433D01*
X119029255Y-89687884D01*
X119034500Y-89676794D01*
X119040806Y-89666273D01*
X119048114Y-89656420D01*
X119056352Y-89647331D01*
X119233129Y-89470554D01*
X119242218Y-89462316D01*
X119252071Y-89455008D01*
X119262592Y-89448702D01*
X119273682Y-89443457D01*
X119285231Y-89439324D01*
X119297131Y-89436344D01*
X119309265Y-89434544D01*
X119321517Y-89433942D01*
X119333769Y-89434544D01*
X119333769Y-89434544D01*
G37*
D21*
X119675070Y-90089272D03*
D10*
G36*
X120040875Y-87490000D02*
G01*
X120053009Y-87491800D01*
X120064909Y-87494780D01*
X120076458Y-87498913D01*
X120087548Y-87504158D01*
X120098069Y-87510464D01*
X120107922Y-87517772D01*
X120117011Y-87526010D01*
X120293788Y-87702787D01*
X120302026Y-87711876D01*
X120309334Y-87721729D01*
X120315640Y-87732250D01*
X120320885Y-87743340D01*
X120325018Y-87754889D01*
X120327998Y-87766789D01*
X120329798Y-87778923D01*
X120330400Y-87791175D01*
X120329798Y-87803427D01*
X120327998Y-87815561D01*
X120325018Y-87827461D01*
X120320885Y-87839010D01*
X120315640Y-87850100D01*
X120309334Y-87860621D01*
X120302026Y-87870474D01*
X120293788Y-87879563D01*
X119409905Y-88763446D01*
X119400816Y-88771684D01*
X119390963Y-88778992D01*
X119380442Y-88785298D01*
X119369352Y-88790543D01*
X119357803Y-88794676D01*
X119345903Y-88797656D01*
X119333769Y-88799456D01*
X119321517Y-88800058D01*
X119309265Y-88799456D01*
X119297131Y-88797656D01*
X119285231Y-88794676D01*
X119273682Y-88790543D01*
X119262592Y-88785298D01*
X119252071Y-88778992D01*
X119242218Y-88771684D01*
X119233129Y-88763446D01*
X119056352Y-88586669D01*
X119048114Y-88577580D01*
X119040806Y-88567727D01*
X119034500Y-88557206D01*
X119029255Y-88546116D01*
X119025122Y-88534567D01*
X119022142Y-88522667D01*
X119020342Y-88510533D01*
X119019740Y-88498281D01*
X119020342Y-88486029D01*
X119022142Y-88473895D01*
X119025122Y-88461995D01*
X119029255Y-88450446D01*
X119034500Y-88439356D01*
X119040806Y-88428835D01*
X119048114Y-88418982D01*
X119056352Y-88409893D01*
X119940235Y-87526010D01*
X119949324Y-87517772D01*
X119959177Y-87510464D01*
X119969698Y-87504158D01*
X119980788Y-87498913D01*
X119992337Y-87494780D01*
X120004237Y-87491800D01*
X120016371Y-87490000D01*
X120028623Y-87489398D01*
X120040875Y-87490000D01*
X120040875Y-87490000D01*
G37*
D21*
X119675070Y-88144728D03*
D10*
G36*
X119475189Y-86924315D02*
G01*
X119487323Y-86926115D01*
X119499223Y-86929095D01*
X119510772Y-86933228D01*
X119521862Y-86938473D01*
X119532383Y-86944779D01*
X119542236Y-86952087D01*
X119551325Y-86960325D01*
X119728102Y-87137102D01*
X119736340Y-87146191D01*
X119743648Y-87156044D01*
X119749954Y-87166565D01*
X119755199Y-87177655D01*
X119759332Y-87189204D01*
X119762312Y-87201104D01*
X119764112Y-87213238D01*
X119764714Y-87225490D01*
X119764112Y-87237742D01*
X119762312Y-87249876D01*
X119759332Y-87261776D01*
X119755199Y-87273325D01*
X119749954Y-87284415D01*
X119743648Y-87294936D01*
X119736340Y-87304789D01*
X119728102Y-87313878D01*
X118844219Y-88197761D01*
X118835130Y-88205999D01*
X118825277Y-88213307D01*
X118814756Y-88219613D01*
X118803666Y-88224858D01*
X118792117Y-88228991D01*
X118780217Y-88231971D01*
X118768083Y-88233771D01*
X118755831Y-88234373D01*
X118743579Y-88233771D01*
X118731445Y-88231971D01*
X118719545Y-88228991D01*
X118707996Y-88224858D01*
X118696906Y-88219613D01*
X118686385Y-88213307D01*
X118676532Y-88205999D01*
X118667443Y-88197761D01*
X118490666Y-88020984D01*
X118482428Y-88011895D01*
X118475120Y-88002042D01*
X118468814Y-87991521D01*
X118463569Y-87980431D01*
X118459436Y-87968882D01*
X118456456Y-87956982D01*
X118454656Y-87944848D01*
X118454054Y-87932596D01*
X118454656Y-87920344D01*
X118456456Y-87908210D01*
X118459436Y-87896310D01*
X118463569Y-87884761D01*
X118468814Y-87873671D01*
X118475120Y-87863150D01*
X118482428Y-87853297D01*
X118490666Y-87844208D01*
X119374549Y-86960325D01*
X119383638Y-86952087D01*
X119393491Y-86944779D01*
X119404012Y-86938473D01*
X119415102Y-86933228D01*
X119426651Y-86929095D01*
X119438551Y-86926115D01*
X119450685Y-86924315D01*
X119462937Y-86923713D01*
X119475189Y-86924315D01*
X119475189Y-86924315D01*
G37*
D21*
X119109384Y-87579043D03*
D10*
G36*
X118909504Y-86358629D02*
G01*
X118921638Y-86360429D01*
X118933538Y-86363409D01*
X118945087Y-86367542D01*
X118956177Y-86372787D01*
X118966698Y-86379093D01*
X118976551Y-86386401D01*
X118985640Y-86394639D01*
X119162417Y-86571416D01*
X119170655Y-86580505D01*
X119177963Y-86590358D01*
X119184269Y-86600879D01*
X119189514Y-86611969D01*
X119193647Y-86623518D01*
X119196627Y-86635418D01*
X119198427Y-86647552D01*
X119199029Y-86659804D01*
X119198427Y-86672056D01*
X119196627Y-86684190D01*
X119193647Y-86696090D01*
X119189514Y-86707639D01*
X119184269Y-86718729D01*
X119177963Y-86729250D01*
X119170655Y-86739103D01*
X119162417Y-86748192D01*
X118278534Y-87632075D01*
X118269445Y-87640313D01*
X118259592Y-87647621D01*
X118249071Y-87653927D01*
X118237981Y-87659172D01*
X118226432Y-87663305D01*
X118214532Y-87666285D01*
X118202398Y-87668085D01*
X118190146Y-87668687D01*
X118177894Y-87668085D01*
X118165760Y-87666285D01*
X118153860Y-87663305D01*
X118142311Y-87659172D01*
X118131221Y-87653927D01*
X118120700Y-87647621D01*
X118110847Y-87640313D01*
X118101758Y-87632075D01*
X117924981Y-87455298D01*
X117916743Y-87446209D01*
X117909435Y-87436356D01*
X117903129Y-87425835D01*
X117897884Y-87414745D01*
X117893751Y-87403196D01*
X117890771Y-87391296D01*
X117888971Y-87379162D01*
X117888369Y-87366910D01*
X117888971Y-87354658D01*
X117890771Y-87342524D01*
X117893751Y-87330624D01*
X117897884Y-87319075D01*
X117903129Y-87307985D01*
X117909435Y-87297464D01*
X117916743Y-87287611D01*
X117924981Y-87278522D01*
X118808864Y-86394639D01*
X118817953Y-86386401D01*
X118827806Y-86379093D01*
X118838327Y-86372787D01*
X118849417Y-86367542D01*
X118860966Y-86363409D01*
X118872866Y-86360429D01*
X118885000Y-86358629D01*
X118897252Y-86358027D01*
X118909504Y-86358629D01*
X118909504Y-86358629D01*
G37*
D21*
X118543699Y-87013357D03*
D10*
G36*
X118343819Y-85792944D02*
G01*
X118355953Y-85794744D01*
X118367853Y-85797724D01*
X118379402Y-85801857D01*
X118390492Y-85807102D01*
X118401013Y-85813408D01*
X118410866Y-85820716D01*
X118419955Y-85828954D01*
X118596732Y-86005731D01*
X118604970Y-86014820D01*
X118612278Y-86024673D01*
X118618584Y-86035194D01*
X118623829Y-86046284D01*
X118627962Y-86057833D01*
X118630942Y-86069733D01*
X118632742Y-86081867D01*
X118633344Y-86094119D01*
X118632742Y-86106371D01*
X118630942Y-86118505D01*
X118627962Y-86130405D01*
X118623829Y-86141954D01*
X118618584Y-86153044D01*
X118612278Y-86163565D01*
X118604970Y-86173418D01*
X118596732Y-86182507D01*
X117712849Y-87066390D01*
X117703760Y-87074628D01*
X117693907Y-87081936D01*
X117683386Y-87088242D01*
X117672296Y-87093487D01*
X117660747Y-87097620D01*
X117648847Y-87100600D01*
X117636713Y-87102400D01*
X117624461Y-87103002D01*
X117612209Y-87102400D01*
X117600075Y-87100600D01*
X117588175Y-87097620D01*
X117576626Y-87093487D01*
X117565536Y-87088242D01*
X117555015Y-87081936D01*
X117545162Y-87074628D01*
X117536073Y-87066390D01*
X117359296Y-86889613D01*
X117351058Y-86880524D01*
X117343750Y-86870671D01*
X117337444Y-86860150D01*
X117332199Y-86849060D01*
X117328066Y-86837511D01*
X117325086Y-86825611D01*
X117323286Y-86813477D01*
X117322684Y-86801225D01*
X117323286Y-86788973D01*
X117325086Y-86776839D01*
X117328066Y-86764939D01*
X117332199Y-86753390D01*
X117337444Y-86742300D01*
X117343750Y-86731779D01*
X117351058Y-86721926D01*
X117359296Y-86712837D01*
X118243179Y-85828954D01*
X118252268Y-85820716D01*
X118262121Y-85813408D01*
X118272642Y-85807102D01*
X118283732Y-85801857D01*
X118295281Y-85797724D01*
X118307181Y-85794744D01*
X118319315Y-85792944D01*
X118331567Y-85792342D01*
X118343819Y-85792944D01*
X118343819Y-85792944D01*
G37*
D21*
X117978014Y-86447672D03*
D10*
G36*
X117778133Y-85227258D02*
G01*
X117790267Y-85229058D01*
X117802167Y-85232038D01*
X117813716Y-85236171D01*
X117824806Y-85241416D01*
X117835327Y-85247722D01*
X117845180Y-85255030D01*
X117854269Y-85263268D01*
X118031046Y-85440045D01*
X118039284Y-85449134D01*
X118046592Y-85458987D01*
X118052898Y-85469508D01*
X118058143Y-85480598D01*
X118062276Y-85492147D01*
X118065256Y-85504047D01*
X118067056Y-85516181D01*
X118067658Y-85528433D01*
X118067056Y-85540685D01*
X118065256Y-85552819D01*
X118062276Y-85564719D01*
X118058143Y-85576268D01*
X118052898Y-85587358D01*
X118046592Y-85597879D01*
X118039284Y-85607732D01*
X118031046Y-85616821D01*
X117147163Y-86500704D01*
X117138074Y-86508942D01*
X117128221Y-86516250D01*
X117117700Y-86522556D01*
X117106610Y-86527801D01*
X117095061Y-86531934D01*
X117083161Y-86534914D01*
X117071027Y-86536714D01*
X117058775Y-86537316D01*
X117046523Y-86536714D01*
X117034389Y-86534914D01*
X117022489Y-86531934D01*
X117010940Y-86527801D01*
X116999850Y-86522556D01*
X116989329Y-86516250D01*
X116979476Y-86508942D01*
X116970387Y-86500704D01*
X116793610Y-86323927D01*
X116785372Y-86314838D01*
X116778064Y-86304985D01*
X116771758Y-86294464D01*
X116766513Y-86283374D01*
X116762380Y-86271825D01*
X116759400Y-86259925D01*
X116757600Y-86247791D01*
X116756998Y-86235539D01*
X116757600Y-86223287D01*
X116759400Y-86211153D01*
X116762380Y-86199253D01*
X116766513Y-86187704D01*
X116771758Y-86176614D01*
X116778064Y-86166093D01*
X116785372Y-86156240D01*
X116793610Y-86147151D01*
X117677493Y-85263268D01*
X117686582Y-85255030D01*
X117696435Y-85247722D01*
X117706956Y-85241416D01*
X117718046Y-85236171D01*
X117729595Y-85232038D01*
X117741495Y-85229058D01*
X117753629Y-85227258D01*
X117765881Y-85226656D01*
X117778133Y-85227258D01*
X117778133Y-85227258D01*
G37*
D21*
X117412328Y-85881986D03*
D10*
G36*
X117212448Y-84661573D02*
G01*
X117224582Y-84663373D01*
X117236482Y-84666353D01*
X117248031Y-84670486D01*
X117259121Y-84675731D01*
X117269642Y-84682037D01*
X117279495Y-84689345D01*
X117288584Y-84697583D01*
X117465361Y-84874360D01*
X117473599Y-84883449D01*
X117480907Y-84893302D01*
X117487213Y-84903823D01*
X117492458Y-84914913D01*
X117496591Y-84926462D01*
X117499571Y-84938362D01*
X117501371Y-84950496D01*
X117501973Y-84962748D01*
X117501371Y-84975000D01*
X117499571Y-84987134D01*
X117496591Y-84999034D01*
X117492458Y-85010583D01*
X117487213Y-85021673D01*
X117480907Y-85032194D01*
X117473599Y-85042047D01*
X117465361Y-85051136D01*
X116581478Y-85935019D01*
X116572389Y-85943257D01*
X116562536Y-85950565D01*
X116552015Y-85956871D01*
X116540925Y-85962116D01*
X116529376Y-85966249D01*
X116517476Y-85969229D01*
X116505342Y-85971029D01*
X116493090Y-85971631D01*
X116480838Y-85971029D01*
X116468704Y-85969229D01*
X116456804Y-85966249D01*
X116445255Y-85962116D01*
X116434165Y-85956871D01*
X116423644Y-85950565D01*
X116413791Y-85943257D01*
X116404702Y-85935019D01*
X116227925Y-85758242D01*
X116219687Y-85749153D01*
X116212379Y-85739300D01*
X116206073Y-85728779D01*
X116200828Y-85717689D01*
X116196695Y-85706140D01*
X116193715Y-85694240D01*
X116191915Y-85682106D01*
X116191313Y-85669854D01*
X116191915Y-85657602D01*
X116193715Y-85645468D01*
X116196695Y-85633568D01*
X116200828Y-85622019D01*
X116206073Y-85610929D01*
X116212379Y-85600408D01*
X116219687Y-85590555D01*
X116227925Y-85581466D01*
X117111808Y-84697583D01*
X117120897Y-84689345D01*
X117130750Y-84682037D01*
X117141271Y-84675731D01*
X117152361Y-84670486D01*
X117163910Y-84666353D01*
X117175810Y-84663373D01*
X117187944Y-84661573D01*
X117200196Y-84660971D01*
X117212448Y-84661573D01*
X117212448Y-84661573D01*
G37*
D21*
X116846643Y-85316301D03*
D10*
G36*
X116646762Y-84095888D02*
G01*
X116658896Y-84097688D01*
X116670796Y-84100668D01*
X116682345Y-84104801D01*
X116693435Y-84110046D01*
X116703956Y-84116352D01*
X116713809Y-84123660D01*
X116722898Y-84131898D01*
X116899675Y-84308675D01*
X116907913Y-84317764D01*
X116915221Y-84327617D01*
X116921527Y-84338138D01*
X116926772Y-84349228D01*
X116930905Y-84360777D01*
X116933885Y-84372677D01*
X116935685Y-84384811D01*
X116936287Y-84397063D01*
X116935685Y-84409315D01*
X116933885Y-84421449D01*
X116930905Y-84433349D01*
X116926772Y-84444898D01*
X116921527Y-84455988D01*
X116915221Y-84466509D01*
X116907913Y-84476362D01*
X116899675Y-84485451D01*
X116015792Y-85369334D01*
X116006703Y-85377572D01*
X115996850Y-85384880D01*
X115986329Y-85391186D01*
X115975239Y-85396431D01*
X115963690Y-85400564D01*
X115951790Y-85403544D01*
X115939656Y-85405344D01*
X115927404Y-85405946D01*
X115915152Y-85405344D01*
X115903018Y-85403544D01*
X115891118Y-85400564D01*
X115879569Y-85396431D01*
X115868479Y-85391186D01*
X115857958Y-85384880D01*
X115848105Y-85377572D01*
X115839016Y-85369334D01*
X115662239Y-85192557D01*
X115654001Y-85183468D01*
X115646693Y-85173615D01*
X115640387Y-85163094D01*
X115635142Y-85152004D01*
X115631009Y-85140455D01*
X115628029Y-85128555D01*
X115626229Y-85116421D01*
X115625627Y-85104169D01*
X115626229Y-85091917D01*
X115628029Y-85079783D01*
X115631009Y-85067883D01*
X115635142Y-85056334D01*
X115640387Y-85045244D01*
X115646693Y-85034723D01*
X115654001Y-85024870D01*
X115662239Y-85015781D01*
X116546122Y-84131898D01*
X116555211Y-84123660D01*
X116565064Y-84116352D01*
X116575585Y-84110046D01*
X116586675Y-84104801D01*
X116598224Y-84100668D01*
X116610124Y-84097688D01*
X116622258Y-84095888D01*
X116634510Y-84095286D01*
X116646762Y-84095888D01*
X116646762Y-84095888D01*
G37*
D21*
X116280957Y-84750616D03*
D10*
G36*
X116081077Y-83530202D02*
G01*
X116093211Y-83532002D01*
X116105111Y-83534982D01*
X116116660Y-83539115D01*
X116127750Y-83544360D01*
X116138271Y-83550666D01*
X116148124Y-83557974D01*
X116157213Y-83566212D01*
X116333990Y-83742989D01*
X116342228Y-83752078D01*
X116349536Y-83761931D01*
X116355842Y-83772452D01*
X116361087Y-83783542D01*
X116365220Y-83795091D01*
X116368200Y-83806991D01*
X116370000Y-83819125D01*
X116370602Y-83831377D01*
X116370000Y-83843629D01*
X116368200Y-83855763D01*
X116365220Y-83867663D01*
X116361087Y-83879212D01*
X116355842Y-83890302D01*
X116349536Y-83900823D01*
X116342228Y-83910676D01*
X116333990Y-83919765D01*
X115450107Y-84803648D01*
X115441018Y-84811886D01*
X115431165Y-84819194D01*
X115420644Y-84825500D01*
X115409554Y-84830745D01*
X115398005Y-84834878D01*
X115386105Y-84837858D01*
X115373971Y-84839658D01*
X115361719Y-84840260D01*
X115349467Y-84839658D01*
X115337333Y-84837858D01*
X115325433Y-84834878D01*
X115313884Y-84830745D01*
X115302794Y-84825500D01*
X115292273Y-84819194D01*
X115282420Y-84811886D01*
X115273331Y-84803648D01*
X115096554Y-84626871D01*
X115088316Y-84617782D01*
X115081008Y-84607929D01*
X115074702Y-84597408D01*
X115069457Y-84586318D01*
X115065324Y-84574769D01*
X115062344Y-84562869D01*
X115060544Y-84550735D01*
X115059942Y-84538483D01*
X115060544Y-84526231D01*
X115062344Y-84514097D01*
X115065324Y-84502197D01*
X115069457Y-84490648D01*
X115074702Y-84479558D01*
X115081008Y-84469037D01*
X115088316Y-84459184D01*
X115096554Y-84450095D01*
X115980437Y-83566212D01*
X115989526Y-83557974D01*
X115999379Y-83550666D01*
X116009900Y-83544360D01*
X116020990Y-83539115D01*
X116032539Y-83534982D01*
X116044439Y-83532002D01*
X116056573Y-83530202D01*
X116068825Y-83529600D01*
X116081077Y-83530202D01*
X116081077Y-83530202D01*
G37*
D21*
X115715272Y-84184930D03*
%TD*%
M02*
