%TF.GenerationSoftware,KiCad,Pcbnew,(5.1.4)-1*%
%TF.CreationDate,2020-10-28T09:08:47+02:00*%
%TF.ProjectId,Borta Dators,426f7274-6120-4446-9174-6f72732e6b69,rev?*%
%TF.SameCoordinates,Original*%
%TF.FileFunction,Soldermask,Top*%
%TF.FilePolarity,Negative*%
%FSLAX46Y46*%
G04 Gerber Fmt 4.6, Leading zero omitted, Abs format (unit mm)*
G04 Created by KiCad (PCBNEW (5.1.4)-1) date 2020-10-28 09:08:47*
%MOMM*%
%LPD*%
G04 APERTURE LIST*
%ADD10C,1.624000*%
%ADD11C,0.100000*%
%ADD12C,1.050000*%
%ADD13C,1.800000*%
%ADD14C,1.800000*%
%ADD15R,1.200000X0.850000*%
%ADD16R,1.200000X0.950000*%
%ADD17R,1.900000X1.270000*%
%ADD18R,1.450000X1.650000*%
%ADD19R,1.450000X2.000000*%
%ADD20R,0.900000X1.000000*%
%ADD21O,1.800000X1.800000*%
%ADD22R,1.800000X1.800000*%
%ADD23R,0.500000X1.600000*%
%ADD24R,1.660000X0.750000*%
%ADD25C,0.300000*%
%ADD26C,0.600000*%
G04 APERTURE END LIST*
D10*
%TO.C,J3*%
X103570000Y-110770000D03*
X103570000Y-108230000D03*
X106110000Y-108230000D03*
X108650000Y-108230000D03*
X111190000Y-108230000D03*
X113730000Y-108230000D03*
X116270000Y-108230000D03*
X118810000Y-108230000D03*
X121350000Y-108230000D03*
X123890000Y-108230000D03*
X126430000Y-108230000D03*
X126430000Y-110770000D03*
X123890000Y-110770000D03*
X121350000Y-110770000D03*
X118810000Y-110770000D03*
X116270000Y-110770000D03*
X113730000Y-110770000D03*
X111190000Y-110770000D03*
X108650000Y-110770000D03*
X106110000Y-110770000D03*
%TD*%
%TO.C,BT1*%
X90890000Y-71550000D03*
X89620000Y-98450000D03*
X92160000Y-98450000D03*
%TD*%
D11*
%TO.C,C1*%
G36*
X86902229Y-109775264D02*
G01*
X86927711Y-109779044D01*
X86952700Y-109785303D01*
X86976954Y-109793982D01*
X87000242Y-109804996D01*
X87022337Y-109818239D01*
X87043028Y-109833585D01*
X87062116Y-109850884D01*
X87079415Y-109869972D01*
X87094761Y-109890663D01*
X87108004Y-109912758D01*
X87119018Y-109936046D01*
X87127697Y-109960300D01*
X87133956Y-109985289D01*
X87137736Y-110010771D01*
X87139000Y-110036500D01*
X87139000Y-110661500D01*
X87137736Y-110687229D01*
X87133956Y-110712711D01*
X87127697Y-110737700D01*
X87119018Y-110761954D01*
X87108004Y-110785242D01*
X87094761Y-110807337D01*
X87079415Y-110828028D01*
X87062116Y-110847116D01*
X87043028Y-110864415D01*
X87022337Y-110879761D01*
X87000242Y-110893004D01*
X86976954Y-110904018D01*
X86952700Y-110912697D01*
X86927711Y-110918956D01*
X86902229Y-110922736D01*
X86876500Y-110924000D01*
X86351500Y-110924000D01*
X86325771Y-110922736D01*
X86300289Y-110918956D01*
X86275300Y-110912697D01*
X86251046Y-110904018D01*
X86227758Y-110893004D01*
X86205663Y-110879761D01*
X86184972Y-110864415D01*
X86165884Y-110847116D01*
X86148585Y-110828028D01*
X86133239Y-110807337D01*
X86119996Y-110785242D01*
X86108982Y-110761954D01*
X86100303Y-110737700D01*
X86094044Y-110712711D01*
X86090264Y-110687229D01*
X86089000Y-110661500D01*
X86089000Y-110036500D01*
X86090264Y-110010771D01*
X86094044Y-109985289D01*
X86100303Y-109960300D01*
X86108982Y-109936046D01*
X86119996Y-109912758D01*
X86133239Y-109890663D01*
X86148585Y-109869972D01*
X86165884Y-109850884D01*
X86184972Y-109833585D01*
X86205663Y-109818239D01*
X86227758Y-109804996D01*
X86251046Y-109793982D01*
X86275300Y-109785303D01*
X86300289Y-109779044D01*
X86325771Y-109775264D01*
X86351500Y-109774000D01*
X86876500Y-109774000D01*
X86902229Y-109775264D01*
X86902229Y-109775264D01*
G37*
D12*
X86614000Y-110349000D03*
D11*
G36*
X86902229Y-108025264D02*
G01*
X86927711Y-108029044D01*
X86952700Y-108035303D01*
X86976954Y-108043982D01*
X87000242Y-108054996D01*
X87022337Y-108068239D01*
X87043028Y-108083585D01*
X87062116Y-108100884D01*
X87079415Y-108119972D01*
X87094761Y-108140663D01*
X87108004Y-108162758D01*
X87119018Y-108186046D01*
X87127697Y-108210300D01*
X87133956Y-108235289D01*
X87137736Y-108260771D01*
X87139000Y-108286500D01*
X87139000Y-108911500D01*
X87137736Y-108937229D01*
X87133956Y-108962711D01*
X87127697Y-108987700D01*
X87119018Y-109011954D01*
X87108004Y-109035242D01*
X87094761Y-109057337D01*
X87079415Y-109078028D01*
X87062116Y-109097116D01*
X87043028Y-109114415D01*
X87022337Y-109129761D01*
X87000242Y-109143004D01*
X86976954Y-109154018D01*
X86952700Y-109162697D01*
X86927711Y-109168956D01*
X86902229Y-109172736D01*
X86876500Y-109174000D01*
X86351500Y-109174000D01*
X86325771Y-109172736D01*
X86300289Y-109168956D01*
X86275300Y-109162697D01*
X86251046Y-109154018D01*
X86227758Y-109143004D01*
X86205663Y-109129761D01*
X86184972Y-109114415D01*
X86165884Y-109097116D01*
X86148585Y-109078028D01*
X86133239Y-109057337D01*
X86119996Y-109035242D01*
X86108982Y-109011954D01*
X86100303Y-108987700D01*
X86094044Y-108962711D01*
X86090264Y-108937229D01*
X86089000Y-108911500D01*
X86089000Y-108286500D01*
X86090264Y-108260771D01*
X86094044Y-108235289D01*
X86100303Y-108210300D01*
X86108982Y-108186046D01*
X86119996Y-108162758D01*
X86133239Y-108140663D01*
X86148585Y-108119972D01*
X86165884Y-108100884D01*
X86184972Y-108083585D01*
X86205663Y-108068239D01*
X86227758Y-108054996D01*
X86251046Y-108043982D01*
X86275300Y-108035303D01*
X86300289Y-108029044D01*
X86325771Y-108025264D01*
X86351500Y-108024000D01*
X86876500Y-108024000D01*
X86902229Y-108025264D01*
X86902229Y-108025264D01*
G37*
D12*
X86614000Y-108599000D03*
%TD*%
D11*
%TO.C,C2*%
G36*
X109186648Y-78817896D02*
G01*
X109212130Y-78821676D01*
X109237119Y-78827935D01*
X109261373Y-78836614D01*
X109284661Y-78847628D01*
X109306756Y-78860871D01*
X109327447Y-78876217D01*
X109346535Y-78893516D01*
X109717766Y-79264747D01*
X109735065Y-79283835D01*
X109750411Y-79304526D01*
X109763654Y-79326621D01*
X109774668Y-79349909D01*
X109783347Y-79374163D01*
X109789606Y-79399152D01*
X109793386Y-79424634D01*
X109794650Y-79450363D01*
X109793386Y-79476092D01*
X109789606Y-79501574D01*
X109783347Y-79526563D01*
X109774668Y-79550817D01*
X109763654Y-79574105D01*
X109750411Y-79596200D01*
X109735065Y-79616891D01*
X109717766Y-79635979D01*
X109275825Y-80077920D01*
X109256737Y-80095219D01*
X109236046Y-80110565D01*
X109213951Y-80123808D01*
X109190663Y-80134822D01*
X109166409Y-80143501D01*
X109141420Y-80149760D01*
X109115938Y-80153540D01*
X109090209Y-80154804D01*
X109064480Y-80153540D01*
X109038998Y-80149760D01*
X109014009Y-80143501D01*
X108989755Y-80134822D01*
X108966467Y-80123808D01*
X108944372Y-80110565D01*
X108923681Y-80095219D01*
X108904593Y-80077920D01*
X108533362Y-79706689D01*
X108516063Y-79687601D01*
X108500717Y-79666910D01*
X108487474Y-79644815D01*
X108476460Y-79621527D01*
X108467781Y-79597273D01*
X108461522Y-79572284D01*
X108457742Y-79546802D01*
X108456478Y-79521073D01*
X108457742Y-79495344D01*
X108461522Y-79469862D01*
X108467781Y-79444873D01*
X108476460Y-79420619D01*
X108487474Y-79397331D01*
X108500717Y-79375236D01*
X108516063Y-79354545D01*
X108533362Y-79335457D01*
X108975303Y-78893516D01*
X108994391Y-78876217D01*
X109015082Y-78860871D01*
X109037177Y-78847628D01*
X109060465Y-78836614D01*
X109084719Y-78827935D01*
X109109708Y-78821676D01*
X109135190Y-78817896D01*
X109160919Y-78816632D01*
X109186648Y-78817896D01*
X109186648Y-78817896D01*
G37*
D12*
X109125564Y-79485718D03*
D11*
G36*
X110424084Y-77580460D02*
G01*
X110449566Y-77584240D01*
X110474555Y-77590499D01*
X110498809Y-77599178D01*
X110522097Y-77610192D01*
X110544192Y-77623435D01*
X110564883Y-77638781D01*
X110583971Y-77656080D01*
X110955202Y-78027311D01*
X110972501Y-78046399D01*
X110987847Y-78067090D01*
X111001090Y-78089185D01*
X111012104Y-78112473D01*
X111020783Y-78136727D01*
X111027042Y-78161716D01*
X111030822Y-78187198D01*
X111032086Y-78212927D01*
X111030822Y-78238656D01*
X111027042Y-78264138D01*
X111020783Y-78289127D01*
X111012104Y-78313381D01*
X111001090Y-78336669D01*
X110987847Y-78358764D01*
X110972501Y-78379455D01*
X110955202Y-78398543D01*
X110513261Y-78840484D01*
X110494173Y-78857783D01*
X110473482Y-78873129D01*
X110451387Y-78886372D01*
X110428099Y-78897386D01*
X110403845Y-78906065D01*
X110378856Y-78912324D01*
X110353374Y-78916104D01*
X110327645Y-78917368D01*
X110301916Y-78916104D01*
X110276434Y-78912324D01*
X110251445Y-78906065D01*
X110227191Y-78897386D01*
X110203903Y-78886372D01*
X110181808Y-78873129D01*
X110161117Y-78857783D01*
X110142029Y-78840484D01*
X109770798Y-78469253D01*
X109753499Y-78450165D01*
X109738153Y-78429474D01*
X109724910Y-78407379D01*
X109713896Y-78384091D01*
X109705217Y-78359837D01*
X109698958Y-78334848D01*
X109695178Y-78309366D01*
X109693914Y-78283637D01*
X109695178Y-78257908D01*
X109698958Y-78232426D01*
X109705217Y-78207437D01*
X109713896Y-78183183D01*
X109724910Y-78159895D01*
X109738153Y-78137800D01*
X109753499Y-78117109D01*
X109770798Y-78098021D01*
X110212739Y-77656080D01*
X110231827Y-77638781D01*
X110252518Y-77623435D01*
X110274613Y-77610192D01*
X110297901Y-77599178D01*
X110322155Y-77590499D01*
X110347144Y-77584240D01*
X110372626Y-77580460D01*
X110398355Y-77579196D01*
X110424084Y-77580460D01*
X110424084Y-77580460D01*
G37*
D12*
X110363000Y-78248282D03*
%TD*%
D11*
%TO.C,C3*%
G36*
X111202366Y-80849896D02*
G01*
X111227848Y-80853676D01*
X111252837Y-80859935D01*
X111277091Y-80868614D01*
X111300379Y-80879628D01*
X111322474Y-80892871D01*
X111343165Y-80908217D01*
X111362253Y-80925516D01*
X111733484Y-81296747D01*
X111750783Y-81315835D01*
X111766129Y-81336526D01*
X111779372Y-81358621D01*
X111790386Y-81381909D01*
X111799065Y-81406163D01*
X111805324Y-81431152D01*
X111809104Y-81456634D01*
X111810368Y-81482363D01*
X111809104Y-81508092D01*
X111805324Y-81533574D01*
X111799065Y-81558563D01*
X111790386Y-81582817D01*
X111779372Y-81606105D01*
X111766129Y-81628200D01*
X111750783Y-81648891D01*
X111733484Y-81667979D01*
X111291543Y-82109920D01*
X111272455Y-82127219D01*
X111251764Y-82142565D01*
X111229669Y-82155808D01*
X111206381Y-82166822D01*
X111182127Y-82175501D01*
X111157138Y-82181760D01*
X111131656Y-82185540D01*
X111105927Y-82186804D01*
X111080198Y-82185540D01*
X111054716Y-82181760D01*
X111029727Y-82175501D01*
X111005473Y-82166822D01*
X110982185Y-82155808D01*
X110960090Y-82142565D01*
X110939399Y-82127219D01*
X110920311Y-82109920D01*
X110549080Y-81738689D01*
X110531781Y-81719601D01*
X110516435Y-81698910D01*
X110503192Y-81676815D01*
X110492178Y-81653527D01*
X110483499Y-81629273D01*
X110477240Y-81604284D01*
X110473460Y-81578802D01*
X110472196Y-81553073D01*
X110473460Y-81527344D01*
X110477240Y-81501862D01*
X110483499Y-81476873D01*
X110492178Y-81452619D01*
X110503192Y-81429331D01*
X110516435Y-81407236D01*
X110531781Y-81386545D01*
X110549080Y-81367457D01*
X110991021Y-80925516D01*
X111010109Y-80908217D01*
X111030800Y-80892871D01*
X111052895Y-80879628D01*
X111076183Y-80868614D01*
X111100437Y-80859935D01*
X111125426Y-80853676D01*
X111150908Y-80849896D01*
X111176637Y-80848632D01*
X111202366Y-80849896D01*
X111202366Y-80849896D01*
G37*
D12*
X111141282Y-81517718D03*
D11*
G36*
X112439802Y-79612460D02*
G01*
X112465284Y-79616240D01*
X112490273Y-79622499D01*
X112514527Y-79631178D01*
X112537815Y-79642192D01*
X112559910Y-79655435D01*
X112580601Y-79670781D01*
X112599689Y-79688080D01*
X112970920Y-80059311D01*
X112988219Y-80078399D01*
X113003565Y-80099090D01*
X113016808Y-80121185D01*
X113027822Y-80144473D01*
X113036501Y-80168727D01*
X113042760Y-80193716D01*
X113046540Y-80219198D01*
X113047804Y-80244927D01*
X113046540Y-80270656D01*
X113042760Y-80296138D01*
X113036501Y-80321127D01*
X113027822Y-80345381D01*
X113016808Y-80368669D01*
X113003565Y-80390764D01*
X112988219Y-80411455D01*
X112970920Y-80430543D01*
X112528979Y-80872484D01*
X112509891Y-80889783D01*
X112489200Y-80905129D01*
X112467105Y-80918372D01*
X112443817Y-80929386D01*
X112419563Y-80938065D01*
X112394574Y-80944324D01*
X112369092Y-80948104D01*
X112343363Y-80949368D01*
X112317634Y-80948104D01*
X112292152Y-80944324D01*
X112267163Y-80938065D01*
X112242909Y-80929386D01*
X112219621Y-80918372D01*
X112197526Y-80905129D01*
X112176835Y-80889783D01*
X112157747Y-80872484D01*
X111786516Y-80501253D01*
X111769217Y-80482165D01*
X111753871Y-80461474D01*
X111740628Y-80439379D01*
X111729614Y-80416091D01*
X111720935Y-80391837D01*
X111714676Y-80366848D01*
X111710896Y-80341366D01*
X111709632Y-80315637D01*
X111710896Y-80289908D01*
X111714676Y-80264426D01*
X111720935Y-80239437D01*
X111729614Y-80215183D01*
X111740628Y-80191895D01*
X111753871Y-80169800D01*
X111769217Y-80149109D01*
X111786516Y-80130021D01*
X112228457Y-79688080D01*
X112247545Y-79670781D01*
X112268236Y-79655435D01*
X112290331Y-79642192D01*
X112313619Y-79631178D01*
X112337873Y-79622499D01*
X112362862Y-79616240D01*
X112388344Y-79612460D01*
X112414073Y-79611196D01*
X112439802Y-79612460D01*
X112439802Y-79612460D01*
G37*
D12*
X112378718Y-80280282D03*
%TD*%
D11*
%TO.C,C4*%
G36*
X107486802Y-80612178D02*
G01*
X107512284Y-80615958D01*
X107537273Y-80622217D01*
X107561527Y-80630896D01*
X107584815Y-80641910D01*
X107606910Y-80655153D01*
X107627601Y-80670499D01*
X107646689Y-80687798D01*
X108017920Y-81059029D01*
X108035219Y-81078117D01*
X108050565Y-81098808D01*
X108063808Y-81120903D01*
X108074822Y-81144191D01*
X108083501Y-81168445D01*
X108089760Y-81193434D01*
X108093540Y-81218916D01*
X108094804Y-81244645D01*
X108093540Y-81270374D01*
X108089760Y-81295856D01*
X108083501Y-81320845D01*
X108074822Y-81345099D01*
X108063808Y-81368387D01*
X108050565Y-81390482D01*
X108035219Y-81411173D01*
X108017920Y-81430261D01*
X107575979Y-81872202D01*
X107556891Y-81889501D01*
X107536200Y-81904847D01*
X107514105Y-81918090D01*
X107490817Y-81929104D01*
X107466563Y-81937783D01*
X107441574Y-81944042D01*
X107416092Y-81947822D01*
X107390363Y-81949086D01*
X107364634Y-81947822D01*
X107339152Y-81944042D01*
X107314163Y-81937783D01*
X107289909Y-81929104D01*
X107266621Y-81918090D01*
X107244526Y-81904847D01*
X107223835Y-81889501D01*
X107204747Y-81872202D01*
X106833516Y-81500971D01*
X106816217Y-81481883D01*
X106800871Y-81461192D01*
X106787628Y-81439097D01*
X106776614Y-81415809D01*
X106767935Y-81391555D01*
X106761676Y-81366566D01*
X106757896Y-81341084D01*
X106756632Y-81315355D01*
X106757896Y-81289626D01*
X106761676Y-81264144D01*
X106767935Y-81239155D01*
X106776614Y-81214901D01*
X106787628Y-81191613D01*
X106800871Y-81169518D01*
X106816217Y-81148827D01*
X106833516Y-81129739D01*
X107275457Y-80687798D01*
X107294545Y-80670499D01*
X107315236Y-80655153D01*
X107337331Y-80641910D01*
X107360619Y-80630896D01*
X107384873Y-80622217D01*
X107409862Y-80615958D01*
X107435344Y-80612178D01*
X107461073Y-80610914D01*
X107486802Y-80612178D01*
X107486802Y-80612178D01*
G37*
D12*
X107425718Y-81280000D03*
D11*
G36*
X106249366Y-81849614D02*
G01*
X106274848Y-81853394D01*
X106299837Y-81859653D01*
X106324091Y-81868332D01*
X106347379Y-81879346D01*
X106369474Y-81892589D01*
X106390165Y-81907935D01*
X106409253Y-81925234D01*
X106780484Y-82296465D01*
X106797783Y-82315553D01*
X106813129Y-82336244D01*
X106826372Y-82358339D01*
X106837386Y-82381627D01*
X106846065Y-82405881D01*
X106852324Y-82430870D01*
X106856104Y-82456352D01*
X106857368Y-82482081D01*
X106856104Y-82507810D01*
X106852324Y-82533292D01*
X106846065Y-82558281D01*
X106837386Y-82582535D01*
X106826372Y-82605823D01*
X106813129Y-82627918D01*
X106797783Y-82648609D01*
X106780484Y-82667697D01*
X106338543Y-83109638D01*
X106319455Y-83126937D01*
X106298764Y-83142283D01*
X106276669Y-83155526D01*
X106253381Y-83166540D01*
X106229127Y-83175219D01*
X106204138Y-83181478D01*
X106178656Y-83185258D01*
X106152927Y-83186522D01*
X106127198Y-83185258D01*
X106101716Y-83181478D01*
X106076727Y-83175219D01*
X106052473Y-83166540D01*
X106029185Y-83155526D01*
X106007090Y-83142283D01*
X105986399Y-83126937D01*
X105967311Y-83109638D01*
X105596080Y-82738407D01*
X105578781Y-82719319D01*
X105563435Y-82698628D01*
X105550192Y-82676533D01*
X105539178Y-82653245D01*
X105530499Y-82628991D01*
X105524240Y-82604002D01*
X105520460Y-82578520D01*
X105519196Y-82552791D01*
X105520460Y-82527062D01*
X105524240Y-82501580D01*
X105530499Y-82476591D01*
X105539178Y-82452337D01*
X105550192Y-82429049D01*
X105563435Y-82406954D01*
X105578781Y-82386263D01*
X105596080Y-82367175D01*
X106038021Y-81925234D01*
X106057109Y-81907935D01*
X106077800Y-81892589D01*
X106099895Y-81879346D01*
X106123183Y-81868332D01*
X106147437Y-81859653D01*
X106172426Y-81853394D01*
X106197908Y-81849614D01*
X106223637Y-81848350D01*
X106249366Y-81849614D01*
X106249366Y-81849614D01*
G37*
D12*
X106188282Y-82517436D03*
%TD*%
D11*
%TO.C,D1*%
G36*
X144023229Y-55816264D02*
G01*
X144048711Y-55820044D01*
X144073700Y-55826303D01*
X144097954Y-55834982D01*
X144121242Y-55845996D01*
X144143337Y-55859239D01*
X144164028Y-55874585D01*
X144183116Y-55891884D01*
X144200415Y-55910972D01*
X144215761Y-55931663D01*
X144229004Y-55953758D01*
X144240018Y-55977046D01*
X144248697Y-56001300D01*
X144254956Y-56026289D01*
X144258736Y-56051771D01*
X144260000Y-56077500D01*
X144260000Y-56602500D01*
X144258736Y-56628229D01*
X144254956Y-56653711D01*
X144248697Y-56678700D01*
X144240018Y-56702954D01*
X144229004Y-56726242D01*
X144215761Y-56748337D01*
X144200415Y-56769028D01*
X144183116Y-56788116D01*
X144164028Y-56805415D01*
X144143337Y-56820761D01*
X144121242Y-56834004D01*
X144097954Y-56845018D01*
X144073700Y-56853697D01*
X144048711Y-56859956D01*
X144023229Y-56863736D01*
X143997500Y-56865000D01*
X143372500Y-56865000D01*
X143346771Y-56863736D01*
X143321289Y-56859956D01*
X143296300Y-56853697D01*
X143272046Y-56845018D01*
X143248758Y-56834004D01*
X143226663Y-56820761D01*
X143205972Y-56805415D01*
X143186884Y-56788116D01*
X143169585Y-56769028D01*
X143154239Y-56748337D01*
X143140996Y-56726242D01*
X143129982Y-56702954D01*
X143121303Y-56678700D01*
X143115044Y-56653711D01*
X143111264Y-56628229D01*
X143110000Y-56602500D01*
X143110000Y-56077500D01*
X143111264Y-56051771D01*
X143115044Y-56026289D01*
X143121303Y-56001300D01*
X143129982Y-55977046D01*
X143140996Y-55953758D01*
X143154239Y-55931663D01*
X143169585Y-55910972D01*
X143186884Y-55891884D01*
X143205972Y-55874585D01*
X143226663Y-55859239D01*
X143248758Y-55845996D01*
X143272046Y-55834982D01*
X143296300Y-55826303D01*
X143321289Y-55820044D01*
X143346771Y-55816264D01*
X143372500Y-55815000D01*
X143997500Y-55815000D01*
X144023229Y-55816264D01*
X144023229Y-55816264D01*
G37*
D12*
X143685000Y-56340000D03*
D11*
G36*
X145773229Y-55816264D02*
G01*
X145798711Y-55820044D01*
X145823700Y-55826303D01*
X145847954Y-55834982D01*
X145871242Y-55845996D01*
X145893337Y-55859239D01*
X145914028Y-55874585D01*
X145933116Y-55891884D01*
X145950415Y-55910972D01*
X145965761Y-55931663D01*
X145979004Y-55953758D01*
X145990018Y-55977046D01*
X145998697Y-56001300D01*
X146004956Y-56026289D01*
X146008736Y-56051771D01*
X146010000Y-56077500D01*
X146010000Y-56602500D01*
X146008736Y-56628229D01*
X146004956Y-56653711D01*
X145998697Y-56678700D01*
X145990018Y-56702954D01*
X145979004Y-56726242D01*
X145965761Y-56748337D01*
X145950415Y-56769028D01*
X145933116Y-56788116D01*
X145914028Y-56805415D01*
X145893337Y-56820761D01*
X145871242Y-56834004D01*
X145847954Y-56845018D01*
X145823700Y-56853697D01*
X145798711Y-56859956D01*
X145773229Y-56863736D01*
X145747500Y-56865000D01*
X145122500Y-56865000D01*
X145096771Y-56863736D01*
X145071289Y-56859956D01*
X145046300Y-56853697D01*
X145022046Y-56845018D01*
X144998758Y-56834004D01*
X144976663Y-56820761D01*
X144955972Y-56805415D01*
X144936884Y-56788116D01*
X144919585Y-56769028D01*
X144904239Y-56748337D01*
X144890996Y-56726242D01*
X144879982Y-56702954D01*
X144871303Y-56678700D01*
X144865044Y-56653711D01*
X144861264Y-56628229D01*
X144860000Y-56602500D01*
X144860000Y-56077500D01*
X144861264Y-56051771D01*
X144865044Y-56026289D01*
X144871303Y-56001300D01*
X144879982Y-55977046D01*
X144890996Y-55953758D01*
X144904239Y-55931663D01*
X144919585Y-55910972D01*
X144936884Y-55891884D01*
X144955972Y-55874585D01*
X144976663Y-55859239D01*
X144998758Y-55845996D01*
X145022046Y-55834982D01*
X145046300Y-55826303D01*
X145071289Y-55820044D01*
X145096771Y-55816264D01*
X145122500Y-55815000D01*
X145747500Y-55815000D01*
X145773229Y-55816264D01*
X145773229Y-55816264D01*
G37*
D12*
X145435000Y-56340000D03*
%TD*%
D11*
%TO.C,D2*%
G36*
X145773229Y-59816264D02*
G01*
X145798711Y-59820044D01*
X145823700Y-59826303D01*
X145847954Y-59834982D01*
X145871242Y-59845996D01*
X145893337Y-59859239D01*
X145914028Y-59874585D01*
X145933116Y-59891884D01*
X145950415Y-59910972D01*
X145965761Y-59931663D01*
X145979004Y-59953758D01*
X145990018Y-59977046D01*
X145998697Y-60001300D01*
X146004956Y-60026289D01*
X146008736Y-60051771D01*
X146010000Y-60077500D01*
X146010000Y-60602500D01*
X146008736Y-60628229D01*
X146004956Y-60653711D01*
X145998697Y-60678700D01*
X145990018Y-60702954D01*
X145979004Y-60726242D01*
X145965761Y-60748337D01*
X145950415Y-60769028D01*
X145933116Y-60788116D01*
X145914028Y-60805415D01*
X145893337Y-60820761D01*
X145871242Y-60834004D01*
X145847954Y-60845018D01*
X145823700Y-60853697D01*
X145798711Y-60859956D01*
X145773229Y-60863736D01*
X145747500Y-60865000D01*
X145122500Y-60865000D01*
X145096771Y-60863736D01*
X145071289Y-60859956D01*
X145046300Y-60853697D01*
X145022046Y-60845018D01*
X144998758Y-60834004D01*
X144976663Y-60820761D01*
X144955972Y-60805415D01*
X144936884Y-60788116D01*
X144919585Y-60769028D01*
X144904239Y-60748337D01*
X144890996Y-60726242D01*
X144879982Y-60702954D01*
X144871303Y-60678700D01*
X144865044Y-60653711D01*
X144861264Y-60628229D01*
X144860000Y-60602500D01*
X144860000Y-60077500D01*
X144861264Y-60051771D01*
X144865044Y-60026289D01*
X144871303Y-60001300D01*
X144879982Y-59977046D01*
X144890996Y-59953758D01*
X144904239Y-59931663D01*
X144919585Y-59910972D01*
X144936884Y-59891884D01*
X144955972Y-59874585D01*
X144976663Y-59859239D01*
X144998758Y-59845996D01*
X145022046Y-59834982D01*
X145046300Y-59826303D01*
X145071289Y-59820044D01*
X145096771Y-59816264D01*
X145122500Y-59815000D01*
X145747500Y-59815000D01*
X145773229Y-59816264D01*
X145773229Y-59816264D01*
G37*
D12*
X145435000Y-60340000D03*
D11*
G36*
X144023229Y-59816264D02*
G01*
X144048711Y-59820044D01*
X144073700Y-59826303D01*
X144097954Y-59834982D01*
X144121242Y-59845996D01*
X144143337Y-59859239D01*
X144164028Y-59874585D01*
X144183116Y-59891884D01*
X144200415Y-59910972D01*
X144215761Y-59931663D01*
X144229004Y-59953758D01*
X144240018Y-59977046D01*
X144248697Y-60001300D01*
X144254956Y-60026289D01*
X144258736Y-60051771D01*
X144260000Y-60077500D01*
X144260000Y-60602500D01*
X144258736Y-60628229D01*
X144254956Y-60653711D01*
X144248697Y-60678700D01*
X144240018Y-60702954D01*
X144229004Y-60726242D01*
X144215761Y-60748337D01*
X144200415Y-60769028D01*
X144183116Y-60788116D01*
X144164028Y-60805415D01*
X144143337Y-60820761D01*
X144121242Y-60834004D01*
X144097954Y-60845018D01*
X144073700Y-60853697D01*
X144048711Y-60859956D01*
X144023229Y-60863736D01*
X143997500Y-60865000D01*
X143372500Y-60865000D01*
X143346771Y-60863736D01*
X143321289Y-60859956D01*
X143296300Y-60853697D01*
X143272046Y-60845018D01*
X143248758Y-60834004D01*
X143226663Y-60820761D01*
X143205972Y-60805415D01*
X143186884Y-60788116D01*
X143169585Y-60769028D01*
X143154239Y-60748337D01*
X143140996Y-60726242D01*
X143129982Y-60702954D01*
X143121303Y-60678700D01*
X143115044Y-60653711D01*
X143111264Y-60628229D01*
X143110000Y-60602500D01*
X143110000Y-60077500D01*
X143111264Y-60051771D01*
X143115044Y-60026289D01*
X143121303Y-60001300D01*
X143129982Y-59977046D01*
X143140996Y-59953758D01*
X143154239Y-59931663D01*
X143169585Y-59910972D01*
X143186884Y-59891884D01*
X143205972Y-59874585D01*
X143226663Y-59859239D01*
X143248758Y-59845996D01*
X143272046Y-59834982D01*
X143296300Y-59826303D01*
X143321289Y-59820044D01*
X143346771Y-59816264D01*
X143372500Y-59815000D01*
X143997500Y-59815000D01*
X144023229Y-59816264D01*
X144023229Y-59816264D01*
G37*
D12*
X143685000Y-60340000D03*
%TD*%
D11*
%TO.C,D3*%
G36*
X145773229Y-63816264D02*
G01*
X145798711Y-63820044D01*
X145823700Y-63826303D01*
X145847954Y-63834982D01*
X145871242Y-63845996D01*
X145893337Y-63859239D01*
X145914028Y-63874585D01*
X145933116Y-63891884D01*
X145950415Y-63910972D01*
X145965761Y-63931663D01*
X145979004Y-63953758D01*
X145990018Y-63977046D01*
X145998697Y-64001300D01*
X146004956Y-64026289D01*
X146008736Y-64051771D01*
X146010000Y-64077500D01*
X146010000Y-64602500D01*
X146008736Y-64628229D01*
X146004956Y-64653711D01*
X145998697Y-64678700D01*
X145990018Y-64702954D01*
X145979004Y-64726242D01*
X145965761Y-64748337D01*
X145950415Y-64769028D01*
X145933116Y-64788116D01*
X145914028Y-64805415D01*
X145893337Y-64820761D01*
X145871242Y-64834004D01*
X145847954Y-64845018D01*
X145823700Y-64853697D01*
X145798711Y-64859956D01*
X145773229Y-64863736D01*
X145747500Y-64865000D01*
X145122500Y-64865000D01*
X145096771Y-64863736D01*
X145071289Y-64859956D01*
X145046300Y-64853697D01*
X145022046Y-64845018D01*
X144998758Y-64834004D01*
X144976663Y-64820761D01*
X144955972Y-64805415D01*
X144936884Y-64788116D01*
X144919585Y-64769028D01*
X144904239Y-64748337D01*
X144890996Y-64726242D01*
X144879982Y-64702954D01*
X144871303Y-64678700D01*
X144865044Y-64653711D01*
X144861264Y-64628229D01*
X144860000Y-64602500D01*
X144860000Y-64077500D01*
X144861264Y-64051771D01*
X144865044Y-64026289D01*
X144871303Y-64001300D01*
X144879982Y-63977046D01*
X144890996Y-63953758D01*
X144904239Y-63931663D01*
X144919585Y-63910972D01*
X144936884Y-63891884D01*
X144955972Y-63874585D01*
X144976663Y-63859239D01*
X144998758Y-63845996D01*
X145022046Y-63834982D01*
X145046300Y-63826303D01*
X145071289Y-63820044D01*
X145096771Y-63816264D01*
X145122500Y-63815000D01*
X145747500Y-63815000D01*
X145773229Y-63816264D01*
X145773229Y-63816264D01*
G37*
D12*
X145435000Y-64340000D03*
D11*
G36*
X144023229Y-63816264D02*
G01*
X144048711Y-63820044D01*
X144073700Y-63826303D01*
X144097954Y-63834982D01*
X144121242Y-63845996D01*
X144143337Y-63859239D01*
X144164028Y-63874585D01*
X144183116Y-63891884D01*
X144200415Y-63910972D01*
X144215761Y-63931663D01*
X144229004Y-63953758D01*
X144240018Y-63977046D01*
X144248697Y-64001300D01*
X144254956Y-64026289D01*
X144258736Y-64051771D01*
X144260000Y-64077500D01*
X144260000Y-64602500D01*
X144258736Y-64628229D01*
X144254956Y-64653711D01*
X144248697Y-64678700D01*
X144240018Y-64702954D01*
X144229004Y-64726242D01*
X144215761Y-64748337D01*
X144200415Y-64769028D01*
X144183116Y-64788116D01*
X144164028Y-64805415D01*
X144143337Y-64820761D01*
X144121242Y-64834004D01*
X144097954Y-64845018D01*
X144073700Y-64853697D01*
X144048711Y-64859956D01*
X144023229Y-64863736D01*
X143997500Y-64865000D01*
X143372500Y-64865000D01*
X143346771Y-64863736D01*
X143321289Y-64859956D01*
X143296300Y-64853697D01*
X143272046Y-64845018D01*
X143248758Y-64834004D01*
X143226663Y-64820761D01*
X143205972Y-64805415D01*
X143186884Y-64788116D01*
X143169585Y-64769028D01*
X143154239Y-64748337D01*
X143140996Y-64726242D01*
X143129982Y-64702954D01*
X143121303Y-64678700D01*
X143115044Y-64653711D01*
X143111264Y-64628229D01*
X143110000Y-64602500D01*
X143110000Y-64077500D01*
X143111264Y-64051771D01*
X143115044Y-64026289D01*
X143121303Y-64001300D01*
X143129982Y-63977046D01*
X143140996Y-63953758D01*
X143154239Y-63931663D01*
X143169585Y-63910972D01*
X143186884Y-63891884D01*
X143205972Y-63874585D01*
X143226663Y-63859239D01*
X143248758Y-63845996D01*
X143272046Y-63834982D01*
X143296300Y-63826303D01*
X143321289Y-63820044D01*
X143346771Y-63816264D01*
X143372500Y-63815000D01*
X143997500Y-63815000D01*
X144023229Y-63816264D01*
X144023229Y-63816264D01*
G37*
D12*
X143685000Y-64340000D03*
%TD*%
D11*
%TO.C,D4*%
G36*
X145773229Y-67816264D02*
G01*
X145798711Y-67820044D01*
X145823700Y-67826303D01*
X145847954Y-67834982D01*
X145871242Y-67845996D01*
X145893337Y-67859239D01*
X145914028Y-67874585D01*
X145933116Y-67891884D01*
X145950415Y-67910972D01*
X145965761Y-67931663D01*
X145979004Y-67953758D01*
X145990018Y-67977046D01*
X145998697Y-68001300D01*
X146004956Y-68026289D01*
X146008736Y-68051771D01*
X146010000Y-68077500D01*
X146010000Y-68602500D01*
X146008736Y-68628229D01*
X146004956Y-68653711D01*
X145998697Y-68678700D01*
X145990018Y-68702954D01*
X145979004Y-68726242D01*
X145965761Y-68748337D01*
X145950415Y-68769028D01*
X145933116Y-68788116D01*
X145914028Y-68805415D01*
X145893337Y-68820761D01*
X145871242Y-68834004D01*
X145847954Y-68845018D01*
X145823700Y-68853697D01*
X145798711Y-68859956D01*
X145773229Y-68863736D01*
X145747500Y-68865000D01*
X145122500Y-68865000D01*
X145096771Y-68863736D01*
X145071289Y-68859956D01*
X145046300Y-68853697D01*
X145022046Y-68845018D01*
X144998758Y-68834004D01*
X144976663Y-68820761D01*
X144955972Y-68805415D01*
X144936884Y-68788116D01*
X144919585Y-68769028D01*
X144904239Y-68748337D01*
X144890996Y-68726242D01*
X144879982Y-68702954D01*
X144871303Y-68678700D01*
X144865044Y-68653711D01*
X144861264Y-68628229D01*
X144860000Y-68602500D01*
X144860000Y-68077500D01*
X144861264Y-68051771D01*
X144865044Y-68026289D01*
X144871303Y-68001300D01*
X144879982Y-67977046D01*
X144890996Y-67953758D01*
X144904239Y-67931663D01*
X144919585Y-67910972D01*
X144936884Y-67891884D01*
X144955972Y-67874585D01*
X144976663Y-67859239D01*
X144998758Y-67845996D01*
X145022046Y-67834982D01*
X145046300Y-67826303D01*
X145071289Y-67820044D01*
X145096771Y-67816264D01*
X145122500Y-67815000D01*
X145747500Y-67815000D01*
X145773229Y-67816264D01*
X145773229Y-67816264D01*
G37*
D12*
X145435000Y-68340000D03*
D11*
G36*
X144023229Y-67816264D02*
G01*
X144048711Y-67820044D01*
X144073700Y-67826303D01*
X144097954Y-67834982D01*
X144121242Y-67845996D01*
X144143337Y-67859239D01*
X144164028Y-67874585D01*
X144183116Y-67891884D01*
X144200415Y-67910972D01*
X144215761Y-67931663D01*
X144229004Y-67953758D01*
X144240018Y-67977046D01*
X144248697Y-68001300D01*
X144254956Y-68026289D01*
X144258736Y-68051771D01*
X144260000Y-68077500D01*
X144260000Y-68602500D01*
X144258736Y-68628229D01*
X144254956Y-68653711D01*
X144248697Y-68678700D01*
X144240018Y-68702954D01*
X144229004Y-68726242D01*
X144215761Y-68748337D01*
X144200415Y-68769028D01*
X144183116Y-68788116D01*
X144164028Y-68805415D01*
X144143337Y-68820761D01*
X144121242Y-68834004D01*
X144097954Y-68845018D01*
X144073700Y-68853697D01*
X144048711Y-68859956D01*
X144023229Y-68863736D01*
X143997500Y-68865000D01*
X143372500Y-68865000D01*
X143346771Y-68863736D01*
X143321289Y-68859956D01*
X143296300Y-68853697D01*
X143272046Y-68845018D01*
X143248758Y-68834004D01*
X143226663Y-68820761D01*
X143205972Y-68805415D01*
X143186884Y-68788116D01*
X143169585Y-68769028D01*
X143154239Y-68748337D01*
X143140996Y-68726242D01*
X143129982Y-68702954D01*
X143121303Y-68678700D01*
X143115044Y-68653711D01*
X143111264Y-68628229D01*
X143110000Y-68602500D01*
X143110000Y-68077500D01*
X143111264Y-68051771D01*
X143115044Y-68026289D01*
X143121303Y-68001300D01*
X143129982Y-67977046D01*
X143140996Y-67953758D01*
X143154239Y-67931663D01*
X143169585Y-67910972D01*
X143186884Y-67891884D01*
X143205972Y-67874585D01*
X143226663Y-67859239D01*
X143248758Y-67845996D01*
X143272046Y-67834982D01*
X143296300Y-67826303D01*
X143321289Y-67820044D01*
X143346771Y-67816264D01*
X143372500Y-67815000D01*
X143997500Y-67815000D01*
X144023229Y-67816264D01*
X144023229Y-67816264D01*
G37*
D12*
X143685000Y-68340000D03*
%TD*%
D11*
%TO.C,D5*%
G36*
X144023229Y-71816264D02*
G01*
X144048711Y-71820044D01*
X144073700Y-71826303D01*
X144097954Y-71834982D01*
X144121242Y-71845996D01*
X144143337Y-71859239D01*
X144164028Y-71874585D01*
X144183116Y-71891884D01*
X144200415Y-71910972D01*
X144215761Y-71931663D01*
X144229004Y-71953758D01*
X144240018Y-71977046D01*
X144248697Y-72001300D01*
X144254956Y-72026289D01*
X144258736Y-72051771D01*
X144260000Y-72077500D01*
X144260000Y-72602500D01*
X144258736Y-72628229D01*
X144254956Y-72653711D01*
X144248697Y-72678700D01*
X144240018Y-72702954D01*
X144229004Y-72726242D01*
X144215761Y-72748337D01*
X144200415Y-72769028D01*
X144183116Y-72788116D01*
X144164028Y-72805415D01*
X144143337Y-72820761D01*
X144121242Y-72834004D01*
X144097954Y-72845018D01*
X144073700Y-72853697D01*
X144048711Y-72859956D01*
X144023229Y-72863736D01*
X143997500Y-72865000D01*
X143372500Y-72865000D01*
X143346771Y-72863736D01*
X143321289Y-72859956D01*
X143296300Y-72853697D01*
X143272046Y-72845018D01*
X143248758Y-72834004D01*
X143226663Y-72820761D01*
X143205972Y-72805415D01*
X143186884Y-72788116D01*
X143169585Y-72769028D01*
X143154239Y-72748337D01*
X143140996Y-72726242D01*
X143129982Y-72702954D01*
X143121303Y-72678700D01*
X143115044Y-72653711D01*
X143111264Y-72628229D01*
X143110000Y-72602500D01*
X143110000Y-72077500D01*
X143111264Y-72051771D01*
X143115044Y-72026289D01*
X143121303Y-72001300D01*
X143129982Y-71977046D01*
X143140996Y-71953758D01*
X143154239Y-71931663D01*
X143169585Y-71910972D01*
X143186884Y-71891884D01*
X143205972Y-71874585D01*
X143226663Y-71859239D01*
X143248758Y-71845996D01*
X143272046Y-71834982D01*
X143296300Y-71826303D01*
X143321289Y-71820044D01*
X143346771Y-71816264D01*
X143372500Y-71815000D01*
X143997500Y-71815000D01*
X144023229Y-71816264D01*
X144023229Y-71816264D01*
G37*
D12*
X143685000Y-72340000D03*
D11*
G36*
X145773229Y-71816264D02*
G01*
X145798711Y-71820044D01*
X145823700Y-71826303D01*
X145847954Y-71834982D01*
X145871242Y-71845996D01*
X145893337Y-71859239D01*
X145914028Y-71874585D01*
X145933116Y-71891884D01*
X145950415Y-71910972D01*
X145965761Y-71931663D01*
X145979004Y-71953758D01*
X145990018Y-71977046D01*
X145998697Y-72001300D01*
X146004956Y-72026289D01*
X146008736Y-72051771D01*
X146010000Y-72077500D01*
X146010000Y-72602500D01*
X146008736Y-72628229D01*
X146004956Y-72653711D01*
X145998697Y-72678700D01*
X145990018Y-72702954D01*
X145979004Y-72726242D01*
X145965761Y-72748337D01*
X145950415Y-72769028D01*
X145933116Y-72788116D01*
X145914028Y-72805415D01*
X145893337Y-72820761D01*
X145871242Y-72834004D01*
X145847954Y-72845018D01*
X145823700Y-72853697D01*
X145798711Y-72859956D01*
X145773229Y-72863736D01*
X145747500Y-72865000D01*
X145122500Y-72865000D01*
X145096771Y-72863736D01*
X145071289Y-72859956D01*
X145046300Y-72853697D01*
X145022046Y-72845018D01*
X144998758Y-72834004D01*
X144976663Y-72820761D01*
X144955972Y-72805415D01*
X144936884Y-72788116D01*
X144919585Y-72769028D01*
X144904239Y-72748337D01*
X144890996Y-72726242D01*
X144879982Y-72702954D01*
X144871303Y-72678700D01*
X144865044Y-72653711D01*
X144861264Y-72628229D01*
X144860000Y-72602500D01*
X144860000Y-72077500D01*
X144861264Y-72051771D01*
X144865044Y-72026289D01*
X144871303Y-72001300D01*
X144879982Y-71977046D01*
X144890996Y-71953758D01*
X144904239Y-71931663D01*
X144919585Y-71910972D01*
X144936884Y-71891884D01*
X144955972Y-71874585D01*
X144976663Y-71859239D01*
X144998758Y-71845996D01*
X145022046Y-71834982D01*
X145046300Y-71826303D01*
X145071289Y-71820044D01*
X145096771Y-71816264D01*
X145122500Y-71815000D01*
X145747500Y-71815000D01*
X145773229Y-71816264D01*
X145773229Y-71816264D01*
G37*
D12*
X145435000Y-72340000D03*
%TD*%
D11*
%TO.C,D6*%
G36*
X145773229Y-75816264D02*
G01*
X145798711Y-75820044D01*
X145823700Y-75826303D01*
X145847954Y-75834982D01*
X145871242Y-75845996D01*
X145893337Y-75859239D01*
X145914028Y-75874585D01*
X145933116Y-75891884D01*
X145950415Y-75910972D01*
X145965761Y-75931663D01*
X145979004Y-75953758D01*
X145990018Y-75977046D01*
X145998697Y-76001300D01*
X146004956Y-76026289D01*
X146008736Y-76051771D01*
X146010000Y-76077500D01*
X146010000Y-76602500D01*
X146008736Y-76628229D01*
X146004956Y-76653711D01*
X145998697Y-76678700D01*
X145990018Y-76702954D01*
X145979004Y-76726242D01*
X145965761Y-76748337D01*
X145950415Y-76769028D01*
X145933116Y-76788116D01*
X145914028Y-76805415D01*
X145893337Y-76820761D01*
X145871242Y-76834004D01*
X145847954Y-76845018D01*
X145823700Y-76853697D01*
X145798711Y-76859956D01*
X145773229Y-76863736D01*
X145747500Y-76865000D01*
X145122500Y-76865000D01*
X145096771Y-76863736D01*
X145071289Y-76859956D01*
X145046300Y-76853697D01*
X145022046Y-76845018D01*
X144998758Y-76834004D01*
X144976663Y-76820761D01*
X144955972Y-76805415D01*
X144936884Y-76788116D01*
X144919585Y-76769028D01*
X144904239Y-76748337D01*
X144890996Y-76726242D01*
X144879982Y-76702954D01*
X144871303Y-76678700D01*
X144865044Y-76653711D01*
X144861264Y-76628229D01*
X144860000Y-76602500D01*
X144860000Y-76077500D01*
X144861264Y-76051771D01*
X144865044Y-76026289D01*
X144871303Y-76001300D01*
X144879982Y-75977046D01*
X144890996Y-75953758D01*
X144904239Y-75931663D01*
X144919585Y-75910972D01*
X144936884Y-75891884D01*
X144955972Y-75874585D01*
X144976663Y-75859239D01*
X144998758Y-75845996D01*
X145022046Y-75834982D01*
X145046300Y-75826303D01*
X145071289Y-75820044D01*
X145096771Y-75816264D01*
X145122500Y-75815000D01*
X145747500Y-75815000D01*
X145773229Y-75816264D01*
X145773229Y-75816264D01*
G37*
D12*
X145435000Y-76340000D03*
D11*
G36*
X144023229Y-75816264D02*
G01*
X144048711Y-75820044D01*
X144073700Y-75826303D01*
X144097954Y-75834982D01*
X144121242Y-75845996D01*
X144143337Y-75859239D01*
X144164028Y-75874585D01*
X144183116Y-75891884D01*
X144200415Y-75910972D01*
X144215761Y-75931663D01*
X144229004Y-75953758D01*
X144240018Y-75977046D01*
X144248697Y-76001300D01*
X144254956Y-76026289D01*
X144258736Y-76051771D01*
X144260000Y-76077500D01*
X144260000Y-76602500D01*
X144258736Y-76628229D01*
X144254956Y-76653711D01*
X144248697Y-76678700D01*
X144240018Y-76702954D01*
X144229004Y-76726242D01*
X144215761Y-76748337D01*
X144200415Y-76769028D01*
X144183116Y-76788116D01*
X144164028Y-76805415D01*
X144143337Y-76820761D01*
X144121242Y-76834004D01*
X144097954Y-76845018D01*
X144073700Y-76853697D01*
X144048711Y-76859956D01*
X144023229Y-76863736D01*
X143997500Y-76865000D01*
X143372500Y-76865000D01*
X143346771Y-76863736D01*
X143321289Y-76859956D01*
X143296300Y-76853697D01*
X143272046Y-76845018D01*
X143248758Y-76834004D01*
X143226663Y-76820761D01*
X143205972Y-76805415D01*
X143186884Y-76788116D01*
X143169585Y-76769028D01*
X143154239Y-76748337D01*
X143140996Y-76726242D01*
X143129982Y-76702954D01*
X143121303Y-76678700D01*
X143115044Y-76653711D01*
X143111264Y-76628229D01*
X143110000Y-76602500D01*
X143110000Y-76077500D01*
X143111264Y-76051771D01*
X143115044Y-76026289D01*
X143121303Y-76001300D01*
X143129982Y-75977046D01*
X143140996Y-75953758D01*
X143154239Y-75931663D01*
X143169585Y-75910972D01*
X143186884Y-75891884D01*
X143205972Y-75874585D01*
X143226663Y-75859239D01*
X143248758Y-75845996D01*
X143272046Y-75834982D01*
X143296300Y-75826303D01*
X143321289Y-75820044D01*
X143346771Y-75816264D01*
X143372500Y-75815000D01*
X143997500Y-75815000D01*
X144023229Y-75816264D01*
X144023229Y-75816264D01*
G37*
D12*
X143685000Y-76340000D03*
%TD*%
D11*
%TO.C,D7*%
G36*
X144023229Y-79816264D02*
G01*
X144048711Y-79820044D01*
X144073700Y-79826303D01*
X144097954Y-79834982D01*
X144121242Y-79845996D01*
X144143337Y-79859239D01*
X144164028Y-79874585D01*
X144183116Y-79891884D01*
X144200415Y-79910972D01*
X144215761Y-79931663D01*
X144229004Y-79953758D01*
X144240018Y-79977046D01*
X144248697Y-80001300D01*
X144254956Y-80026289D01*
X144258736Y-80051771D01*
X144260000Y-80077500D01*
X144260000Y-80602500D01*
X144258736Y-80628229D01*
X144254956Y-80653711D01*
X144248697Y-80678700D01*
X144240018Y-80702954D01*
X144229004Y-80726242D01*
X144215761Y-80748337D01*
X144200415Y-80769028D01*
X144183116Y-80788116D01*
X144164028Y-80805415D01*
X144143337Y-80820761D01*
X144121242Y-80834004D01*
X144097954Y-80845018D01*
X144073700Y-80853697D01*
X144048711Y-80859956D01*
X144023229Y-80863736D01*
X143997500Y-80865000D01*
X143372500Y-80865000D01*
X143346771Y-80863736D01*
X143321289Y-80859956D01*
X143296300Y-80853697D01*
X143272046Y-80845018D01*
X143248758Y-80834004D01*
X143226663Y-80820761D01*
X143205972Y-80805415D01*
X143186884Y-80788116D01*
X143169585Y-80769028D01*
X143154239Y-80748337D01*
X143140996Y-80726242D01*
X143129982Y-80702954D01*
X143121303Y-80678700D01*
X143115044Y-80653711D01*
X143111264Y-80628229D01*
X143110000Y-80602500D01*
X143110000Y-80077500D01*
X143111264Y-80051771D01*
X143115044Y-80026289D01*
X143121303Y-80001300D01*
X143129982Y-79977046D01*
X143140996Y-79953758D01*
X143154239Y-79931663D01*
X143169585Y-79910972D01*
X143186884Y-79891884D01*
X143205972Y-79874585D01*
X143226663Y-79859239D01*
X143248758Y-79845996D01*
X143272046Y-79834982D01*
X143296300Y-79826303D01*
X143321289Y-79820044D01*
X143346771Y-79816264D01*
X143372500Y-79815000D01*
X143997500Y-79815000D01*
X144023229Y-79816264D01*
X144023229Y-79816264D01*
G37*
D12*
X143685000Y-80340000D03*
D11*
G36*
X145773229Y-79816264D02*
G01*
X145798711Y-79820044D01*
X145823700Y-79826303D01*
X145847954Y-79834982D01*
X145871242Y-79845996D01*
X145893337Y-79859239D01*
X145914028Y-79874585D01*
X145933116Y-79891884D01*
X145950415Y-79910972D01*
X145965761Y-79931663D01*
X145979004Y-79953758D01*
X145990018Y-79977046D01*
X145998697Y-80001300D01*
X146004956Y-80026289D01*
X146008736Y-80051771D01*
X146010000Y-80077500D01*
X146010000Y-80602500D01*
X146008736Y-80628229D01*
X146004956Y-80653711D01*
X145998697Y-80678700D01*
X145990018Y-80702954D01*
X145979004Y-80726242D01*
X145965761Y-80748337D01*
X145950415Y-80769028D01*
X145933116Y-80788116D01*
X145914028Y-80805415D01*
X145893337Y-80820761D01*
X145871242Y-80834004D01*
X145847954Y-80845018D01*
X145823700Y-80853697D01*
X145798711Y-80859956D01*
X145773229Y-80863736D01*
X145747500Y-80865000D01*
X145122500Y-80865000D01*
X145096771Y-80863736D01*
X145071289Y-80859956D01*
X145046300Y-80853697D01*
X145022046Y-80845018D01*
X144998758Y-80834004D01*
X144976663Y-80820761D01*
X144955972Y-80805415D01*
X144936884Y-80788116D01*
X144919585Y-80769028D01*
X144904239Y-80748337D01*
X144890996Y-80726242D01*
X144879982Y-80702954D01*
X144871303Y-80678700D01*
X144865044Y-80653711D01*
X144861264Y-80628229D01*
X144860000Y-80602500D01*
X144860000Y-80077500D01*
X144861264Y-80051771D01*
X144865044Y-80026289D01*
X144871303Y-80001300D01*
X144879982Y-79977046D01*
X144890996Y-79953758D01*
X144904239Y-79931663D01*
X144919585Y-79910972D01*
X144936884Y-79891884D01*
X144955972Y-79874585D01*
X144976663Y-79859239D01*
X144998758Y-79845996D01*
X145022046Y-79834982D01*
X145046300Y-79826303D01*
X145071289Y-79820044D01*
X145096771Y-79816264D01*
X145122500Y-79815000D01*
X145747500Y-79815000D01*
X145773229Y-79816264D01*
X145773229Y-79816264D01*
G37*
D12*
X145435000Y-80340000D03*
%TD*%
D13*
%TO.C,J1*%
X94488000Y-57150000D03*
D11*
G36*
X93215208Y-57150000D02*
G01*
X94488000Y-55877208D01*
X95760792Y-57150000D01*
X94488000Y-58422792D01*
X93215208Y-57150000D01*
X93215208Y-57150000D01*
G37*
D13*
X92691949Y-58946051D03*
D14*
X92691949Y-58946051D02*
X92691949Y-58946051D01*
D13*
X90895898Y-60742102D03*
D14*
X90895898Y-60742102D02*
X90895898Y-60742102D01*
D13*
X89099846Y-62538154D03*
D14*
X89099846Y-62538154D02*
X89099846Y-62538154D01*
D13*
X87303795Y-64334205D03*
D14*
X87303795Y-64334205D02*
X87303795Y-64334205D01*
D13*
X85507744Y-66130256D03*
D14*
X85507744Y-66130256D02*
X85507744Y-66130256D01*
%TD*%
D15*
%TO.C,J2*%
X137010000Y-96720000D03*
D16*
X137010000Y-97820000D03*
X137010000Y-98920000D03*
X137010000Y-100020000D03*
X137010000Y-101120000D03*
X137010000Y-102220000D03*
X137010000Y-103320000D03*
X137010000Y-104420000D03*
D17*
X137360000Y-95620000D03*
D18*
X137140000Y-106920000D03*
D19*
X147610000Y-103620000D03*
X147610000Y-97520000D03*
%TD*%
D20*
%TO.C,Q1*%
X91252000Y-104759000D03*
X93152000Y-104759000D03*
X92202000Y-102759000D03*
%TD*%
D11*
%TO.C,R1*%
G36*
X98481229Y-110017064D02*
G01*
X98506711Y-110020844D01*
X98531700Y-110027103D01*
X98555954Y-110035782D01*
X98579242Y-110046796D01*
X98601337Y-110060039D01*
X98622028Y-110075385D01*
X98641116Y-110092684D01*
X98658415Y-110111772D01*
X98673761Y-110132463D01*
X98687004Y-110154558D01*
X98698018Y-110177846D01*
X98706697Y-110202100D01*
X98712956Y-110227089D01*
X98716736Y-110252571D01*
X98718000Y-110278300D01*
X98718000Y-110803300D01*
X98716736Y-110829029D01*
X98712956Y-110854511D01*
X98706697Y-110879500D01*
X98698018Y-110903754D01*
X98687004Y-110927042D01*
X98673761Y-110949137D01*
X98658415Y-110969828D01*
X98641116Y-110988916D01*
X98622028Y-111006215D01*
X98601337Y-111021561D01*
X98579242Y-111034804D01*
X98555954Y-111045818D01*
X98531700Y-111054497D01*
X98506711Y-111060756D01*
X98481229Y-111064536D01*
X98455500Y-111065800D01*
X97830500Y-111065800D01*
X97804771Y-111064536D01*
X97779289Y-111060756D01*
X97754300Y-111054497D01*
X97730046Y-111045818D01*
X97706758Y-111034804D01*
X97684663Y-111021561D01*
X97663972Y-111006215D01*
X97644884Y-110988916D01*
X97627585Y-110969828D01*
X97612239Y-110949137D01*
X97598996Y-110927042D01*
X97587982Y-110903754D01*
X97579303Y-110879500D01*
X97573044Y-110854511D01*
X97569264Y-110829029D01*
X97568000Y-110803300D01*
X97568000Y-110278300D01*
X97569264Y-110252571D01*
X97573044Y-110227089D01*
X97579303Y-110202100D01*
X97587982Y-110177846D01*
X97598996Y-110154558D01*
X97612239Y-110132463D01*
X97627585Y-110111772D01*
X97644884Y-110092684D01*
X97663972Y-110075385D01*
X97684663Y-110060039D01*
X97706758Y-110046796D01*
X97730046Y-110035782D01*
X97754300Y-110027103D01*
X97779289Y-110020844D01*
X97804771Y-110017064D01*
X97830500Y-110015800D01*
X98455500Y-110015800D01*
X98481229Y-110017064D01*
X98481229Y-110017064D01*
G37*
D12*
X98143000Y-110540800D03*
D11*
G36*
X96731229Y-110017064D02*
G01*
X96756711Y-110020844D01*
X96781700Y-110027103D01*
X96805954Y-110035782D01*
X96829242Y-110046796D01*
X96851337Y-110060039D01*
X96872028Y-110075385D01*
X96891116Y-110092684D01*
X96908415Y-110111772D01*
X96923761Y-110132463D01*
X96937004Y-110154558D01*
X96948018Y-110177846D01*
X96956697Y-110202100D01*
X96962956Y-110227089D01*
X96966736Y-110252571D01*
X96968000Y-110278300D01*
X96968000Y-110803300D01*
X96966736Y-110829029D01*
X96962956Y-110854511D01*
X96956697Y-110879500D01*
X96948018Y-110903754D01*
X96937004Y-110927042D01*
X96923761Y-110949137D01*
X96908415Y-110969828D01*
X96891116Y-110988916D01*
X96872028Y-111006215D01*
X96851337Y-111021561D01*
X96829242Y-111034804D01*
X96805954Y-111045818D01*
X96781700Y-111054497D01*
X96756711Y-111060756D01*
X96731229Y-111064536D01*
X96705500Y-111065800D01*
X96080500Y-111065800D01*
X96054771Y-111064536D01*
X96029289Y-111060756D01*
X96004300Y-111054497D01*
X95980046Y-111045818D01*
X95956758Y-111034804D01*
X95934663Y-111021561D01*
X95913972Y-111006215D01*
X95894884Y-110988916D01*
X95877585Y-110969828D01*
X95862239Y-110949137D01*
X95848996Y-110927042D01*
X95837982Y-110903754D01*
X95829303Y-110879500D01*
X95823044Y-110854511D01*
X95819264Y-110829029D01*
X95818000Y-110803300D01*
X95818000Y-110278300D01*
X95819264Y-110252571D01*
X95823044Y-110227089D01*
X95829303Y-110202100D01*
X95837982Y-110177846D01*
X95848996Y-110154558D01*
X95862239Y-110132463D01*
X95877585Y-110111772D01*
X95894884Y-110092684D01*
X95913972Y-110075385D01*
X95934663Y-110060039D01*
X95956758Y-110046796D01*
X95980046Y-110035782D01*
X96004300Y-110027103D01*
X96029289Y-110020844D01*
X96054771Y-110017064D01*
X96080500Y-110015800D01*
X96705500Y-110015800D01*
X96731229Y-110017064D01*
X96731229Y-110017064D01*
G37*
D12*
X96393000Y-110540800D03*
%TD*%
D11*
%TO.C,R3*%
G36*
X108321366Y-83897896D02*
G01*
X108346848Y-83901676D01*
X108371837Y-83907935D01*
X108396091Y-83916614D01*
X108419379Y-83927628D01*
X108441474Y-83940871D01*
X108462165Y-83956217D01*
X108481253Y-83973516D01*
X108852484Y-84344747D01*
X108869783Y-84363835D01*
X108885129Y-84384526D01*
X108898372Y-84406621D01*
X108909386Y-84429909D01*
X108918065Y-84454163D01*
X108924324Y-84479152D01*
X108928104Y-84504634D01*
X108929368Y-84530363D01*
X108928104Y-84556092D01*
X108924324Y-84581574D01*
X108918065Y-84606563D01*
X108909386Y-84630817D01*
X108898372Y-84654105D01*
X108885129Y-84676200D01*
X108869783Y-84696891D01*
X108852484Y-84715979D01*
X108410543Y-85157920D01*
X108391455Y-85175219D01*
X108370764Y-85190565D01*
X108348669Y-85203808D01*
X108325381Y-85214822D01*
X108301127Y-85223501D01*
X108276138Y-85229760D01*
X108250656Y-85233540D01*
X108224927Y-85234804D01*
X108199198Y-85233540D01*
X108173716Y-85229760D01*
X108148727Y-85223501D01*
X108124473Y-85214822D01*
X108101185Y-85203808D01*
X108079090Y-85190565D01*
X108058399Y-85175219D01*
X108039311Y-85157920D01*
X107668080Y-84786689D01*
X107650781Y-84767601D01*
X107635435Y-84746910D01*
X107622192Y-84724815D01*
X107611178Y-84701527D01*
X107602499Y-84677273D01*
X107596240Y-84652284D01*
X107592460Y-84626802D01*
X107591196Y-84601073D01*
X107592460Y-84575344D01*
X107596240Y-84549862D01*
X107602499Y-84524873D01*
X107611178Y-84500619D01*
X107622192Y-84477331D01*
X107635435Y-84455236D01*
X107650781Y-84434545D01*
X107668080Y-84415457D01*
X108110021Y-83973516D01*
X108129109Y-83956217D01*
X108149800Y-83940871D01*
X108171895Y-83927628D01*
X108195183Y-83916614D01*
X108219437Y-83907935D01*
X108244426Y-83901676D01*
X108269908Y-83897896D01*
X108295637Y-83896632D01*
X108321366Y-83897896D01*
X108321366Y-83897896D01*
G37*
D12*
X108260282Y-84565718D03*
D11*
G36*
X109558802Y-82660460D02*
G01*
X109584284Y-82664240D01*
X109609273Y-82670499D01*
X109633527Y-82679178D01*
X109656815Y-82690192D01*
X109678910Y-82703435D01*
X109699601Y-82718781D01*
X109718689Y-82736080D01*
X110089920Y-83107311D01*
X110107219Y-83126399D01*
X110122565Y-83147090D01*
X110135808Y-83169185D01*
X110146822Y-83192473D01*
X110155501Y-83216727D01*
X110161760Y-83241716D01*
X110165540Y-83267198D01*
X110166804Y-83292927D01*
X110165540Y-83318656D01*
X110161760Y-83344138D01*
X110155501Y-83369127D01*
X110146822Y-83393381D01*
X110135808Y-83416669D01*
X110122565Y-83438764D01*
X110107219Y-83459455D01*
X110089920Y-83478543D01*
X109647979Y-83920484D01*
X109628891Y-83937783D01*
X109608200Y-83953129D01*
X109586105Y-83966372D01*
X109562817Y-83977386D01*
X109538563Y-83986065D01*
X109513574Y-83992324D01*
X109488092Y-83996104D01*
X109462363Y-83997368D01*
X109436634Y-83996104D01*
X109411152Y-83992324D01*
X109386163Y-83986065D01*
X109361909Y-83977386D01*
X109338621Y-83966372D01*
X109316526Y-83953129D01*
X109295835Y-83937783D01*
X109276747Y-83920484D01*
X108905516Y-83549253D01*
X108888217Y-83530165D01*
X108872871Y-83509474D01*
X108859628Y-83487379D01*
X108848614Y-83464091D01*
X108839935Y-83439837D01*
X108833676Y-83414848D01*
X108829896Y-83389366D01*
X108828632Y-83363637D01*
X108829896Y-83337908D01*
X108833676Y-83312426D01*
X108839935Y-83287437D01*
X108848614Y-83263183D01*
X108859628Y-83239895D01*
X108872871Y-83217800D01*
X108888217Y-83197109D01*
X108905516Y-83178021D01*
X109347457Y-82736080D01*
X109366545Y-82718781D01*
X109387236Y-82703435D01*
X109409331Y-82690192D01*
X109432619Y-82679178D01*
X109456873Y-82670499D01*
X109481862Y-82664240D01*
X109507344Y-82660460D01*
X109533073Y-82659196D01*
X109558802Y-82660460D01*
X109558802Y-82660460D01*
G37*
D12*
X109497718Y-83328282D03*
%TD*%
D11*
%TO.C,R4*%
G36*
X140773229Y-55816264D02*
G01*
X140798711Y-55820044D01*
X140823700Y-55826303D01*
X140847954Y-55834982D01*
X140871242Y-55845996D01*
X140893337Y-55859239D01*
X140914028Y-55874585D01*
X140933116Y-55891884D01*
X140950415Y-55910972D01*
X140965761Y-55931663D01*
X140979004Y-55953758D01*
X140990018Y-55977046D01*
X140998697Y-56001300D01*
X141004956Y-56026289D01*
X141008736Y-56051771D01*
X141010000Y-56077500D01*
X141010000Y-56602500D01*
X141008736Y-56628229D01*
X141004956Y-56653711D01*
X140998697Y-56678700D01*
X140990018Y-56702954D01*
X140979004Y-56726242D01*
X140965761Y-56748337D01*
X140950415Y-56769028D01*
X140933116Y-56788116D01*
X140914028Y-56805415D01*
X140893337Y-56820761D01*
X140871242Y-56834004D01*
X140847954Y-56845018D01*
X140823700Y-56853697D01*
X140798711Y-56859956D01*
X140773229Y-56863736D01*
X140747500Y-56865000D01*
X140122500Y-56865000D01*
X140096771Y-56863736D01*
X140071289Y-56859956D01*
X140046300Y-56853697D01*
X140022046Y-56845018D01*
X139998758Y-56834004D01*
X139976663Y-56820761D01*
X139955972Y-56805415D01*
X139936884Y-56788116D01*
X139919585Y-56769028D01*
X139904239Y-56748337D01*
X139890996Y-56726242D01*
X139879982Y-56702954D01*
X139871303Y-56678700D01*
X139865044Y-56653711D01*
X139861264Y-56628229D01*
X139860000Y-56602500D01*
X139860000Y-56077500D01*
X139861264Y-56051771D01*
X139865044Y-56026289D01*
X139871303Y-56001300D01*
X139879982Y-55977046D01*
X139890996Y-55953758D01*
X139904239Y-55931663D01*
X139919585Y-55910972D01*
X139936884Y-55891884D01*
X139955972Y-55874585D01*
X139976663Y-55859239D01*
X139998758Y-55845996D01*
X140022046Y-55834982D01*
X140046300Y-55826303D01*
X140071289Y-55820044D01*
X140096771Y-55816264D01*
X140122500Y-55815000D01*
X140747500Y-55815000D01*
X140773229Y-55816264D01*
X140773229Y-55816264D01*
G37*
D12*
X140435000Y-56340000D03*
D11*
G36*
X139023229Y-55816264D02*
G01*
X139048711Y-55820044D01*
X139073700Y-55826303D01*
X139097954Y-55834982D01*
X139121242Y-55845996D01*
X139143337Y-55859239D01*
X139164028Y-55874585D01*
X139183116Y-55891884D01*
X139200415Y-55910972D01*
X139215761Y-55931663D01*
X139229004Y-55953758D01*
X139240018Y-55977046D01*
X139248697Y-56001300D01*
X139254956Y-56026289D01*
X139258736Y-56051771D01*
X139260000Y-56077500D01*
X139260000Y-56602500D01*
X139258736Y-56628229D01*
X139254956Y-56653711D01*
X139248697Y-56678700D01*
X139240018Y-56702954D01*
X139229004Y-56726242D01*
X139215761Y-56748337D01*
X139200415Y-56769028D01*
X139183116Y-56788116D01*
X139164028Y-56805415D01*
X139143337Y-56820761D01*
X139121242Y-56834004D01*
X139097954Y-56845018D01*
X139073700Y-56853697D01*
X139048711Y-56859956D01*
X139023229Y-56863736D01*
X138997500Y-56865000D01*
X138372500Y-56865000D01*
X138346771Y-56863736D01*
X138321289Y-56859956D01*
X138296300Y-56853697D01*
X138272046Y-56845018D01*
X138248758Y-56834004D01*
X138226663Y-56820761D01*
X138205972Y-56805415D01*
X138186884Y-56788116D01*
X138169585Y-56769028D01*
X138154239Y-56748337D01*
X138140996Y-56726242D01*
X138129982Y-56702954D01*
X138121303Y-56678700D01*
X138115044Y-56653711D01*
X138111264Y-56628229D01*
X138110000Y-56602500D01*
X138110000Y-56077500D01*
X138111264Y-56051771D01*
X138115044Y-56026289D01*
X138121303Y-56001300D01*
X138129982Y-55977046D01*
X138140996Y-55953758D01*
X138154239Y-55931663D01*
X138169585Y-55910972D01*
X138186884Y-55891884D01*
X138205972Y-55874585D01*
X138226663Y-55859239D01*
X138248758Y-55845996D01*
X138272046Y-55834982D01*
X138296300Y-55826303D01*
X138321289Y-55820044D01*
X138346771Y-55816264D01*
X138372500Y-55815000D01*
X138997500Y-55815000D01*
X139023229Y-55816264D01*
X139023229Y-55816264D01*
G37*
D12*
X138685000Y-56340000D03*
%TD*%
D11*
%TO.C,R5*%
G36*
X139023229Y-59816264D02*
G01*
X139048711Y-59820044D01*
X139073700Y-59826303D01*
X139097954Y-59834982D01*
X139121242Y-59845996D01*
X139143337Y-59859239D01*
X139164028Y-59874585D01*
X139183116Y-59891884D01*
X139200415Y-59910972D01*
X139215761Y-59931663D01*
X139229004Y-59953758D01*
X139240018Y-59977046D01*
X139248697Y-60001300D01*
X139254956Y-60026289D01*
X139258736Y-60051771D01*
X139260000Y-60077500D01*
X139260000Y-60602500D01*
X139258736Y-60628229D01*
X139254956Y-60653711D01*
X139248697Y-60678700D01*
X139240018Y-60702954D01*
X139229004Y-60726242D01*
X139215761Y-60748337D01*
X139200415Y-60769028D01*
X139183116Y-60788116D01*
X139164028Y-60805415D01*
X139143337Y-60820761D01*
X139121242Y-60834004D01*
X139097954Y-60845018D01*
X139073700Y-60853697D01*
X139048711Y-60859956D01*
X139023229Y-60863736D01*
X138997500Y-60865000D01*
X138372500Y-60865000D01*
X138346771Y-60863736D01*
X138321289Y-60859956D01*
X138296300Y-60853697D01*
X138272046Y-60845018D01*
X138248758Y-60834004D01*
X138226663Y-60820761D01*
X138205972Y-60805415D01*
X138186884Y-60788116D01*
X138169585Y-60769028D01*
X138154239Y-60748337D01*
X138140996Y-60726242D01*
X138129982Y-60702954D01*
X138121303Y-60678700D01*
X138115044Y-60653711D01*
X138111264Y-60628229D01*
X138110000Y-60602500D01*
X138110000Y-60077500D01*
X138111264Y-60051771D01*
X138115044Y-60026289D01*
X138121303Y-60001300D01*
X138129982Y-59977046D01*
X138140996Y-59953758D01*
X138154239Y-59931663D01*
X138169585Y-59910972D01*
X138186884Y-59891884D01*
X138205972Y-59874585D01*
X138226663Y-59859239D01*
X138248758Y-59845996D01*
X138272046Y-59834982D01*
X138296300Y-59826303D01*
X138321289Y-59820044D01*
X138346771Y-59816264D01*
X138372500Y-59815000D01*
X138997500Y-59815000D01*
X139023229Y-59816264D01*
X139023229Y-59816264D01*
G37*
D12*
X138685000Y-60340000D03*
D11*
G36*
X140773229Y-59816264D02*
G01*
X140798711Y-59820044D01*
X140823700Y-59826303D01*
X140847954Y-59834982D01*
X140871242Y-59845996D01*
X140893337Y-59859239D01*
X140914028Y-59874585D01*
X140933116Y-59891884D01*
X140950415Y-59910972D01*
X140965761Y-59931663D01*
X140979004Y-59953758D01*
X140990018Y-59977046D01*
X140998697Y-60001300D01*
X141004956Y-60026289D01*
X141008736Y-60051771D01*
X141010000Y-60077500D01*
X141010000Y-60602500D01*
X141008736Y-60628229D01*
X141004956Y-60653711D01*
X140998697Y-60678700D01*
X140990018Y-60702954D01*
X140979004Y-60726242D01*
X140965761Y-60748337D01*
X140950415Y-60769028D01*
X140933116Y-60788116D01*
X140914028Y-60805415D01*
X140893337Y-60820761D01*
X140871242Y-60834004D01*
X140847954Y-60845018D01*
X140823700Y-60853697D01*
X140798711Y-60859956D01*
X140773229Y-60863736D01*
X140747500Y-60865000D01*
X140122500Y-60865000D01*
X140096771Y-60863736D01*
X140071289Y-60859956D01*
X140046300Y-60853697D01*
X140022046Y-60845018D01*
X139998758Y-60834004D01*
X139976663Y-60820761D01*
X139955972Y-60805415D01*
X139936884Y-60788116D01*
X139919585Y-60769028D01*
X139904239Y-60748337D01*
X139890996Y-60726242D01*
X139879982Y-60702954D01*
X139871303Y-60678700D01*
X139865044Y-60653711D01*
X139861264Y-60628229D01*
X139860000Y-60602500D01*
X139860000Y-60077500D01*
X139861264Y-60051771D01*
X139865044Y-60026289D01*
X139871303Y-60001300D01*
X139879982Y-59977046D01*
X139890996Y-59953758D01*
X139904239Y-59931663D01*
X139919585Y-59910972D01*
X139936884Y-59891884D01*
X139955972Y-59874585D01*
X139976663Y-59859239D01*
X139998758Y-59845996D01*
X140022046Y-59834982D01*
X140046300Y-59826303D01*
X140071289Y-59820044D01*
X140096771Y-59816264D01*
X140122500Y-59815000D01*
X140747500Y-59815000D01*
X140773229Y-59816264D01*
X140773229Y-59816264D01*
G37*
D12*
X140435000Y-60340000D03*
%TD*%
D11*
%TO.C,R6*%
G36*
X139023229Y-63816264D02*
G01*
X139048711Y-63820044D01*
X139073700Y-63826303D01*
X139097954Y-63834982D01*
X139121242Y-63845996D01*
X139143337Y-63859239D01*
X139164028Y-63874585D01*
X139183116Y-63891884D01*
X139200415Y-63910972D01*
X139215761Y-63931663D01*
X139229004Y-63953758D01*
X139240018Y-63977046D01*
X139248697Y-64001300D01*
X139254956Y-64026289D01*
X139258736Y-64051771D01*
X139260000Y-64077500D01*
X139260000Y-64602500D01*
X139258736Y-64628229D01*
X139254956Y-64653711D01*
X139248697Y-64678700D01*
X139240018Y-64702954D01*
X139229004Y-64726242D01*
X139215761Y-64748337D01*
X139200415Y-64769028D01*
X139183116Y-64788116D01*
X139164028Y-64805415D01*
X139143337Y-64820761D01*
X139121242Y-64834004D01*
X139097954Y-64845018D01*
X139073700Y-64853697D01*
X139048711Y-64859956D01*
X139023229Y-64863736D01*
X138997500Y-64865000D01*
X138372500Y-64865000D01*
X138346771Y-64863736D01*
X138321289Y-64859956D01*
X138296300Y-64853697D01*
X138272046Y-64845018D01*
X138248758Y-64834004D01*
X138226663Y-64820761D01*
X138205972Y-64805415D01*
X138186884Y-64788116D01*
X138169585Y-64769028D01*
X138154239Y-64748337D01*
X138140996Y-64726242D01*
X138129982Y-64702954D01*
X138121303Y-64678700D01*
X138115044Y-64653711D01*
X138111264Y-64628229D01*
X138110000Y-64602500D01*
X138110000Y-64077500D01*
X138111264Y-64051771D01*
X138115044Y-64026289D01*
X138121303Y-64001300D01*
X138129982Y-63977046D01*
X138140996Y-63953758D01*
X138154239Y-63931663D01*
X138169585Y-63910972D01*
X138186884Y-63891884D01*
X138205972Y-63874585D01*
X138226663Y-63859239D01*
X138248758Y-63845996D01*
X138272046Y-63834982D01*
X138296300Y-63826303D01*
X138321289Y-63820044D01*
X138346771Y-63816264D01*
X138372500Y-63815000D01*
X138997500Y-63815000D01*
X139023229Y-63816264D01*
X139023229Y-63816264D01*
G37*
D12*
X138685000Y-64340000D03*
D11*
G36*
X140773229Y-63816264D02*
G01*
X140798711Y-63820044D01*
X140823700Y-63826303D01*
X140847954Y-63834982D01*
X140871242Y-63845996D01*
X140893337Y-63859239D01*
X140914028Y-63874585D01*
X140933116Y-63891884D01*
X140950415Y-63910972D01*
X140965761Y-63931663D01*
X140979004Y-63953758D01*
X140990018Y-63977046D01*
X140998697Y-64001300D01*
X141004956Y-64026289D01*
X141008736Y-64051771D01*
X141010000Y-64077500D01*
X141010000Y-64602500D01*
X141008736Y-64628229D01*
X141004956Y-64653711D01*
X140998697Y-64678700D01*
X140990018Y-64702954D01*
X140979004Y-64726242D01*
X140965761Y-64748337D01*
X140950415Y-64769028D01*
X140933116Y-64788116D01*
X140914028Y-64805415D01*
X140893337Y-64820761D01*
X140871242Y-64834004D01*
X140847954Y-64845018D01*
X140823700Y-64853697D01*
X140798711Y-64859956D01*
X140773229Y-64863736D01*
X140747500Y-64865000D01*
X140122500Y-64865000D01*
X140096771Y-64863736D01*
X140071289Y-64859956D01*
X140046300Y-64853697D01*
X140022046Y-64845018D01*
X139998758Y-64834004D01*
X139976663Y-64820761D01*
X139955972Y-64805415D01*
X139936884Y-64788116D01*
X139919585Y-64769028D01*
X139904239Y-64748337D01*
X139890996Y-64726242D01*
X139879982Y-64702954D01*
X139871303Y-64678700D01*
X139865044Y-64653711D01*
X139861264Y-64628229D01*
X139860000Y-64602500D01*
X139860000Y-64077500D01*
X139861264Y-64051771D01*
X139865044Y-64026289D01*
X139871303Y-64001300D01*
X139879982Y-63977046D01*
X139890996Y-63953758D01*
X139904239Y-63931663D01*
X139919585Y-63910972D01*
X139936884Y-63891884D01*
X139955972Y-63874585D01*
X139976663Y-63859239D01*
X139998758Y-63845996D01*
X140022046Y-63834982D01*
X140046300Y-63826303D01*
X140071289Y-63820044D01*
X140096771Y-63816264D01*
X140122500Y-63815000D01*
X140747500Y-63815000D01*
X140773229Y-63816264D01*
X140773229Y-63816264D01*
G37*
D12*
X140435000Y-64340000D03*
%TD*%
D11*
%TO.C,R7*%
G36*
X140773229Y-67816264D02*
G01*
X140798711Y-67820044D01*
X140823700Y-67826303D01*
X140847954Y-67834982D01*
X140871242Y-67845996D01*
X140893337Y-67859239D01*
X140914028Y-67874585D01*
X140933116Y-67891884D01*
X140950415Y-67910972D01*
X140965761Y-67931663D01*
X140979004Y-67953758D01*
X140990018Y-67977046D01*
X140998697Y-68001300D01*
X141004956Y-68026289D01*
X141008736Y-68051771D01*
X141010000Y-68077500D01*
X141010000Y-68602500D01*
X141008736Y-68628229D01*
X141004956Y-68653711D01*
X140998697Y-68678700D01*
X140990018Y-68702954D01*
X140979004Y-68726242D01*
X140965761Y-68748337D01*
X140950415Y-68769028D01*
X140933116Y-68788116D01*
X140914028Y-68805415D01*
X140893337Y-68820761D01*
X140871242Y-68834004D01*
X140847954Y-68845018D01*
X140823700Y-68853697D01*
X140798711Y-68859956D01*
X140773229Y-68863736D01*
X140747500Y-68865000D01*
X140122500Y-68865000D01*
X140096771Y-68863736D01*
X140071289Y-68859956D01*
X140046300Y-68853697D01*
X140022046Y-68845018D01*
X139998758Y-68834004D01*
X139976663Y-68820761D01*
X139955972Y-68805415D01*
X139936884Y-68788116D01*
X139919585Y-68769028D01*
X139904239Y-68748337D01*
X139890996Y-68726242D01*
X139879982Y-68702954D01*
X139871303Y-68678700D01*
X139865044Y-68653711D01*
X139861264Y-68628229D01*
X139860000Y-68602500D01*
X139860000Y-68077500D01*
X139861264Y-68051771D01*
X139865044Y-68026289D01*
X139871303Y-68001300D01*
X139879982Y-67977046D01*
X139890996Y-67953758D01*
X139904239Y-67931663D01*
X139919585Y-67910972D01*
X139936884Y-67891884D01*
X139955972Y-67874585D01*
X139976663Y-67859239D01*
X139998758Y-67845996D01*
X140022046Y-67834982D01*
X140046300Y-67826303D01*
X140071289Y-67820044D01*
X140096771Y-67816264D01*
X140122500Y-67815000D01*
X140747500Y-67815000D01*
X140773229Y-67816264D01*
X140773229Y-67816264D01*
G37*
D12*
X140435000Y-68340000D03*
D11*
G36*
X139023229Y-67816264D02*
G01*
X139048711Y-67820044D01*
X139073700Y-67826303D01*
X139097954Y-67834982D01*
X139121242Y-67845996D01*
X139143337Y-67859239D01*
X139164028Y-67874585D01*
X139183116Y-67891884D01*
X139200415Y-67910972D01*
X139215761Y-67931663D01*
X139229004Y-67953758D01*
X139240018Y-67977046D01*
X139248697Y-68001300D01*
X139254956Y-68026289D01*
X139258736Y-68051771D01*
X139260000Y-68077500D01*
X139260000Y-68602500D01*
X139258736Y-68628229D01*
X139254956Y-68653711D01*
X139248697Y-68678700D01*
X139240018Y-68702954D01*
X139229004Y-68726242D01*
X139215761Y-68748337D01*
X139200415Y-68769028D01*
X139183116Y-68788116D01*
X139164028Y-68805415D01*
X139143337Y-68820761D01*
X139121242Y-68834004D01*
X139097954Y-68845018D01*
X139073700Y-68853697D01*
X139048711Y-68859956D01*
X139023229Y-68863736D01*
X138997500Y-68865000D01*
X138372500Y-68865000D01*
X138346771Y-68863736D01*
X138321289Y-68859956D01*
X138296300Y-68853697D01*
X138272046Y-68845018D01*
X138248758Y-68834004D01*
X138226663Y-68820761D01*
X138205972Y-68805415D01*
X138186884Y-68788116D01*
X138169585Y-68769028D01*
X138154239Y-68748337D01*
X138140996Y-68726242D01*
X138129982Y-68702954D01*
X138121303Y-68678700D01*
X138115044Y-68653711D01*
X138111264Y-68628229D01*
X138110000Y-68602500D01*
X138110000Y-68077500D01*
X138111264Y-68051771D01*
X138115044Y-68026289D01*
X138121303Y-68001300D01*
X138129982Y-67977046D01*
X138140996Y-67953758D01*
X138154239Y-67931663D01*
X138169585Y-67910972D01*
X138186884Y-67891884D01*
X138205972Y-67874585D01*
X138226663Y-67859239D01*
X138248758Y-67845996D01*
X138272046Y-67834982D01*
X138296300Y-67826303D01*
X138321289Y-67820044D01*
X138346771Y-67816264D01*
X138372500Y-67815000D01*
X138997500Y-67815000D01*
X139023229Y-67816264D01*
X139023229Y-67816264D01*
G37*
D12*
X138685000Y-68340000D03*
%TD*%
D11*
%TO.C,R8*%
G36*
X139023229Y-71816264D02*
G01*
X139048711Y-71820044D01*
X139073700Y-71826303D01*
X139097954Y-71834982D01*
X139121242Y-71845996D01*
X139143337Y-71859239D01*
X139164028Y-71874585D01*
X139183116Y-71891884D01*
X139200415Y-71910972D01*
X139215761Y-71931663D01*
X139229004Y-71953758D01*
X139240018Y-71977046D01*
X139248697Y-72001300D01*
X139254956Y-72026289D01*
X139258736Y-72051771D01*
X139260000Y-72077500D01*
X139260000Y-72602500D01*
X139258736Y-72628229D01*
X139254956Y-72653711D01*
X139248697Y-72678700D01*
X139240018Y-72702954D01*
X139229004Y-72726242D01*
X139215761Y-72748337D01*
X139200415Y-72769028D01*
X139183116Y-72788116D01*
X139164028Y-72805415D01*
X139143337Y-72820761D01*
X139121242Y-72834004D01*
X139097954Y-72845018D01*
X139073700Y-72853697D01*
X139048711Y-72859956D01*
X139023229Y-72863736D01*
X138997500Y-72865000D01*
X138372500Y-72865000D01*
X138346771Y-72863736D01*
X138321289Y-72859956D01*
X138296300Y-72853697D01*
X138272046Y-72845018D01*
X138248758Y-72834004D01*
X138226663Y-72820761D01*
X138205972Y-72805415D01*
X138186884Y-72788116D01*
X138169585Y-72769028D01*
X138154239Y-72748337D01*
X138140996Y-72726242D01*
X138129982Y-72702954D01*
X138121303Y-72678700D01*
X138115044Y-72653711D01*
X138111264Y-72628229D01*
X138110000Y-72602500D01*
X138110000Y-72077500D01*
X138111264Y-72051771D01*
X138115044Y-72026289D01*
X138121303Y-72001300D01*
X138129982Y-71977046D01*
X138140996Y-71953758D01*
X138154239Y-71931663D01*
X138169585Y-71910972D01*
X138186884Y-71891884D01*
X138205972Y-71874585D01*
X138226663Y-71859239D01*
X138248758Y-71845996D01*
X138272046Y-71834982D01*
X138296300Y-71826303D01*
X138321289Y-71820044D01*
X138346771Y-71816264D01*
X138372500Y-71815000D01*
X138997500Y-71815000D01*
X139023229Y-71816264D01*
X139023229Y-71816264D01*
G37*
D12*
X138685000Y-72340000D03*
D11*
G36*
X140773229Y-71816264D02*
G01*
X140798711Y-71820044D01*
X140823700Y-71826303D01*
X140847954Y-71834982D01*
X140871242Y-71845996D01*
X140893337Y-71859239D01*
X140914028Y-71874585D01*
X140933116Y-71891884D01*
X140950415Y-71910972D01*
X140965761Y-71931663D01*
X140979004Y-71953758D01*
X140990018Y-71977046D01*
X140998697Y-72001300D01*
X141004956Y-72026289D01*
X141008736Y-72051771D01*
X141010000Y-72077500D01*
X141010000Y-72602500D01*
X141008736Y-72628229D01*
X141004956Y-72653711D01*
X140998697Y-72678700D01*
X140990018Y-72702954D01*
X140979004Y-72726242D01*
X140965761Y-72748337D01*
X140950415Y-72769028D01*
X140933116Y-72788116D01*
X140914028Y-72805415D01*
X140893337Y-72820761D01*
X140871242Y-72834004D01*
X140847954Y-72845018D01*
X140823700Y-72853697D01*
X140798711Y-72859956D01*
X140773229Y-72863736D01*
X140747500Y-72865000D01*
X140122500Y-72865000D01*
X140096771Y-72863736D01*
X140071289Y-72859956D01*
X140046300Y-72853697D01*
X140022046Y-72845018D01*
X139998758Y-72834004D01*
X139976663Y-72820761D01*
X139955972Y-72805415D01*
X139936884Y-72788116D01*
X139919585Y-72769028D01*
X139904239Y-72748337D01*
X139890996Y-72726242D01*
X139879982Y-72702954D01*
X139871303Y-72678700D01*
X139865044Y-72653711D01*
X139861264Y-72628229D01*
X139860000Y-72602500D01*
X139860000Y-72077500D01*
X139861264Y-72051771D01*
X139865044Y-72026289D01*
X139871303Y-72001300D01*
X139879982Y-71977046D01*
X139890996Y-71953758D01*
X139904239Y-71931663D01*
X139919585Y-71910972D01*
X139936884Y-71891884D01*
X139955972Y-71874585D01*
X139976663Y-71859239D01*
X139998758Y-71845996D01*
X140022046Y-71834982D01*
X140046300Y-71826303D01*
X140071289Y-71820044D01*
X140096771Y-71816264D01*
X140122500Y-71815000D01*
X140747500Y-71815000D01*
X140773229Y-71816264D01*
X140773229Y-71816264D01*
G37*
D12*
X140435000Y-72340000D03*
%TD*%
D11*
%TO.C,R9*%
G36*
X140773229Y-75816264D02*
G01*
X140798711Y-75820044D01*
X140823700Y-75826303D01*
X140847954Y-75834982D01*
X140871242Y-75845996D01*
X140893337Y-75859239D01*
X140914028Y-75874585D01*
X140933116Y-75891884D01*
X140950415Y-75910972D01*
X140965761Y-75931663D01*
X140979004Y-75953758D01*
X140990018Y-75977046D01*
X140998697Y-76001300D01*
X141004956Y-76026289D01*
X141008736Y-76051771D01*
X141010000Y-76077500D01*
X141010000Y-76602500D01*
X141008736Y-76628229D01*
X141004956Y-76653711D01*
X140998697Y-76678700D01*
X140990018Y-76702954D01*
X140979004Y-76726242D01*
X140965761Y-76748337D01*
X140950415Y-76769028D01*
X140933116Y-76788116D01*
X140914028Y-76805415D01*
X140893337Y-76820761D01*
X140871242Y-76834004D01*
X140847954Y-76845018D01*
X140823700Y-76853697D01*
X140798711Y-76859956D01*
X140773229Y-76863736D01*
X140747500Y-76865000D01*
X140122500Y-76865000D01*
X140096771Y-76863736D01*
X140071289Y-76859956D01*
X140046300Y-76853697D01*
X140022046Y-76845018D01*
X139998758Y-76834004D01*
X139976663Y-76820761D01*
X139955972Y-76805415D01*
X139936884Y-76788116D01*
X139919585Y-76769028D01*
X139904239Y-76748337D01*
X139890996Y-76726242D01*
X139879982Y-76702954D01*
X139871303Y-76678700D01*
X139865044Y-76653711D01*
X139861264Y-76628229D01*
X139860000Y-76602500D01*
X139860000Y-76077500D01*
X139861264Y-76051771D01*
X139865044Y-76026289D01*
X139871303Y-76001300D01*
X139879982Y-75977046D01*
X139890996Y-75953758D01*
X139904239Y-75931663D01*
X139919585Y-75910972D01*
X139936884Y-75891884D01*
X139955972Y-75874585D01*
X139976663Y-75859239D01*
X139998758Y-75845996D01*
X140022046Y-75834982D01*
X140046300Y-75826303D01*
X140071289Y-75820044D01*
X140096771Y-75816264D01*
X140122500Y-75815000D01*
X140747500Y-75815000D01*
X140773229Y-75816264D01*
X140773229Y-75816264D01*
G37*
D12*
X140435000Y-76340000D03*
D11*
G36*
X139023229Y-75816264D02*
G01*
X139048711Y-75820044D01*
X139073700Y-75826303D01*
X139097954Y-75834982D01*
X139121242Y-75845996D01*
X139143337Y-75859239D01*
X139164028Y-75874585D01*
X139183116Y-75891884D01*
X139200415Y-75910972D01*
X139215761Y-75931663D01*
X139229004Y-75953758D01*
X139240018Y-75977046D01*
X139248697Y-76001300D01*
X139254956Y-76026289D01*
X139258736Y-76051771D01*
X139260000Y-76077500D01*
X139260000Y-76602500D01*
X139258736Y-76628229D01*
X139254956Y-76653711D01*
X139248697Y-76678700D01*
X139240018Y-76702954D01*
X139229004Y-76726242D01*
X139215761Y-76748337D01*
X139200415Y-76769028D01*
X139183116Y-76788116D01*
X139164028Y-76805415D01*
X139143337Y-76820761D01*
X139121242Y-76834004D01*
X139097954Y-76845018D01*
X139073700Y-76853697D01*
X139048711Y-76859956D01*
X139023229Y-76863736D01*
X138997500Y-76865000D01*
X138372500Y-76865000D01*
X138346771Y-76863736D01*
X138321289Y-76859956D01*
X138296300Y-76853697D01*
X138272046Y-76845018D01*
X138248758Y-76834004D01*
X138226663Y-76820761D01*
X138205972Y-76805415D01*
X138186884Y-76788116D01*
X138169585Y-76769028D01*
X138154239Y-76748337D01*
X138140996Y-76726242D01*
X138129982Y-76702954D01*
X138121303Y-76678700D01*
X138115044Y-76653711D01*
X138111264Y-76628229D01*
X138110000Y-76602500D01*
X138110000Y-76077500D01*
X138111264Y-76051771D01*
X138115044Y-76026289D01*
X138121303Y-76001300D01*
X138129982Y-75977046D01*
X138140996Y-75953758D01*
X138154239Y-75931663D01*
X138169585Y-75910972D01*
X138186884Y-75891884D01*
X138205972Y-75874585D01*
X138226663Y-75859239D01*
X138248758Y-75845996D01*
X138272046Y-75834982D01*
X138296300Y-75826303D01*
X138321289Y-75820044D01*
X138346771Y-75816264D01*
X138372500Y-75815000D01*
X138997500Y-75815000D01*
X139023229Y-75816264D01*
X139023229Y-75816264D01*
G37*
D12*
X138685000Y-76340000D03*
%TD*%
D11*
%TO.C,R10*%
G36*
X139023229Y-79816264D02*
G01*
X139048711Y-79820044D01*
X139073700Y-79826303D01*
X139097954Y-79834982D01*
X139121242Y-79845996D01*
X139143337Y-79859239D01*
X139164028Y-79874585D01*
X139183116Y-79891884D01*
X139200415Y-79910972D01*
X139215761Y-79931663D01*
X139229004Y-79953758D01*
X139240018Y-79977046D01*
X139248697Y-80001300D01*
X139254956Y-80026289D01*
X139258736Y-80051771D01*
X139260000Y-80077500D01*
X139260000Y-80602500D01*
X139258736Y-80628229D01*
X139254956Y-80653711D01*
X139248697Y-80678700D01*
X139240018Y-80702954D01*
X139229004Y-80726242D01*
X139215761Y-80748337D01*
X139200415Y-80769028D01*
X139183116Y-80788116D01*
X139164028Y-80805415D01*
X139143337Y-80820761D01*
X139121242Y-80834004D01*
X139097954Y-80845018D01*
X139073700Y-80853697D01*
X139048711Y-80859956D01*
X139023229Y-80863736D01*
X138997500Y-80865000D01*
X138372500Y-80865000D01*
X138346771Y-80863736D01*
X138321289Y-80859956D01*
X138296300Y-80853697D01*
X138272046Y-80845018D01*
X138248758Y-80834004D01*
X138226663Y-80820761D01*
X138205972Y-80805415D01*
X138186884Y-80788116D01*
X138169585Y-80769028D01*
X138154239Y-80748337D01*
X138140996Y-80726242D01*
X138129982Y-80702954D01*
X138121303Y-80678700D01*
X138115044Y-80653711D01*
X138111264Y-80628229D01*
X138110000Y-80602500D01*
X138110000Y-80077500D01*
X138111264Y-80051771D01*
X138115044Y-80026289D01*
X138121303Y-80001300D01*
X138129982Y-79977046D01*
X138140996Y-79953758D01*
X138154239Y-79931663D01*
X138169585Y-79910972D01*
X138186884Y-79891884D01*
X138205972Y-79874585D01*
X138226663Y-79859239D01*
X138248758Y-79845996D01*
X138272046Y-79834982D01*
X138296300Y-79826303D01*
X138321289Y-79820044D01*
X138346771Y-79816264D01*
X138372500Y-79815000D01*
X138997500Y-79815000D01*
X139023229Y-79816264D01*
X139023229Y-79816264D01*
G37*
D12*
X138685000Y-80340000D03*
D11*
G36*
X140773229Y-79816264D02*
G01*
X140798711Y-79820044D01*
X140823700Y-79826303D01*
X140847954Y-79834982D01*
X140871242Y-79845996D01*
X140893337Y-79859239D01*
X140914028Y-79874585D01*
X140933116Y-79891884D01*
X140950415Y-79910972D01*
X140965761Y-79931663D01*
X140979004Y-79953758D01*
X140990018Y-79977046D01*
X140998697Y-80001300D01*
X141004956Y-80026289D01*
X141008736Y-80051771D01*
X141010000Y-80077500D01*
X141010000Y-80602500D01*
X141008736Y-80628229D01*
X141004956Y-80653711D01*
X140998697Y-80678700D01*
X140990018Y-80702954D01*
X140979004Y-80726242D01*
X140965761Y-80748337D01*
X140950415Y-80769028D01*
X140933116Y-80788116D01*
X140914028Y-80805415D01*
X140893337Y-80820761D01*
X140871242Y-80834004D01*
X140847954Y-80845018D01*
X140823700Y-80853697D01*
X140798711Y-80859956D01*
X140773229Y-80863736D01*
X140747500Y-80865000D01*
X140122500Y-80865000D01*
X140096771Y-80863736D01*
X140071289Y-80859956D01*
X140046300Y-80853697D01*
X140022046Y-80845018D01*
X139998758Y-80834004D01*
X139976663Y-80820761D01*
X139955972Y-80805415D01*
X139936884Y-80788116D01*
X139919585Y-80769028D01*
X139904239Y-80748337D01*
X139890996Y-80726242D01*
X139879982Y-80702954D01*
X139871303Y-80678700D01*
X139865044Y-80653711D01*
X139861264Y-80628229D01*
X139860000Y-80602500D01*
X139860000Y-80077500D01*
X139861264Y-80051771D01*
X139865044Y-80026289D01*
X139871303Y-80001300D01*
X139879982Y-79977046D01*
X139890996Y-79953758D01*
X139904239Y-79931663D01*
X139919585Y-79910972D01*
X139936884Y-79891884D01*
X139955972Y-79874585D01*
X139976663Y-79859239D01*
X139998758Y-79845996D01*
X140022046Y-79834982D01*
X140046300Y-79826303D01*
X140071289Y-79820044D01*
X140096771Y-79816264D01*
X140122500Y-79815000D01*
X140747500Y-79815000D01*
X140773229Y-79816264D01*
X140773229Y-79816264D01*
G37*
D12*
X140435000Y-80340000D03*
%TD*%
D11*
%TO.C,R11*%
G36*
X86902229Y-104215264D02*
G01*
X86927711Y-104219044D01*
X86952700Y-104225303D01*
X86976954Y-104233982D01*
X87000242Y-104244996D01*
X87022337Y-104258239D01*
X87043028Y-104273585D01*
X87062116Y-104290884D01*
X87079415Y-104309972D01*
X87094761Y-104330663D01*
X87108004Y-104352758D01*
X87119018Y-104376046D01*
X87127697Y-104400300D01*
X87133956Y-104425289D01*
X87137736Y-104450771D01*
X87139000Y-104476500D01*
X87139000Y-105101500D01*
X87137736Y-105127229D01*
X87133956Y-105152711D01*
X87127697Y-105177700D01*
X87119018Y-105201954D01*
X87108004Y-105225242D01*
X87094761Y-105247337D01*
X87079415Y-105268028D01*
X87062116Y-105287116D01*
X87043028Y-105304415D01*
X87022337Y-105319761D01*
X87000242Y-105333004D01*
X86976954Y-105344018D01*
X86952700Y-105352697D01*
X86927711Y-105358956D01*
X86902229Y-105362736D01*
X86876500Y-105364000D01*
X86351500Y-105364000D01*
X86325771Y-105362736D01*
X86300289Y-105358956D01*
X86275300Y-105352697D01*
X86251046Y-105344018D01*
X86227758Y-105333004D01*
X86205663Y-105319761D01*
X86184972Y-105304415D01*
X86165884Y-105287116D01*
X86148585Y-105268028D01*
X86133239Y-105247337D01*
X86119996Y-105225242D01*
X86108982Y-105201954D01*
X86100303Y-105177700D01*
X86094044Y-105152711D01*
X86090264Y-105127229D01*
X86089000Y-105101500D01*
X86089000Y-104476500D01*
X86090264Y-104450771D01*
X86094044Y-104425289D01*
X86100303Y-104400300D01*
X86108982Y-104376046D01*
X86119996Y-104352758D01*
X86133239Y-104330663D01*
X86148585Y-104309972D01*
X86165884Y-104290884D01*
X86184972Y-104273585D01*
X86205663Y-104258239D01*
X86227758Y-104244996D01*
X86251046Y-104233982D01*
X86275300Y-104225303D01*
X86300289Y-104219044D01*
X86325771Y-104215264D01*
X86351500Y-104214000D01*
X86876500Y-104214000D01*
X86902229Y-104215264D01*
X86902229Y-104215264D01*
G37*
D12*
X86614000Y-104789000D03*
D11*
G36*
X86902229Y-105965264D02*
G01*
X86927711Y-105969044D01*
X86952700Y-105975303D01*
X86976954Y-105983982D01*
X87000242Y-105994996D01*
X87022337Y-106008239D01*
X87043028Y-106023585D01*
X87062116Y-106040884D01*
X87079415Y-106059972D01*
X87094761Y-106080663D01*
X87108004Y-106102758D01*
X87119018Y-106126046D01*
X87127697Y-106150300D01*
X87133956Y-106175289D01*
X87137736Y-106200771D01*
X87139000Y-106226500D01*
X87139000Y-106851500D01*
X87137736Y-106877229D01*
X87133956Y-106902711D01*
X87127697Y-106927700D01*
X87119018Y-106951954D01*
X87108004Y-106975242D01*
X87094761Y-106997337D01*
X87079415Y-107018028D01*
X87062116Y-107037116D01*
X87043028Y-107054415D01*
X87022337Y-107069761D01*
X87000242Y-107083004D01*
X86976954Y-107094018D01*
X86952700Y-107102697D01*
X86927711Y-107108956D01*
X86902229Y-107112736D01*
X86876500Y-107114000D01*
X86351500Y-107114000D01*
X86325771Y-107112736D01*
X86300289Y-107108956D01*
X86275300Y-107102697D01*
X86251046Y-107094018D01*
X86227758Y-107083004D01*
X86205663Y-107069761D01*
X86184972Y-107054415D01*
X86165884Y-107037116D01*
X86148585Y-107018028D01*
X86133239Y-106997337D01*
X86119996Y-106975242D01*
X86108982Y-106951954D01*
X86100303Y-106927700D01*
X86094044Y-106902711D01*
X86090264Y-106877229D01*
X86089000Y-106851500D01*
X86089000Y-106226500D01*
X86090264Y-106200771D01*
X86094044Y-106175289D01*
X86100303Y-106150300D01*
X86108982Y-106126046D01*
X86119996Y-106102758D01*
X86133239Y-106080663D01*
X86148585Y-106059972D01*
X86165884Y-106040884D01*
X86184972Y-106023585D01*
X86205663Y-106008239D01*
X86227758Y-105994996D01*
X86251046Y-105983982D01*
X86275300Y-105975303D01*
X86300289Y-105969044D01*
X86325771Y-105965264D01*
X86351500Y-105964000D01*
X86876500Y-105964000D01*
X86902229Y-105965264D01*
X86902229Y-105965264D01*
G37*
D12*
X86614000Y-106539000D03*
%TD*%
D21*
%TO.C,SW1*%
X115824000Y-53340000D03*
X115824000Y-55880000D03*
D22*
X115824000Y-58420000D03*
%TD*%
%TO.C,SW2*%
X125857000Y-58547000D03*
D21*
X125857000Y-56007000D03*
X125857000Y-53467000D03*
%TD*%
D22*
%TO.C,SW3*%
X106180000Y-55740000D03*
D21*
X103640000Y-55740000D03*
X106180000Y-53200000D03*
X103640000Y-53200000D03*
%TD*%
D23*
%TO.C,U1*%
X116460000Y-67080000D03*
X115810000Y-67080000D03*
X115160000Y-67080000D03*
X115160000Y-69740000D03*
X116460000Y-69740000D03*
%TD*%
%TO.C,U2*%
X126460000Y-69740000D03*
X125160000Y-69740000D03*
X125160000Y-67080000D03*
X125810000Y-67080000D03*
X126460000Y-67080000D03*
%TD*%
D24*
%TO.C,U3*%
X89650000Y-108620000D03*
X89650000Y-109570000D03*
X89650000Y-110520000D03*
X92350000Y-110520000D03*
X92350000Y-108620000D03*
%TD*%
D25*
%TO.C,U4*%
X97457000Y-104061000D03*
X97107000Y-104061000D03*
X97457000Y-103711000D03*
X97107000Y-103711000D03*
%TD*%
D11*
%TO.C,U5*%
G36*
X113431878Y-83469967D02*
G01*
X113446439Y-83472127D01*
X113460718Y-83475704D01*
X113474578Y-83480663D01*
X113487885Y-83486957D01*
X113500511Y-83494525D01*
X113512334Y-83503293D01*
X113523241Y-83513179D01*
X114442479Y-84432417D01*
X114452365Y-84443324D01*
X114461133Y-84455147D01*
X114468701Y-84467773D01*
X114474995Y-84481080D01*
X114479954Y-84494940D01*
X114483531Y-84509219D01*
X114485691Y-84523780D01*
X114486413Y-84538483D01*
X114485691Y-84553186D01*
X114483531Y-84567747D01*
X114479954Y-84582026D01*
X114474995Y-84595886D01*
X114468701Y-84609193D01*
X114461133Y-84621819D01*
X114452365Y-84633642D01*
X114442479Y-84644549D01*
X114230347Y-84856681D01*
X114219440Y-84866567D01*
X114207617Y-84875335D01*
X114194991Y-84882903D01*
X114181684Y-84889197D01*
X114167824Y-84894156D01*
X114153545Y-84897733D01*
X114138984Y-84899893D01*
X114124281Y-84900615D01*
X114109578Y-84899893D01*
X114095017Y-84897733D01*
X114080738Y-84894156D01*
X114066878Y-84889197D01*
X114053571Y-84882903D01*
X114040945Y-84875335D01*
X114029122Y-84866567D01*
X114018215Y-84856681D01*
X113098977Y-83937443D01*
X113089091Y-83926536D01*
X113080323Y-83914713D01*
X113072755Y-83902087D01*
X113066461Y-83888780D01*
X113061502Y-83874920D01*
X113057925Y-83860641D01*
X113055765Y-83846080D01*
X113055043Y-83831377D01*
X113055765Y-83816674D01*
X113057925Y-83802113D01*
X113061502Y-83787834D01*
X113066461Y-83773974D01*
X113072755Y-83760667D01*
X113080323Y-83748041D01*
X113089091Y-83736218D01*
X113098977Y-83725311D01*
X113311109Y-83513179D01*
X113322016Y-83503293D01*
X113333839Y-83494525D01*
X113346465Y-83486957D01*
X113359772Y-83480663D01*
X113373632Y-83475704D01*
X113387911Y-83472127D01*
X113402472Y-83469967D01*
X113417175Y-83469245D01*
X113431878Y-83469967D01*
X113431878Y-83469967D01*
G37*
D26*
X113770728Y-84184930D03*
D11*
G36*
X112866193Y-84035653D02*
G01*
X112880754Y-84037813D01*
X112895033Y-84041390D01*
X112908893Y-84046349D01*
X112922200Y-84052643D01*
X112934826Y-84060211D01*
X112946649Y-84068979D01*
X112957556Y-84078865D01*
X113876794Y-84998103D01*
X113886680Y-85009010D01*
X113895448Y-85020833D01*
X113903016Y-85033459D01*
X113909310Y-85046766D01*
X113914269Y-85060626D01*
X113917846Y-85074905D01*
X113920006Y-85089466D01*
X113920728Y-85104169D01*
X113920006Y-85118872D01*
X113917846Y-85133433D01*
X113914269Y-85147712D01*
X113909310Y-85161572D01*
X113903016Y-85174879D01*
X113895448Y-85187505D01*
X113886680Y-85199328D01*
X113876794Y-85210235D01*
X113664662Y-85422367D01*
X113653755Y-85432253D01*
X113641932Y-85441021D01*
X113629306Y-85448589D01*
X113615999Y-85454883D01*
X113602139Y-85459842D01*
X113587860Y-85463419D01*
X113573299Y-85465579D01*
X113558596Y-85466301D01*
X113543893Y-85465579D01*
X113529332Y-85463419D01*
X113515053Y-85459842D01*
X113501193Y-85454883D01*
X113487886Y-85448589D01*
X113475260Y-85441021D01*
X113463437Y-85432253D01*
X113452530Y-85422367D01*
X112533292Y-84503129D01*
X112523406Y-84492222D01*
X112514638Y-84480399D01*
X112507070Y-84467773D01*
X112500776Y-84454466D01*
X112495817Y-84440606D01*
X112492240Y-84426327D01*
X112490080Y-84411766D01*
X112489358Y-84397063D01*
X112490080Y-84382360D01*
X112492240Y-84367799D01*
X112495817Y-84353520D01*
X112500776Y-84339660D01*
X112507070Y-84326353D01*
X112514638Y-84313727D01*
X112523406Y-84301904D01*
X112533292Y-84290997D01*
X112745424Y-84078865D01*
X112756331Y-84068979D01*
X112768154Y-84060211D01*
X112780780Y-84052643D01*
X112794087Y-84046349D01*
X112807947Y-84041390D01*
X112822226Y-84037813D01*
X112836787Y-84035653D01*
X112851490Y-84034931D01*
X112866193Y-84035653D01*
X112866193Y-84035653D01*
G37*
D26*
X113205043Y-84750616D03*
D11*
G36*
X112300507Y-84601338D02*
G01*
X112315068Y-84603498D01*
X112329347Y-84607075D01*
X112343207Y-84612034D01*
X112356514Y-84618328D01*
X112369140Y-84625896D01*
X112380963Y-84634664D01*
X112391870Y-84644550D01*
X113311108Y-85563788D01*
X113320994Y-85574695D01*
X113329762Y-85586518D01*
X113337330Y-85599144D01*
X113343624Y-85612451D01*
X113348583Y-85626311D01*
X113352160Y-85640590D01*
X113354320Y-85655151D01*
X113355042Y-85669854D01*
X113354320Y-85684557D01*
X113352160Y-85699118D01*
X113348583Y-85713397D01*
X113343624Y-85727257D01*
X113337330Y-85740564D01*
X113329762Y-85753190D01*
X113320994Y-85765013D01*
X113311108Y-85775920D01*
X113098976Y-85988052D01*
X113088069Y-85997938D01*
X113076246Y-86006706D01*
X113063620Y-86014274D01*
X113050313Y-86020568D01*
X113036453Y-86025527D01*
X113022174Y-86029104D01*
X113007613Y-86031264D01*
X112992910Y-86031986D01*
X112978207Y-86031264D01*
X112963646Y-86029104D01*
X112949367Y-86025527D01*
X112935507Y-86020568D01*
X112922200Y-86014274D01*
X112909574Y-86006706D01*
X112897751Y-85997938D01*
X112886844Y-85988052D01*
X111967606Y-85068814D01*
X111957720Y-85057907D01*
X111948952Y-85046084D01*
X111941384Y-85033458D01*
X111935090Y-85020151D01*
X111930131Y-85006291D01*
X111926554Y-84992012D01*
X111924394Y-84977451D01*
X111923672Y-84962748D01*
X111924394Y-84948045D01*
X111926554Y-84933484D01*
X111930131Y-84919205D01*
X111935090Y-84905345D01*
X111941384Y-84892038D01*
X111948952Y-84879412D01*
X111957720Y-84867589D01*
X111967606Y-84856682D01*
X112179738Y-84644550D01*
X112190645Y-84634664D01*
X112202468Y-84625896D01*
X112215094Y-84618328D01*
X112228401Y-84612034D01*
X112242261Y-84607075D01*
X112256540Y-84603498D01*
X112271101Y-84601338D01*
X112285804Y-84600616D01*
X112300507Y-84601338D01*
X112300507Y-84601338D01*
G37*
D26*
X112639357Y-85316301D03*
D11*
G36*
X111734822Y-85167023D02*
G01*
X111749383Y-85169183D01*
X111763662Y-85172760D01*
X111777522Y-85177719D01*
X111790829Y-85184013D01*
X111803455Y-85191581D01*
X111815278Y-85200349D01*
X111826185Y-85210235D01*
X112745423Y-86129473D01*
X112755309Y-86140380D01*
X112764077Y-86152203D01*
X112771645Y-86164829D01*
X112777939Y-86178136D01*
X112782898Y-86191996D01*
X112786475Y-86206275D01*
X112788635Y-86220836D01*
X112789357Y-86235539D01*
X112788635Y-86250242D01*
X112786475Y-86264803D01*
X112782898Y-86279082D01*
X112777939Y-86292942D01*
X112771645Y-86306249D01*
X112764077Y-86318875D01*
X112755309Y-86330698D01*
X112745423Y-86341605D01*
X112533291Y-86553737D01*
X112522384Y-86563623D01*
X112510561Y-86572391D01*
X112497935Y-86579959D01*
X112484628Y-86586253D01*
X112470768Y-86591212D01*
X112456489Y-86594789D01*
X112441928Y-86596949D01*
X112427225Y-86597671D01*
X112412522Y-86596949D01*
X112397961Y-86594789D01*
X112383682Y-86591212D01*
X112369822Y-86586253D01*
X112356515Y-86579959D01*
X112343889Y-86572391D01*
X112332066Y-86563623D01*
X112321159Y-86553737D01*
X111401921Y-85634499D01*
X111392035Y-85623592D01*
X111383267Y-85611769D01*
X111375699Y-85599143D01*
X111369405Y-85585836D01*
X111364446Y-85571976D01*
X111360869Y-85557697D01*
X111358709Y-85543136D01*
X111357987Y-85528433D01*
X111358709Y-85513730D01*
X111360869Y-85499169D01*
X111364446Y-85484890D01*
X111369405Y-85471030D01*
X111375699Y-85457723D01*
X111383267Y-85445097D01*
X111392035Y-85433274D01*
X111401921Y-85422367D01*
X111614053Y-85210235D01*
X111624960Y-85200349D01*
X111636783Y-85191581D01*
X111649409Y-85184013D01*
X111662716Y-85177719D01*
X111676576Y-85172760D01*
X111690855Y-85169183D01*
X111705416Y-85167023D01*
X111720119Y-85166301D01*
X111734822Y-85167023D01*
X111734822Y-85167023D01*
G37*
D26*
X112073672Y-85881986D03*
D11*
G36*
X111169136Y-85732709D02*
G01*
X111183697Y-85734869D01*
X111197976Y-85738446D01*
X111211836Y-85743405D01*
X111225143Y-85749699D01*
X111237769Y-85757267D01*
X111249592Y-85766035D01*
X111260499Y-85775921D01*
X112179737Y-86695159D01*
X112189623Y-86706066D01*
X112198391Y-86717889D01*
X112205959Y-86730515D01*
X112212253Y-86743822D01*
X112217212Y-86757682D01*
X112220789Y-86771961D01*
X112222949Y-86786522D01*
X112223671Y-86801225D01*
X112222949Y-86815928D01*
X112220789Y-86830489D01*
X112217212Y-86844768D01*
X112212253Y-86858628D01*
X112205959Y-86871935D01*
X112198391Y-86884561D01*
X112189623Y-86896384D01*
X112179737Y-86907291D01*
X111967605Y-87119423D01*
X111956698Y-87129309D01*
X111944875Y-87138077D01*
X111932249Y-87145645D01*
X111918942Y-87151939D01*
X111905082Y-87156898D01*
X111890803Y-87160475D01*
X111876242Y-87162635D01*
X111861539Y-87163357D01*
X111846836Y-87162635D01*
X111832275Y-87160475D01*
X111817996Y-87156898D01*
X111804136Y-87151939D01*
X111790829Y-87145645D01*
X111778203Y-87138077D01*
X111766380Y-87129309D01*
X111755473Y-87119423D01*
X110836235Y-86200185D01*
X110826349Y-86189278D01*
X110817581Y-86177455D01*
X110810013Y-86164829D01*
X110803719Y-86151522D01*
X110798760Y-86137662D01*
X110795183Y-86123383D01*
X110793023Y-86108822D01*
X110792301Y-86094119D01*
X110793023Y-86079416D01*
X110795183Y-86064855D01*
X110798760Y-86050576D01*
X110803719Y-86036716D01*
X110810013Y-86023409D01*
X110817581Y-86010783D01*
X110826349Y-85998960D01*
X110836235Y-85988053D01*
X111048367Y-85775921D01*
X111059274Y-85766035D01*
X111071097Y-85757267D01*
X111083723Y-85749699D01*
X111097030Y-85743405D01*
X111110890Y-85738446D01*
X111125169Y-85734869D01*
X111139730Y-85732709D01*
X111154433Y-85731987D01*
X111169136Y-85732709D01*
X111169136Y-85732709D01*
G37*
D26*
X111507986Y-86447672D03*
D11*
G36*
X110603451Y-86298394D02*
G01*
X110618012Y-86300554D01*
X110632291Y-86304131D01*
X110646151Y-86309090D01*
X110659458Y-86315384D01*
X110672084Y-86322952D01*
X110683907Y-86331720D01*
X110694814Y-86341606D01*
X111614052Y-87260844D01*
X111623938Y-87271751D01*
X111632706Y-87283574D01*
X111640274Y-87296200D01*
X111646568Y-87309507D01*
X111651527Y-87323367D01*
X111655104Y-87337646D01*
X111657264Y-87352207D01*
X111657986Y-87366910D01*
X111657264Y-87381613D01*
X111655104Y-87396174D01*
X111651527Y-87410453D01*
X111646568Y-87424313D01*
X111640274Y-87437620D01*
X111632706Y-87450246D01*
X111623938Y-87462069D01*
X111614052Y-87472976D01*
X111401920Y-87685108D01*
X111391013Y-87694994D01*
X111379190Y-87703762D01*
X111366564Y-87711330D01*
X111353257Y-87717624D01*
X111339397Y-87722583D01*
X111325118Y-87726160D01*
X111310557Y-87728320D01*
X111295854Y-87729042D01*
X111281151Y-87728320D01*
X111266590Y-87726160D01*
X111252311Y-87722583D01*
X111238451Y-87717624D01*
X111225144Y-87711330D01*
X111212518Y-87703762D01*
X111200695Y-87694994D01*
X111189788Y-87685108D01*
X110270550Y-86765870D01*
X110260664Y-86754963D01*
X110251896Y-86743140D01*
X110244328Y-86730514D01*
X110238034Y-86717207D01*
X110233075Y-86703347D01*
X110229498Y-86689068D01*
X110227338Y-86674507D01*
X110226616Y-86659804D01*
X110227338Y-86645101D01*
X110229498Y-86630540D01*
X110233075Y-86616261D01*
X110238034Y-86602401D01*
X110244328Y-86589094D01*
X110251896Y-86576468D01*
X110260664Y-86564645D01*
X110270550Y-86553738D01*
X110482682Y-86341606D01*
X110493589Y-86331720D01*
X110505412Y-86322952D01*
X110518038Y-86315384D01*
X110531345Y-86309090D01*
X110545205Y-86304131D01*
X110559484Y-86300554D01*
X110574045Y-86298394D01*
X110588748Y-86297672D01*
X110603451Y-86298394D01*
X110603451Y-86298394D01*
G37*
D26*
X110942301Y-87013357D03*
D11*
G36*
X110037766Y-86864080D02*
G01*
X110052327Y-86866240D01*
X110066606Y-86869817D01*
X110080466Y-86874776D01*
X110093773Y-86881070D01*
X110106399Y-86888638D01*
X110118222Y-86897406D01*
X110129129Y-86907292D01*
X111048367Y-87826530D01*
X111058253Y-87837437D01*
X111067021Y-87849260D01*
X111074589Y-87861886D01*
X111080883Y-87875193D01*
X111085842Y-87889053D01*
X111089419Y-87903332D01*
X111091579Y-87917893D01*
X111092301Y-87932596D01*
X111091579Y-87947299D01*
X111089419Y-87961860D01*
X111085842Y-87976139D01*
X111080883Y-87989999D01*
X111074589Y-88003306D01*
X111067021Y-88015932D01*
X111058253Y-88027755D01*
X111048367Y-88038662D01*
X110836235Y-88250794D01*
X110825328Y-88260680D01*
X110813505Y-88269448D01*
X110800879Y-88277016D01*
X110787572Y-88283310D01*
X110773712Y-88288269D01*
X110759433Y-88291846D01*
X110744872Y-88294006D01*
X110730169Y-88294728D01*
X110715466Y-88294006D01*
X110700905Y-88291846D01*
X110686626Y-88288269D01*
X110672766Y-88283310D01*
X110659459Y-88277016D01*
X110646833Y-88269448D01*
X110635010Y-88260680D01*
X110624103Y-88250794D01*
X109704865Y-87331556D01*
X109694979Y-87320649D01*
X109686211Y-87308826D01*
X109678643Y-87296200D01*
X109672349Y-87282893D01*
X109667390Y-87269033D01*
X109663813Y-87254754D01*
X109661653Y-87240193D01*
X109660931Y-87225490D01*
X109661653Y-87210787D01*
X109663813Y-87196226D01*
X109667390Y-87181947D01*
X109672349Y-87168087D01*
X109678643Y-87154780D01*
X109686211Y-87142154D01*
X109694979Y-87130331D01*
X109704865Y-87119424D01*
X109916997Y-86907292D01*
X109927904Y-86897406D01*
X109939727Y-86888638D01*
X109952353Y-86881070D01*
X109965660Y-86874776D01*
X109979520Y-86869817D01*
X109993799Y-86866240D01*
X110008360Y-86864080D01*
X110023063Y-86863358D01*
X110037766Y-86864080D01*
X110037766Y-86864080D01*
G37*
D26*
X110376616Y-87579043D03*
D11*
G36*
X109472080Y-87429765D02*
G01*
X109486641Y-87431925D01*
X109500920Y-87435502D01*
X109514780Y-87440461D01*
X109528087Y-87446755D01*
X109540713Y-87454323D01*
X109552536Y-87463091D01*
X109563443Y-87472977D01*
X110482681Y-88392215D01*
X110492567Y-88403122D01*
X110501335Y-88414945D01*
X110508903Y-88427571D01*
X110515197Y-88440878D01*
X110520156Y-88454738D01*
X110523733Y-88469017D01*
X110525893Y-88483578D01*
X110526615Y-88498281D01*
X110525893Y-88512984D01*
X110523733Y-88527545D01*
X110520156Y-88541824D01*
X110515197Y-88555684D01*
X110508903Y-88568991D01*
X110501335Y-88581617D01*
X110492567Y-88593440D01*
X110482681Y-88604347D01*
X110270549Y-88816479D01*
X110259642Y-88826365D01*
X110247819Y-88835133D01*
X110235193Y-88842701D01*
X110221886Y-88848995D01*
X110208026Y-88853954D01*
X110193747Y-88857531D01*
X110179186Y-88859691D01*
X110164483Y-88860413D01*
X110149780Y-88859691D01*
X110135219Y-88857531D01*
X110120940Y-88853954D01*
X110107080Y-88848995D01*
X110093773Y-88842701D01*
X110081147Y-88835133D01*
X110069324Y-88826365D01*
X110058417Y-88816479D01*
X109139179Y-87897241D01*
X109129293Y-87886334D01*
X109120525Y-87874511D01*
X109112957Y-87861885D01*
X109106663Y-87848578D01*
X109101704Y-87834718D01*
X109098127Y-87820439D01*
X109095967Y-87805878D01*
X109095245Y-87791175D01*
X109095967Y-87776472D01*
X109098127Y-87761911D01*
X109101704Y-87747632D01*
X109106663Y-87733772D01*
X109112957Y-87720465D01*
X109120525Y-87707839D01*
X109129293Y-87696016D01*
X109139179Y-87685109D01*
X109351311Y-87472977D01*
X109362218Y-87463091D01*
X109374041Y-87454323D01*
X109386667Y-87446755D01*
X109399974Y-87440461D01*
X109413834Y-87435502D01*
X109428113Y-87431925D01*
X109442674Y-87429765D01*
X109457377Y-87429043D01*
X109472080Y-87429765D01*
X109472080Y-87429765D01*
G37*
D26*
X109810930Y-88144728D03*
D11*
G36*
X110179186Y-89374309D02*
G01*
X110193747Y-89376469D01*
X110208026Y-89380046D01*
X110221886Y-89385005D01*
X110235193Y-89391299D01*
X110247819Y-89398867D01*
X110259642Y-89407635D01*
X110270549Y-89417521D01*
X110482681Y-89629653D01*
X110492567Y-89640560D01*
X110501335Y-89652383D01*
X110508903Y-89665009D01*
X110515197Y-89678316D01*
X110520156Y-89692176D01*
X110523733Y-89706455D01*
X110525893Y-89721016D01*
X110526615Y-89735719D01*
X110525893Y-89750422D01*
X110523733Y-89764983D01*
X110520156Y-89779262D01*
X110515197Y-89793122D01*
X110508903Y-89806429D01*
X110501335Y-89819055D01*
X110492567Y-89830878D01*
X110482681Y-89841785D01*
X109563443Y-90761023D01*
X109552536Y-90770909D01*
X109540713Y-90779677D01*
X109528087Y-90787245D01*
X109514780Y-90793539D01*
X109500920Y-90798498D01*
X109486641Y-90802075D01*
X109472080Y-90804235D01*
X109457377Y-90804957D01*
X109442674Y-90804235D01*
X109428113Y-90802075D01*
X109413834Y-90798498D01*
X109399974Y-90793539D01*
X109386667Y-90787245D01*
X109374041Y-90779677D01*
X109362218Y-90770909D01*
X109351311Y-90761023D01*
X109139179Y-90548891D01*
X109129293Y-90537984D01*
X109120525Y-90526161D01*
X109112957Y-90513535D01*
X109106663Y-90500228D01*
X109101704Y-90486368D01*
X109098127Y-90472089D01*
X109095967Y-90457528D01*
X109095245Y-90442825D01*
X109095967Y-90428122D01*
X109098127Y-90413561D01*
X109101704Y-90399282D01*
X109106663Y-90385422D01*
X109112957Y-90372115D01*
X109120525Y-90359489D01*
X109129293Y-90347666D01*
X109139179Y-90336759D01*
X110058417Y-89417521D01*
X110069324Y-89407635D01*
X110081147Y-89398867D01*
X110093773Y-89391299D01*
X110107080Y-89385005D01*
X110120940Y-89380046D01*
X110135219Y-89376469D01*
X110149780Y-89374309D01*
X110164483Y-89373587D01*
X110179186Y-89374309D01*
X110179186Y-89374309D01*
G37*
D26*
X109810930Y-90089272D03*
D11*
G36*
X110744872Y-89939994D02*
G01*
X110759433Y-89942154D01*
X110773712Y-89945731D01*
X110787572Y-89950690D01*
X110800879Y-89956984D01*
X110813505Y-89964552D01*
X110825328Y-89973320D01*
X110836235Y-89983206D01*
X111048367Y-90195338D01*
X111058253Y-90206245D01*
X111067021Y-90218068D01*
X111074589Y-90230694D01*
X111080883Y-90244001D01*
X111085842Y-90257861D01*
X111089419Y-90272140D01*
X111091579Y-90286701D01*
X111092301Y-90301404D01*
X111091579Y-90316107D01*
X111089419Y-90330668D01*
X111085842Y-90344947D01*
X111080883Y-90358807D01*
X111074589Y-90372114D01*
X111067021Y-90384740D01*
X111058253Y-90396563D01*
X111048367Y-90407470D01*
X110129129Y-91326708D01*
X110118222Y-91336594D01*
X110106399Y-91345362D01*
X110093773Y-91352930D01*
X110080466Y-91359224D01*
X110066606Y-91364183D01*
X110052327Y-91367760D01*
X110037766Y-91369920D01*
X110023063Y-91370642D01*
X110008360Y-91369920D01*
X109993799Y-91367760D01*
X109979520Y-91364183D01*
X109965660Y-91359224D01*
X109952353Y-91352930D01*
X109939727Y-91345362D01*
X109927904Y-91336594D01*
X109916997Y-91326708D01*
X109704865Y-91114576D01*
X109694979Y-91103669D01*
X109686211Y-91091846D01*
X109678643Y-91079220D01*
X109672349Y-91065913D01*
X109667390Y-91052053D01*
X109663813Y-91037774D01*
X109661653Y-91023213D01*
X109660931Y-91008510D01*
X109661653Y-90993807D01*
X109663813Y-90979246D01*
X109667390Y-90964967D01*
X109672349Y-90951107D01*
X109678643Y-90937800D01*
X109686211Y-90925174D01*
X109694979Y-90913351D01*
X109704865Y-90902444D01*
X110624103Y-89983206D01*
X110635010Y-89973320D01*
X110646833Y-89964552D01*
X110659459Y-89956984D01*
X110672766Y-89950690D01*
X110686626Y-89945731D01*
X110700905Y-89942154D01*
X110715466Y-89939994D01*
X110730169Y-89939272D01*
X110744872Y-89939994D01*
X110744872Y-89939994D01*
G37*
D26*
X110376616Y-90654957D03*
D11*
G36*
X111310557Y-90505680D02*
G01*
X111325118Y-90507840D01*
X111339397Y-90511417D01*
X111353257Y-90516376D01*
X111366564Y-90522670D01*
X111379190Y-90530238D01*
X111391013Y-90539006D01*
X111401920Y-90548892D01*
X111614052Y-90761024D01*
X111623938Y-90771931D01*
X111632706Y-90783754D01*
X111640274Y-90796380D01*
X111646568Y-90809687D01*
X111651527Y-90823547D01*
X111655104Y-90837826D01*
X111657264Y-90852387D01*
X111657986Y-90867090D01*
X111657264Y-90881793D01*
X111655104Y-90896354D01*
X111651527Y-90910633D01*
X111646568Y-90924493D01*
X111640274Y-90937800D01*
X111632706Y-90950426D01*
X111623938Y-90962249D01*
X111614052Y-90973156D01*
X110694814Y-91892394D01*
X110683907Y-91902280D01*
X110672084Y-91911048D01*
X110659458Y-91918616D01*
X110646151Y-91924910D01*
X110632291Y-91929869D01*
X110618012Y-91933446D01*
X110603451Y-91935606D01*
X110588748Y-91936328D01*
X110574045Y-91935606D01*
X110559484Y-91933446D01*
X110545205Y-91929869D01*
X110531345Y-91924910D01*
X110518038Y-91918616D01*
X110505412Y-91911048D01*
X110493589Y-91902280D01*
X110482682Y-91892394D01*
X110270550Y-91680262D01*
X110260664Y-91669355D01*
X110251896Y-91657532D01*
X110244328Y-91644906D01*
X110238034Y-91631599D01*
X110233075Y-91617739D01*
X110229498Y-91603460D01*
X110227338Y-91588899D01*
X110226616Y-91574196D01*
X110227338Y-91559493D01*
X110229498Y-91544932D01*
X110233075Y-91530653D01*
X110238034Y-91516793D01*
X110244328Y-91503486D01*
X110251896Y-91490860D01*
X110260664Y-91479037D01*
X110270550Y-91468130D01*
X111189788Y-90548892D01*
X111200695Y-90539006D01*
X111212518Y-90530238D01*
X111225144Y-90522670D01*
X111238451Y-90516376D01*
X111252311Y-90511417D01*
X111266590Y-90507840D01*
X111281151Y-90505680D01*
X111295854Y-90504958D01*
X111310557Y-90505680D01*
X111310557Y-90505680D01*
G37*
D26*
X110942301Y-91220643D03*
D11*
G36*
X111876242Y-91071365D02*
G01*
X111890803Y-91073525D01*
X111905082Y-91077102D01*
X111918942Y-91082061D01*
X111932249Y-91088355D01*
X111944875Y-91095923D01*
X111956698Y-91104691D01*
X111967605Y-91114577D01*
X112179737Y-91326709D01*
X112189623Y-91337616D01*
X112198391Y-91349439D01*
X112205959Y-91362065D01*
X112212253Y-91375372D01*
X112217212Y-91389232D01*
X112220789Y-91403511D01*
X112222949Y-91418072D01*
X112223671Y-91432775D01*
X112222949Y-91447478D01*
X112220789Y-91462039D01*
X112217212Y-91476318D01*
X112212253Y-91490178D01*
X112205959Y-91503485D01*
X112198391Y-91516111D01*
X112189623Y-91527934D01*
X112179737Y-91538841D01*
X111260499Y-92458079D01*
X111249592Y-92467965D01*
X111237769Y-92476733D01*
X111225143Y-92484301D01*
X111211836Y-92490595D01*
X111197976Y-92495554D01*
X111183697Y-92499131D01*
X111169136Y-92501291D01*
X111154433Y-92502013D01*
X111139730Y-92501291D01*
X111125169Y-92499131D01*
X111110890Y-92495554D01*
X111097030Y-92490595D01*
X111083723Y-92484301D01*
X111071097Y-92476733D01*
X111059274Y-92467965D01*
X111048367Y-92458079D01*
X110836235Y-92245947D01*
X110826349Y-92235040D01*
X110817581Y-92223217D01*
X110810013Y-92210591D01*
X110803719Y-92197284D01*
X110798760Y-92183424D01*
X110795183Y-92169145D01*
X110793023Y-92154584D01*
X110792301Y-92139881D01*
X110793023Y-92125178D01*
X110795183Y-92110617D01*
X110798760Y-92096338D01*
X110803719Y-92082478D01*
X110810013Y-92069171D01*
X110817581Y-92056545D01*
X110826349Y-92044722D01*
X110836235Y-92033815D01*
X111755473Y-91114577D01*
X111766380Y-91104691D01*
X111778203Y-91095923D01*
X111790829Y-91088355D01*
X111804136Y-91082061D01*
X111817996Y-91077102D01*
X111832275Y-91073525D01*
X111846836Y-91071365D01*
X111861539Y-91070643D01*
X111876242Y-91071365D01*
X111876242Y-91071365D01*
G37*
D26*
X111507986Y-91786328D03*
D11*
G36*
X112441928Y-91637051D02*
G01*
X112456489Y-91639211D01*
X112470768Y-91642788D01*
X112484628Y-91647747D01*
X112497935Y-91654041D01*
X112510561Y-91661609D01*
X112522384Y-91670377D01*
X112533291Y-91680263D01*
X112745423Y-91892395D01*
X112755309Y-91903302D01*
X112764077Y-91915125D01*
X112771645Y-91927751D01*
X112777939Y-91941058D01*
X112782898Y-91954918D01*
X112786475Y-91969197D01*
X112788635Y-91983758D01*
X112789357Y-91998461D01*
X112788635Y-92013164D01*
X112786475Y-92027725D01*
X112782898Y-92042004D01*
X112777939Y-92055864D01*
X112771645Y-92069171D01*
X112764077Y-92081797D01*
X112755309Y-92093620D01*
X112745423Y-92104527D01*
X111826185Y-93023765D01*
X111815278Y-93033651D01*
X111803455Y-93042419D01*
X111790829Y-93049987D01*
X111777522Y-93056281D01*
X111763662Y-93061240D01*
X111749383Y-93064817D01*
X111734822Y-93066977D01*
X111720119Y-93067699D01*
X111705416Y-93066977D01*
X111690855Y-93064817D01*
X111676576Y-93061240D01*
X111662716Y-93056281D01*
X111649409Y-93049987D01*
X111636783Y-93042419D01*
X111624960Y-93033651D01*
X111614053Y-93023765D01*
X111401921Y-92811633D01*
X111392035Y-92800726D01*
X111383267Y-92788903D01*
X111375699Y-92776277D01*
X111369405Y-92762970D01*
X111364446Y-92749110D01*
X111360869Y-92734831D01*
X111358709Y-92720270D01*
X111357987Y-92705567D01*
X111358709Y-92690864D01*
X111360869Y-92676303D01*
X111364446Y-92662024D01*
X111369405Y-92648164D01*
X111375699Y-92634857D01*
X111383267Y-92622231D01*
X111392035Y-92610408D01*
X111401921Y-92599501D01*
X112321159Y-91680263D01*
X112332066Y-91670377D01*
X112343889Y-91661609D01*
X112356515Y-91654041D01*
X112369822Y-91647747D01*
X112383682Y-91642788D01*
X112397961Y-91639211D01*
X112412522Y-91637051D01*
X112427225Y-91636329D01*
X112441928Y-91637051D01*
X112441928Y-91637051D01*
G37*
D26*
X112073672Y-92352014D03*
D11*
G36*
X113007613Y-92202736D02*
G01*
X113022174Y-92204896D01*
X113036453Y-92208473D01*
X113050313Y-92213432D01*
X113063620Y-92219726D01*
X113076246Y-92227294D01*
X113088069Y-92236062D01*
X113098976Y-92245948D01*
X113311108Y-92458080D01*
X113320994Y-92468987D01*
X113329762Y-92480810D01*
X113337330Y-92493436D01*
X113343624Y-92506743D01*
X113348583Y-92520603D01*
X113352160Y-92534882D01*
X113354320Y-92549443D01*
X113355042Y-92564146D01*
X113354320Y-92578849D01*
X113352160Y-92593410D01*
X113348583Y-92607689D01*
X113343624Y-92621549D01*
X113337330Y-92634856D01*
X113329762Y-92647482D01*
X113320994Y-92659305D01*
X113311108Y-92670212D01*
X112391870Y-93589450D01*
X112380963Y-93599336D01*
X112369140Y-93608104D01*
X112356514Y-93615672D01*
X112343207Y-93621966D01*
X112329347Y-93626925D01*
X112315068Y-93630502D01*
X112300507Y-93632662D01*
X112285804Y-93633384D01*
X112271101Y-93632662D01*
X112256540Y-93630502D01*
X112242261Y-93626925D01*
X112228401Y-93621966D01*
X112215094Y-93615672D01*
X112202468Y-93608104D01*
X112190645Y-93599336D01*
X112179738Y-93589450D01*
X111967606Y-93377318D01*
X111957720Y-93366411D01*
X111948952Y-93354588D01*
X111941384Y-93341962D01*
X111935090Y-93328655D01*
X111930131Y-93314795D01*
X111926554Y-93300516D01*
X111924394Y-93285955D01*
X111923672Y-93271252D01*
X111924394Y-93256549D01*
X111926554Y-93241988D01*
X111930131Y-93227709D01*
X111935090Y-93213849D01*
X111941384Y-93200542D01*
X111948952Y-93187916D01*
X111957720Y-93176093D01*
X111967606Y-93165186D01*
X112886844Y-92245948D01*
X112897751Y-92236062D01*
X112909574Y-92227294D01*
X112922200Y-92219726D01*
X112935507Y-92213432D01*
X112949367Y-92208473D01*
X112963646Y-92204896D01*
X112978207Y-92202736D01*
X112992910Y-92202014D01*
X113007613Y-92202736D01*
X113007613Y-92202736D01*
G37*
D26*
X112639357Y-92917699D03*
D11*
G36*
X113573299Y-92768421D02*
G01*
X113587860Y-92770581D01*
X113602139Y-92774158D01*
X113615999Y-92779117D01*
X113629306Y-92785411D01*
X113641932Y-92792979D01*
X113653755Y-92801747D01*
X113664662Y-92811633D01*
X113876794Y-93023765D01*
X113886680Y-93034672D01*
X113895448Y-93046495D01*
X113903016Y-93059121D01*
X113909310Y-93072428D01*
X113914269Y-93086288D01*
X113917846Y-93100567D01*
X113920006Y-93115128D01*
X113920728Y-93129831D01*
X113920006Y-93144534D01*
X113917846Y-93159095D01*
X113914269Y-93173374D01*
X113909310Y-93187234D01*
X113903016Y-93200541D01*
X113895448Y-93213167D01*
X113886680Y-93224990D01*
X113876794Y-93235897D01*
X112957556Y-94155135D01*
X112946649Y-94165021D01*
X112934826Y-94173789D01*
X112922200Y-94181357D01*
X112908893Y-94187651D01*
X112895033Y-94192610D01*
X112880754Y-94196187D01*
X112866193Y-94198347D01*
X112851490Y-94199069D01*
X112836787Y-94198347D01*
X112822226Y-94196187D01*
X112807947Y-94192610D01*
X112794087Y-94187651D01*
X112780780Y-94181357D01*
X112768154Y-94173789D01*
X112756331Y-94165021D01*
X112745424Y-94155135D01*
X112533292Y-93943003D01*
X112523406Y-93932096D01*
X112514638Y-93920273D01*
X112507070Y-93907647D01*
X112500776Y-93894340D01*
X112495817Y-93880480D01*
X112492240Y-93866201D01*
X112490080Y-93851640D01*
X112489358Y-93836937D01*
X112490080Y-93822234D01*
X112492240Y-93807673D01*
X112495817Y-93793394D01*
X112500776Y-93779534D01*
X112507070Y-93766227D01*
X112514638Y-93753601D01*
X112523406Y-93741778D01*
X112533292Y-93730871D01*
X113452530Y-92811633D01*
X113463437Y-92801747D01*
X113475260Y-92792979D01*
X113487886Y-92785411D01*
X113501193Y-92779117D01*
X113515053Y-92774158D01*
X113529332Y-92770581D01*
X113543893Y-92768421D01*
X113558596Y-92767699D01*
X113573299Y-92768421D01*
X113573299Y-92768421D01*
G37*
D26*
X113205043Y-93483384D03*
D11*
G36*
X114138984Y-93334107D02*
G01*
X114153545Y-93336267D01*
X114167824Y-93339844D01*
X114181684Y-93344803D01*
X114194991Y-93351097D01*
X114207617Y-93358665D01*
X114219440Y-93367433D01*
X114230347Y-93377319D01*
X114442479Y-93589451D01*
X114452365Y-93600358D01*
X114461133Y-93612181D01*
X114468701Y-93624807D01*
X114474995Y-93638114D01*
X114479954Y-93651974D01*
X114483531Y-93666253D01*
X114485691Y-93680814D01*
X114486413Y-93695517D01*
X114485691Y-93710220D01*
X114483531Y-93724781D01*
X114479954Y-93739060D01*
X114474995Y-93752920D01*
X114468701Y-93766227D01*
X114461133Y-93778853D01*
X114452365Y-93790676D01*
X114442479Y-93801583D01*
X113523241Y-94720821D01*
X113512334Y-94730707D01*
X113500511Y-94739475D01*
X113487885Y-94747043D01*
X113474578Y-94753337D01*
X113460718Y-94758296D01*
X113446439Y-94761873D01*
X113431878Y-94764033D01*
X113417175Y-94764755D01*
X113402472Y-94764033D01*
X113387911Y-94761873D01*
X113373632Y-94758296D01*
X113359772Y-94753337D01*
X113346465Y-94747043D01*
X113333839Y-94739475D01*
X113322016Y-94730707D01*
X113311109Y-94720821D01*
X113098977Y-94508689D01*
X113089091Y-94497782D01*
X113080323Y-94485959D01*
X113072755Y-94473333D01*
X113066461Y-94460026D01*
X113061502Y-94446166D01*
X113057925Y-94431887D01*
X113055765Y-94417326D01*
X113055043Y-94402623D01*
X113055765Y-94387920D01*
X113057925Y-94373359D01*
X113061502Y-94359080D01*
X113066461Y-94345220D01*
X113072755Y-94331913D01*
X113080323Y-94319287D01*
X113089091Y-94307464D01*
X113098977Y-94296557D01*
X114018215Y-93377319D01*
X114029122Y-93367433D01*
X114040945Y-93358665D01*
X114053571Y-93351097D01*
X114066878Y-93344803D01*
X114080738Y-93339844D01*
X114095017Y-93336267D01*
X114109578Y-93334107D01*
X114124281Y-93333385D01*
X114138984Y-93334107D01*
X114138984Y-93334107D01*
G37*
D26*
X113770728Y-94049070D03*
D11*
G36*
X115376422Y-93334107D02*
G01*
X115390983Y-93336267D01*
X115405262Y-93339844D01*
X115419122Y-93344803D01*
X115432429Y-93351097D01*
X115445055Y-93358665D01*
X115456878Y-93367433D01*
X115467785Y-93377319D01*
X116387023Y-94296557D01*
X116396909Y-94307464D01*
X116405677Y-94319287D01*
X116413245Y-94331913D01*
X116419539Y-94345220D01*
X116424498Y-94359080D01*
X116428075Y-94373359D01*
X116430235Y-94387920D01*
X116430957Y-94402623D01*
X116430235Y-94417326D01*
X116428075Y-94431887D01*
X116424498Y-94446166D01*
X116419539Y-94460026D01*
X116413245Y-94473333D01*
X116405677Y-94485959D01*
X116396909Y-94497782D01*
X116387023Y-94508689D01*
X116174891Y-94720821D01*
X116163984Y-94730707D01*
X116152161Y-94739475D01*
X116139535Y-94747043D01*
X116126228Y-94753337D01*
X116112368Y-94758296D01*
X116098089Y-94761873D01*
X116083528Y-94764033D01*
X116068825Y-94764755D01*
X116054122Y-94764033D01*
X116039561Y-94761873D01*
X116025282Y-94758296D01*
X116011422Y-94753337D01*
X115998115Y-94747043D01*
X115985489Y-94739475D01*
X115973666Y-94730707D01*
X115962759Y-94720821D01*
X115043521Y-93801583D01*
X115033635Y-93790676D01*
X115024867Y-93778853D01*
X115017299Y-93766227D01*
X115011005Y-93752920D01*
X115006046Y-93739060D01*
X115002469Y-93724781D01*
X115000309Y-93710220D01*
X114999587Y-93695517D01*
X115000309Y-93680814D01*
X115002469Y-93666253D01*
X115006046Y-93651974D01*
X115011005Y-93638114D01*
X115017299Y-93624807D01*
X115024867Y-93612181D01*
X115033635Y-93600358D01*
X115043521Y-93589451D01*
X115255653Y-93377319D01*
X115266560Y-93367433D01*
X115278383Y-93358665D01*
X115291009Y-93351097D01*
X115304316Y-93344803D01*
X115318176Y-93339844D01*
X115332455Y-93336267D01*
X115347016Y-93334107D01*
X115361719Y-93333385D01*
X115376422Y-93334107D01*
X115376422Y-93334107D01*
G37*
D26*
X115715272Y-94049070D03*
D11*
G36*
X115942107Y-92768421D02*
G01*
X115956668Y-92770581D01*
X115970947Y-92774158D01*
X115984807Y-92779117D01*
X115998114Y-92785411D01*
X116010740Y-92792979D01*
X116022563Y-92801747D01*
X116033470Y-92811633D01*
X116952708Y-93730871D01*
X116962594Y-93741778D01*
X116971362Y-93753601D01*
X116978930Y-93766227D01*
X116985224Y-93779534D01*
X116990183Y-93793394D01*
X116993760Y-93807673D01*
X116995920Y-93822234D01*
X116996642Y-93836937D01*
X116995920Y-93851640D01*
X116993760Y-93866201D01*
X116990183Y-93880480D01*
X116985224Y-93894340D01*
X116978930Y-93907647D01*
X116971362Y-93920273D01*
X116962594Y-93932096D01*
X116952708Y-93943003D01*
X116740576Y-94155135D01*
X116729669Y-94165021D01*
X116717846Y-94173789D01*
X116705220Y-94181357D01*
X116691913Y-94187651D01*
X116678053Y-94192610D01*
X116663774Y-94196187D01*
X116649213Y-94198347D01*
X116634510Y-94199069D01*
X116619807Y-94198347D01*
X116605246Y-94196187D01*
X116590967Y-94192610D01*
X116577107Y-94187651D01*
X116563800Y-94181357D01*
X116551174Y-94173789D01*
X116539351Y-94165021D01*
X116528444Y-94155135D01*
X115609206Y-93235897D01*
X115599320Y-93224990D01*
X115590552Y-93213167D01*
X115582984Y-93200541D01*
X115576690Y-93187234D01*
X115571731Y-93173374D01*
X115568154Y-93159095D01*
X115565994Y-93144534D01*
X115565272Y-93129831D01*
X115565994Y-93115128D01*
X115568154Y-93100567D01*
X115571731Y-93086288D01*
X115576690Y-93072428D01*
X115582984Y-93059121D01*
X115590552Y-93046495D01*
X115599320Y-93034672D01*
X115609206Y-93023765D01*
X115821338Y-92811633D01*
X115832245Y-92801747D01*
X115844068Y-92792979D01*
X115856694Y-92785411D01*
X115870001Y-92779117D01*
X115883861Y-92774158D01*
X115898140Y-92770581D01*
X115912701Y-92768421D01*
X115927404Y-92767699D01*
X115942107Y-92768421D01*
X115942107Y-92768421D01*
G37*
D26*
X116280957Y-93483384D03*
D11*
G36*
X116507793Y-92202736D02*
G01*
X116522354Y-92204896D01*
X116536633Y-92208473D01*
X116550493Y-92213432D01*
X116563800Y-92219726D01*
X116576426Y-92227294D01*
X116588249Y-92236062D01*
X116599156Y-92245948D01*
X117518394Y-93165186D01*
X117528280Y-93176093D01*
X117537048Y-93187916D01*
X117544616Y-93200542D01*
X117550910Y-93213849D01*
X117555869Y-93227709D01*
X117559446Y-93241988D01*
X117561606Y-93256549D01*
X117562328Y-93271252D01*
X117561606Y-93285955D01*
X117559446Y-93300516D01*
X117555869Y-93314795D01*
X117550910Y-93328655D01*
X117544616Y-93341962D01*
X117537048Y-93354588D01*
X117528280Y-93366411D01*
X117518394Y-93377318D01*
X117306262Y-93589450D01*
X117295355Y-93599336D01*
X117283532Y-93608104D01*
X117270906Y-93615672D01*
X117257599Y-93621966D01*
X117243739Y-93626925D01*
X117229460Y-93630502D01*
X117214899Y-93632662D01*
X117200196Y-93633384D01*
X117185493Y-93632662D01*
X117170932Y-93630502D01*
X117156653Y-93626925D01*
X117142793Y-93621966D01*
X117129486Y-93615672D01*
X117116860Y-93608104D01*
X117105037Y-93599336D01*
X117094130Y-93589450D01*
X116174892Y-92670212D01*
X116165006Y-92659305D01*
X116156238Y-92647482D01*
X116148670Y-92634856D01*
X116142376Y-92621549D01*
X116137417Y-92607689D01*
X116133840Y-92593410D01*
X116131680Y-92578849D01*
X116130958Y-92564146D01*
X116131680Y-92549443D01*
X116133840Y-92534882D01*
X116137417Y-92520603D01*
X116142376Y-92506743D01*
X116148670Y-92493436D01*
X116156238Y-92480810D01*
X116165006Y-92468987D01*
X116174892Y-92458080D01*
X116387024Y-92245948D01*
X116397931Y-92236062D01*
X116409754Y-92227294D01*
X116422380Y-92219726D01*
X116435687Y-92213432D01*
X116449547Y-92208473D01*
X116463826Y-92204896D01*
X116478387Y-92202736D01*
X116493090Y-92202014D01*
X116507793Y-92202736D01*
X116507793Y-92202736D01*
G37*
D26*
X116846643Y-92917699D03*
D11*
G36*
X117073478Y-91637051D02*
G01*
X117088039Y-91639211D01*
X117102318Y-91642788D01*
X117116178Y-91647747D01*
X117129485Y-91654041D01*
X117142111Y-91661609D01*
X117153934Y-91670377D01*
X117164841Y-91680263D01*
X118084079Y-92599501D01*
X118093965Y-92610408D01*
X118102733Y-92622231D01*
X118110301Y-92634857D01*
X118116595Y-92648164D01*
X118121554Y-92662024D01*
X118125131Y-92676303D01*
X118127291Y-92690864D01*
X118128013Y-92705567D01*
X118127291Y-92720270D01*
X118125131Y-92734831D01*
X118121554Y-92749110D01*
X118116595Y-92762970D01*
X118110301Y-92776277D01*
X118102733Y-92788903D01*
X118093965Y-92800726D01*
X118084079Y-92811633D01*
X117871947Y-93023765D01*
X117861040Y-93033651D01*
X117849217Y-93042419D01*
X117836591Y-93049987D01*
X117823284Y-93056281D01*
X117809424Y-93061240D01*
X117795145Y-93064817D01*
X117780584Y-93066977D01*
X117765881Y-93067699D01*
X117751178Y-93066977D01*
X117736617Y-93064817D01*
X117722338Y-93061240D01*
X117708478Y-93056281D01*
X117695171Y-93049987D01*
X117682545Y-93042419D01*
X117670722Y-93033651D01*
X117659815Y-93023765D01*
X116740577Y-92104527D01*
X116730691Y-92093620D01*
X116721923Y-92081797D01*
X116714355Y-92069171D01*
X116708061Y-92055864D01*
X116703102Y-92042004D01*
X116699525Y-92027725D01*
X116697365Y-92013164D01*
X116696643Y-91998461D01*
X116697365Y-91983758D01*
X116699525Y-91969197D01*
X116703102Y-91954918D01*
X116708061Y-91941058D01*
X116714355Y-91927751D01*
X116721923Y-91915125D01*
X116730691Y-91903302D01*
X116740577Y-91892395D01*
X116952709Y-91680263D01*
X116963616Y-91670377D01*
X116975439Y-91661609D01*
X116988065Y-91654041D01*
X117001372Y-91647747D01*
X117015232Y-91642788D01*
X117029511Y-91639211D01*
X117044072Y-91637051D01*
X117058775Y-91636329D01*
X117073478Y-91637051D01*
X117073478Y-91637051D01*
G37*
D26*
X117412328Y-92352014D03*
D11*
G36*
X117639164Y-91071365D02*
G01*
X117653725Y-91073525D01*
X117668004Y-91077102D01*
X117681864Y-91082061D01*
X117695171Y-91088355D01*
X117707797Y-91095923D01*
X117719620Y-91104691D01*
X117730527Y-91114577D01*
X118649765Y-92033815D01*
X118659651Y-92044722D01*
X118668419Y-92056545D01*
X118675987Y-92069171D01*
X118682281Y-92082478D01*
X118687240Y-92096338D01*
X118690817Y-92110617D01*
X118692977Y-92125178D01*
X118693699Y-92139881D01*
X118692977Y-92154584D01*
X118690817Y-92169145D01*
X118687240Y-92183424D01*
X118682281Y-92197284D01*
X118675987Y-92210591D01*
X118668419Y-92223217D01*
X118659651Y-92235040D01*
X118649765Y-92245947D01*
X118437633Y-92458079D01*
X118426726Y-92467965D01*
X118414903Y-92476733D01*
X118402277Y-92484301D01*
X118388970Y-92490595D01*
X118375110Y-92495554D01*
X118360831Y-92499131D01*
X118346270Y-92501291D01*
X118331567Y-92502013D01*
X118316864Y-92501291D01*
X118302303Y-92499131D01*
X118288024Y-92495554D01*
X118274164Y-92490595D01*
X118260857Y-92484301D01*
X118248231Y-92476733D01*
X118236408Y-92467965D01*
X118225501Y-92458079D01*
X117306263Y-91538841D01*
X117296377Y-91527934D01*
X117287609Y-91516111D01*
X117280041Y-91503485D01*
X117273747Y-91490178D01*
X117268788Y-91476318D01*
X117265211Y-91462039D01*
X117263051Y-91447478D01*
X117262329Y-91432775D01*
X117263051Y-91418072D01*
X117265211Y-91403511D01*
X117268788Y-91389232D01*
X117273747Y-91375372D01*
X117280041Y-91362065D01*
X117287609Y-91349439D01*
X117296377Y-91337616D01*
X117306263Y-91326709D01*
X117518395Y-91114577D01*
X117529302Y-91104691D01*
X117541125Y-91095923D01*
X117553751Y-91088355D01*
X117567058Y-91082061D01*
X117580918Y-91077102D01*
X117595197Y-91073525D01*
X117609758Y-91071365D01*
X117624461Y-91070643D01*
X117639164Y-91071365D01*
X117639164Y-91071365D01*
G37*
D26*
X117978014Y-91786328D03*
D11*
G36*
X118204849Y-90505680D02*
G01*
X118219410Y-90507840D01*
X118233689Y-90511417D01*
X118247549Y-90516376D01*
X118260856Y-90522670D01*
X118273482Y-90530238D01*
X118285305Y-90539006D01*
X118296212Y-90548892D01*
X119215450Y-91468130D01*
X119225336Y-91479037D01*
X119234104Y-91490860D01*
X119241672Y-91503486D01*
X119247966Y-91516793D01*
X119252925Y-91530653D01*
X119256502Y-91544932D01*
X119258662Y-91559493D01*
X119259384Y-91574196D01*
X119258662Y-91588899D01*
X119256502Y-91603460D01*
X119252925Y-91617739D01*
X119247966Y-91631599D01*
X119241672Y-91644906D01*
X119234104Y-91657532D01*
X119225336Y-91669355D01*
X119215450Y-91680262D01*
X119003318Y-91892394D01*
X118992411Y-91902280D01*
X118980588Y-91911048D01*
X118967962Y-91918616D01*
X118954655Y-91924910D01*
X118940795Y-91929869D01*
X118926516Y-91933446D01*
X118911955Y-91935606D01*
X118897252Y-91936328D01*
X118882549Y-91935606D01*
X118867988Y-91933446D01*
X118853709Y-91929869D01*
X118839849Y-91924910D01*
X118826542Y-91918616D01*
X118813916Y-91911048D01*
X118802093Y-91902280D01*
X118791186Y-91892394D01*
X117871948Y-90973156D01*
X117862062Y-90962249D01*
X117853294Y-90950426D01*
X117845726Y-90937800D01*
X117839432Y-90924493D01*
X117834473Y-90910633D01*
X117830896Y-90896354D01*
X117828736Y-90881793D01*
X117828014Y-90867090D01*
X117828736Y-90852387D01*
X117830896Y-90837826D01*
X117834473Y-90823547D01*
X117839432Y-90809687D01*
X117845726Y-90796380D01*
X117853294Y-90783754D01*
X117862062Y-90771931D01*
X117871948Y-90761024D01*
X118084080Y-90548892D01*
X118094987Y-90539006D01*
X118106810Y-90530238D01*
X118119436Y-90522670D01*
X118132743Y-90516376D01*
X118146603Y-90511417D01*
X118160882Y-90507840D01*
X118175443Y-90505680D01*
X118190146Y-90504958D01*
X118204849Y-90505680D01*
X118204849Y-90505680D01*
G37*
D26*
X118543699Y-91220643D03*
D11*
G36*
X118770534Y-89939994D02*
G01*
X118785095Y-89942154D01*
X118799374Y-89945731D01*
X118813234Y-89950690D01*
X118826541Y-89956984D01*
X118839167Y-89964552D01*
X118850990Y-89973320D01*
X118861897Y-89983206D01*
X119781135Y-90902444D01*
X119791021Y-90913351D01*
X119799789Y-90925174D01*
X119807357Y-90937800D01*
X119813651Y-90951107D01*
X119818610Y-90964967D01*
X119822187Y-90979246D01*
X119824347Y-90993807D01*
X119825069Y-91008510D01*
X119824347Y-91023213D01*
X119822187Y-91037774D01*
X119818610Y-91052053D01*
X119813651Y-91065913D01*
X119807357Y-91079220D01*
X119799789Y-91091846D01*
X119791021Y-91103669D01*
X119781135Y-91114576D01*
X119569003Y-91326708D01*
X119558096Y-91336594D01*
X119546273Y-91345362D01*
X119533647Y-91352930D01*
X119520340Y-91359224D01*
X119506480Y-91364183D01*
X119492201Y-91367760D01*
X119477640Y-91369920D01*
X119462937Y-91370642D01*
X119448234Y-91369920D01*
X119433673Y-91367760D01*
X119419394Y-91364183D01*
X119405534Y-91359224D01*
X119392227Y-91352930D01*
X119379601Y-91345362D01*
X119367778Y-91336594D01*
X119356871Y-91326708D01*
X118437633Y-90407470D01*
X118427747Y-90396563D01*
X118418979Y-90384740D01*
X118411411Y-90372114D01*
X118405117Y-90358807D01*
X118400158Y-90344947D01*
X118396581Y-90330668D01*
X118394421Y-90316107D01*
X118393699Y-90301404D01*
X118394421Y-90286701D01*
X118396581Y-90272140D01*
X118400158Y-90257861D01*
X118405117Y-90244001D01*
X118411411Y-90230694D01*
X118418979Y-90218068D01*
X118427747Y-90206245D01*
X118437633Y-90195338D01*
X118649765Y-89983206D01*
X118660672Y-89973320D01*
X118672495Y-89964552D01*
X118685121Y-89956984D01*
X118698428Y-89950690D01*
X118712288Y-89945731D01*
X118726567Y-89942154D01*
X118741128Y-89939994D01*
X118755831Y-89939272D01*
X118770534Y-89939994D01*
X118770534Y-89939994D01*
G37*
D26*
X119109384Y-90654957D03*
D11*
G36*
X119336220Y-89374309D02*
G01*
X119350781Y-89376469D01*
X119365060Y-89380046D01*
X119378920Y-89385005D01*
X119392227Y-89391299D01*
X119404853Y-89398867D01*
X119416676Y-89407635D01*
X119427583Y-89417521D01*
X120346821Y-90336759D01*
X120356707Y-90347666D01*
X120365475Y-90359489D01*
X120373043Y-90372115D01*
X120379337Y-90385422D01*
X120384296Y-90399282D01*
X120387873Y-90413561D01*
X120390033Y-90428122D01*
X120390755Y-90442825D01*
X120390033Y-90457528D01*
X120387873Y-90472089D01*
X120384296Y-90486368D01*
X120379337Y-90500228D01*
X120373043Y-90513535D01*
X120365475Y-90526161D01*
X120356707Y-90537984D01*
X120346821Y-90548891D01*
X120134689Y-90761023D01*
X120123782Y-90770909D01*
X120111959Y-90779677D01*
X120099333Y-90787245D01*
X120086026Y-90793539D01*
X120072166Y-90798498D01*
X120057887Y-90802075D01*
X120043326Y-90804235D01*
X120028623Y-90804957D01*
X120013920Y-90804235D01*
X119999359Y-90802075D01*
X119985080Y-90798498D01*
X119971220Y-90793539D01*
X119957913Y-90787245D01*
X119945287Y-90779677D01*
X119933464Y-90770909D01*
X119922557Y-90761023D01*
X119003319Y-89841785D01*
X118993433Y-89830878D01*
X118984665Y-89819055D01*
X118977097Y-89806429D01*
X118970803Y-89793122D01*
X118965844Y-89779262D01*
X118962267Y-89764983D01*
X118960107Y-89750422D01*
X118959385Y-89735719D01*
X118960107Y-89721016D01*
X118962267Y-89706455D01*
X118965844Y-89692176D01*
X118970803Y-89678316D01*
X118977097Y-89665009D01*
X118984665Y-89652383D01*
X118993433Y-89640560D01*
X119003319Y-89629653D01*
X119215451Y-89417521D01*
X119226358Y-89407635D01*
X119238181Y-89398867D01*
X119250807Y-89391299D01*
X119264114Y-89385005D01*
X119277974Y-89380046D01*
X119292253Y-89376469D01*
X119306814Y-89374309D01*
X119321517Y-89373587D01*
X119336220Y-89374309D01*
X119336220Y-89374309D01*
G37*
D26*
X119675070Y-90089272D03*
D11*
G36*
X120043326Y-87429765D02*
G01*
X120057887Y-87431925D01*
X120072166Y-87435502D01*
X120086026Y-87440461D01*
X120099333Y-87446755D01*
X120111959Y-87454323D01*
X120123782Y-87463091D01*
X120134689Y-87472977D01*
X120346821Y-87685109D01*
X120356707Y-87696016D01*
X120365475Y-87707839D01*
X120373043Y-87720465D01*
X120379337Y-87733772D01*
X120384296Y-87747632D01*
X120387873Y-87761911D01*
X120390033Y-87776472D01*
X120390755Y-87791175D01*
X120390033Y-87805878D01*
X120387873Y-87820439D01*
X120384296Y-87834718D01*
X120379337Y-87848578D01*
X120373043Y-87861885D01*
X120365475Y-87874511D01*
X120356707Y-87886334D01*
X120346821Y-87897241D01*
X119427583Y-88816479D01*
X119416676Y-88826365D01*
X119404853Y-88835133D01*
X119392227Y-88842701D01*
X119378920Y-88848995D01*
X119365060Y-88853954D01*
X119350781Y-88857531D01*
X119336220Y-88859691D01*
X119321517Y-88860413D01*
X119306814Y-88859691D01*
X119292253Y-88857531D01*
X119277974Y-88853954D01*
X119264114Y-88848995D01*
X119250807Y-88842701D01*
X119238181Y-88835133D01*
X119226358Y-88826365D01*
X119215451Y-88816479D01*
X119003319Y-88604347D01*
X118993433Y-88593440D01*
X118984665Y-88581617D01*
X118977097Y-88568991D01*
X118970803Y-88555684D01*
X118965844Y-88541824D01*
X118962267Y-88527545D01*
X118960107Y-88512984D01*
X118959385Y-88498281D01*
X118960107Y-88483578D01*
X118962267Y-88469017D01*
X118965844Y-88454738D01*
X118970803Y-88440878D01*
X118977097Y-88427571D01*
X118984665Y-88414945D01*
X118993433Y-88403122D01*
X119003319Y-88392215D01*
X119922557Y-87472977D01*
X119933464Y-87463091D01*
X119945287Y-87454323D01*
X119957913Y-87446755D01*
X119971220Y-87440461D01*
X119985080Y-87435502D01*
X119999359Y-87431925D01*
X120013920Y-87429765D01*
X120028623Y-87429043D01*
X120043326Y-87429765D01*
X120043326Y-87429765D01*
G37*
D26*
X119675070Y-88144728D03*
D11*
G36*
X119477640Y-86864080D02*
G01*
X119492201Y-86866240D01*
X119506480Y-86869817D01*
X119520340Y-86874776D01*
X119533647Y-86881070D01*
X119546273Y-86888638D01*
X119558096Y-86897406D01*
X119569003Y-86907292D01*
X119781135Y-87119424D01*
X119791021Y-87130331D01*
X119799789Y-87142154D01*
X119807357Y-87154780D01*
X119813651Y-87168087D01*
X119818610Y-87181947D01*
X119822187Y-87196226D01*
X119824347Y-87210787D01*
X119825069Y-87225490D01*
X119824347Y-87240193D01*
X119822187Y-87254754D01*
X119818610Y-87269033D01*
X119813651Y-87282893D01*
X119807357Y-87296200D01*
X119799789Y-87308826D01*
X119791021Y-87320649D01*
X119781135Y-87331556D01*
X118861897Y-88250794D01*
X118850990Y-88260680D01*
X118839167Y-88269448D01*
X118826541Y-88277016D01*
X118813234Y-88283310D01*
X118799374Y-88288269D01*
X118785095Y-88291846D01*
X118770534Y-88294006D01*
X118755831Y-88294728D01*
X118741128Y-88294006D01*
X118726567Y-88291846D01*
X118712288Y-88288269D01*
X118698428Y-88283310D01*
X118685121Y-88277016D01*
X118672495Y-88269448D01*
X118660672Y-88260680D01*
X118649765Y-88250794D01*
X118437633Y-88038662D01*
X118427747Y-88027755D01*
X118418979Y-88015932D01*
X118411411Y-88003306D01*
X118405117Y-87989999D01*
X118400158Y-87976139D01*
X118396581Y-87961860D01*
X118394421Y-87947299D01*
X118393699Y-87932596D01*
X118394421Y-87917893D01*
X118396581Y-87903332D01*
X118400158Y-87889053D01*
X118405117Y-87875193D01*
X118411411Y-87861886D01*
X118418979Y-87849260D01*
X118427747Y-87837437D01*
X118437633Y-87826530D01*
X119356871Y-86907292D01*
X119367778Y-86897406D01*
X119379601Y-86888638D01*
X119392227Y-86881070D01*
X119405534Y-86874776D01*
X119419394Y-86869817D01*
X119433673Y-86866240D01*
X119448234Y-86864080D01*
X119462937Y-86863358D01*
X119477640Y-86864080D01*
X119477640Y-86864080D01*
G37*
D26*
X119109384Y-87579043D03*
D11*
G36*
X118911955Y-86298394D02*
G01*
X118926516Y-86300554D01*
X118940795Y-86304131D01*
X118954655Y-86309090D01*
X118967962Y-86315384D01*
X118980588Y-86322952D01*
X118992411Y-86331720D01*
X119003318Y-86341606D01*
X119215450Y-86553738D01*
X119225336Y-86564645D01*
X119234104Y-86576468D01*
X119241672Y-86589094D01*
X119247966Y-86602401D01*
X119252925Y-86616261D01*
X119256502Y-86630540D01*
X119258662Y-86645101D01*
X119259384Y-86659804D01*
X119258662Y-86674507D01*
X119256502Y-86689068D01*
X119252925Y-86703347D01*
X119247966Y-86717207D01*
X119241672Y-86730514D01*
X119234104Y-86743140D01*
X119225336Y-86754963D01*
X119215450Y-86765870D01*
X118296212Y-87685108D01*
X118285305Y-87694994D01*
X118273482Y-87703762D01*
X118260856Y-87711330D01*
X118247549Y-87717624D01*
X118233689Y-87722583D01*
X118219410Y-87726160D01*
X118204849Y-87728320D01*
X118190146Y-87729042D01*
X118175443Y-87728320D01*
X118160882Y-87726160D01*
X118146603Y-87722583D01*
X118132743Y-87717624D01*
X118119436Y-87711330D01*
X118106810Y-87703762D01*
X118094987Y-87694994D01*
X118084080Y-87685108D01*
X117871948Y-87472976D01*
X117862062Y-87462069D01*
X117853294Y-87450246D01*
X117845726Y-87437620D01*
X117839432Y-87424313D01*
X117834473Y-87410453D01*
X117830896Y-87396174D01*
X117828736Y-87381613D01*
X117828014Y-87366910D01*
X117828736Y-87352207D01*
X117830896Y-87337646D01*
X117834473Y-87323367D01*
X117839432Y-87309507D01*
X117845726Y-87296200D01*
X117853294Y-87283574D01*
X117862062Y-87271751D01*
X117871948Y-87260844D01*
X118791186Y-86341606D01*
X118802093Y-86331720D01*
X118813916Y-86322952D01*
X118826542Y-86315384D01*
X118839849Y-86309090D01*
X118853709Y-86304131D01*
X118867988Y-86300554D01*
X118882549Y-86298394D01*
X118897252Y-86297672D01*
X118911955Y-86298394D01*
X118911955Y-86298394D01*
G37*
D26*
X118543699Y-87013357D03*
D11*
G36*
X118346270Y-85732709D02*
G01*
X118360831Y-85734869D01*
X118375110Y-85738446D01*
X118388970Y-85743405D01*
X118402277Y-85749699D01*
X118414903Y-85757267D01*
X118426726Y-85766035D01*
X118437633Y-85775921D01*
X118649765Y-85988053D01*
X118659651Y-85998960D01*
X118668419Y-86010783D01*
X118675987Y-86023409D01*
X118682281Y-86036716D01*
X118687240Y-86050576D01*
X118690817Y-86064855D01*
X118692977Y-86079416D01*
X118693699Y-86094119D01*
X118692977Y-86108822D01*
X118690817Y-86123383D01*
X118687240Y-86137662D01*
X118682281Y-86151522D01*
X118675987Y-86164829D01*
X118668419Y-86177455D01*
X118659651Y-86189278D01*
X118649765Y-86200185D01*
X117730527Y-87119423D01*
X117719620Y-87129309D01*
X117707797Y-87138077D01*
X117695171Y-87145645D01*
X117681864Y-87151939D01*
X117668004Y-87156898D01*
X117653725Y-87160475D01*
X117639164Y-87162635D01*
X117624461Y-87163357D01*
X117609758Y-87162635D01*
X117595197Y-87160475D01*
X117580918Y-87156898D01*
X117567058Y-87151939D01*
X117553751Y-87145645D01*
X117541125Y-87138077D01*
X117529302Y-87129309D01*
X117518395Y-87119423D01*
X117306263Y-86907291D01*
X117296377Y-86896384D01*
X117287609Y-86884561D01*
X117280041Y-86871935D01*
X117273747Y-86858628D01*
X117268788Y-86844768D01*
X117265211Y-86830489D01*
X117263051Y-86815928D01*
X117262329Y-86801225D01*
X117263051Y-86786522D01*
X117265211Y-86771961D01*
X117268788Y-86757682D01*
X117273747Y-86743822D01*
X117280041Y-86730515D01*
X117287609Y-86717889D01*
X117296377Y-86706066D01*
X117306263Y-86695159D01*
X118225501Y-85775921D01*
X118236408Y-85766035D01*
X118248231Y-85757267D01*
X118260857Y-85749699D01*
X118274164Y-85743405D01*
X118288024Y-85738446D01*
X118302303Y-85734869D01*
X118316864Y-85732709D01*
X118331567Y-85731987D01*
X118346270Y-85732709D01*
X118346270Y-85732709D01*
G37*
D26*
X117978014Y-86447672D03*
D11*
G36*
X117780584Y-85167023D02*
G01*
X117795145Y-85169183D01*
X117809424Y-85172760D01*
X117823284Y-85177719D01*
X117836591Y-85184013D01*
X117849217Y-85191581D01*
X117861040Y-85200349D01*
X117871947Y-85210235D01*
X118084079Y-85422367D01*
X118093965Y-85433274D01*
X118102733Y-85445097D01*
X118110301Y-85457723D01*
X118116595Y-85471030D01*
X118121554Y-85484890D01*
X118125131Y-85499169D01*
X118127291Y-85513730D01*
X118128013Y-85528433D01*
X118127291Y-85543136D01*
X118125131Y-85557697D01*
X118121554Y-85571976D01*
X118116595Y-85585836D01*
X118110301Y-85599143D01*
X118102733Y-85611769D01*
X118093965Y-85623592D01*
X118084079Y-85634499D01*
X117164841Y-86553737D01*
X117153934Y-86563623D01*
X117142111Y-86572391D01*
X117129485Y-86579959D01*
X117116178Y-86586253D01*
X117102318Y-86591212D01*
X117088039Y-86594789D01*
X117073478Y-86596949D01*
X117058775Y-86597671D01*
X117044072Y-86596949D01*
X117029511Y-86594789D01*
X117015232Y-86591212D01*
X117001372Y-86586253D01*
X116988065Y-86579959D01*
X116975439Y-86572391D01*
X116963616Y-86563623D01*
X116952709Y-86553737D01*
X116740577Y-86341605D01*
X116730691Y-86330698D01*
X116721923Y-86318875D01*
X116714355Y-86306249D01*
X116708061Y-86292942D01*
X116703102Y-86279082D01*
X116699525Y-86264803D01*
X116697365Y-86250242D01*
X116696643Y-86235539D01*
X116697365Y-86220836D01*
X116699525Y-86206275D01*
X116703102Y-86191996D01*
X116708061Y-86178136D01*
X116714355Y-86164829D01*
X116721923Y-86152203D01*
X116730691Y-86140380D01*
X116740577Y-86129473D01*
X117659815Y-85210235D01*
X117670722Y-85200349D01*
X117682545Y-85191581D01*
X117695171Y-85184013D01*
X117708478Y-85177719D01*
X117722338Y-85172760D01*
X117736617Y-85169183D01*
X117751178Y-85167023D01*
X117765881Y-85166301D01*
X117780584Y-85167023D01*
X117780584Y-85167023D01*
G37*
D26*
X117412328Y-85881986D03*
D11*
G36*
X117214899Y-84601338D02*
G01*
X117229460Y-84603498D01*
X117243739Y-84607075D01*
X117257599Y-84612034D01*
X117270906Y-84618328D01*
X117283532Y-84625896D01*
X117295355Y-84634664D01*
X117306262Y-84644550D01*
X117518394Y-84856682D01*
X117528280Y-84867589D01*
X117537048Y-84879412D01*
X117544616Y-84892038D01*
X117550910Y-84905345D01*
X117555869Y-84919205D01*
X117559446Y-84933484D01*
X117561606Y-84948045D01*
X117562328Y-84962748D01*
X117561606Y-84977451D01*
X117559446Y-84992012D01*
X117555869Y-85006291D01*
X117550910Y-85020151D01*
X117544616Y-85033458D01*
X117537048Y-85046084D01*
X117528280Y-85057907D01*
X117518394Y-85068814D01*
X116599156Y-85988052D01*
X116588249Y-85997938D01*
X116576426Y-86006706D01*
X116563800Y-86014274D01*
X116550493Y-86020568D01*
X116536633Y-86025527D01*
X116522354Y-86029104D01*
X116507793Y-86031264D01*
X116493090Y-86031986D01*
X116478387Y-86031264D01*
X116463826Y-86029104D01*
X116449547Y-86025527D01*
X116435687Y-86020568D01*
X116422380Y-86014274D01*
X116409754Y-86006706D01*
X116397931Y-85997938D01*
X116387024Y-85988052D01*
X116174892Y-85775920D01*
X116165006Y-85765013D01*
X116156238Y-85753190D01*
X116148670Y-85740564D01*
X116142376Y-85727257D01*
X116137417Y-85713397D01*
X116133840Y-85699118D01*
X116131680Y-85684557D01*
X116130958Y-85669854D01*
X116131680Y-85655151D01*
X116133840Y-85640590D01*
X116137417Y-85626311D01*
X116142376Y-85612451D01*
X116148670Y-85599144D01*
X116156238Y-85586518D01*
X116165006Y-85574695D01*
X116174892Y-85563788D01*
X117094130Y-84644550D01*
X117105037Y-84634664D01*
X117116860Y-84625896D01*
X117129486Y-84618328D01*
X117142793Y-84612034D01*
X117156653Y-84607075D01*
X117170932Y-84603498D01*
X117185493Y-84601338D01*
X117200196Y-84600616D01*
X117214899Y-84601338D01*
X117214899Y-84601338D01*
G37*
D26*
X116846643Y-85316301D03*
D11*
G36*
X116649213Y-84035653D02*
G01*
X116663774Y-84037813D01*
X116678053Y-84041390D01*
X116691913Y-84046349D01*
X116705220Y-84052643D01*
X116717846Y-84060211D01*
X116729669Y-84068979D01*
X116740576Y-84078865D01*
X116952708Y-84290997D01*
X116962594Y-84301904D01*
X116971362Y-84313727D01*
X116978930Y-84326353D01*
X116985224Y-84339660D01*
X116990183Y-84353520D01*
X116993760Y-84367799D01*
X116995920Y-84382360D01*
X116996642Y-84397063D01*
X116995920Y-84411766D01*
X116993760Y-84426327D01*
X116990183Y-84440606D01*
X116985224Y-84454466D01*
X116978930Y-84467773D01*
X116971362Y-84480399D01*
X116962594Y-84492222D01*
X116952708Y-84503129D01*
X116033470Y-85422367D01*
X116022563Y-85432253D01*
X116010740Y-85441021D01*
X115998114Y-85448589D01*
X115984807Y-85454883D01*
X115970947Y-85459842D01*
X115956668Y-85463419D01*
X115942107Y-85465579D01*
X115927404Y-85466301D01*
X115912701Y-85465579D01*
X115898140Y-85463419D01*
X115883861Y-85459842D01*
X115870001Y-85454883D01*
X115856694Y-85448589D01*
X115844068Y-85441021D01*
X115832245Y-85432253D01*
X115821338Y-85422367D01*
X115609206Y-85210235D01*
X115599320Y-85199328D01*
X115590552Y-85187505D01*
X115582984Y-85174879D01*
X115576690Y-85161572D01*
X115571731Y-85147712D01*
X115568154Y-85133433D01*
X115565994Y-85118872D01*
X115565272Y-85104169D01*
X115565994Y-85089466D01*
X115568154Y-85074905D01*
X115571731Y-85060626D01*
X115576690Y-85046766D01*
X115582984Y-85033459D01*
X115590552Y-85020833D01*
X115599320Y-85009010D01*
X115609206Y-84998103D01*
X116528444Y-84078865D01*
X116539351Y-84068979D01*
X116551174Y-84060211D01*
X116563800Y-84052643D01*
X116577107Y-84046349D01*
X116590967Y-84041390D01*
X116605246Y-84037813D01*
X116619807Y-84035653D01*
X116634510Y-84034931D01*
X116649213Y-84035653D01*
X116649213Y-84035653D01*
G37*
D26*
X116280957Y-84750616D03*
D11*
G36*
X116083528Y-83469967D02*
G01*
X116098089Y-83472127D01*
X116112368Y-83475704D01*
X116126228Y-83480663D01*
X116139535Y-83486957D01*
X116152161Y-83494525D01*
X116163984Y-83503293D01*
X116174891Y-83513179D01*
X116387023Y-83725311D01*
X116396909Y-83736218D01*
X116405677Y-83748041D01*
X116413245Y-83760667D01*
X116419539Y-83773974D01*
X116424498Y-83787834D01*
X116428075Y-83802113D01*
X116430235Y-83816674D01*
X116430957Y-83831377D01*
X116430235Y-83846080D01*
X116428075Y-83860641D01*
X116424498Y-83874920D01*
X116419539Y-83888780D01*
X116413245Y-83902087D01*
X116405677Y-83914713D01*
X116396909Y-83926536D01*
X116387023Y-83937443D01*
X115467785Y-84856681D01*
X115456878Y-84866567D01*
X115445055Y-84875335D01*
X115432429Y-84882903D01*
X115419122Y-84889197D01*
X115405262Y-84894156D01*
X115390983Y-84897733D01*
X115376422Y-84899893D01*
X115361719Y-84900615D01*
X115347016Y-84899893D01*
X115332455Y-84897733D01*
X115318176Y-84894156D01*
X115304316Y-84889197D01*
X115291009Y-84882903D01*
X115278383Y-84875335D01*
X115266560Y-84866567D01*
X115255653Y-84856681D01*
X115043521Y-84644549D01*
X115033635Y-84633642D01*
X115024867Y-84621819D01*
X115017299Y-84609193D01*
X115011005Y-84595886D01*
X115006046Y-84582026D01*
X115002469Y-84567747D01*
X115000309Y-84553186D01*
X114999587Y-84538483D01*
X115000309Y-84523780D01*
X115002469Y-84509219D01*
X115006046Y-84494940D01*
X115011005Y-84481080D01*
X115017299Y-84467773D01*
X115024867Y-84455147D01*
X115033635Y-84443324D01*
X115043521Y-84432417D01*
X115962759Y-83513179D01*
X115973666Y-83503293D01*
X115985489Y-83494525D01*
X115998115Y-83486957D01*
X116011422Y-83480663D01*
X116025282Y-83475704D01*
X116039561Y-83472127D01*
X116054122Y-83469967D01*
X116068825Y-83469245D01*
X116083528Y-83469967D01*
X116083528Y-83469967D01*
G37*
D26*
X115715272Y-84184930D03*
%TD*%
M02*
