%TF.GenerationSoftware,KiCad,Pcbnew,(5.1.4)-1*%
%TF.CreationDate,2020-10-28T09:08:47+02:00*%
%TF.ProjectId,Borta Dators,426f7274-6120-4446-9174-6f72732e6b69,rev?*%
%TF.SameCoordinates,Original*%
%TF.FileFunction,Copper,L2,Bot*%
%TF.FilePolarity,Positive*%
%FSLAX46Y46*%
G04 Gerber Fmt 4.6, Leading zero omitted, Abs format (unit mm)*
G04 Created by KiCad (PCBNEW (5.1.4)-1) date 2020-10-28 09:08:47*
%MOMM*%
%LPD*%
G04 APERTURE LIST*
%TA.AperFunction,ComponentPad*%
%ADD10C,1.524000*%
%TD*%
%TA.AperFunction,ComponentPad*%
%ADD11C,1.700000*%
%TD*%
%TA.AperFunction,Conductor*%
%ADD12C,0.100000*%
%TD*%
%TA.AperFunction,Conductor*%
%ADD13C,1.700000*%
%TD*%
%TA.AperFunction,ComponentPad*%
%ADD14O,1.700000X1.700000*%
%TD*%
%TA.AperFunction,ComponentPad*%
%ADD15R,1.700000X1.700000*%
%TD*%
%TA.AperFunction,ViaPad*%
%ADD16C,0.800000*%
%TD*%
%TA.AperFunction,Conductor*%
%ADD17C,0.500000*%
%TD*%
%TA.AperFunction,Conductor*%
%ADD18C,0.300000*%
%TD*%
%TA.AperFunction,Conductor*%
%ADD19C,0.254000*%
%TD*%
G04 APERTURE END LIST*
D10*
%TO.P,J3,1*%
%TO.N,GND*%
X103570000Y-110770000D03*
%TO.P,J3,20*%
%TO.N,/ADC6_FULL4_V*%
X103570000Y-108230000D03*
%TO.P,J3,19*%
%TO.N,/CS*%
X106110000Y-108230000D03*
%TO.P,J3,18*%
%TO.N,/CS_MUX_ADDR3*%
X108650000Y-108230000D03*
%TO.P,J3,17*%
%TO.N,/CS_MUX_ADDR2*%
X111190000Y-108230000D03*
%TO.P,J3,16*%
%TO.N,/CS_MUX_ADDR1*%
X113730000Y-108230000D03*
%TO.P,J3,15*%
%TO.N,/CLK*%
X116270000Y-108230000D03*
%TO.P,J3,14*%
%TO.N,/MOSI*%
X118810000Y-108230000D03*
%TO.P,J3,13*%
%TO.N,/MISO*%
X121350000Y-108230000D03*
%TO.P,J3,12*%
%TO.N,/RX*%
X123890000Y-108230000D03*
%TO.P,J3,11*%
%TO.N,/TX*%
X126430000Y-108230000D03*
%TO.P,J3,10*%
%TO.N,GND*%
X126430000Y-110770000D03*
%TO.P,J3,9*%
%TO.N,/ADC5_SEN_A*%
X123890000Y-110770000D03*
%TO.P,J3,8*%
%TO.N,/ADC4_COM_A*%
X121350000Y-110770000D03*
%TO.P,J3,7*%
%TO.N,/ADC1_FULL_A*%
X118810000Y-110770000D03*
%TO.P,J3,6*%
%TO.N,/ADC0_BAT_V*%
X116270000Y-110770000D03*
%TO.P,J3,5*%
%TO.N,/Kamera_on_2*%
X113730000Y-110770000D03*
%TO.P,J3,4*%
%TO.N,/Kamera_on_1*%
X111190000Y-110770000D03*
%TO.P,J3,3*%
%TO.N,VDD*%
X108650000Y-110770000D03*
%TO.P,J3,2*%
%TO.N,Net-(J3-Pad2)*%
X106110000Y-110770000D03*
%TD*%
%TO.P,BT1,2*%
%TO.N,GND*%
X90890000Y-71550000D03*
%TO.P,BT1,1*%
%TO.N,Net-(BT1-Pad1)*%
X89620000Y-98450000D03*
X92160000Y-98450000D03*
%TD*%
D11*
%TO.P,J1,1*%
%TO.N,VCC*%
X94488000Y-57150000D03*
D12*
%TD*%
%TO.N,VCC*%
%TO.C,J1*%
G36*
X93285918Y-57150000D02*
G01*
X94488000Y-55947918D01*
X95690082Y-57150000D01*
X94488000Y-58352082D01*
X93285918Y-57150000D01*
X93285918Y-57150000D01*
G37*
D11*
%TO.P,J1,2*%
%TO.N,/SWCLK*%
X92691949Y-58946051D03*
D13*
%TD*%
%TO.N,/SWCLK*%
%TO.C,J1*%
X92691949Y-58946051D02*
X92691949Y-58946051D01*
D11*
%TO.P,J1,3*%
%TO.N,GND*%
X90895898Y-60742102D03*
D13*
%TD*%
%TO.N,GND*%
%TO.C,J1*%
X90895898Y-60742102D02*
X90895898Y-60742102D01*
D11*
%TO.P,J1,4*%
%TO.N,/SWDIO*%
X89099846Y-62538154D03*
D13*
%TD*%
%TO.N,/SWDIO*%
%TO.C,J1*%
X89099846Y-62538154D02*
X89099846Y-62538154D01*
D11*
%TO.P,J1,5*%
%TO.N,/NRST*%
X87303795Y-64334205D03*
D13*
%TD*%
%TO.N,/NRST*%
%TO.C,J1*%
X87303795Y-64334205D02*
X87303795Y-64334205D01*
D11*
%TO.P,J1,6*%
%TO.N,Net-(J1-Pad6)*%
X85507744Y-66130256D03*
D13*
%TD*%
%TO.N,Net-(J1-Pad6)*%
%TO.C,J1*%
X85507744Y-66130256D02*
X85507744Y-66130256D01*
D14*
%TO.P,SW1,3*%
%TO.N,GND*%
X115824000Y-53340000D03*
%TO.P,SW1,2*%
%TO.N,Net-(SW1-Pad2)*%
X115824000Y-55880000D03*
D15*
%TO.P,SW1,1*%
%TO.N,VCC*%
X115824000Y-58420000D03*
%TD*%
%TO.P,SW2,1*%
%TO.N,VCC*%
X125857000Y-58547000D03*
D14*
%TO.P,SW2,2*%
%TO.N,Net-(SW2-Pad2)*%
X125857000Y-56007000D03*
%TO.P,SW2,3*%
%TO.N,GND*%
X125857000Y-53467000D03*
%TD*%
D15*
%TO.P,SW3,1*%
%TO.N,/NRST*%
X106180000Y-55740000D03*
D14*
%TO.P,SW3,2*%
%TO.N,GND*%
X103640000Y-55740000D03*
%TO.P,SW3,3*%
%TO.N,N/C*%
X106180000Y-53200000D03*
%TO.P,SW3,4*%
X103640000Y-53200000D03*
%TD*%
D16*
%TO.N,GND*%
X112369600Y-80264000D03*
X97917000Y-110540800D03*
X86588600Y-110363000D03*
X89636600Y-109550200D03*
X105156000Y-84328000D03*
X110236000Y-76200000D03*
X124968000Y-73660000D03*
X98069400Y-104673400D03*
X138887200Y-99517200D03*
X135001000Y-106883200D03*
X107569000Y-103708200D03*
X102997000Y-79273400D03*
X124968000Y-67056000D03*
X115062000Y-67056000D03*
%TO.N,/NRST*%
X103886000Y-77851000D03*
X106045000Y-80010000D03*
%TO.N,/SWCLK*%
X121539000Y-88138000D03*
X110617000Y-72390000D03*
%TO.N,/SWDIO*%
X116459000Y-89662000D03*
X109093000Y-72390000D03*
%TO.N,/MOSI*%
X134493000Y-101473000D03*
X129476500Y-87947500D03*
%TO.N,/CS*%
X134112000Y-103251000D03*
X130245710Y-103135628D03*
%TO.N,/ADC6_FULL4_V*%
X104648000Y-98679000D03*
X106299000Y-100330000D03*
%TO.N,/CS_MUX_ADDR3*%
X118872000Y-102743000D03*
X125095000Y-94996000D03*
X127000000Y-98679000D03*
%TO.N,/CS_MUX_ADDR2*%
X118110000Y-103759000D03*
X125349000Y-97663000D03*
X123571000Y-95885000D03*
%TO.N,/CS_MUX_ADDR1*%
X121158000Y-104648000D03*
%TO.N,/RX*%
X108423745Y-91405745D03*
X114681000Y-95123000D03*
X120396000Y-102489000D03*
%TO.N,/TX*%
X112014000Y-88900000D03*
X116078000Y-95389000D03*
X121793000Y-102489000D03*
%TO.N,/ADC5_SEN_A*%
X106299000Y-95944082D03*
X108331000Y-98806000D03*
X110998000Y-101473000D03*
%TO.N,/ADC4_COM_A*%
X105320210Y-95739206D03*
%TO.N,/ADC1_FULL_A*%
X105664000Y-88646000D03*
%TO.N,/ADC0_BAT_V*%
X106807000Y-87249000D03*
%TO.N,/Kamera_on_2*%
X121412000Y-69723000D03*
%TO.N,/Kamera_on_1*%
X110744000Y-69723000D03*
%TO.N,Net-(R4-Pad2)*%
X122174000Y-78867000D03*
X131318000Y-71374000D03*
%TO.N,Net-(R5-Pad2)*%
X123317000Y-78867000D03*
X131318000Y-72517000D03*
%TO.N,Net-(R6-Pad2)*%
X124460000Y-78867000D03*
X131318000Y-73787000D03*
%TO.N,Net-(R7-Pad2)*%
X131318000Y-74930000D03*
X111252000Y-95377000D03*
%TO.N,Net-(R8-Pad2)*%
X132715000Y-74930000D03*
X110067831Y-95462831D03*
%TO.N,Net-(R9-Pad2)*%
X111658400Y-83616800D03*
X113284000Y-81915000D03*
%TO.N,Net-(R10-Pad2)*%
X117475000Y-89027000D03*
X127266000Y-84328000D03*
%TO.N,Net-(SW1-Pad2)*%
X118135400Y-63220600D03*
%TO.N,Net-(SW2-Pad2)*%
X123596400Y-63246000D03*
%TO.N,/MCU_KAM_VAD_1*%
X118872000Y-67056000D03*
X123421669Y-87099669D03*
%TO.N,VCC*%
X94615000Y-109601000D03*
X138938000Y-104394000D03*
%TO.N,/MCU_KAM_VAD_2*%
X128016000Y-69469000D03*
X128016000Y-73025000D03*
X128016000Y-77089000D03*
X124460000Y-88773000D03*
%TD*%
D17*
%TO.N,/NRST*%
X103886000Y-77851000D02*
X106045000Y-80010000D01*
%TO.N,/SWCLK*%
X121539000Y-83185000D02*
X121539000Y-88138000D01*
X110617000Y-72390000D02*
X121539000Y-83185000D01*
%TO.N,/SWDIO*%
X114808000Y-78105000D02*
X114808000Y-88011000D01*
X114808000Y-88011000D02*
X116459000Y-89662000D01*
X109093000Y-72390000D02*
X114808000Y-78105000D01*
D18*
%TO.N,/MOSI*%
X134493000Y-92964000D02*
X129476500Y-87947500D01*
X134493000Y-101473000D02*
X134493000Y-92964000D01*
%TO.N,/CS*%
X134112000Y-103251000D02*
X130361082Y-103251000D01*
X130361082Y-103251000D02*
X130245710Y-103135628D01*
%TO.N,/ADC6_FULL4_V*%
X104648000Y-98679000D02*
X105047999Y-99078999D01*
X105047999Y-99078999D02*
X106299000Y-100330000D01*
%TO.N,/CS_MUX_ADDR3*%
X108650000Y-108230000D02*
X114137000Y-102743000D01*
X114137000Y-102743000D02*
X118872000Y-102743000D01*
X125603000Y-95504000D02*
X125095000Y-94996000D01*
X127000000Y-96901000D02*
X125095000Y-94996000D01*
X127000000Y-98679000D02*
X127000000Y-96901000D01*
%TO.N,/CS_MUX_ADDR2*%
X111190000Y-108230000D02*
X115661000Y-103759000D01*
X115661000Y-103759000D02*
X118110000Y-103759000D01*
X125349000Y-97663000D02*
X123571000Y-95885000D01*
%TO.N,/CS_MUX_ADDR1*%
X113730000Y-108230000D02*
X117312000Y-104648000D01*
X117312000Y-104648000D02*
X121158000Y-104648000D01*
%TO.N,/RX*%
X108423745Y-91405745D02*
X112141000Y-95123000D01*
X112141000Y-95123000D02*
X114681000Y-95123000D01*
X123890000Y-108230000D02*
X123890000Y-105983000D01*
X123890000Y-105983000D02*
X120396000Y-102489000D01*
%TO.N,/TX*%
X112014000Y-88900000D02*
X112014000Y-91325000D01*
X112014000Y-91325000D02*
X116078000Y-95389000D01*
X126430000Y-108230000D02*
X126430000Y-106999000D01*
X126430000Y-106999000D02*
X121920000Y-102489000D01*
X121920000Y-102489000D02*
X121793000Y-102489000D01*
D17*
%TO.N,/ADC5_SEN_A*%
X123890000Y-111847630D02*
X124691370Y-112649000D01*
X123890000Y-110770000D02*
X123890000Y-111847630D01*
X124691370Y-112649000D02*
X127381000Y-112649000D01*
X127381000Y-112649000D02*
X128016000Y-112014000D01*
X128016000Y-107188000D02*
X122301000Y-101473000D01*
X128016000Y-112014000D02*
X128016000Y-107188000D01*
X122301000Y-101473000D02*
X112268000Y-101473000D01*
X107950000Y-98425000D02*
X106172000Y-96647000D01*
X106172000Y-96647000D02*
X106172000Y-96071082D01*
X106172000Y-96071082D02*
X106299000Y-95944082D01*
X107950000Y-98425000D02*
X108331000Y-98806000D01*
X112268000Y-101473000D02*
X110998000Y-101473000D01*
%TO.N,/ADC4_COM_A*%
X122809000Y-100203000D02*
X107696000Y-100203000D01*
X128905000Y-106299000D02*
X122809000Y-100203000D01*
X128905000Y-112776000D02*
X128905000Y-106299000D01*
X121350000Y-110770000D02*
X121350000Y-112968000D01*
X121350000Y-112968000D02*
X121920000Y-113538000D01*
X128143000Y-113538000D02*
X128905000Y-112776000D01*
X121920000Y-113538000D02*
X128143000Y-113538000D01*
X105320210Y-95739206D02*
X105320210Y-97790000D01*
X107696000Y-100165790D02*
X105320210Y-97790000D01*
X107696000Y-100203000D02*
X107696000Y-100165790D01*
%TO.N,/ADC1_FULL_A*%
X123317000Y-99060000D02*
X110617000Y-99060000D01*
X129921000Y-105664000D02*
X123317000Y-99060000D01*
X118810000Y-113349000D02*
X120015000Y-114554000D01*
X118810000Y-110770000D02*
X118810000Y-113349000D01*
X110617000Y-99060000D02*
X105664000Y-94107000D01*
X120015000Y-114554000D02*
X129032000Y-114554000D01*
X129032000Y-114554000D02*
X129921000Y-113665000D01*
X105664000Y-94107000D02*
X105664000Y-88646000D01*
X129921000Y-113665000D02*
X129921000Y-105664000D01*
%TO.N,/ADC0_BAT_V*%
X111263998Y-98044000D02*
X106807000Y-93587002D01*
X123952000Y-98044000D02*
X111263998Y-98044000D01*
X106807000Y-93587002D02*
X106807000Y-87249000D01*
X131064000Y-105156000D02*
X123952000Y-98044000D01*
X116270000Y-112460000D02*
X119380000Y-115570000D01*
X116270000Y-110770000D02*
X116270000Y-112460000D01*
X131064000Y-114046000D02*
X131064000Y-105156000D01*
X119380000Y-115570000D02*
X129540000Y-115570000D01*
X129540000Y-115570000D02*
X131064000Y-114046000D01*
%TO.N,/Kamera_on_2*%
X121412000Y-67183000D02*
X121412000Y-69723000D01*
X119507000Y-65278000D02*
X121412000Y-67183000D01*
X108966000Y-65278000D02*
X119507000Y-65278000D01*
X113730000Y-111847630D02*
X111150630Y-114427000D01*
X101219000Y-114427000D02*
X99060000Y-112268000D01*
X113730000Y-110770000D02*
X113730000Y-111847630D01*
X99060000Y-75184000D02*
X108966000Y-65278000D01*
X111150630Y-114427000D02*
X101219000Y-114427000D01*
X99060000Y-112268000D02*
X99060000Y-75184000D01*
%TO.N,/Kamera_on_1*%
X111190000Y-111847630D02*
X109753630Y-113284000D01*
X111190000Y-110770000D02*
X111190000Y-111847630D01*
X109753630Y-113284000D02*
X102743000Y-113284000D01*
X102743000Y-113284000D02*
X101092000Y-111633000D01*
X101092000Y-111633000D02*
X101092000Y-76200000D01*
X101092000Y-76200000D02*
X107569000Y-69723000D01*
X107569000Y-69723000D02*
X110744000Y-69723000D01*
D18*
%TO.N,Net-(R4-Pad2)*%
X127000000Y-74041000D02*
X125349000Y-75692000D01*
X125349000Y-75692000D02*
X122174000Y-78867000D01*
X128143000Y-74041000D02*
X127000000Y-74041000D01*
X128143000Y-74041000D02*
X128524000Y-74041000D01*
X128524000Y-74041000D02*
X128651000Y-74041000D01*
X128651000Y-74041000D02*
X131318000Y-71374000D01*
%TO.N,Net-(R5-Pad2)*%
X131318000Y-72517000D02*
X129159000Y-74676000D01*
X129159000Y-74676000D02*
X127508000Y-74676000D01*
X127508000Y-74676000D02*
X123317000Y-78867000D01*
%TO.N,Net-(R6-Pad2)*%
X124460000Y-78867000D02*
X128016000Y-75311000D01*
X129413000Y-75311000D02*
X129794000Y-75311000D01*
X129794000Y-75311000D02*
X131318000Y-73787000D01*
X128016000Y-75311000D02*
X129413000Y-75311000D01*
%TO.N,Net-(R7-Pad2)*%
X129984500Y-76263500D02*
X131318000Y-74930000D01*
X129984500Y-84391500D02*
X129984500Y-76263500D01*
X129984500Y-84391500D02*
X118237000Y-96139000D01*
X112395000Y-96139000D02*
X118237000Y-96139000D01*
X112395000Y-96139000D02*
X112014000Y-96139000D01*
X112014000Y-96139000D02*
X111252000Y-95377000D01*
%TO.N,Net-(R8-Pad2)*%
X132715000Y-74930000D02*
X131064000Y-76581000D01*
X131064000Y-76581000D02*
X131064000Y-84836000D01*
X131064000Y-84836000D02*
X118872000Y-97028000D01*
X118872000Y-97028000D02*
X111538998Y-97028000D01*
X110131331Y-95620333D02*
X111538998Y-97028000D01*
%TO.N,Net-(R9-Pad2)*%
X111658400Y-83616800D02*
X113284000Y-81915000D01*
%TO.N,Net-(R10-Pad2)*%
X126854001Y-84727999D02*
X122555000Y-89027000D01*
X126866001Y-84727999D02*
X126854001Y-84727999D01*
X122555000Y-89027000D02*
X117475000Y-89027000D01*
X127266000Y-84328000D02*
X126866001Y-84727999D01*
%TO.N,Net-(SW1-Pad2)*%
X118135400Y-57040119D02*
X118135400Y-63220600D01*
X117068600Y-55956200D02*
X115866519Y-55956200D01*
X117068600Y-55956200D02*
X118127119Y-57014719D01*
%TO.N,Net-(SW2-Pad2)*%
X124654919Y-56007000D02*
X123596400Y-57065519D01*
X125857000Y-56007000D02*
X124654919Y-56007000D01*
X123596400Y-57065519D02*
X123596400Y-63246000D01*
%TO.N,/MCU_KAM_VAD_1*%
X123444000Y-82042000D02*
X118872000Y-77470000D01*
X118872000Y-77470000D02*
X118872000Y-67056000D01*
X123444000Y-82042000D02*
X123444000Y-87077338D01*
X123444000Y-87077338D02*
X123421669Y-87099669D01*
D17*
%TO.N,VCC*%
X94615000Y-109601000D02*
X94615000Y-111760000D01*
X94615000Y-111760000D02*
X99441000Y-116586000D01*
X99441000Y-116586000D02*
X133350000Y-116586000D01*
X133350000Y-116586000D02*
X138684000Y-111125000D01*
X138938000Y-110871000D02*
X138938000Y-104394000D01*
X138684000Y-111125000D02*
X138938000Y-110871000D01*
D18*
%TO.N,/MCU_KAM_VAD_2*%
X128016000Y-69469000D02*
X128016000Y-73025000D01*
X128016000Y-77089000D02*
X128016000Y-85090000D01*
X128016000Y-85217000D02*
X128016000Y-77089000D01*
X124460000Y-88773000D02*
X128016000Y-85217000D01*
%TD*%
D19*
%TO.N,GND*%
G36*
X145768083Y-50731173D02*
G01*
X146511891Y-50934656D01*
X147207905Y-51266638D01*
X147834130Y-51716626D01*
X148370777Y-52270403D01*
X148800871Y-52910451D01*
X149110829Y-53616553D01*
X149292065Y-54371457D01*
X149340000Y-55024207D01*
X149340001Y-114970597D01*
X149268827Y-115768083D01*
X149065344Y-116511890D01*
X148733363Y-117207904D01*
X148283374Y-117834130D01*
X147729597Y-118370777D01*
X147089549Y-118800871D01*
X146383447Y-119110829D01*
X145628543Y-119292065D01*
X144975793Y-119340000D01*
X85029392Y-119340000D01*
X84231917Y-119268827D01*
X83488110Y-119065344D01*
X82792096Y-118733363D01*
X82165870Y-118283374D01*
X81629223Y-117729597D01*
X81199129Y-117089549D01*
X80889171Y-116383447D01*
X80707935Y-115628543D01*
X80660000Y-114975793D01*
X80660000Y-109499061D01*
X93580000Y-109499061D01*
X93580000Y-109702939D01*
X93619774Y-109902898D01*
X93697795Y-110091256D01*
X93730000Y-110139455D01*
X93730001Y-111716521D01*
X93725719Y-111760000D01*
X93742805Y-111933490D01*
X93793412Y-112100313D01*
X93875590Y-112254059D01*
X93958468Y-112355046D01*
X93958471Y-112355049D01*
X93986184Y-112388817D01*
X94019952Y-112416530D01*
X98784470Y-117181049D01*
X98812183Y-117214817D01*
X98845951Y-117242530D01*
X98845953Y-117242532D01*
X98946941Y-117325411D01*
X99100686Y-117407589D01*
X99229814Y-117446760D01*
X99267510Y-117458195D01*
X99397523Y-117471000D01*
X99397531Y-117471000D01*
X99441000Y-117475281D01*
X99484469Y-117471000D01*
X133311754Y-117471000D01*
X133360461Y-117475219D01*
X133441824Y-117466238D01*
X133523490Y-117458195D01*
X133528521Y-117456669D01*
X133533738Y-117456093D01*
X133611830Y-117431397D01*
X133690313Y-117407589D01*
X133694949Y-117405111D01*
X133699955Y-117403528D01*
X133771729Y-117364072D01*
X133844059Y-117325411D01*
X133848123Y-117322076D01*
X133852723Y-117319547D01*
X133915414Y-117266851D01*
X133978817Y-117214817D01*
X134009848Y-117177006D01*
X139313550Y-111747028D01*
X139533045Y-111527533D01*
X139566817Y-111499817D01*
X139677411Y-111365059D01*
X139759589Y-111211313D01*
X139810195Y-111044490D01*
X139823000Y-110914477D01*
X139823000Y-110914467D01*
X139827281Y-110871001D01*
X139823000Y-110827535D01*
X139823000Y-104932454D01*
X139855205Y-104884256D01*
X139933226Y-104695898D01*
X139973000Y-104495939D01*
X139973000Y-104292061D01*
X139933226Y-104092102D01*
X139855205Y-103903744D01*
X139741937Y-103734226D01*
X139597774Y-103590063D01*
X139428256Y-103476795D01*
X139239898Y-103398774D01*
X139039939Y-103359000D01*
X138836061Y-103359000D01*
X138636102Y-103398774D01*
X138447744Y-103476795D01*
X138278226Y-103590063D01*
X138134063Y-103734226D01*
X138020795Y-103903744D01*
X137942774Y-104092102D01*
X137903000Y-104292061D01*
X137903000Y-104495939D01*
X137942774Y-104695898D01*
X138020795Y-104884256D01*
X138053001Y-104932456D01*
X138053000Y-110504422D01*
X138027468Y-110529954D01*
X138024160Y-110533985D01*
X132977307Y-115701000D01*
X130660578Y-115701000D01*
X131659050Y-114702529D01*
X131692817Y-114674817D01*
X131720950Y-114640538D01*
X131791971Y-114553999D01*
X131803411Y-114540059D01*
X131885589Y-114386313D01*
X131936195Y-114219490D01*
X131949000Y-114089477D01*
X131949000Y-114089467D01*
X131953281Y-114046001D01*
X131949000Y-114002535D01*
X131949000Y-105199469D01*
X131953281Y-105156000D01*
X131949000Y-105112531D01*
X131949000Y-105112523D01*
X131936195Y-104982510D01*
X131885589Y-104815687D01*
X131803411Y-104661941D01*
X131692817Y-104527183D01*
X131659049Y-104499470D01*
X131195579Y-104036000D01*
X133433289Y-104036000D01*
X133452226Y-104054937D01*
X133621744Y-104168205D01*
X133810102Y-104246226D01*
X134010061Y-104286000D01*
X134213939Y-104286000D01*
X134413898Y-104246226D01*
X134602256Y-104168205D01*
X134771774Y-104054937D01*
X134915937Y-103910774D01*
X135029205Y-103741256D01*
X135107226Y-103552898D01*
X135147000Y-103352939D01*
X135147000Y-103149061D01*
X135107226Y-102949102D01*
X135029205Y-102760744D01*
X134915937Y-102591226D01*
X134793262Y-102468551D01*
X134794898Y-102468226D01*
X134983256Y-102390205D01*
X135152774Y-102276937D01*
X135296937Y-102132774D01*
X135410205Y-101963256D01*
X135488226Y-101774898D01*
X135528000Y-101574939D01*
X135528000Y-101371061D01*
X135488226Y-101171102D01*
X135410205Y-100982744D01*
X135296937Y-100813226D01*
X135278000Y-100794289D01*
X135278000Y-93002552D01*
X135281797Y-92963999D01*
X135278000Y-92925446D01*
X135278000Y-92925439D01*
X135266641Y-92810113D01*
X135221754Y-92662140D01*
X135148862Y-92525767D01*
X135099450Y-92465559D01*
X135075345Y-92436187D01*
X135075342Y-92436184D01*
X135050764Y-92406236D01*
X135020816Y-92381658D01*
X130511500Y-87872343D01*
X130511500Y-87845561D01*
X130471726Y-87645602D01*
X130393705Y-87457244D01*
X130280437Y-87287726D01*
X130136274Y-87143563D01*
X129974612Y-87035545D01*
X131591810Y-85418347D01*
X131621764Y-85393764D01*
X131719862Y-85274233D01*
X131792754Y-85137860D01*
X131815428Y-85063114D01*
X131837642Y-84989887D01*
X131845020Y-84914974D01*
X131849000Y-84874561D01*
X131849000Y-84874556D01*
X131852797Y-84836000D01*
X131849000Y-84797444D01*
X131849000Y-76906157D01*
X132790157Y-75965000D01*
X132816939Y-75965000D01*
X133016898Y-75925226D01*
X133205256Y-75847205D01*
X133374774Y-75733937D01*
X133518937Y-75589774D01*
X133632205Y-75420256D01*
X133710226Y-75231898D01*
X133750000Y-75031939D01*
X133750000Y-74828061D01*
X133710226Y-74628102D01*
X133632205Y-74439744D01*
X133518937Y-74270226D01*
X133374774Y-74126063D01*
X133205256Y-74012795D01*
X133016898Y-73934774D01*
X132816939Y-73895000D01*
X132613061Y-73895000D01*
X132413102Y-73934774D01*
X132337668Y-73966020D01*
X132353000Y-73888939D01*
X132353000Y-73685061D01*
X132313226Y-73485102D01*
X132235205Y-73296744D01*
X132138490Y-73152000D01*
X132235205Y-73007256D01*
X132313226Y-72818898D01*
X132353000Y-72618939D01*
X132353000Y-72415061D01*
X132313226Y-72215102D01*
X132235205Y-72026744D01*
X132180920Y-71945500D01*
X132235205Y-71864256D01*
X132313226Y-71675898D01*
X132353000Y-71475939D01*
X132353000Y-71272061D01*
X132313226Y-71072102D01*
X132235205Y-70883744D01*
X132121937Y-70714226D01*
X131977774Y-70570063D01*
X131808256Y-70456795D01*
X131619898Y-70378774D01*
X131419939Y-70339000D01*
X131216061Y-70339000D01*
X131016102Y-70378774D01*
X130827744Y-70456795D01*
X130658226Y-70570063D01*
X130514063Y-70714226D01*
X130400795Y-70883744D01*
X130322774Y-71072102D01*
X130283000Y-71272061D01*
X130283000Y-71298843D01*
X128966564Y-72615279D01*
X128933205Y-72534744D01*
X128819937Y-72365226D01*
X128801000Y-72346289D01*
X128801000Y-70147711D01*
X128819937Y-70128774D01*
X128933205Y-69959256D01*
X129011226Y-69770898D01*
X129051000Y-69570939D01*
X129051000Y-69367061D01*
X129011226Y-69167102D01*
X128933205Y-68978744D01*
X128819937Y-68809226D01*
X128675774Y-68665063D01*
X128506256Y-68551795D01*
X128317898Y-68473774D01*
X128117939Y-68434000D01*
X127914061Y-68434000D01*
X127714102Y-68473774D01*
X127525744Y-68551795D01*
X127356226Y-68665063D01*
X127212063Y-68809226D01*
X127098795Y-68978744D01*
X127020774Y-69167102D01*
X126981000Y-69367061D01*
X126981000Y-69570939D01*
X127020774Y-69770898D01*
X127098795Y-69959256D01*
X127212063Y-70128774D01*
X127231000Y-70147711D01*
X127231001Y-72346288D01*
X127212063Y-72365226D01*
X127098795Y-72534744D01*
X127020774Y-72723102D01*
X126981000Y-72923061D01*
X126981000Y-73126939D01*
X127006035Y-73252797D01*
X127000000Y-73252203D01*
X126961444Y-73256000D01*
X126961439Y-73256000D01*
X126921026Y-73259980D01*
X126846113Y-73267358D01*
X126714758Y-73307205D01*
X126698140Y-73312246D01*
X126561767Y-73385138D01*
X126442236Y-73483236D01*
X126417655Y-73513188D01*
X124821193Y-75109650D01*
X124821187Y-75109655D01*
X122098843Y-77832000D01*
X122072061Y-77832000D01*
X121872102Y-77871774D01*
X121683744Y-77949795D01*
X121514226Y-78063063D01*
X121370063Y-78207226D01*
X121256795Y-78376744D01*
X121178774Y-78565102D01*
X121161932Y-78649774D01*
X119657000Y-77144843D01*
X119657000Y-67734711D01*
X119675937Y-67715774D01*
X119789205Y-67546256D01*
X119867226Y-67357898D01*
X119907000Y-67157939D01*
X119907000Y-66954061D01*
X119900921Y-66923500D01*
X120527000Y-67549579D01*
X120527001Y-69184545D01*
X120494795Y-69232744D01*
X120416774Y-69421102D01*
X120377000Y-69621061D01*
X120377000Y-69824939D01*
X120416774Y-70024898D01*
X120494795Y-70213256D01*
X120608063Y-70382774D01*
X120752226Y-70526937D01*
X120921744Y-70640205D01*
X121110102Y-70718226D01*
X121310061Y-70758000D01*
X121513939Y-70758000D01*
X121713898Y-70718226D01*
X121902256Y-70640205D01*
X122071774Y-70526937D01*
X122215937Y-70382774D01*
X122329205Y-70213256D01*
X122407226Y-70024898D01*
X122447000Y-69824939D01*
X122447000Y-69621061D01*
X122407226Y-69421102D01*
X122329205Y-69232744D01*
X122297000Y-69184546D01*
X122297000Y-67226469D01*
X122301281Y-67183000D01*
X122297000Y-67139531D01*
X122297000Y-67139523D01*
X122284195Y-67009510D01*
X122233589Y-66842687D01*
X122151411Y-66688941D01*
X122068532Y-66587953D01*
X122068530Y-66587951D01*
X122040817Y-66554183D01*
X122007050Y-66526471D01*
X120163534Y-64682956D01*
X120135817Y-64649183D01*
X120001059Y-64538589D01*
X119847313Y-64456411D01*
X119680490Y-64405805D01*
X119550477Y-64393000D01*
X119550469Y-64393000D01*
X119507000Y-64388719D01*
X119463531Y-64393000D01*
X109009469Y-64393000D01*
X108966000Y-64388719D01*
X108922531Y-64393000D01*
X108922523Y-64393000D01*
X108792510Y-64405805D01*
X108625686Y-64456411D01*
X108471941Y-64538589D01*
X108370953Y-64621468D01*
X108370951Y-64621470D01*
X108337183Y-64649183D01*
X108309470Y-64682951D01*
X98464952Y-74527470D01*
X98431184Y-74555183D01*
X98403471Y-74588951D01*
X98403468Y-74588954D01*
X98320590Y-74689941D01*
X98238412Y-74843687D01*
X98187805Y-75010510D01*
X98170719Y-75184000D01*
X98175001Y-75227479D01*
X98175000Y-112224531D01*
X98170719Y-112268000D01*
X98175000Y-112311468D01*
X98175000Y-112311476D01*
X98186212Y-112425314D01*
X98187805Y-112441490D01*
X98198518Y-112476805D01*
X98238411Y-112608312D01*
X98320589Y-112762058D01*
X98431183Y-112896817D01*
X98464956Y-112924534D01*
X100562470Y-115022049D01*
X100590183Y-115055817D01*
X100623951Y-115083530D01*
X100623953Y-115083532D01*
X100679821Y-115129382D01*
X100724941Y-115166411D01*
X100878687Y-115248589D01*
X101045510Y-115299195D01*
X101175523Y-115312000D01*
X101175533Y-115312000D01*
X101218999Y-115316281D01*
X101262466Y-115312000D01*
X111107161Y-115312000D01*
X111150630Y-115316281D01*
X111194099Y-115312000D01*
X111194107Y-115312000D01*
X111324120Y-115299195D01*
X111490943Y-115248589D01*
X111644689Y-115166411D01*
X111779447Y-115055817D01*
X111807164Y-115022044D01*
X114325049Y-112504160D01*
X114358817Y-112476447D01*
X114386533Y-112442676D01*
X114469410Y-112341690D01*
X114485564Y-112311468D01*
X114551589Y-112187943D01*
X114602195Y-112021120D01*
X114615000Y-111891107D01*
X114615000Y-111891097D01*
X114618403Y-111856544D01*
X114620535Y-111855120D01*
X114815120Y-111660535D01*
X114968005Y-111431727D01*
X115000000Y-111354485D01*
X115031995Y-111431727D01*
X115184880Y-111660535D01*
X115379465Y-111855120D01*
X115385001Y-111858819D01*
X115385001Y-112416521D01*
X115380719Y-112460000D01*
X115397805Y-112633490D01*
X115448412Y-112800313D01*
X115530590Y-112954059D01*
X115613468Y-113055046D01*
X115613471Y-113055049D01*
X115641184Y-113088817D01*
X115674951Y-113116529D01*
X118259421Y-115701000D01*
X99807579Y-115701000D01*
X95500000Y-111393422D01*
X95500000Y-110139454D01*
X95532205Y-110091256D01*
X95610226Y-109902898D01*
X95650000Y-109702939D01*
X95650000Y-109499061D01*
X95610226Y-109299102D01*
X95532205Y-109110744D01*
X95418937Y-108941226D01*
X95274774Y-108797063D01*
X95105256Y-108683795D01*
X94916898Y-108605774D01*
X94716939Y-108566000D01*
X94513061Y-108566000D01*
X94313102Y-108605774D01*
X94124744Y-108683795D01*
X93955226Y-108797063D01*
X93811063Y-108941226D01*
X93697795Y-109110744D01*
X93619774Y-109299102D01*
X93580000Y-109499061D01*
X80660000Y-109499061D01*
X80660000Y-98312408D01*
X88223000Y-98312408D01*
X88223000Y-98587592D01*
X88276686Y-98857490D01*
X88381995Y-99111727D01*
X88534880Y-99340535D01*
X88729465Y-99535120D01*
X88958273Y-99688005D01*
X89212510Y-99793314D01*
X89482408Y-99847000D01*
X89757592Y-99847000D01*
X90027490Y-99793314D01*
X90281727Y-99688005D01*
X90510535Y-99535120D01*
X90705120Y-99340535D01*
X90858005Y-99111727D01*
X90890000Y-99034485D01*
X90921995Y-99111727D01*
X91074880Y-99340535D01*
X91269465Y-99535120D01*
X91498273Y-99688005D01*
X91752510Y-99793314D01*
X92022408Y-99847000D01*
X92297592Y-99847000D01*
X92567490Y-99793314D01*
X92821727Y-99688005D01*
X93050535Y-99535120D01*
X93245120Y-99340535D01*
X93398005Y-99111727D01*
X93503314Y-98857490D01*
X93557000Y-98587592D01*
X93557000Y-98312408D01*
X93503314Y-98042510D01*
X93398005Y-97788273D01*
X93245120Y-97559465D01*
X93050535Y-97364880D01*
X92821727Y-97211995D01*
X92567490Y-97106686D01*
X92297592Y-97053000D01*
X92022408Y-97053000D01*
X91752510Y-97106686D01*
X91498273Y-97211995D01*
X91269465Y-97364880D01*
X91074880Y-97559465D01*
X90921995Y-97788273D01*
X90890000Y-97865515D01*
X90858005Y-97788273D01*
X90705120Y-97559465D01*
X90510535Y-97364880D01*
X90281727Y-97211995D01*
X90027490Y-97106686D01*
X89757592Y-97053000D01*
X89482408Y-97053000D01*
X89212510Y-97106686D01*
X88958273Y-97211995D01*
X88729465Y-97364880D01*
X88534880Y-97559465D01*
X88381995Y-97788273D01*
X88276686Y-98042510D01*
X88223000Y-98312408D01*
X80660000Y-98312408D01*
X80660000Y-72515565D01*
X90104040Y-72515565D01*
X90171020Y-72755656D01*
X90420048Y-72872756D01*
X90687135Y-72939023D01*
X90962017Y-72951910D01*
X91234133Y-72910922D01*
X91493023Y-72817636D01*
X91608980Y-72755656D01*
X91675960Y-72515565D01*
X90890000Y-71729605D01*
X90104040Y-72515565D01*
X80660000Y-72515565D01*
X80660000Y-71622017D01*
X89488090Y-71622017D01*
X89529078Y-71894133D01*
X89622364Y-72153023D01*
X89684344Y-72268980D01*
X89924435Y-72335960D01*
X90710395Y-71550000D01*
X91069605Y-71550000D01*
X91855565Y-72335960D01*
X92095656Y-72268980D01*
X92212756Y-72019952D01*
X92279023Y-71752865D01*
X92291910Y-71477983D01*
X92250922Y-71205867D01*
X92157636Y-70946977D01*
X92095656Y-70831020D01*
X91855565Y-70764040D01*
X91069605Y-71550000D01*
X90710395Y-71550000D01*
X89924435Y-70764040D01*
X89684344Y-70831020D01*
X89567244Y-71080048D01*
X89500977Y-71347135D01*
X89488090Y-71622017D01*
X80660000Y-71622017D01*
X80660000Y-70584435D01*
X90104040Y-70584435D01*
X90890000Y-71370395D01*
X91675960Y-70584435D01*
X91608980Y-70344344D01*
X91359952Y-70227244D01*
X91092865Y-70160977D01*
X90817983Y-70148090D01*
X90545867Y-70189078D01*
X90286977Y-70282364D01*
X90171020Y-70344344D01*
X90104040Y-70584435D01*
X80660000Y-70584435D01*
X80660000Y-66130256D01*
X84015559Y-66130256D01*
X84044231Y-66421367D01*
X84129145Y-66701290D01*
X84267038Y-66959270D01*
X84452610Y-67185390D01*
X84678730Y-67370962D01*
X84936710Y-67508855D01*
X85216633Y-67593769D01*
X85434794Y-67615256D01*
X85580694Y-67615256D01*
X85798855Y-67593769D01*
X86078778Y-67508855D01*
X86336758Y-67370962D01*
X86562878Y-67185390D01*
X86748450Y-66959270D01*
X86886343Y-66701290D01*
X86971257Y-66421367D01*
X86999929Y-66130256D01*
X86971257Y-65839145D01*
X86953218Y-65779679D01*
X87012684Y-65797718D01*
X87230845Y-65819205D01*
X87376745Y-65819205D01*
X87594906Y-65797718D01*
X87874829Y-65712804D01*
X88132809Y-65574911D01*
X88358929Y-65389339D01*
X88544501Y-65163219D01*
X88682394Y-64905239D01*
X88767308Y-64625316D01*
X88795980Y-64334205D01*
X88767308Y-64043094D01*
X88749269Y-63983628D01*
X88808735Y-64001667D01*
X89026896Y-64023154D01*
X89172796Y-64023154D01*
X89390957Y-64001667D01*
X89670880Y-63916753D01*
X89928860Y-63778860D01*
X90154980Y-63593288D01*
X90340552Y-63367168D01*
X90478445Y-63109188D01*
X90563359Y-62829265D01*
X90592031Y-62538154D01*
X90563359Y-62247043D01*
X90542117Y-62177017D01*
X90673992Y-62210433D01*
X90964713Y-62225511D01*
X91252790Y-62183582D01*
X91527151Y-62086258D01*
X91662816Y-62013739D01*
X91739586Y-61765395D01*
X90895898Y-60921707D01*
X90881756Y-60935850D01*
X90702151Y-60756245D01*
X90716293Y-60742102D01*
X89872605Y-59898414D01*
X89624261Y-59975184D01*
X89551742Y-60110849D01*
X89454418Y-60385210D01*
X89412489Y-60673287D01*
X89427567Y-60964008D01*
X89460983Y-61095883D01*
X89390957Y-61074641D01*
X89172796Y-61053154D01*
X89026896Y-61053154D01*
X88808735Y-61074641D01*
X88528812Y-61159555D01*
X88270832Y-61297448D01*
X88044712Y-61483020D01*
X87859140Y-61709140D01*
X87721247Y-61967120D01*
X87636333Y-62247043D01*
X87607661Y-62538154D01*
X87636333Y-62829265D01*
X87654372Y-62888731D01*
X87594906Y-62870692D01*
X87376745Y-62849205D01*
X87230845Y-62849205D01*
X87012684Y-62870692D01*
X86732761Y-62955606D01*
X86474781Y-63093499D01*
X86248661Y-63279071D01*
X86063089Y-63505191D01*
X85925196Y-63763171D01*
X85840282Y-64043094D01*
X85811610Y-64334205D01*
X85840282Y-64625316D01*
X85858321Y-64684782D01*
X85798855Y-64666743D01*
X85580694Y-64645256D01*
X85434794Y-64645256D01*
X85216633Y-64666743D01*
X84936710Y-64751657D01*
X84678730Y-64889550D01*
X84452610Y-65075122D01*
X84267038Y-65301242D01*
X84129145Y-65559222D01*
X84044231Y-65839145D01*
X84015559Y-66130256D01*
X80660000Y-66130256D01*
X80660000Y-59718809D01*
X90052210Y-59718809D01*
X90895898Y-60562497D01*
X90910041Y-60548355D01*
X91089646Y-60727960D01*
X91075503Y-60742102D01*
X91919191Y-61585790D01*
X92167535Y-61509020D01*
X92240054Y-61373355D01*
X92337378Y-61098994D01*
X92379307Y-60810917D01*
X92364229Y-60520196D01*
X92330813Y-60388322D01*
X92400838Y-60409564D01*
X92618999Y-60431051D01*
X92764899Y-60431051D01*
X92983060Y-60409564D01*
X93262983Y-60324650D01*
X93520963Y-60186757D01*
X93747083Y-60001185D01*
X93932655Y-59775065D01*
X94070548Y-59517085D01*
X94155462Y-59237162D01*
X94184134Y-58946051D01*
X94180353Y-58907660D01*
X94243820Y-58941584D01*
X94363518Y-58977894D01*
X94488000Y-58990154D01*
X94612482Y-58977894D01*
X94732180Y-58941584D01*
X94842494Y-58882619D01*
X94939185Y-58803267D01*
X96141267Y-57601185D01*
X96220619Y-57504494D01*
X96279584Y-57394180D01*
X96315894Y-57274482D01*
X96328154Y-57150000D01*
X96315894Y-57025518D01*
X96279584Y-56905820D01*
X96220619Y-56795506D01*
X96141267Y-56698815D01*
X95539342Y-56096890D01*
X102198524Y-56096890D01*
X102243175Y-56244099D01*
X102368359Y-56506920D01*
X102542412Y-56740269D01*
X102758645Y-56935178D01*
X103008748Y-57084157D01*
X103283109Y-57181481D01*
X103513000Y-57060814D01*
X103513000Y-55867000D01*
X102319845Y-55867000D01*
X102198524Y-56096890D01*
X95539342Y-56096890D01*
X94939185Y-55496733D01*
X94842494Y-55417381D01*
X94732180Y-55358416D01*
X94612482Y-55322106D01*
X94488000Y-55309846D01*
X94363518Y-55322106D01*
X94243820Y-55358416D01*
X94133506Y-55417381D01*
X94036815Y-55496733D01*
X92834733Y-56698815D01*
X92755381Y-56795506D01*
X92696416Y-56905820D01*
X92660106Y-57025518D01*
X92647846Y-57150000D01*
X92660106Y-57274482D01*
X92696416Y-57394180D01*
X92732160Y-57461051D01*
X92618999Y-57461051D01*
X92400838Y-57482538D01*
X92120915Y-57567452D01*
X91862935Y-57705345D01*
X91636815Y-57890917D01*
X91451243Y-58117037D01*
X91313350Y-58375017D01*
X91228436Y-58654940D01*
X91199764Y-58946051D01*
X91228436Y-59237162D01*
X91249678Y-59307187D01*
X91117804Y-59273771D01*
X90827083Y-59258693D01*
X90539006Y-59300622D01*
X90264645Y-59397946D01*
X90128980Y-59470465D01*
X90052210Y-59718809D01*
X80660000Y-59718809D01*
X80660000Y-55029392D01*
X80731173Y-54231917D01*
X80934656Y-53488109D01*
X81072077Y-53200000D01*
X102147815Y-53200000D01*
X102176487Y-53491111D01*
X102261401Y-53771034D01*
X102399294Y-54029014D01*
X102584866Y-54255134D01*
X102810986Y-54440706D01*
X102875523Y-54475201D01*
X102758645Y-54544822D01*
X102542412Y-54739731D01*
X102368359Y-54973080D01*
X102243175Y-55235901D01*
X102198524Y-55383110D01*
X102319845Y-55613000D01*
X103513000Y-55613000D01*
X103513000Y-55593000D01*
X103767000Y-55593000D01*
X103767000Y-55613000D01*
X103787000Y-55613000D01*
X103787000Y-55867000D01*
X103767000Y-55867000D01*
X103767000Y-57060814D01*
X103996891Y-57181481D01*
X104271252Y-57084157D01*
X104521355Y-56935178D01*
X104717502Y-56758374D01*
X104740498Y-56834180D01*
X104799463Y-56944494D01*
X104878815Y-57041185D01*
X104975506Y-57120537D01*
X105085820Y-57179502D01*
X105205518Y-57215812D01*
X105330000Y-57228072D01*
X107030000Y-57228072D01*
X107154482Y-57215812D01*
X107274180Y-57179502D01*
X107384494Y-57120537D01*
X107481185Y-57041185D01*
X107560537Y-56944494D01*
X107619502Y-56834180D01*
X107655812Y-56714482D01*
X107668072Y-56590000D01*
X107668072Y-55880000D01*
X114331815Y-55880000D01*
X114360487Y-56171111D01*
X114445401Y-56451034D01*
X114583294Y-56709014D01*
X114768866Y-56935134D01*
X114798687Y-56959607D01*
X114729820Y-56980498D01*
X114619506Y-57039463D01*
X114522815Y-57118815D01*
X114443463Y-57215506D01*
X114384498Y-57325820D01*
X114348188Y-57445518D01*
X114335928Y-57570000D01*
X114335928Y-59270000D01*
X114348188Y-59394482D01*
X114384498Y-59514180D01*
X114443463Y-59624494D01*
X114522815Y-59721185D01*
X114619506Y-59800537D01*
X114729820Y-59859502D01*
X114849518Y-59895812D01*
X114974000Y-59908072D01*
X116674000Y-59908072D01*
X116798482Y-59895812D01*
X116918180Y-59859502D01*
X117028494Y-59800537D01*
X117125185Y-59721185D01*
X117204537Y-59624494D01*
X117263502Y-59514180D01*
X117299812Y-59394482D01*
X117312072Y-59270000D01*
X117312072Y-57570000D01*
X117299812Y-57445518D01*
X117263502Y-57325820D01*
X117204537Y-57215506D01*
X117144075Y-57141833D01*
X117350400Y-57348158D01*
X117350401Y-62541888D01*
X117331463Y-62560826D01*
X117218195Y-62730344D01*
X117140174Y-62918702D01*
X117100400Y-63118661D01*
X117100400Y-63322539D01*
X117140174Y-63522498D01*
X117218195Y-63710856D01*
X117331463Y-63880374D01*
X117475626Y-64024537D01*
X117645144Y-64137805D01*
X117833502Y-64215826D01*
X118033461Y-64255600D01*
X118237339Y-64255600D01*
X118437298Y-64215826D01*
X118625656Y-64137805D01*
X118795174Y-64024537D01*
X118939337Y-63880374D01*
X119052605Y-63710856D01*
X119130626Y-63522498D01*
X119170400Y-63322539D01*
X119170400Y-63144061D01*
X122561400Y-63144061D01*
X122561400Y-63347939D01*
X122601174Y-63547898D01*
X122679195Y-63736256D01*
X122792463Y-63905774D01*
X122936626Y-64049937D01*
X123106144Y-64163205D01*
X123294502Y-64241226D01*
X123494461Y-64281000D01*
X123698339Y-64281000D01*
X123898298Y-64241226D01*
X124086656Y-64163205D01*
X124256174Y-64049937D01*
X124400337Y-63905774D01*
X124513605Y-63736256D01*
X124591626Y-63547898D01*
X124631400Y-63347939D01*
X124631400Y-63144061D01*
X124591626Y-62944102D01*
X124513605Y-62755744D01*
X124400337Y-62586226D01*
X124381400Y-62567289D01*
X124381400Y-59522181D01*
X124417498Y-59641180D01*
X124476463Y-59751494D01*
X124555815Y-59848185D01*
X124652506Y-59927537D01*
X124762820Y-59986502D01*
X124882518Y-60022812D01*
X125007000Y-60035072D01*
X126707000Y-60035072D01*
X126831482Y-60022812D01*
X126951180Y-59986502D01*
X127061494Y-59927537D01*
X127158185Y-59848185D01*
X127237537Y-59751494D01*
X127296502Y-59641180D01*
X127332812Y-59521482D01*
X127345072Y-59397000D01*
X127345072Y-57697000D01*
X127332812Y-57572518D01*
X127296502Y-57452820D01*
X127237537Y-57342506D01*
X127158185Y-57245815D01*
X127061494Y-57166463D01*
X126951180Y-57107498D01*
X126882313Y-57086607D01*
X126912134Y-57062134D01*
X127097706Y-56836014D01*
X127235599Y-56578034D01*
X127320513Y-56298111D01*
X127349185Y-56007000D01*
X127320513Y-55715889D01*
X127235599Y-55435966D01*
X127097706Y-55177986D01*
X126912134Y-54951866D01*
X126686014Y-54766294D01*
X126621477Y-54731799D01*
X126738355Y-54662178D01*
X126954588Y-54467269D01*
X127128641Y-54233920D01*
X127253825Y-53971099D01*
X127298476Y-53823890D01*
X127177155Y-53594000D01*
X125984000Y-53594000D01*
X125984000Y-53614000D01*
X125730000Y-53614000D01*
X125730000Y-53594000D01*
X124536845Y-53594000D01*
X124415524Y-53823890D01*
X124460175Y-53971099D01*
X124585359Y-54233920D01*
X124759412Y-54467269D01*
X124975645Y-54662178D01*
X125092523Y-54731799D01*
X125027986Y-54766294D01*
X124801866Y-54951866D01*
X124616294Y-55177986D01*
X124591457Y-55224453D01*
X124575945Y-55225980D01*
X124501032Y-55233358D01*
X124364597Y-55274746D01*
X124353059Y-55278246D01*
X124216686Y-55351138D01*
X124159054Y-55398436D01*
X124127106Y-55424655D01*
X124127103Y-55424658D01*
X124097155Y-55449236D01*
X124072576Y-55479185D01*
X123068590Y-56483172D01*
X123038636Y-56507755D01*
X122940538Y-56627287D01*
X122867646Y-56763660D01*
X122822759Y-56911633D01*
X122811400Y-57026959D01*
X122811400Y-57026966D01*
X122807603Y-57065519D01*
X122811400Y-57104072D01*
X122811401Y-62567288D01*
X122792463Y-62586226D01*
X122679195Y-62755744D01*
X122601174Y-62944102D01*
X122561400Y-63144061D01*
X119170400Y-63144061D01*
X119170400Y-63118661D01*
X119130626Y-62918702D01*
X119052605Y-62730344D01*
X118939337Y-62560826D01*
X118920400Y-62541889D01*
X118920400Y-57001558D01*
X118909041Y-56886232D01*
X118864154Y-56738259D01*
X118862822Y-56735768D01*
X118855873Y-56712859D01*
X118782980Y-56576486D01*
X118709464Y-56486906D01*
X117650947Y-55428390D01*
X117626364Y-55398436D01*
X117506833Y-55300338D01*
X117370460Y-55227446D01*
X117222487Y-55182559D01*
X117130173Y-55173467D01*
X117064706Y-55050986D01*
X116879134Y-54824866D01*
X116653014Y-54639294D01*
X116588477Y-54604799D01*
X116705355Y-54535178D01*
X116921588Y-54340269D01*
X117095641Y-54106920D01*
X117220825Y-53844099D01*
X117265476Y-53696890D01*
X117144155Y-53467000D01*
X115951000Y-53467000D01*
X115951000Y-53487000D01*
X115697000Y-53487000D01*
X115697000Y-53467000D01*
X114503845Y-53467000D01*
X114382524Y-53696890D01*
X114427175Y-53844099D01*
X114552359Y-54106920D01*
X114726412Y-54340269D01*
X114942645Y-54535178D01*
X115059523Y-54604799D01*
X114994986Y-54639294D01*
X114768866Y-54824866D01*
X114583294Y-55050986D01*
X114445401Y-55308966D01*
X114360487Y-55588889D01*
X114331815Y-55880000D01*
X107668072Y-55880000D01*
X107668072Y-54890000D01*
X107655812Y-54765518D01*
X107619502Y-54645820D01*
X107560537Y-54535506D01*
X107481185Y-54438815D01*
X107384494Y-54359463D01*
X107274180Y-54300498D01*
X107205313Y-54279607D01*
X107235134Y-54255134D01*
X107420706Y-54029014D01*
X107558599Y-53771034D01*
X107643513Y-53491111D01*
X107672185Y-53200000D01*
X107650824Y-52983110D01*
X114382524Y-52983110D01*
X114503845Y-53213000D01*
X115697000Y-53213000D01*
X115697000Y-52019186D01*
X115951000Y-52019186D01*
X115951000Y-53213000D01*
X117144155Y-53213000D01*
X117198453Y-53110110D01*
X124415524Y-53110110D01*
X124536845Y-53340000D01*
X125730000Y-53340000D01*
X125730000Y-52146186D01*
X125984000Y-52146186D01*
X125984000Y-53340000D01*
X127177155Y-53340000D01*
X127298476Y-53110110D01*
X127253825Y-52962901D01*
X127128641Y-52700080D01*
X126954588Y-52466731D01*
X126738355Y-52271822D01*
X126488252Y-52122843D01*
X126213891Y-52025519D01*
X125984000Y-52146186D01*
X125730000Y-52146186D01*
X125500109Y-52025519D01*
X125225748Y-52122843D01*
X124975645Y-52271822D01*
X124759412Y-52466731D01*
X124585359Y-52700080D01*
X124460175Y-52962901D01*
X124415524Y-53110110D01*
X117198453Y-53110110D01*
X117265476Y-52983110D01*
X117220825Y-52835901D01*
X117095641Y-52573080D01*
X116921588Y-52339731D01*
X116705355Y-52144822D01*
X116455252Y-51995843D01*
X116180891Y-51898519D01*
X115951000Y-52019186D01*
X115697000Y-52019186D01*
X115467109Y-51898519D01*
X115192748Y-51995843D01*
X114942645Y-52144822D01*
X114726412Y-52339731D01*
X114552359Y-52573080D01*
X114427175Y-52835901D01*
X114382524Y-52983110D01*
X107650824Y-52983110D01*
X107643513Y-52908889D01*
X107558599Y-52628966D01*
X107420706Y-52370986D01*
X107235134Y-52144866D01*
X107009014Y-51959294D01*
X106751034Y-51821401D01*
X106471111Y-51736487D01*
X106252950Y-51715000D01*
X106107050Y-51715000D01*
X105888889Y-51736487D01*
X105608966Y-51821401D01*
X105350986Y-51959294D01*
X105124866Y-52144866D01*
X104939294Y-52370986D01*
X104910000Y-52425791D01*
X104880706Y-52370986D01*
X104695134Y-52144866D01*
X104469014Y-51959294D01*
X104211034Y-51821401D01*
X103931111Y-51736487D01*
X103712950Y-51715000D01*
X103567050Y-51715000D01*
X103348889Y-51736487D01*
X103068966Y-51821401D01*
X102810986Y-51959294D01*
X102584866Y-52144866D01*
X102399294Y-52370986D01*
X102261401Y-52628966D01*
X102176487Y-52908889D01*
X102147815Y-53200000D01*
X81072077Y-53200000D01*
X81266638Y-52792095D01*
X81716626Y-52165870D01*
X82270403Y-51629223D01*
X82910451Y-51199129D01*
X83616553Y-50889171D01*
X84371457Y-50707935D01*
X85024207Y-50660000D01*
X144970608Y-50660000D01*
X145768083Y-50731173D01*
X145768083Y-50731173D01*
G37*
X145768083Y-50731173D02*
X146511891Y-50934656D01*
X147207905Y-51266638D01*
X147834130Y-51716626D01*
X148370777Y-52270403D01*
X148800871Y-52910451D01*
X149110829Y-53616553D01*
X149292065Y-54371457D01*
X149340000Y-55024207D01*
X149340001Y-114970597D01*
X149268827Y-115768083D01*
X149065344Y-116511890D01*
X148733363Y-117207904D01*
X148283374Y-117834130D01*
X147729597Y-118370777D01*
X147089549Y-118800871D01*
X146383447Y-119110829D01*
X145628543Y-119292065D01*
X144975793Y-119340000D01*
X85029392Y-119340000D01*
X84231917Y-119268827D01*
X83488110Y-119065344D01*
X82792096Y-118733363D01*
X82165870Y-118283374D01*
X81629223Y-117729597D01*
X81199129Y-117089549D01*
X80889171Y-116383447D01*
X80707935Y-115628543D01*
X80660000Y-114975793D01*
X80660000Y-109499061D01*
X93580000Y-109499061D01*
X93580000Y-109702939D01*
X93619774Y-109902898D01*
X93697795Y-110091256D01*
X93730000Y-110139455D01*
X93730001Y-111716521D01*
X93725719Y-111760000D01*
X93742805Y-111933490D01*
X93793412Y-112100313D01*
X93875590Y-112254059D01*
X93958468Y-112355046D01*
X93958471Y-112355049D01*
X93986184Y-112388817D01*
X94019952Y-112416530D01*
X98784470Y-117181049D01*
X98812183Y-117214817D01*
X98845951Y-117242530D01*
X98845953Y-117242532D01*
X98946941Y-117325411D01*
X99100686Y-117407589D01*
X99229814Y-117446760D01*
X99267510Y-117458195D01*
X99397523Y-117471000D01*
X99397531Y-117471000D01*
X99441000Y-117475281D01*
X99484469Y-117471000D01*
X133311754Y-117471000D01*
X133360461Y-117475219D01*
X133441824Y-117466238D01*
X133523490Y-117458195D01*
X133528521Y-117456669D01*
X133533738Y-117456093D01*
X133611830Y-117431397D01*
X133690313Y-117407589D01*
X133694949Y-117405111D01*
X133699955Y-117403528D01*
X133771729Y-117364072D01*
X133844059Y-117325411D01*
X133848123Y-117322076D01*
X133852723Y-117319547D01*
X133915414Y-117266851D01*
X133978817Y-117214817D01*
X134009848Y-117177006D01*
X139313550Y-111747028D01*
X139533045Y-111527533D01*
X139566817Y-111499817D01*
X139677411Y-111365059D01*
X139759589Y-111211313D01*
X139810195Y-111044490D01*
X139823000Y-110914477D01*
X139823000Y-110914467D01*
X139827281Y-110871001D01*
X139823000Y-110827535D01*
X139823000Y-104932454D01*
X139855205Y-104884256D01*
X139933226Y-104695898D01*
X139973000Y-104495939D01*
X139973000Y-104292061D01*
X139933226Y-104092102D01*
X139855205Y-103903744D01*
X139741937Y-103734226D01*
X139597774Y-103590063D01*
X139428256Y-103476795D01*
X139239898Y-103398774D01*
X139039939Y-103359000D01*
X138836061Y-103359000D01*
X138636102Y-103398774D01*
X138447744Y-103476795D01*
X138278226Y-103590063D01*
X138134063Y-103734226D01*
X138020795Y-103903744D01*
X137942774Y-104092102D01*
X137903000Y-104292061D01*
X137903000Y-104495939D01*
X137942774Y-104695898D01*
X138020795Y-104884256D01*
X138053001Y-104932456D01*
X138053000Y-110504422D01*
X138027468Y-110529954D01*
X138024160Y-110533985D01*
X132977307Y-115701000D01*
X130660578Y-115701000D01*
X131659050Y-114702529D01*
X131692817Y-114674817D01*
X131720950Y-114640538D01*
X131791971Y-114553999D01*
X131803411Y-114540059D01*
X131885589Y-114386313D01*
X131936195Y-114219490D01*
X131949000Y-114089477D01*
X131949000Y-114089467D01*
X131953281Y-114046001D01*
X131949000Y-114002535D01*
X131949000Y-105199469D01*
X131953281Y-105156000D01*
X131949000Y-105112531D01*
X131949000Y-105112523D01*
X131936195Y-104982510D01*
X131885589Y-104815687D01*
X131803411Y-104661941D01*
X131692817Y-104527183D01*
X131659049Y-104499470D01*
X131195579Y-104036000D01*
X133433289Y-104036000D01*
X133452226Y-104054937D01*
X133621744Y-104168205D01*
X133810102Y-104246226D01*
X134010061Y-104286000D01*
X134213939Y-104286000D01*
X134413898Y-104246226D01*
X134602256Y-104168205D01*
X134771774Y-104054937D01*
X134915937Y-103910774D01*
X135029205Y-103741256D01*
X135107226Y-103552898D01*
X135147000Y-103352939D01*
X135147000Y-103149061D01*
X135107226Y-102949102D01*
X135029205Y-102760744D01*
X134915937Y-102591226D01*
X134793262Y-102468551D01*
X134794898Y-102468226D01*
X134983256Y-102390205D01*
X135152774Y-102276937D01*
X135296937Y-102132774D01*
X135410205Y-101963256D01*
X135488226Y-101774898D01*
X135528000Y-101574939D01*
X135528000Y-101371061D01*
X135488226Y-101171102D01*
X135410205Y-100982744D01*
X135296937Y-100813226D01*
X135278000Y-100794289D01*
X135278000Y-93002552D01*
X135281797Y-92963999D01*
X135278000Y-92925446D01*
X135278000Y-92925439D01*
X135266641Y-92810113D01*
X135221754Y-92662140D01*
X135148862Y-92525767D01*
X135099450Y-92465559D01*
X135075345Y-92436187D01*
X135075342Y-92436184D01*
X135050764Y-92406236D01*
X135020816Y-92381658D01*
X130511500Y-87872343D01*
X130511500Y-87845561D01*
X130471726Y-87645602D01*
X130393705Y-87457244D01*
X130280437Y-87287726D01*
X130136274Y-87143563D01*
X129974612Y-87035545D01*
X131591810Y-85418347D01*
X131621764Y-85393764D01*
X131719862Y-85274233D01*
X131792754Y-85137860D01*
X131815428Y-85063114D01*
X131837642Y-84989887D01*
X131845020Y-84914974D01*
X131849000Y-84874561D01*
X131849000Y-84874556D01*
X131852797Y-84836000D01*
X131849000Y-84797444D01*
X131849000Y-76906157D01*
X132790157Y-75965000D01*
X132816939Y-75965000D01*
X133016898Y-75925226D01*
X133205256Y-75847205D01*
X133374774Y-75733937D01*
X133518937Y-75589774D01*
X133632205Y-75420256D01*
X133710226Y-75231898D01*
X133750000Y-75031939D01*
X133750000Y-74828061D01*
X133710226Y-74628102D01*
X133632205Y-74439744D01*
X133518937Y-74270226D01*
X133374774Y-74126063D01*
X133205256Y-74012795D01*
X133016898Y-73934774D01*
X132816939Y-73895000D01*
X132613061Y-73895000D01*
X132413102Y-73934774D01*
X132337668Y-73966020D01*
X132353000Y-73888939D01*
X132353000Y-73685061D01*
X132313226Y-73485102D01*
X132235205Y-73296744D01*
X132138490Y-73152000D01*
X132235205Y-73007256D01*
X132313226Y-72818898D01*
X132353000Y-72618939D01*
X132353000Y-72415061D01*
X132313226Y-72215102D01*
X132235205Y-72026744D01*
X132180920Y-71945500D01*
X132235205Y-71864256D01*
X132313226Y-71675898D01*
X132353000Y-71475939D01*
X132353000Y-71272061D01*
X132313226Y-71072102D01*
X132235205Y-70883744D01*
X132121937Y-70714226D01*
X131977774Y-70570063D01*
X131808256Y-70456795D01*
X131619898Y-70378774D01*
X131419939Y-70339000D01*
X131216061Y-70339000D01*
X131016102Y-70378774D01*
X130827744Y-70456795D01*
X130658226Y-70570063D01*
X130514063Y-70714226D01*
X130400795Y-70883744D01*
X130322774Y-71072102D01*
X130283000Y-71272061D01*
X130283000Y-71298843D01*
X128966564Y-72615279D01*
X128933205Y-72534744D01*
X128819937Y-72365226D01*
X128801000Y-72346289D01*
X128801000Y-70147711D01*
X128819937Y-70128774D01*
X128933205Y-69959256D01*
X129011226Y-69770898D01*
X129051000Y-69570939D01*
X129051000Y-69367061D01*
X129011226Y-69167102D01*
X128933205Y-68978744D01*
X128819937Y-68809226D01*
X128675774Y-68665063D01*
X128506256Y-68551795D01*
X128317898Y-68473774D01*
X128117939Y-68434000D01*
X127914061Y-68434000D01*
X127714102Y-68473774D01*
X127525744Y-68551795D01*
X127356226Y-68665063D01*
X127212063Y-68809226D01*
X127098795Y-68978744D01*
X127020774Y-69167102D01*
X126981000Y-69367061D01*
X126981000Y-69570939D01*
X127020774Y-69770898D01*
X127098795Y-69959256D01*
X127212063Y-70128774D01*
X127231000Y-70147711D01*
X127231001Y-72346288D01*
X127212063Y-72365226D01*
X127098795Y-72534744D01*
X127020774Y-72723102D01*
X126981000Y-72923061D01*
X126981000Y-73126939D01*
X127006035Y-73252797D01*
X127000000Y-73252203D01*
X126961444Y-73256000D01*
X126961439Y-73256000D01*
X126921026Y-73259980D01*
X126846113Y-73267358D01*
X126714758Y-73307205D01*
X126698140Y-73312246D01*
X126561767Y-73385138D01*
X126442236Y-73483236D01*
X126417655Y-73513188D01*
X124821193Y-75109650D01*
X124821187Y-75109655D01*
X122098843Y-77832000D01*
X122072061Y-77832000D01*
X121872102Y-77871774D01*
X121683744Y-77949795D01*
X121514226Y-78063063D01*
X121370063Y-78207226D01*
X121256795Y-78376744D01*
X121178774Y-78565102D01*
X121161932Y-78649774D01*
X119657000Y-77144843D01*
X119657000Y-67734711D01*
X119675937Y-67715774D01*
X119789205Y-67546256D01*
X119867226Y-67357898D01*
X119907000Y-67157939D01*
X119907000Y-66954061D01*
X119900921Y-66923500D01*
X120527000Y-67549579D01*
X120527001Y-69184545D01*
X120494795Y-69232744D01*
X120416774Y-69421102D01*
X120377000Y-69621061D01*
X120377000Y-69824939D01*
X120416774Y-70024898D01*
X120494795Y-70213256D01*
X120608063Y-70382774D01*
X120752226Y-70526937D01*
X120921744Y-70640205D01*
X121110102Y-70718226D01*
X121310061Y-70758000D01*
X121513939Y-70758000D01*
X121713898Y-70718226D01*
X121902256Y-70640205D01*
X122071774Y-70526937D01*
X122215937Y-70382774D01*
X122329205Y-70213256D01*
X122407226Y-70024898D01*
X122447000Y-69824939D01*
X122447000Y-69621061D01*
X122407226Y-69421102D01*
X122329205Y-69232744D01*
X122297000Y-69184546D01*
X122297000Y-67226469D01*
X122301281Y-67183000D01*
X122297000Y-67139531D01*
X122297000Y-67139523D01*
X122284195Y-67009510D01*
X122233589Y-66842687D01*
X122151411Y-66688941D01*
X122068532Y-66587953D01*
X122068530Y-66587951D01*
X122040817Y-66554183D01*
X122007050Y-66526471D01*
X120163534Y-64682956D01*
X120135817Y-64649183D01*
X120001059Y-64538589D01*
X119847313Y-64456411D01*
X119680490Y-64405805D01*
X119550477Y-64393000D01*
X119550469Y-64393000D01*
X119507000Y-64388719D01*
X119463531Y-64393000D01*
X109009469Y-64393000D01*
X108966000Y-64388719D01*
X108922531Y-64393000D01*
X108922523Y-64393000D01*
X108792510Y-64405805D01*
X108625686Y-64456411D01*
X108471941Y-64538589D01*
X108370953Y-64621468D01*
X108370951Y-64621470D01*
X108337183Y-64649183D01*
X108309470Y-64682951D01*
X98464952Y-74527470D01*
X98431184Y-74555183D01*
X98403471Y-74588951D01*
X98403468Y-74588954D01*
X98320590Y-74689941D01*
X98238412Y-74843687D01*
X98187805Y-75010510D01*
X98170719Y-75184000D01*
X98175001Y-75227479D01*
X98175000Y-112224531D01*
X98170719Y-112268000D01*
X98175000Y-112311468D01*
X98175000Y-112311476D01*
X98186212Y-112425314D01*
X98187805Y-112441490D01*
X98198518Y-112476805D01*
X98238411Y-112608312D01*
X98320589Y-112762058D01*
X98431183Y-112896817D01*
X98464956Y-112924534D01*
X100562470Y-115022049D01*
X100590183Y-115055817D01*
X100623951Y-115083530D01*
X100623953Y-115083532D01*
X100679821Y-115129382D01*
X100724941Y-115166411D01*
X100878687Y-115248589D01*
X101045510Y-115299195D01*
X101175523Y-115312000D01*
X101175533Y-115312000D01*
X101218999Y-115316281D01*
X101262466Y-115312000D01*
X111107161Y-115312000D01*
X111150630Y-115316281D01*
X111194099Y-115312000D01*
X111194107Y-115312000D01*
X111324120Y-115299195D01*
X111490943Y-115248589D01*
X111644689Y-115166411D01*
X111779447Y-115055817D01*
X111807164Y-115022044D01*
X114325049Y-112504160D01*
X114358817Y-112476447D01*
X114386533Y-112442676D01*
X114469410Y-112341690D01*
X114485564Y-112311468D01*
X114551589Y-112187943D01*
X114602195Y-112021120D01*
X114615000Y-111891107D01*
X114615000Y-111891097D01*
X114618403Y-111856544D01*
X114620535Y-111855120D01*
X114815120Y-111660535D01*
X114968005Y-111431727D01*
X115000000Y-111354485D01*
X115031995Y-111431727D01*
X115184880Y-111660535D01*
X115379465Y-111855120D01*
X115385001Y-111858819D01*
X115385001Y-112416521D01*
X115380719Y-112460000D01*
X115397805Y-112633490D01*
X115448412Y-112800313D01*
X115530590Y-112954059D01*
X115613468Y-113055046D01*
X115613471Y-113055049D01*
X115641184Y-113088817D01*
X115674951Y-113116529D01*
X118259421Y-115701000D01*
X99807579Y-115701000D01*
X95500000Y-111393422D01*
X95500000Y-110139454D01*
X95532205Y-110091256D01*
X95610226Y-109902898D01*
X95650000Y-109702939D01*
X95650000Y-109499061D01*
X95610226Y-109299102D01*
X95532205Y-109110744D01*
X95418937Y-108941226D01*
X95274774Y-108797063D01*
X95105256Y-108683795D01*
X94916898Y-108605774D01*
X94716939Y-108566000D01*
X94513061Y-108566000D01*
X94313102Y-108605774D01*
X94124744Y-108683795D01*
X93955226Y-108797063D01*
X93811063Y-108941226D01*
X93697795Y-109110744D01*
X93619774Y-109299102D01*
X93580000Y-109499061D01*
X80660000Y-109499061D01*
X80660000Y-98312408D01*
X88223000Y-98312408D01*
X88223000Y-98587592D01*
X88276686Y-98857490D01*
X88381995Y-99111727D01*
X88534880Y-99340535D01*
X88729465Y-99535120D01*
X88958273Y-99688005D01*
X89212510Y-99793314D01*
X89482408Y-99847000D01*
X89757592Y-99847000D01*
X90027490Y-99793314D01*
X90281727Y-99688005D01*
X90510535Y-99535120D01*
X90705120Y-99340535D01*
X90858005Y-99111727D01*
X90890000Y-99034485D01*
X90921995Y-99111727D01*
X91074880Y-99340535D01*
X91269465Y-99535120D01*
X91498273Y-99688005D01*
X91752510Y-99793314D01*
X92022408Y-99847000D01*
X92297592Y-99847000D01*
X92567490Y-99793314D01*
X92821727Y-99688005D01*
X93050535Y-99535120D01*
X93245120Y-99340535D01*
X93398005Y-99111727D01*
X93503314Y-98857490D01*
X93557000Y-98587592D01*
X93557000Y-98312408D01*
X93503314Y-98042510D01*
X93398005Y-97788273D01*
X93245120Y-97559465D01*
X93050535Y-97364880D01*
X92821727Y-97211995D01*
X92567490Y-97106686D01*
X92297592Y-97053000D01*
X92022408Y-97053000D01*
X91752510Y-97106686D01*
X91498273Y-97211995D01*
X91269465Y-97364880D01*
X91074880Y-97559465D01*
X90921995Y-97788273D01*
X90890000Y-97865515D01*
X90858005Y-97788273D01*
X90705120Y-97559465D01*
X90510535Y-97364880D01*
X90281727Y-97211995D01*
X90027490Y-97106686D01*
X89757592Y-97053000D01*
X89482408Y-97053000D01*
X89212510Y-97106686D01*
X88958273Y-97211995D01*
X88729465Y-97364880D01*
X88534880Y-97559465D01*
X88381995Y-97788273D01*
X88276686Y-98042510D01*
X88223000Y-98312408D01*
X80660000Y-98312408D01*
X80660000Y-72515565D01*
X90104040Y-72515565D01*
X90171020Y-72755656D01*
X90420048Y-72872756D01*
X90687135Y-72939023D01*
X90962017Y-72951910D01*
X91234133Y-72910922D01*
X91493023Y-72817636D01*
X91608980Y-72755656D01*
X91675960Y-72515565D01*
X90890000Y-71729605D01*
X90104040Y-72515565D01*
X80660000Y-72515565D01*
X80660000Y-71622017D01*
X89488090Y-71622017D01*
X89529078Y-71894133D01*
X89622364Y-72153023D01*
X89684344Y-72268980D01*
X89924435Y-72335960D01*
X90710395Y-71550000D01*
X91069605Y-71550000D01*
X91855565Y-72335960D01*
X92095656Y-72268980D01*
X92212756Y-72019952D01*
X92279023Y-71752865D01*
X92291910Y-71477983D01*
X92250922Y-71205867D01*
X92157636Y-70946977D01*
X92095656Y-70831020D01*
X91855565Y-70764040D01*
X91069605Y-71550000D01*
X90710395Y-71550000D01*
X89924435Y-70764040D01*
X89684344Y-70831020D01*
X89567244Y-71080048D01*
X89500977Y-71347135D01*
X89488090Y-71622017D01*
X80660000Y-71622017D01*
X80660000Y-70584435D01*
X90104040Y-70584435D01*
X90890000Y-71370395D01*
X91675960Y-70584435D01*
X91608980Y-70344344D01*
X91359952Y-70227244D01*
X91092865Y-70160977D01*
X90817983Y-70148090D01*
X90545867Y-70189078D01*
X90286977Y-70282364D01*
X90171020Y-70344344D01*
X90104040Y-70584435D01*
X80660000Y-70584435D01*
X80660000Y-66130256D01*
X84015559Y-66130256D01*
X84044231Y-66421367D01*
X84129145Y-66701290D01*
X84267038Y-66959270D01*
X84452610Y-67185390D01*
X84678730Y-67370962D01*
X84936710Y-67508855D01*
X85216633Y-67593769D01*
X85434794Y-67615256D01*
X85580694Y-67615256D01*
X85798855Y-67593769D01*
X86078778Y-67508855D01*
X86336758Y-67370962D01*
X86562878Y-67185390D01*
X86748450Y-66959270D01*
X86886343Y-66701290D01*
X86971257Y-66421367D01*
X86999929Y-66130256D01*
X86971257Y-65839145D01*
X86953218Y-65779679D01*
X87012684Y-65797718D01*
X87230845Y-65819205D01*
X87376745Y-65819205D01*
X87594906Y-65797718D01*
X87874829Y-65712804D01*
X88132809Y-65574911D01*
X88358929Y-65389339D01*
X88544501Y-65163219D01*
X88682394Y-64905239D01*
X88767308Y-64625316D01*
X88795980Y-64334205D01*
X88767308Y-64043094D01*
X88749269Y-63983628D01*
X88808735Y-64001667D01*
X89026896Y-64023154D01*
X89172796Y-64023154D01*
X89390957Y-64001667D01*
X89670880Y-63916753D01*
X89928860Y-63778860D01*
X90154980Y-63593288D01*
X90340552Y-63367168D01*
X90478445Y-63109188D01*
X90563359Y-62829265D01*
X90592031Y-62538154D01*
X90563359Y-62247043D01*
X90542117Y-62177017D01*
X90673992Y-62210433D01*
X90964713Y-62225511D01*
X91252790Y-62183582D01*
X91527151Y-62086258D01*
X91662816Y-62013739D01*
X91739586Y-61765395D01*
X90895898Y-60921707D01*
X90881756Y-60935850D01*
X90702151Y-60756245D01*
X90716293Y-60742102D01*
X89872605Y-59898414D01*
X89624261Y-59975184D01*
X89551742Y-60110849D01*
X89454418Y-60385210D01*
X89412489Y-60673287D01*
X89427567Y-60964008D01*
X89460983Y-61095883D01*
X89390957Y-61074641D01*
X89172796Y-61053154D01*
X89026896Y-61053154D01*
X88808735Y-61074641D01*
X88528812Y-61159555D01*
X88270832Y-61297448D01*
X88044712Y-61483020D01*
X87859140Y-61709140D01*
X87721247Y-61967120D01*
X87636333Y-62247043D01*
X87607661Y-62538154D01*
X87636333Y-62829265D01*
X87654372Y-62888731D01*
X87594906Y-62870692D01*
X87376745Y-62849205D01*
X87230845Y-62849205D01*
X87012684Y-62870692D01*
X86732761Y-62955606D01*
X86474781Y-63093499D01*
X86248661Y-63279071D01*
X86063089Y-63505191D01*
X85925196Y-63763171D01*
X85840282Y-64043094D01*
X85811610Y-64334205D01*
X85840282Y-64625316D01*
X85858321Y-64684782D01*
X85798855Y-64666743D01*
X85580694Y-64645256D01*
X85434794Y-64645256D01*
X85216633Y-64666743D01*
X84936710Y-64751657D01*
X84678730Y-64889550D01*
X84452610Y-65075122D01*
X84267038Y-65301242D01*
X84129145Y-65559222D01*
X84044231Y-65839145D01*
X84015559Y-66130256D01*
X80660000Y-66130256D01*
X80660000Y-59718809D01*
X90052210Y-59718809D01*
X90895898Y-60562497D01*
X90910041Y-60548355D01*
X91089646Y-60727960D01*
X91075503Y-60742102D01*
X91919191Y-61585790D01*
X92167535Y-61509020D01*
X92240054Y-61373355D01*
X92337378Y-61098994D01*
X92379307Y-60810917D01*
X92364229Y-60520196D01*
X92330813Y-60388322D01*
X92400838Y-60409564D01*
X92618999Y-60431051D01*
X92764899Y-60431051D01*
X92983060Y-60409564D01*
X93262983Y-60324650D01*
X93520963Y-60186757D01*
X93747083Y-60001185D01*
X93932655Y-59775065D01*
X94070548Y-59517085D01*
X94155462Y-59237162D01*
X94184134Y-58946051D01*
X94180353Y-58907660D01*
X94243820Y-58941584D01*
X94363518Y-58977894D01*
X94488000Y-58990154D01*
X94612482Y-58977894D01*
X94732180Y-58941584D01*
X94842494Y-58882619D01*
X94939185Y-58803267D01*
X96141267Y-57601185D01*
X96220619Y-57504494D01*
X96279584Y-57394180D01*
X96315894Y-57274482D01*
X96328154Y-57150000D01*
X96315894Y-57025518D01*
X96279584Y-56905820D01*
X96220619Y-56795506D01*
X96141267Y-56698815D01*
X95539342Y-56096890D01*
X102198524Y-56096890D01*
X102243175Y-56244099D01*
X102368359Y-56506920D01*
X102542412Y-56740269D01*
X102758645Y-56935178D01*
X103008748Y-57084157D01*
X103283109Y-57181481D01*
X103513000Y-57060814D01*
X103513000Y-55867000D01*
X102319845Y-55867000D01*
X102198524Y-56096890D01*
X95539342Y-56096890D01*
X94939185Y-55496733D01*
X94842494Y-55417381D01*
X94732180Y-55358416D01*
X94612482Y-55322106D01*
X94488000Y-55309846D01*
X94363518Y-55322106D01*
X94243820Y-55358416D01*
X94133506Y-55417381D01*
X94036815Y-55496733D01*
X92834733Y-56698815D01*
X92755381Y-56795506D01*
X92696416Y-56905820D01*
X92660106Y-57025518D01*
X92647846Y-57150000D01*
X92660106Y-57274482D01*
X92696416Y-57394180D01*
X92732160Y-57461051D01*
X92618999Y-57461051D01*
X92400838Y-57482538D01*
X92120915Y-57567452D01*
X91862935Y-57705345D01*
X91636815Y-57890917D01*
X91451243Y-58117037D01*
X91313350Y-58375017D01*
X91228436Y-58654940D01*
X91199764Y-58946051D01*
X91228436Y-59237162D01*
X91249678Y-59307187D01*
X91117804Y-59273771D01*
X90827083Y-59258693D01*
X90539006Y-59300622D01*
X90264645Y-59397946D01*
X90128980Y-59470465D01*
X90052210Y-59718809D01*
X80660000Y-59718809D01*
X80660000Y-55029392D01*
X80731173Y-54231917D01*
X80934656Y-53488109D01*
X81072077Y-53200000D01*
X102147815Y-53200000D01*
X102176487Y-53491111D01*
X102261401Y-53771034D01*
X102399294Y-54029014D01*
X102584866Y-54255134D01*
X102810986Y-54440706D01*
X102875523Y-54475201D01*
X102758645Y-54544822D01*
X102542412Y-54739731D01*
X102368359Y-54973080D01*
X102243175Y-55235901D01*
X102198524Y-55383110D01*
X102319845Y-55613000D01*
X103513000Y-55613000D01*
X103513000Y-55593000D01*
X103767000Y-55593000D01*
X103767000Y-55613000D01*
X103787000Y-55613000D01*
X103787000Y-55867000D01*
X103767000Y-55867000D01*
X103767000Y-57060814D01*
X103996891Y-57181481D01*
X104271252Y-57084157D01*
X104521355Y-56935178D01*
X104717502Y-56758374D01*
X104740498Y-56834180D01*
X104799463Y-56944494D01*
X104878815Y-57041185D01*
X104975506Y-57120537D01*
X105085820Y-57179502D01*
X105205518Y-57215812D01*
X105330000Y-57228072D01*
X107030000Y-57228072D01*
X107154482Y-57215812D01*
X107274180Y-57179502D01*
X107384494Y-57120537D01*
X107481185Y-57041185D01*
X107560537Y-56944494D01*
X107619502Y-56834180D01*
X107655812Y-56714482D01*
X107668072Y-56590000D01*
X107668072Y-55880000D01*
X114331815Y-55880000D01*
X114360487Y-56171111D01*
X114445401Y-56451034D01*
X114583294Y-56709014D01*
X114768866Y-56935134D01*
X114798687Y-56959607D01*
X114729820Y-56980498D01*
X114619506Y-57039463D01*
X114522815Y-57118815D01*
X114443463Y-57215506D01*
X114384498Y-57325820D01*
X114348188Y-57445518D01*
X114335928Y-57570000D01*
X114335928Y-59270000D01*
X114348188Y-59394482D01*
X114384498Y-59514180D01*
X114443463Y-59624494D01*
X114522815Y-59721185D01*
X114619506Y-59800537D01*
X114729820Y-59859502D01*
X114849518Y-59895812D01*
X114974000Y-59908072D01*
X116674000Y-59908072D01*
X116798482Y-59895812D01*
X116918180Y-59859502D01*
X117028494Y-59800537D01*
X117125185Y-59721185D01*
X117204537Y-59624494D01*
X117263502Y-59514180D01*
X117299812Y-59394482D01*
X117312072Y-59270000D01*
X117312072Y-57570000D01*
X117299812Y-57445518D01*
X117263502Y-57325820D01*
X117204537Y-57215506D01*
X117144075Y-57141833D01*
X117350400Y-57348158D01*
X117350401Y-62541888D01*
X117331463Y-62560826D01*
X117218195Y-62730344D01*
X117140174Y-62918702D01*
X117100400Y-63118661D01*
X117100400Y-63322539D01*
X117140174Y-63522498D01*
X117218195Y-63710856D01*
X117331463Y-63880374D01*
X117475626Y-64024537D01*
X117645144Y-64137805D01*
X117833502Y-64215826D01*
X118033461Y-64255600D01*
X118237339Y-64255600D01*
X118437298Y-64215826D01*
X118625656Y-64137805D01*
X118795174Y-64024537D01*
X118939337Y-63880374D01*
X119052605Y-63710856D01*
X119130626Y-63522498D01*
X119170400Y-63322539D01*
X119170400Y-63144061D01*
X122561400Y-63144061D01*
X122561400Y-63347939D01*
X122601174Y-63547898D01*
X122679195Y-63736256D01*
X122792463Y-63905774D01*
X122936626Y-64049937D01*
X123106144Y-64163205D01*
X123294502Y-64241226D01*
X123494461Y-64281000D01*
X123698339Y-64281000D01*
X123898298Y-64241226D01*
X124086656Y-64163205D01*
X124256174Y-64049937D01*
X124400337Y-63905774D01*
X124513605Y-63736256D01*
X124591626Y-63547898D01*
X124631400Y-63347939D01*
X124631400Y-63144061D01*
X124591626Y-62944102D01*
X124513605Y-62755744D01*
X124400337Y-62586226D01*
X124381400Y-62567289D01*
X124381400Y-59522181D01*
X124417498Y-59641180D01*
X124476463Y-59751494D01*
X124555815Y-59848185D01*
X124652506Y-59927537D01*
X124762820Y-59986502D01*
X124882518Y-60022812D01*
X125007000Y-60035072D01*
X126707000Y-60035072D01*
X126831482Y-60022812D01*
X126951180Y-59986502D01*
X127061494Y-59927537D01*
X127158185Y-59848185D01*
X127237537Y-59751494D01*
X127296502Y-59641180D01*
X127332812Y-59521482D01*
X127345072Y-59397000D01*
X127345072Y-57697000D01*
X127332812Y-57572518D01*
X127296502Y-57452820D01*
X127237537Y-57342506D01*
X127158185Y-57245815D01*
X127061494Y-57166463D01*
X126951180Y-57107498D01*
X126882313Y-57086607D01*
X126912134Y-57062134D01*
X127097706Y-56836014D01*
X127235599Y-56578034D01*
X127320513Y-56298111D01*
X127349185Y-56007000D01*
X127320513Y-55715889D01*
X127235599Y-55435966D01*
X127097706Y-55177986D01*
X126912134Y-54951866D01*
X126686014Y-54766294D01*
X126621477Y-54731799D01*
X126738355Y-54662178D01*
X126954588Y-54467269D01*
X127128641Y-54233920D01*
X127253825Y-53971099D01*
X127298476Y-53823890D01*
X127177155Y-53594000D01*
X125984000Y-53594000D01*
X125984000Y-53614000D01*
X125730000Y-53614000D01*
X125730000Y-53594000D01*
X124536845Y-53594000D01*
X124415524Y-53823890D01*
X124460175Y-53971099D01*
X124585359Y-54233920D01*
X124759412Y-54467269D01*
X124975645Y-54662178D01*
X125092523Y-54731799D01*
X125027986Y-54766294D01*
X124801866Y-54951866D01*
X124616294Y-55177986D01*
X124591457Y-55224453D01*
X124575945Y-55225980D01*
X124501032Y-55233358D01*
X124364597Y-55274746D01*
X124353059Y-55278246D01*
X124216686Y-55351138D01*
X124159054Y-55398436D01*
X124127106Y-55424655D01*
X124127103Y-55424658D01*
X124097155Y-55449236D01*
X124072576Y-55479185D01*
X123068590Y-56483172D01*
X123038636Y-56507755D01*
X122940538Y-56627287D01*
X122867646Y-56763660D01*
X122822759Y-56911633D01*
X122811400Y-57026959D01*
X122811400Y-57026966D01*
X122807603Y-57065519D01*
X122811400Y-57104072D01*
X122811401Y-62567288D01*
X122792463Y-62586226D01*
X122679195Y-62755744D01*
X122601174Y-62944102D01*
X122561400Y-63144061D01*
X119170400Y-63144061D01*
X119170400Y-63118661D01*
X119130626Y-62918702D01*
X119052605Y-62730344D01*
X118939337Y-62560826D01*
X118920400Y-62541889D01*
X118920400Y-57001558D01*
X118909041Y-56886232D01*
X118864154Y-56738259D01*
X118862822Y-56735768D01*
X118855873Y-56712859D01*
X118782980Y-56576486D01*
X118709464Y-56486906D01*
X117650947Y-55428390D01*
X117626364Y-55398436D01*
X117506833Y-55300338D01*
X117370460Y-55227446D01*
X117222487Y-55182559D01*
X117130173Y-55173467D01*
X117064706Y-55050986D01*
X116879134Y-54824866D01*
X116653014Y-54639294D01*
X116588477Y-54604799D01*
X116705355Y-54535178D01*
X116921588Y-54340269D01*
X117095641Y-54106920D01*
X117220825Y-53844099D01*
X117265476Y-53696890D01*
X117144155Y-53467000D01*
X115951000Y-53467000D01*
X115951000Y-53487000D01*
X115697000Y-53487000D01*
X115697000Y-53467000D01*
X114503845Y-53467000D01*
X114382524Y-53696890D01*
X114427175Y-53844099D01*
X114552359Y-54106920D01*
X114726412Y-54340269D01*
X114942645Y-54535178D01*
X115059523Y-54604799D01*
X114994986Y-54639294D01*
X114768866Y-54824866D01*
X114583294Y-55050986D01*
X114445401Y-55308966D01*
X114360487Y-55588889D01*
X114331815Y-55880000D01*
X107668072Y-55880000D01*
X107668072Y-54890000D01*
X107655812Y-54765518D01*
X107619502Y-54645820D01*
X107560537Y-54535506D01*
X107481185Y-54438815D01*
X107384494Y-54359463D01*
X107274180Y-54300498D01*
X107205313Y-54279607D01*
X107235134Y-54255134D01*
X107420706Y-54029014D01*
X107558599Y-53771034D01*
X107643513Y-53491111D01*
X107672185Y-53200000D01*
X107650824Y-52983110D01*
X114382524Y-52983110D01*
X114503845Y-53213000D01*
X115697000Y-53213000D01*
X115697000Y-52019186D01*
X115951000Y-52019186D01*
X115951000Y-53213000D01*
X117144155Y-53213000D01*
X117198453Y-53110110D01*
X124415524Y-53110110D01*
X124536845Y-53340000D01*
X125730000Y-53340000D01*
X125730000Y-52146186D01*
X125984000Y-52146186D01*
X125984000Y-53340000D01*
X127177155Y-53340000D01*
X127298476Y-53110110D01*
X127253825Y-52962901D01*
X127128641Y-52700080D01*
X126954588Y-52466731D01*
X126738355Y-52271822D01*
X126488252Y-52122843D01*
X126213891Y-52025519D01*
X125984000Y-52146186D01*
X125730000Y-52146186D01*
X125500109Y-52025519D01*
X125225748Y-52122843D01*
X124975645Y-52271822D01*
X124759412Y-52466731D01*
X124585359Y-52700080D01*
X124460175Y-52962901D01*
X124415524Y-53110110D01*
X117198453Y-53110110D01*
X117265476Y-52983110D01*
X117220825Y-52835901D01*
X117095641Y-52573080D01*
X116921588Y-52339731D01*
X116705355Y-52144822D01*
X116455252Y-51995843D01*
X116180891Y-51898519D01*
X115951000Y-52019186D01*
X115697000Y-52019186D01*
X115467109Y-51898519D01*
X115192748Y-51995843D01*
X114942645Y-52144822D01*
X114726412Y-52339731D01*
X114552359Y-52573080D01*
X114427175Y-52835901D01*
X114382524Y-52983110D01*
X107650824Y-52983110D01*
X107643513Y-52908889D01*
X107558599Y-52628966D01*
X107420706Y-52370986D01*
X107235134Y-52144866D01*
X107009014Y-51959294D01*
X106751034Y-51821401D01*
X106471111Y-51736487D01*
X106252950Y-51715000D01*
X106107050Y-51715000D01*
X105888889Y-51736487D01*
X105608966Y-51821401D01*
X105350986Y-51959294D01*
X105124866Y-52144866D01*
X104939294Y-52370986D01*
X104910000Y-52425791D01*
X104880706Y-52370986D01*
X104695134Y-52144866D01*
X104469014Y-51959294D01*
X104211034Y-51821401D01*
X103931111Y-51736487D01*
X103712950Y-51715000D01*
X103567050Y-51715000D01*
X103348889Y-51736487D01*
X103068966Y-51821401D01*
X102810986Y-51959294D01*
X102584866Y-52144866D01*
X102399294Y-52370986D01*
X102261401Y-52628966D01*
X102176487Y-52908889D01*
X102147815Y-53200000D01*
X81072077Y-53200000D01*
X81266638Y-52792095D01*
X81716626Y-52165870D01*
X82270403Y-51629223D01*
X82910451Y-51199129D01*
X83616553Y-50889171D01*
X84371457Y-50707935D01*
X85024207Y-50660000D01*
X144970608Y-50660000D01*
X145768083Y-50731173D01*
G36*
X118212226Y-66252063D02*
G01*
X118068063Y-66396226D01*
X117954795Y-66565744D01*
X117876774Y-66754102D01*
X117837000Y-66954061D01*
X117837000Y-67157939D01*
X117876774Y-67357898D01*
X117954795Y-67546256D01*
X118068063Y-67715774D01*
X118087001Y-67734712D01*
X118087000Y-77431447D01*
X118083203Y-77470000D01*
X118087000Y-77508553D01*
X118087000Y-77508560D01*
X118098359Y-77623886D01*
X118143246Y-77771859D01*
X118216138Y-77908232D01*
X118314236Y-78027764D01*
X118344190Y-78052347D01*
X122659000Y-82367158D01*
X122659001Y-86398626D01*
X122617732Y-86439895D01*
X122504464Y-86609413D01*
X122426443Y-86797771D01*
X122424000Y-86810053D01*
X122424000Y-83225874D01*
X122428266Y-83179799D01*
X122419496Y-83095790D01*
X122411195Y-83011510D01*
X122410436Y-83009008D01*
X122410165Y-83006412D01*
X122385167Y-82925707D01*
X122360589Y-82844687D01*
X122359356Y-82842380D01*
X122358584Y-82839888D01*
X122318305Y-82765577D01*
X122278411Y-82690941D01*
X122276754Y-82688922D01*
X122275509Y-82686625D01*
X122221447Y-82621531D01*
X122167817Y-82556183D01*
X122132045Y-82526826D01*
X111622434Y-72139420D01*
X111612226Y-72088102D01*
X111534205Y-71899744D01*
X111420937Y-71730226D01*
X111276774Y-71586063D01*
X111107256Y-71472795D01*
X110918898Y-71394774D01*
X110718939Y-71355000D01*
X110515061Y-71355000D01*
X110315102Y-71394774D01*
X110126744Y-71472795D01*
X109957226Y-71586063D01*
X109855000Y-71688289D01*
X109752774Y-71586063D01*
X109583256Y-71472795D01*
X109394898Y-71394774D01*
X109194939Y-71355000D01*
X108991061Y-71355000D01*
X108791102Y-71394774D01*
X108602744Y-71472795D01*
X108433226Y-71586063D01*
X108289063Y-71730226D01*
X108175795Y-71899744D01*
X108097774Y-72088102D01*
X108058000Y-72288061D01*
X108058000Y-72491939D01*
X108097774Y-72691898D01*
X108175795Y-72880256D01*
X108289063Y-73049774D01*
X108433226Y-73193937D01*
X108602744Y-73307205D01*
X108791102Y-73385226D01*
X108847957Y-73396535D01*
X113923000Y-78471579D01*
X113923000Y-81097182D01*
X113774256Y-80997795D01*
X113585898Y-80919774D01*
X113385939Y-80880000D01*
X113182061Y-80880000D01*
X112982102Y-80919774D01*
X112793744Y-80997795D01*
X112624226Y-81111063D01*
X112480063Y-81255226D01*
X112366795Y-81424744D01*
X112288774Y-81613102D01*
X112249000Y-81813061D01*
X112249000Y-81862041D01*
X111561469Y-82581800D01*
X111556461Y-82581800D01*
X111356502Y-82621574D01*
X111168144Y-82699595D01*
X110998626Y-82812863D01*
X110854463Y-82957026D01*
X110741195Y-83126544D01*
X110663174Y-83314902D01*
X110623400Y-83514861D01*
X110623400Y-83718739D01*
X110663174Y-83918698D01*
X110741195Y-84107056D01*
X110854463Y-84276574D01*
X110998626Y-84420737D01*
X111168144Y-84534005D01*
X111356502Y-84612026D01*
X111556461Y-84651800D01*
X111760339Y-84651800D01*
X111960298Y-84612026D01*
X112148656Y-84534005D01*
X112318174Y-84420737D01*
X112462337Y-84276574D01*
X112575605Y-84107056D01*
X112653626Y-83918698D01*
X112693400Y-83718739D01*
X112693400Y-83669759D01*
X113380931Y-82950000D01*
X113385939Y-82950000D01*
X113585898Y-82910226D01*
X113774256Y-82832205D01*
X113923000Y-82732817D01*
X113923001Y-87967521D01*
X113918719Y-88011000D01*
X113935805Y-88184490D01*
X113986412Y-88351313D01*
X114068590Y-88505059D01*
X114151468Y-88606046D01*
X114151471Y-88606049D01*
X114179184Y-88639817D01*
X114212951Y-88667529D01*
X115452465Y-89907044D01*
X115463774Y-89963898D01*
X115541795Y-90152256D01*
X115655063Y-90321774D01*
X115799226Y-90465937D01*
X115968744Y-90579205D01*
X116157102Y-90657226D01*
X116357061Y-90697000D01*
X116560939Y-90697000D01*
X116760898Y-90657226D01*
X116949256Y-90579205D01*
X117118774Y-90465937D01*
X117262937Y-90321774D01*
X117376205Y-90152256D01*
X117413591Y-90062000D01*
X117576939Y-90062000D01*
X117776898Y-90022226D01*
X117965256Y-89944205D01*
X118134774Y-89830937D01*
X118153711Y-89812000D01*
X122516447Y-89812000D01*
X122555000Y-89815797D01*
X122593553Y-89812000D01*
X122593561Y-89812000D01*
X122708887Y-89800641D01*
X122856860Y-89755754D01*
X122993233Y-89682862D01*
X123112764Y-89584764D01*
X123137347Y-89554810D01*
X123509436Y-89182721D01*
X123542795Y-89263256D01*
X123656063Y-89432774D01*
X123744566Y-89521277D01*
X117911843Y-95354000D01*
X117113000Y-95354000D01*
X117113000Y-95287061D01*
X117073226Y-95087102D01*
X116995205Y-94898744D01*
X116881937Y-94729226D01*
X116737774Y-94585063D01*
X116568256Y-94471795D01*
X116379898Y-94393774D01*
X116179939Y-94354000D01*
X116153158Y-94354000D01*
X112799000Y-90999843D01*
X112799000Y-89578711D01*
X112817937Y-89559774D01*
X112931205Y-89390256D01*
X113009226Y-89201898D01*
X113049000Y-89001939D01*
X113049000Y-88798061D01*
X113009226Y-88598102D01*
X112931205Y-88409744D01*
X112817937Y-88240226D01*
X112673774Y-88096063D01*
X112504256Y-87982795D01*
X112315898Y-87904774D01*
X112115939Y-87865000D01*
X111912061Y-87865000D01*
X111712102Y-87904774D01*
X111523744Y-87982795D01*
X111354226Y-88096063D01*
X111210063Y-88240226D01*
X111096795Y-88409744D01*
X111018774Y-88598102D01*
X110979000Y-88798061D01*
X110979000Y-89001939D01*
X111018774Y-89201898D01*
X111096795Y-89390256D01*
X111210063Y-89559774D01*
X111229000Y-89578711D01*
X111229001Y-91286437D01*
X111225203Y-91325000D01*
X111240359Y-91478886D01*
X111285246Y-91626859D01*
X111285247Y-91626860D01*
X111358139Y-91763233D01*
X111398690Y-91812644D01*
X111431655Y-91852812D01*
X111431659Y-91852816D01*
X111456237Y-91882764D01*
X111486185Y-91907342D01*
X113916842Y-94338000D01*
X112466158Y-94338000D01*
X109458745Y-91330588D01*
X109458745Y-91303806D01*
X109418971Y-91103847D01*
X109340950Y-90915489D01*
X109227682Y-90745971D01*
X109083519Y-90601808D01*
X108914001Y-90488540D01*
X108725643Y-90410519D01*
X108525684Y-90370745D01*
X108321806Y-90370745D01*
X108121847Y-90410519D01*
X107933489Y-90488540D01*
X107763971Y-90601808D01*
X107692000Y-90673779D01*
X107692000Y-87787454D01*
X107724205Y-87739256D01*
X107802226Y-87550898D01*
X107842000Y-87350939D01*
X107842000Y-87147061D01*
X107802226Y-86947102D01*
X107724205Y-86758744D01*
X107610937Y-86589226D01*
X107466774Y-86445063D01*
X107297256Y-86331795D01*
X107108898Y-86253774D01*
X106908939Y-86214000D01*
X106705061Y-86214000D01*
X106505102Y-86253774D01*
X106316744Y-86331795D01*
X106147226Y-86445063D01*
X106003063Y-86589226D01*
X105889795Y-86758744D01*
X105811774Y-86947102D01*
X105772000Y-87147061D01*
X105772000Y-87350939D01*
X105811774Y-87550898D01*
X105843020Y-87626332D01*
X105765939Y-87611000D01*
X105562061Y-87611000D01*
X105362102Y-87650774D01*
X105173744Y-87728795D01*
X105004226Y-87842063D01*
X104860063Y-87986226D01*
X104746795Y-88155744D01*
X104668774Y-88344102D01*
X104629000Y-88544061D01*
X104629000Y-88747939D01*
X104668774Y-88947898D01*
X104746795Y-89136256D01*
X104779001Y-89184456D01*
X104779000Y-94063531D01*
X104774719Y-94107000D01*
X104779000Y-94150469D01*
X104779000Y-94150476D01*
X104791805Y-94280489D01*
X104842411Y-94447312D01*
X104924589Y-94601058D01*
X105035183Y-94735817D01*
X105039898Y-94739686D01*
X105018312Y-94743980D01*
X104829954Y-94822001D01*
X104660436Y-94935269D01*
X104516273Y-95079432D01*
X104403005Y-95248950D01*
X104324984Y-95437308D01*
X104285210Y-95637267D01*
X104285210Y-95841145D01*
X104324984Y-96041104D01*
X104403005Y-96229462D01*
X104435210Y-96277661D01*
X104435211Y-97666049D01*
X104346102Y-97683774D01*
X104157744Y-97761795D01*
X103988226Y-97875063D01*
X103844063Y-98019226D01*
X103730795Y-98188744D01*
X103652774Y-98377102D01*
X103613000Y-98577061D01*
X103613000Y-98780939D01*
X103652774Y-98980898D01*
X103730795Y-99169256D01*
X103844063Y-99338774D01*
X103988226Y-99482937D01*
X104157744Y-99596205D01*
X104346102Y-99674226D01*
X104546061Y-99714000D01*
X104572843Y-99714000D01*
X105264000Y-100405157D01*
X105264000Y-100431939D01*
X105303774Y-100631898D01*
X105381795Y-100820256D01*
X105495063Y-100989774D01*
X105639226Y-101133937D01*
X105808744Y-101247205D01*
X105997102Y-101325226D01*
X106197061Y-101365000D01*
X106400939Y-101365000D01*
X106600898Y-101325226D01*
X106789256Y-101247205D01*
X106958774Y-101133937D01*
X107102937Y-100989774D01*
X107158439Y-100906709D01*
X107201941Y-100942411D01*
X107355687Y-101024589D01*
X107522510Y-101075195D01*
X107696000Y-101092282D01*
X107739476Y-101088000D01*
X110037196Y-101088000D01*
X110002774Y-101171102D01*
X109963000Y-101371061D01*
X109963000Y-101574939D01*
X110002774Y-101774898D01*
X110080795Y-101963256D01*
X110194063Y-102132774D01*
X110338226Y-102276937D01*
X110507744Y-102390205D01*
X110696102Y-102468226D01*
X110896061Y-102508000D01*
X111099939Y-102508000D01*
X111299898Y-102468226D01*
X111488256Y-102390205D01*
X111536454Y-102358000D01*
X113411843Y-102358000D01*
X108912081Y-106857762D01*
X108787592Y-106833000D01*
X108512408Y-106833000D01*
X108242510Y-106886686D01*
X107988273Y-106991995D01*
X107759465Y-107144880D01*
X107564880Y-107339465D01*
X107411995Y-107568273D01*
X107380000Y-107645515D01*
X107348005Y-107568273D01*
X107195120Y-107339465D01*
X107000535Y-107144880D01*
X106771727Y-106991995D01*
X106517490Y-106886686D01*
X106247592Y-106833000D01*
X105972408Y-106833000D01*
X105702510Y-106886686D01*
X105448273Y-106991995D01*
X105219465Y-107144880D01*
X105024880Y-107339465D01*
X104871995Y-107568273D01*
X104840000Y-107645515D01*
X104808005Y-107568273D01*
X104655120Y-107339465D01*
X104460535Y-107144880D01*
X104231727Y-106991995D01*
X103977490Y-106886686D01*
X103707592Y-106833000D01*
X103432408Y-106833000D01*
X103162510Y-106886686D01*
X102908273Y-106991995D01*
X102679465Y-107144880D01*
X102484880Y-107339465D01*
X102331995Y-107568273D01*
X102226686Y-107822510D01*
X102173000Y-108092408D01*
X102173000Y-108367592D01*
X102226686Y-108637490D01*
X102331995Y-108891727D01*
X102484880Y-109120535D01*
X102679465Y-109315120D01*
X102908273Y-109468005D01*
X102979943Y-109497692D01*
X102966977Y-109502364D01*
X102851020Y-109564344D01*
X102784040Y-109804435D01*
X103570000Y-110590395D01*
X104355960Y-109804435D01*
X104288980Y-109564344D01*
X104153240Y-109500515D01*
X104231727Y-109468005D01*
X104460535Y-109315120D01*
X104655120Y-109120535D01*
X104808005Y-108891727D01*
X104840000Y-108814485D01*
X104871995Y-108891727D01*
X105024880Y-109120535D01*
X105219465Y-109315120D01*
X105448273Y-109468005D01*
X105525515Y-109500000D01*
X105448273Y-109531995D01*
X105219465Y-109684880D01*
X105024880Y-109879465D01*
X104871995Y-110108273D01*
X104842308Y-110179943D01*
X104837636Y-110166977D01*
X104775656Y-110051020D01*
X104535565Y-109984040D01*
X103749605Y-110770000D01*
X104535565Y-111555960D01*
X104775656Y-111488980D01*
X104839485Y-111353240D01*
X104871995Y-111431727D01*
X105024880Y-111660535D01*
X105219465Y-111855120D01*
X105448273Y-112008005D01*
X105702510Y-112113314D01*
X105972408Y-112167000D01*
X106247592Y-112167000D01*
X106517490Y-112113314D01*
X106771727Y-112008005D01*
X107000535Y-111855120D01*
X107195120Y-111660535D01*
X107348005Y-111431727D01*
X107380000Y-111354485D01*
X107411995Y-111431727D01*
X107564880Y-111660535D01*
X107759465Y-111855120D01*
X107988273Y-112008005D01*
X108242510Y-112113314D01*
X108512408Y-112167000D01*
X108787592Y-112167000D01*
X109057490Y-112113314D01*
X109311727Y-112008005D01*
X109540535Y-111855120D01*
X109735120Y-111660535D01*
X109888005Y-111431727D01*
X109920000Y-111354485D01*
X109951995Y-111431727D01*
X110104880Y-111660535D01*
X110115198Y-111670853D01*
X109387052Y-112399000D01*
X103109579Y-112399000D01*
X102446144Y-111735565D01*
X102784040Y-111735565D01*
X102851020Y-111975656D01*
X103100048Y-112092756D01*
X103367135Y-112159023D01*
X103642017Y-112171910D01*
X103914133Y-112130922D01*
X104173023Y-112037636D01*
X104288980Y-111975656D01*
X104355960Y-111735565D01*
X103570000Y-110949605D01*
X102784040Y-111735565D01*
X102446144Y-111735565D01*
X101977000Y-111266422D01*
X101977000Y-110842017D01*
X102168090Y-110842017D01*
X102209078Y-111114133D01*
X102302364Y-111373023D01*
X102364344Y-111488980D01*
X102604435Y-111555960D01*
X103390395Y-110770000D01*
X102604435Y-109984040D01*
X102364344Y-110051020D01*
X102247244Y-110300048D01*
X102180977Y-110567135D01*
X102168090Y-110842017D01*
X101977000Y-110842017D01*
X101977000Y-77749061D01*
X102851000Y-77749061D01*
X102851000Y-77952939D01*
X102890774Y-78152898D01*
X102968795Y-78341256D01*
X103082063Y-78510774D01*
X103226226Y-78654937D01*
X103395744Y-78768205D01*
X103584102Y-78846226D01*
X103640957Y-78857535D01*
X105038465Y-80255044D01*
X105049774Y-80311898D01*
X105127795Y-80500256D01*
X105241063Y-80669774D01*
X105385226Y-80813937D01*
X105554744Y-80927205D01*
X105743102Y-81005226D01*
X105943061Y-81045000D01*
X106146939Y-81045000D01*
X106346898Y-81005226D01*
X106535256Y-80927205D01*
X106704774Y-80813937D01*
X106848937Y-80669774D01*
X106962205Y-80500256D01*
X107040226Y-80311898D01*
X107080000Y-80111939D01*
X107080000Y-79908061D01*
X107040226Y-79708102D01*
X106962205Y-79519744D01*
X106848937Y-79350226D01*
X106704774Y-79206063D01*
X106535256Y-79092795D01*
X106346898Y-79014774D01*
X106290044Y-79003465D01*
X104892535Y-77605957D01*
X104881226Y-77549102D01*
X104803205Y-77360744D01*
X104689937Y-77191226D01*
X104545774Y-77047063D01*
X104376256Y-76933795D01*
X104187898Y-76855774D01*
X103987939Y-76816000D01*
X103784061Y-76816000D01*
X103584102Y-76855774D01*
X103395744Y-76933795D01*
X103226226Y-77047063D01*
X103082063Y-77191226D01*
X102968795Y-77360744D01*
X102890774Y-77549102D01*
X102851000Y-77749061D01*
X101977000Y-77749061D01*
X101977000Y-76566578D01*
X107935579Y-70608000D01*
X110205546Y-70608000D01*
X110253744Y-70640205D01*
X110442102Y-70718226D01*
X110642061Y-70758000D01*
X110845939Y-70758000D01*
X111045898Y-70718226D01*
X111234256Y-70640205D01*
X111403774Y-70526937D01*
X111547937Y-70382774D01*
X111661205Y-70213256D01*
X111739226Y-70024898D01*
X111779000Y-69824939D01*
X111779000Y-69621061D01*
X111739226Y-69421102D01*
X111661205Y-69232744D01*
X111547937Y-69063226D01*
X111403774Y-68919063D01*
X111234256Y-68805795D01*
X111045898Y-68727774D01*
X110845939Y-68688000D01*
X110642061Y-68688000D01*
X110442102Y-68727774D01*
X110253744Y-68805795D01*
X110205546Y-68838000D01*
X107612465Y-68838000D01*
X107568999Y-68833719D01*
X107525533Y-68838000D01*
X107525523Y-68838000D01*
X107395510Y-68850805D01*
X107228687Y-68901411D01*
X107074941Y-68983589D01*
X107074939Y-68983590D01*
X107074940Y-68983590D01*
X106973953Y-69066468D01*
X106973951Y-69066470D01*
X106940183Y-69094183D01*
X106912470Y-69127951D01*
X100496952Y-75543470D01*
X100463184Y-75571183D01*
X100435471Y-75604951D01*
X100435468Y-75604954D01*
X100352590Y-75705941D01*
X100270412Y-75859687D01*
X100219805Y-76026510D01*
X100202719Y-76200000D01*
X100207001Y-76243479D01*
X100207000Y-111589531D01*
X100202719Y-111633000D01*
X100207000Y-111676469D01*
X100207000Y-111676476D01*
X100219805Y-111806489D01*
X100270411Y-111973312D01*
X100352589Y-112127058D01*
X100463183Y-112261817D01*
X100496956Y-112289534D01*
X101749421Y-113542000D01*
X101585579Y-113542000D01*
X99945000Y-111901422D01*
X99945000Y-75550578D01*
X109332579Y-66163000D01*
X118345519Y-66163000D01*
X118212226Y-66252063D01*
X118212226Y-66252063D01*
G37*
X118212226Y-66252063D02*
X118068063Y-66396226D01*
X117954795Y-66565744D01*
X117876774Y-66754102D01*
X117837000Y-66954061D01*
X117837000Y-67157939D01*
X117876774Y-67357898D01*
X117954795Y-67546256D01*
X118068063Y-67715774D01*
X118087001Y-67734712D01*
X118087000Y-77431447D01*
X118083203Y-77470000D01*
X118087000Y-77508553D01*
X118087000Y-77508560D01*
X118098359Y-77623886D01*
X118143246Y-77771859D01*
X118216138Y-77908232D01*
X118314236Y-78027764D01*
X118344190Y-78052347D01*
X122659000Y-82367158D01*
X122659001Y-86398626D01*
X122617732Y-86439895D01*
X122504464Y-86609413D01*
X122426443Y-86797771D01*
X122424000Y-86810053D01*
X122424000Y-83225874D01*
X122428266Y-83179799D01*
X122419496Y-83095790D01*
X122411195Y-83011510D01*
X122410436Y-83009008D01*
X122410165Y-83006412D01*
X122385167Y-82925707D01*
X122360589Y-82844687D01*
X122359356Y-82842380D01*
X122358584Y-82839888D01*
X122318305Y-82765577D01*
X122278411Y-82690941D01*
X122276754Y-82688922D01*
X122275509Y-82686625D01*
X122221447Y-82621531D01*
X122167817Y-82556183D01*
X122132045Y-82526826D01*
X111622434Y-72139420D01*
X111612226Y-72088102D01*
X111534205Y-71899744D01*
X111420937Y-71730226D01*
X111276774Y-71586063D01*
X111107256Y-71472795D01*
X110918898Y-71394774D01*
X110718939Y-71355000D01*
X110515061Y-71355000D01*
X110315102Y-71394774D01*
X110126744Y-71472795D01*
X109957226Y-71586063D01*
X109855000Y-71688289D01*
X109752774Y-71586063D01*
X109583256Y-71472795D01*
X109394898Y-71394774D01*
X109194939Y-71355000D01*
X108991061Y-71355000D01*
X108791102Y-71394774D01*
X108602744Y-71472795D01*
X108433226Y-71586063D01*
X108289063Y-71730226D01*
X108175795Y-71899744D01*
X108097774Y-72088102D01*
X108058000Y-72288061D01*
X108058000Y-72491939D01*
X108097774Y-72691898D01*
X108175795Y-72880256D01*
X108289063Y-73049774D01*
X108433226Y-73193937D01*
X108602744Y-73307205D01*
X108791102Y-73385226D01*
X108847957Y-73396535D01*
X113923000Y-78471579D01*
X113923000Y-81097182D01*
X113774256Y-80997795D01*
X113585898Y-80919774D01*
X113385939Y-80880000D01*
X113182061Y-80880000D01*
X112982102Y-80919774D01*
X112793744Y-80997795D01*
X112624226Y-81111063D01*
X112480063Y-81255226D01*
X112366795Y-81424744D01*
X112288774Y-81613102D01*
X112249000Y-81813061D01*
X112249000Y-81862041D01*
X111561469Y-82581800D01*
X111556461Y-82581800D01*
X111356502Y-82621574D01*
X111168144Y-82699595D01*
X110998626Y-82812863D01*
X110854463Y-82957026D01*
X110741195Y-83126544D01*
X110663174Y-83314902D01*
X110623400Y-83514861D01*
X110623400Y-83718739D01*
X110663174Y-83918698D01*
X110741195Y-84107056D01*
X110854463Y-84276574D01*
X110998626Y-84420737D01*
X111168144Y-84534005D01*
X111356502Y-84612026D01*
X111556461Y-84651800D01*
X111760339Y-84651800D01*
X111960298Y-84612026D01*
X112148656Y-84534005D01*
X112318174Y-84420737D01*
X112462337Y-84276574D01*
X112575605Y-84107056D01*
X112653626Y-83918698D01*
X112693400Y-83718739D01*
X112693400Y-83669759D01*
X113380931Y-82950000D01*
X113385939Y-82950000D01*
X113585898Y-82910226D01*
X113774256Y-82832205D01*
X113923000Y-82732817D01*
X113923001Y-87967521D01*
X113918719Y-88011000D01*
X113935805Y-88184490D01*
X113986412Y-88351313D01*
X114068590Y-88505059D01*
X114151468Y-88606046D01*
X114151471Y-88606049D01*
X114179184Y-88639817D01*
X114212951Y-88667529D01*
X115452465Y-89907044D01*
X115463774Y-89963898D01*
X115541795Y-90152256D01*
X115655063Y-90321774D01*
X115799226Y-90465937D01*
X115968744Y-90579205D01*
X116157102Y-90657226D01*
X116357061Y-90697000D01*
X116560939Y-90697000D01*
X116760898Y-90657226D01*
X116949256Y-90579205D01*
X117118774Y-90465937D01*
X117262937Y-90321774D01*
X117376205Y-90152256D01*
X117413591Y-90062000D01*
X117576939Y-90062000D01*
X117776898Y-90022226D01*
X117965256Y-89944205D01*
X118134774Y-89830937D01*
X118153711Y-89812000D01*
X122516447Y-89812000D01*
X122555000Y-89815797D01*
X122593553Y-89812000D01*
X122593561Y-89812000D01*
X122708887Y-89800641D01*
X122856860Y-89755754D01*
X122993233Y-89682862D01*
X123112764Y-89584764D01*
X123137347Y-89554810D01*
X123509436Y-89182721D01*
X123542795Y-89263256D01*
X123656063Y-89432774D01*
X123744566Y-89521277D01*
X117911843Y-95354000D01*
X117113000Y-95354000D01*
X117113000Y-95287061D01*
X117073226Y-95087102D01*
X116995205Y-94898744D01*
X116881937Y-94729226D01*
X116737774Y-94585063D01*
X116568256Y-94471795D01*
X116379898Y-94393774D01*
X116179939Y-94354000D01*
X116153158Y-94354000D01*
X112799000Y-90999843D01*
X112799000Y-89578711D01*
X112817937Y-89559774D01*
X112931205Y-89390256D01*
X113009226Y-89201898D01*
X113049000Y-89001939D01*
X113049000Y-88798061D01*
X113009226Y-88598102D01*
X112931205Y-88409744D01*
X112817937Y-88240226D01*
X112673774Y-88096063D01*
X112504256Y-87982795D01*
X112315898Y-87904774D01*
X112115939Y-87865000D01*
X111912061Y-87865000D01*
X111712102Y-87904774D01*
X111523744Y-87982795D01*
X111354226Y-88096063D01*
X111210063Y-88240226D01*
X111096795Y-88409744D01*
X111018774Y-88598102D01*
X110979000Y-88798061D01*
X110979000Y-89001939D01*
X111018774Y-89201898D01*
X111096795Y-89390256D01*
X111210063Y-89559774D01*
X111229000Y-89578711D01*
X111229001Y-91286437D01*
X111225203Y-91325000D01*
X111240359Y-91478886D01*
X111285246Y-91626859D01*
X111285247Y-91626860D01*
X111358139Y-91763233D01*
X111398690Y-91812644D01*
X111431655Y-91852812D01*
X111431659Y-91852816D01*
X111456237Y-91882764D01*
X111486185Y-91907342D01*
X113916842Y-94338000D01*
X112466158Y-94338000D01*
X109458745Y-91330588D01*
X109458745Y-91303806D01*
X109418971Y-91103847D01*
X109340950Y-90915489D01*
X109227682Y-90745971D01*
X109083519Y-90601808D01*
X108914001Y-90488540D01*
X108725643Y-90410519D01*
X108525684Y-90370745D01*
X108321806Y-90370745D01*
X108121847Y-90410519D01*
X107933489Y-90488540D01*
X107763971Y-90601808D01*
X107692000Y-90673779D01*
X107692000Y-87787454D01*
X107724205Y-87739256D01*
X107802226Y-87550898D01*
X107842000Y-87350939D01*
X107842000Y-87147061D01*
X107802226Y-86947102D01*
X107724205Y-86758744D01*
X107610937Y-86589226D01*
X107466774Y-86445063D01*
X107297256Y-86331795D01*
X107108898Y-86253774D01*
X106908939Y-86214000D01*
X106705061Y-86214000D01*
X106505102Y-86253774D01*
X106316744Y-86331795D01*
X106147226Y-86445063D01*
X106003063Y-86589226D01*
X105889795Y-86758744D01*
X105811774Y-86947102D01*
X105772000Y-87147061D01*
X105772000Y-87350939D01*
X105811774Y-87550898D01*
X105843020Y-87626332D01*
X105765939Y-87611000D01*
X105562061Y-87611000D01*
X105362102Y-87650774D01*
X105173744Y-87728795D01*
X105004226Y-87842063D01*
X104860063Y-87986226D01*
X104746795Y-88155744D01*
X104668774Y-88344102D01*
X104629000Y-88544061D01*
X104629000Y-88747939D01*
X104668774Y-88947898D01*
X104746795Y-89136256D01*
X104779001Y-89184456D01*
X104779000Y-94063531D01*
X104774719Y-94107000D01*
X104779000Y-94150469D01*
X104779000Y-94150476D01*
X104791805Y-94280489D01*
X104842411Y-94447312D01*
X104924589Y-94601058D01*
X105035183Y-94735817D01*
X105039898Y-94739686D01*
X105018312Y-94743980D01*
X104829954Y-94822001D01*
X104660436Y-94935269D01*
X104516273Y-95079432D01*
X104403005Y-95248950D01*
X104324984Y-95437308D01*
X104285210Y-95637267D01*
X104285210Y-95841145D01*
X104324984Y-96041104D01*
X104403005Y-96229462D01*
X104435210Y-96277661D01*
X104435211Y-97666049D01*
X104346102Y-97683774D01*
X104157744Y-97761795D01*
X103988226Y-97875063D01*
X103844063Y-98019226D01*
X103730795Y-98188744D01*
X103652774Y-98377102D01*
X103613000Y-98577061D01*
X103613000Y-98780939D01*
X103652774Y-98980898D01*
X103730795Y-99169256D01*
X103844063Y-99338774D01*
X103988226Y-99482937D01*
X104157744Y-99596205D01*
X104346102Y-99674226D01*
X104546061Y-99714000D01*
X104572843Y-99714000D01*
X105264000Y-100405157D01*
X105264000Y-100431939D01*
X105303774Y-100631898D01*
X105381795Y-100820256D01*
X105495063Y-100989774D01*
X105639226Y-101133937D01*
X105808744Y-101247205D01*
X105997102Y-101325226D01*
X106197061Y-101365000D01*
X106400939Y-101365000D01*
X106600898Y-101325226D01*
X106789256Y-101247205D01*
X106958774Y-101133937D01*
X107102937Y-100989774D01*
X107158439Y-100906709D01*
X107201941Y-100942411D01*
X107355687Y-101024589D01*
X107522510Y-101075195D01*
X107696000Y-101092282D01*
X107739476Y-101088000D01*
X110037196Y-101088000D01*
X110002774Y-101171102D01*
X109963000Y-101371061D01*
X109963000Y-101574939D01*
X110002774Y-101774898D01*
X110080795Y-101963256D01*
X110194063Y-102132774D01*
X110338226Y-102276937D01*
X110507744Y-102390205D01*
X110696102Y-102468226D01*
X110896061Y-102508000D01*
X111099939Y-102508000D01*
X111299898Y-102468226D01*
X111488256Y-102390205D01*
X111536454Y-102358000D01*
X113411843Y-102358000D01*
X108912081Y-106857762D01*
X108787592Y-106833000D01*
X108512408Y-106833000D01*
X108242510Y-106886686D01*
X107988273Y-106991995D01*
X107759465Y-107144880D01*
X107564880Y-107339465D01*
X107411995Y-107568273D01*
X107380000Y-107645515D01*
X107348005Y-107568273D01*
X107195120Y-107339465D01*
X107000535Y-107144880D01*
X106771727Y-106991995D01*
X106517490Y-106886686D01*
X106247592Y-106833000D01*
X105972408Y-106833000D01*
X105702510Y-106886686D01*
X105448273Y-106991995D01*
X105219465Y-107144880D01*
X105024880Y-107339465D01*
X104871995Y-107568273D01*
X104840000Y-107645515D01*
X104808005Y-107568273D01*
X104655120Y-107339465D01*
X104460535Y-107144880D01*
X104231727Y-106991995D01*
X103977490Y-106886686D01*
X103707592Y-106833000D01*
X103432408Y-106833000D01*
X103162510Y-106886686D01*
X102908273Y-106991995D01*
X102679465Y-107144880D01*
X102484880Y-107339465D01*
X102331995Y-107568273D01*
X102226686Y-107822510D01*
X102173000Y-108092408D01*
X102173000Y-108367592D01*
X102226686Y-108637490D01*
X102331995Y-108891727D01*
X102484880Y-109120535D01*
X102679465Y-109315120D01*
X102908273Y-109468005D01*
X102979943Y-109497692D01*
X102966977Y-109502364D01*
X102851020Y-109564344D01*
X102784040Y-109804435D01*
X103570000Y-110590395D01*
X104355960Y-109804435D01*
X104288980Y-109564344D01*
X104153240Y-109500515D01*
X104231727Y-109468005D01*
X104460535Y-109315120D01*
X104655120Y-109120535D01*
X104808005Y-108891727D01*
X104840000Y-108814485D01*
X104871995Y-108891727D01*
X105024880Y-109120535D01*
X105219465Y-109315120D01*
X105448273Y-109468005D01*
X105525515Y-109500000D01*
X105448273Y-109531995D01*
X105219465Y-109684880D01*
X105024880Y-109879465D01*
X104871995Y-110108273D01*
X104842308Y-110179943D01*
X104837636Y-110166977D01*
X104775656Y-110051020D01*
X104535565Y-109984040D01*
X103749605Y-110770000D01*
X104535565Y-111555960D01*
X104775656Y-111488980D01*
X104839485Y-111353240D01*
X104871995Y-111431727D01*
X105024880Y-111660535D01*
X105219465Y-111855120D01*
X105448273Y-112008005D01*
X105702510Y-112113314D01*
X105972408Y-112167000D01*
X106247592Y-112167000D01*
X106517490Y-112113314D01*
X106771727Y-112008005D01*
X107000535Y-111855120D01*
X107195120Y-111660535D01*
X107348005Y-111431727D01*
X107380000Y-111354485D01*
X107411995Y-111431727D01*
X107564880Y-111660535D01*
X107759465Y-111855120D01*
X107988273Y-112008005D01*
X108242510Y-112113314D01*
X108512408Y-112167000D01*
X108787592Y-112167000D01*
X109057490Y-112113314D01*
X109311727Y-112008005D01*
X109540535Y-111855120D01*
X109735120Y-111660535D01*
X109888005Y-111431727D01*
X109920000Y-111354485D01*
X109951995Y-111431727D01*
X110104880Y-111660535D01*
X110115198Y-111670853D01*
X109387052Y-112399000D01*
X103109579Y-112399000D01*
X102446144Y-111735565D01*
X102784040Y-111735565D01*
X102851020Y-111975656D01*
X103100048Y-112092756D01*
X103367135Y-112159023D01*
X103642017Y-112171910D01*
X103914133Y-112130922D01*
X104173023Y-112037636D01*
X104288980Y-111975656D01*
X104355960Y-111735565D01*
X103570000Y-110949605D01*
X102784040Y-111735565D01*
X102446144Y-111735565D01*
X101977000Y-111266422D01*
X101977000Y-110842017D01*
X102168090Y-110842017D01*
X102209078Y-111114133D01*
X102302364Y-111373023D01*
X102364344Y-111488980D01*
X102604435Y-111555960D01*
X103390395Y-110770000D01*
X102604435Y-109984040D01*
X102364344Y-110051020D01*
X102247244Y-110300048D01*
X102180977Y-110567135D01*
X102168090Y-110842017D01*
X101977000Y-110842017D01*
X101977000Y-77749061D01*
X102851000Y-77749061D01*
X102851000Y-77952939D01*
X102890774Y-78152898D01*
X102968795Y-78341256D01*
X103082063Y-78510774D01*
X103226226Y-78654937D01*
X103395744Y-78768205D01*
X103584102Y-78846226D01*
X103640957Y-78857535D01*
X105038465Y-80255044D01*
X105049774Y-80311898D01*
X105127795Y-80500256D01*
X105241063Y-80669774D01*
X105385226Y-80813937D01*
X105554744Y-80927205D01*
X105743102Y-81005226D01*
X105943061Y-81045000D01*
X106146939Y-81045000D01*
X106346898Y-81005226D01*
X106535256Y-80927205D01*
X106704774Y-80813937D01*
X106848937Y-80669774D01*
X106962205Y-80500256D01*
X107040226Y-80311898D01*
X107080000Y-80111939D01*
X107080000Y-79908061D01*
X107040226Y-79708102D01*
X106962205Y-79519744D01*
X106848937Y-79350226D01*
X106704774Y-79206063D01*
X106535256Y-79092795D01*
X106346898Y-79014774D01*
X106290044Y-79003465D01*
X104892535Y-77605957D01*
X104881226Y-77549102D01*
X104803205Y-77360744D01*
X104689937Y-77191226D01*
X104545774Y-77047063D01*
X104376256Y-76933795D01*
X104187898Y-76855774D01*
X103987939Y-76816000D01*
X103784061Y-76816000D01*
X103584102Y-76855774D01*
X103395744Y-76933795D01*
X103226226Y-77047063D01*
X103082063Y-77191226D01*
X102968795Y-77360744D01*
X102890774Y-77549102D01*
X102851000Y-77749061D01*
X101977000Y-77749061D01*
X101977000Y-76566578D01*
X107935579Y-70608000D01*
X110205546Y-70608000D01*
X110253744Y-70640205D01*
X110442102Y-70718226D01*
X110642061Y-70758000D01*
X110845939Y-70758000D01*
X111045898Y-70718226D01*
X111234256Y-70640205D01*
X111403774Y-70526937D01*
X111547937Y-70382774D01*
X111661205Y-70213256D01*
X111739226Y-70024898D01*
X111779000Y-69824939D01*
X111779000Y-69621061D01*
X111739226Y-69421102D01*
X111661205Y-69232744D01*
X111547937Y-69063226D01*
X111403774Y-68919063D01*
X111234256Y-68805795D01*
X111045898Y-68727774D01*
X110845939Y-68688000D01*
X110642061Y-68688000D01*
X110442102Y-68727774D01*
X110253744Y-68805795D01*
X110205546Y-68838000D01*
X107612465Y-68838000D01*
X107568999Y-68833719D01*
X107525533Y-68838000D01*
X107525523Y-68838000D01*
X107395510Y-68850805D01*
X107228687Y-68901411D01*
X107074941Y-68983589D01*
X107074939Y-68983590D01*
X107074940Y-68983590D01*
X106973953Y-69066468D01*
X106973951Y-69066470D01*
X106940183Y-69094183D01*
X106912470Y-69127951D01*
X100496952Y-75543470D01*
X100463184Y-75571183D01*
X100435471Y-75604951D01*
X100435468Y-75604954D01*
X100352590Y-75705941D01*
X100270412Y-75859687D01*
X100219805Y-76026510D01*
X100202719Y-76200000D01*
X100207001Y-76243479D01*
X100207000Y-111589531D01*
X100202719Y-111633000D01*
X100207000Y-111676469D01*
X100207000Y-111676476D01*
X100219805Y-111806489D01*
X100270411Y-111973312D01*
X100352589Y-112127058D01*
X100463183Y-112261817D01*
X100496956Y-112289534D01*
X101749421Y-113542000D01*
X101585579Y-113542000D01*
X99945000Y-111901422D01*
X99945000Y-75550578D01*
X109332579Y-66163000D01*
X118345519Y-66163000D01*
X118212226Y-66252063D01*
G36*
X125191995Y-108891727D02*
G01*
X125344880Y-109120535D01*
X125539465Y-109315120D01*
X125768273Y-109468005D01*
X125839943Y-109497692D01*
X125826977Y-109502364D01*
X125711020Y-109564344D01*
X125644040Y-109804435D01*
X126430000Y-110590395D01*
X126444143Y-110576253D01*
X126623748Y-110755858D01*
X126609605Y-110770000D01*
X126623748Y-110784143D01*
X126444143Y-110963748D01*
X126430000Y-110949605D01*
X125644040Y-111735565D01*
X125651973Y-111764000D01*
X125057949Y-111764000D01*
X124964802Y-111670853D01*
X124975120Y-111660535D01*
X125128005Y-111431727D01*
X125157692Y-111360057D01*
X125162364Y-111373023D01*
X125224344Y-111488980D01*
X125464435Y-111555960D01*
X126250395Y-110770000D01*
X125464435Y-109984040D01*
X125224344Y-110051020D01*
X125160515Y-110186760D01*
X125128005Y-110108273D01*
X124975120Y-109879465D01*
X124780535Y-109684880D01*
X124551727Y-109531995D01*
X124474485Y-109500000D01*
X124551727Y-109468005D01*
X124780535Y-109315120D01*
X124975120Y-109120535D01*
X125128005Y-108891727D01*
X125160000Y-108814485D01*
X125191995Y-108891727D01*
X125191995Y-108891727D01*
G37*
X125191995Y-108891727D02*
X125344880Y-109120535D01*
X125539465Y-109315120D01*
X125768273Y-109468005D01*
X125839943Y-109497692D01*
X125826977Y-109502364D01*
X125711020Y-109564344D01*
X125644040Y-109804435D01*
X126430000Y-110590395D01*
X126444143Y-110576253D01*
X126623748Y-110755858D01*
X126609605Y-110770000D01*
X126623748Y-110784143D01*
X126444143Y-110963748D01*
X126430000Y-110949605D01*
X125644040Y-111735565D01*
X125651973Y-111764000D01*
X125057949Y-111764000D01*
X124964802Y-111670853D01*
X124975120Y-111660535D01*
X125128005Y-111431727D01*
X125157692Y-111360057D01*
X125162364Y-111373023D01*
X125224344Y-111488980D01*
X125464435Y-111555960D01*
X126250395Y-110770000D01*
X125464435Y-109984040D01*
X125224344Y-110051020D01*
X125160515Y-110186760D01*
X125128005Y-110108273D01*
X124975120Y-109879465D01*
X124780535Y-109684880D01*
X124551727Y-109531995D01*
X124474485Y-109500000D01*
X124551727Y-109468005D01*
X124780535Y-109315120D01*
X124975120Y-109120535D01*
X125128005Y-108891727D01*
X125160000Y-108814485D01*
X125191995Y-108891727D01*
%TD*%
M02*
