%TF.GenerationSoftware,KiCad,Pcbnew,(5.1.4)-1*%
%TF.CreationDate,2020-12-20T21:21:52+02:00*%
%TF.ProjectId,Borta Dators,426f7274-6120-4446-9174-6f72732e6b69,rev?*%
%TF.SameCoordinates,Original*%
%TF.FileFunction,Legend,Top*%
%TF.FilePolarity,Positive*%
%FSLAX46Y46*%
G04 Gerber Fmt 4.6, Leading zero omitted, Abs format (unit mm)*
G04 Created by KiCad (PCBNEW (5.1.4)-1) date 2020-12-20 21:21:52*
%MOMM*%
%LPD*%
G04 APERTURE LIST*
%ADD10C,0.120000*%
%ADD11C,0.150000*%
%ADD12C,0.015000*%
G04 APERTURE END LIST*
D10*
%TO.C,J4*%
X146700000Y-69120000D02*
X146700000Y-89320000D01*
X118100000Y-89320000D02*
X146700000Y-89320000D01*
X118100000Y-69120000D02*
X118100000Y-89320000D01*
X118100000Y-69120000D02*
X146700000Y-69120000D01*
%TO.C,C1*%
X141080000Y-108620000D02*
X143430000Y-108620000D01*
X147900000Y-108620000D02*
X145550000Y-108620000D01*
X147900000Y-102864437D02*
X147900000Y-108620000D01*
X141080000Y-102864437D02*
X141080000Y-108620000D01*
X142144437Y-101800000D02*
X143430000Y-101800000D01*
X146835563Y-101800000D02*
X145550000Y-101800000D01*
X146835563Y-101800000D02*
X147900000Y-102864437D01*
X142144437Y-101800000D02*
X141080000Y-102864437D01*
X146337500Y-100772500D02*
X146337500Y-101560000D01*
X146731250Y-101166250D02*
X145943750Y-101166250D01*
%TO.C,C2*%
X139540000Y-105448733D02*
X139540000Y-105791267D01*
X140560000Y-105448733D02*
X140560000Y-105791267D01*
%TO.C,C4*%
X144691267Y-60160000D02*
X144348733Y-60160000D01*
X144691267Y-61180000D02*
X144348733Y-61180000D01*
%TO.C,D1*%
X93735000Y-53800000D02*
X93735000Y-51340000D01*
X93735000Y-51340000D02*
X92265000Y-51340000D01*
X92265000Y-51340000D02*
X92265000Y-53800000D01*
%TO.C,D2*%
X96265000Y-51340000D02*
X96265000Y-53800000D01*
X97735000Y-51340000D02*
X96265000Y-51340000D01*
X97735000Y-53800000D02*
X97735000Y-51340000D01*
%TO.C,D3*%
X101735000Y-53800000D02*
X101735000Y-51340000D01*
X101735000Y-51340000D02*
X100265000Y-51340000D01*
X100265000Y-51340000D02*
X100265000Y-53800000D01*
%TO.C,D4*%
X104265000Y-51340000D02*
X104265000Y-53800000D01*
X105735000Y-51340000D02*
X104265000Y-51340000D01*
X105735000Y-53800000D02*
X105735000Y-51340000D01*
%TO.C,D5*%
X109735000Y-53800000D02*
X109735000Y-51340000D01*
X109735000Y-51340000D02*
X108265000Y-51340000D01*
X108265000Y-51340000D02*
X108265000Y-53800000D01*
%TO.C,D8*%
X145900000Y-66945000D02*
X143440000Y-66945000D01*
X143440000Y-66945000D02*
X143440000Y-68415000D01*
X143440000Y-68415000D02*
X145900000Y-68415000D01*
%TO.C,J1*%
X83820000Y-72230000D02*
X86480000Y-72230000D01*
X83820000Y-72230000D02*
X83820000Y-84990000D01*
X83820000Y-84990000D02*
X86480000Y-84990000D01*
X86480000Y-72230000D02*
X86480000Y-84990000D01*
X86480000Y-69630000D02*
X86480000Y-70960000D01*
X85150000Y-69630000D02*
X86480000Y-69630000D01*
%TO.C,J2*%
X140500000Y-66000000D02*
X127500000Y-66000000D01*
X140500000Y-50000000D02*
X127500000Y-50000000D01*
X127500000Y-66000000D02*
X127500000Y-50000000D01*
X140500000Y-50000000D02*
X140500000Y-66000000D01*
%TO.C,J5*%
X116840000Y-63300000D02*
X116840000Y-64700000D01*
X119160000Y-64700000D02*
X119160000Y-62800000D01*
%TO.C,J6*%
X124160000Y-64700000D02*
X124160000Y-62800000D01*
X121840000Y-63300000D02*
X121840000Y-64700000D01*
%TO.C,Q1*%
X121830000Y-95650000D02*
X123290000Y-95650000D01*
X121830000Y-98810000D02*
X123990000Y-98810000D01*
X121830000Y-98810000D02*
X121830000Y-97880000D01*
X121830000Y-95650000D02*
X121830000Y-96580000D01*
%TO.C,Q2*%
X132700000Y-104920000D02*
X132700000Y-105850000D01*
X132700000Y-108080000D02*
X132700000Y-107150000D01*
X132700000Y-108080000D02*
X134860000Y-108080000D01*
X132700000Y-104920000D02*
X134160000Y-104920000D01*
%TO.C,Q3*%
X125780000Y-99740000D02*
X125780000Y-100670000D01*
X125780000Y-102900000D02*
X125780000Y-101970000D01*
X125780000Y-102900000D02*
X127940000Y-102900000D01*
X125780000Y-99740000D02*
X127240000Y-99740000D01*
%TO.C,R1*%
X144458733Y-115700000D02*
X144801267Y-115700000D01*
X144458733Y-116720000D02*
X144801267Y-116720000D01*
%TO.C,R2*%
X140641267Y-116730000D02*
X140298733Y-116730000D01*
X140641267Y-115710000D02*
X140298733Y-115710000D01*
%TO.C,R3*%
X144328733Y-62680000D02*
X144671267Y-62680000D01*
X144328733Y-63700000D02*
X144671267Y-63700000D01*
%TO.C,R4*%
X92490000Y-56828733D02*
X92490000Y-57171267D01*
X93510000Y-56828733D02*
X93510000Y-57171267D01*
%TO.C,R5*%
X96490000Y-56828733D02*
X96490000Y-57171267D01*
X97510000Y-56828733D02*
X97510000Y-57171267D01*
%TO.C,R6*%
X100490000Y-56828733D02*
X100490000Y-57171267D01*
X101510000Y-56828733D02*
X101510000Y-57171267D01*
%TO.C,R7*%
X104490000Y-56828733D02*
X104490000Y-57171267D01*
X105510000Y-56828733D02*
X105510000Y-57171267D01*
%TO.C,R8*%
X108490000Y-56828733D02*
X108490000Y-57171267D01*
X109510000Y-56828733D02*
X109510000Y-57171267D01*
%TO.C,R11*%
X126488733Y-98680000D02*
X126831267Y-98680000D01*
X126488733Y-97660000D02*
X126831267Y-97660000D01*
%TO.C,R12*%
X144290000Y-111938733D02*
X144290000Y-112281267D01*
X143270000Y-111938733D02*
X143270000Y-112281267D01*
%TO.C,R13*%
X133820000Y-111548733D02*
X133820000Y-111891267D01*
X132800000Y-111548733D02*
X132800000Y-111891267D01*
%TO.C,R14*%
X133810000Y-115588733D02*
X133810000Y-115931267D01*
X132790000Y-115588733D02*
X132790000Y-115931267D01*
%TO.C,R20*%
X141421267Y-67150000D02*
X141078733Y-67150000D01*
X141421267Y-68170000D02*
X141078733Y-68170000D01*
%TO.C,SW1*%
X119330000Y-55730000D02*
X116670000Y-55730000D01*
X119330000Y-55730000D02*
X119330000Y-50590000D01*
X119330000Y-50590000D02*
X116670000Y-50590000D01*
X116670000Y-55730000D02*
X116670000Y-50590000D01*
X116670000Y-58330000D02*
X116670000Y-57000000D01*
X118000000Y-58330000D02*
X116670000Y-58330000D01*
%TO.C,SW3*%
X147490000Y-58330000D02*
X147490000Y-53130000D01*
X144890000Y-58330000D02*
X147490000Y-58330000D01*
X142290000Y-53130000D02*
X147490000Y-53130000D01*
X144890000Y-58330000D02*
X144890000Y-55730000D01*
X144890000Y-55730000D02*
X142290000Y-55730000D01*
X142290000Y-55730000D02*
X142290000Y-53130000D01*
X143620000Y-58330000D02*
X142290000Y-58330000D01*
X142290000Y-58330000D02*
X142290000Y-57000000D01*
%TO.C,SW4*%
X123000000Y-58330000D02*
X121670000Y-58330000D01*
X121670000Y-58330000D02*
X121670000Y-57000000D01*
X121670000Y-55730000D02*
X121670000Y-50590000D01*
X124330000Y-50590000D02*
X121670000Y-50590000D01*
X124330000Y-55730000D02*
X124330000Y-50590000D01*
X124330000Y-55730000D02*
X121670000Y-55730000D01*
D11*
%TO.C,U3*%
X136485000Y-110565000D02*
X136485000Y-110740000D01*
X139835000Y-110565000D02*
X139835000Y-110815000D01*
X139835000Y-113915000D02*
X139835000Y-113665000D01*
X136485000Y-113915000D02*
X136485000Y-113665000D01*
X136485000Y-110565000D02*
X139835000Y-110565000D01*
X136485000Y-113915000D02*
X139835000Y-113915000D01*
X136485000Y-110740000D02*
X135235000Y-110740000D01*
%TO.C,U4*%
X130215000Y-101625000D02*
X130340000Y-101625000D01*
X130215000Y-96975000D02*
X130440000Y-96975000D01*
X135465000Y-96975000D02*
X135240000Y-96975000D01*
X135465000Y-101625000D02*
X135240000Y-101625000D01*
X130215000Y-101625000D02*
X130215000Y-96975000D01*
X135465000Y-101625000D02*
X135465000Y-96975000D01*
X130340000Y-101625000D02*
X130340000Y-102975000D01*
D10*
%TO.C,U5*%
X109753179Y-86062132D02*
X109965311Y-85850000D01*
X109965311Y-85850000D02*
X109753179Y-85637868D01*
X105072132Y-90743179D02*
X104860000Y-90955311D01*
X104860000Y-90955311D02*
X104647868Y-90743179D01*
X104647868Y-80956821D02*
X104860000Y-80744689D01*
X104860000Y-80744689D02*
X105072132Y-80956821D01*
X99966821Y-85637868D02*
X99754689Y-85850000D01*
X99754689Y-85850000D02*
X99966821Y-86062132D01*
X99966821Y-86062132D02*
X99036976Y-86991977D01*
%TO.C,U6*%
X119250000Y-95560000D02*
X117450000Y-95560000D01*
X117450000Y-98780000D02*
X119900000Y-98780000D01*
%TO.C,R31*%
X129328733Y-104330000D02*
X129671267Y-104330000D01*
X129328733Y-105350000D02*
X129671267Y-105350000D01*
%TO.C,J4*%
D11*
X132086666Y-76192380D02*
X132086666Y-76906666D01*
X132039047Y-77049523D01*
X131943809Y-77144761D01*
X131800952Y-77192380D01*
X131705714Y-77192380D01*
X132991428Y-76525714D02*
X132991428Y-77192380D01*
X132753333Y-76144761D02*
X132515238Y-76859047D01*
X133134285Y-76859047D01*
%TO.C,J3*%
D12*
X114500000Y-115178571D02*
X114500000Y-116250000D01*
X114428571Y-116464285D01*
X114285714Y-116607142D01*
X114071428Y-116678571D01*
X113928571Y-116678571D01*
X115071428Y-115178571D02*
X116000000Y-115178571D01*
X115500000Y-115750000D01*
X115714285Y-115750000D01*
X115857142Y-115821428D01*
X115928571Y-115892857D01*
X116000000Y-116035714D01*
X116000000Y-116392857D01*
X115928571Y-116535714D01*
X115857142Y-116607142D01*
X115714285Y-116678571D01*
X115285714Y-116678571D01*
X115142857Y-116607142D01*
X115071428Y-116535714D01*
%TO.C,C1*%
D11*
X149197142Y-105376666D02*
X149244761Y-105424285D01*
X149292380Y-105567142D01*
X149292380Y-105662380D01*
X149244761Y-105805238D01*
X149149523Y-105900476D01*
X149054285Y-105948095D01*
X148863809Y-105995714D01*
X148720952Y-105995714D01*
X148530476Y-105948095D01*
X148435238Y-105900476D01*
X148340000Y-105805238D01*
X148292380Y-105662380D01*
X148292380Y-105567142D01*
X148340000Y-105424285D01*
X148387619Y-105376666D01*
X149292380Y-104424285D02*
X149292380Y-104995714D01*
X149292380Y-104710000D02*
X148292380Y-104710000D01*
X148435238Y-104805238D01*
X148530476Y-104900476D01*
X148578095Y-104995714D01*
%TO.C,C2*%
X139573333Y-103437142D02*
X139525714Y-103484761D01*
X139382857Y-103532380D01*
X139287619Y-103532380D01*
X139144761Y-103484761D01*
X139049523Y-103389523D01*
X139001904Y-103294285D01*
X138954285Y-103103809D01*
X138954285Y-102960952D01*
X139001904Y-102770476D01*
X139049523Y-102675238D01*
X139144761Y-102580000D01*
X139287619Y-102532380D01*
X139382857Y-102532380D01*
X139525714Y-102580000D01*
X139573333Y-102627619D01*
X139954285Y-102627619D02*
X140001904Y-102580000D01*
X140097142Y-102532380D01*
X140335238Y-102532380D01*
X140430476Y-102580000D01*
X140478095Y-102627619D01*
X140525714Y-102722857D01*
X140525714Y-102818095D01*
X140478095Y-102960952D01*
X139906666Y-103532380D01*
X140525714Y-103532380D01*
%TO.C,C4*%
X147333333Y-61037142D02*
X147285714Y-61084761D01*
X147142857Y-61132380D01*
X147047619Y-61132380D01*
X146904761Y-61084761D01*
X146809523Y-60989523D01*
X146761904Y-60894285D01*
X146714285Y-60703809D01*
X146714285Y-60560952D01*
X146761904Y-60370476D01*
X146809523Y-60275238D01*
X146904761Y-60180000D01*
X147047619Y-60132380D01*
X147142857Y-60132380D01*
X147285714Y-60180000D01*
X147333333Y-60227619D01*
X148190476Y-60465714D02*
X148190476Y-61132380D01*
X147952380Y-60084761D02*
X147714285Y-60799047D01*
X148333333Y-60799047D01*
%TO.C,D1*%
X94882380Y-53738095D02*
X93882380Y-53738095D01*
X93882380Y-53500000D01*
X93930000Y-53357142D01*
X94025238Y-53261904D01*
X94120476Y-53214285D01*
X94310952Y-53166666D01*
X94453809Y-53166666D01*
X94644285Y-53214285D01*
X94739523Y-53261904D01*
X94834761Y-53357142D01*
X94882380Y-53500000D01*
X94882380Y-53738095D01*
X94882380Y-52214285D02*
X94882380Y-52785714D01*
X94882380Y-52500000D02*
X93882380Y-52500000D01*
X94025238Y-52595238D01*
X94120476Y-52690476D01*
X94168095Y-52785714D01*
%TO.C,D2*%
X98882380Y-53738095D02*
X97882380Y-53738095D01*
X97882380Y-53500000D01*
X97930000Y-53357142D01*
X98025238Y-53261904D01*
X98120476Y-53214285D01*
X98310952Y-53166666D01*
X98453809Y-53166666D01*
X98644285Y-53214285D01*
X98739523Y-53261904D01*
X98834761Y-53357142D01*
X98882380Y-53500000D01*
X98882380Y-53738095D01*
X97977619Y-52785714D02*
X97930000Y-52738095D01*
X97882380Y-52642857D01*
X97882380Y-52404761D01*
X97930000Y-52309523D01*
X97977619Y-52261904D01*
X98072857Y-52214285D01*
X98168095Y-52214285D01*
X98310952Y-52261904D01*
X98882380Y-52833333D01*
X98882380Y-52214285D01*
%TO.C,D3*%
X102882380Y-53738095D02*
X101882380Y-53738095D01*
X101882380Y-53500000D01*
X101930000Y-53357142D01*
X102025238Y-53261904D01*
X102120476Y-53214285D01*
X102310952Y-53166666D01*
X102453809Y-53166666D01*
X102644285Y-53214285D01*
X102739523Y-53261904D01*
X102834761Y-53357142D01*
X102882380Y-53500000D01*
X102882380Y-53738095D01*
X101882380Y-52833333D02*
X101882380Y-52214285D01*
X102263333Y-52547619D01*
X102263333Y-52404761D01*
X102310952Y-52309523D01*
X102358571Y-52261904D01*
X102453809Y-52214285D01*
X102691904Y-52214285D01*
X102787142Y-52261904D01*
X102834761Y-52309523D01*
X102882380Y-52404761D01*
X102882380Y-52690476D01*
X102834761Y-52785714D01*
X102787142Y-52833333D01*
%TO.C,D4*%
X106882380Y-53738095D02*
X105882380Y-53738095D01*
X105882380Y-53500000D01*
X105930000Y-53357142D01*
X106025238Y-53261904D01*
X106120476Y-53214285D01*
X106310952Y-53166666D01*
X106453809Y-53166666D01*
X106644285Y-53214285D01*
X106739523Y-53261904D01*
X106834761Y-53357142D01*
X106882380Y-53500000D01*
X106882380Y-53738095D01*
X106215714Y-52309523D02*
X106882380Y-52309523D01*
X105834761Y-52547619D02*
X106549047Y-52785714D01*
X106549047Y-52166666D01*
%TO.C,D5*%
X110882380Y-53738095D02*
X109882380Y-53738095D01*
X109882380Y-53500000D01*
X109930000Y-53357142D01*
X110025238Y-53261904D01*
X110120476Y-53214285D01*
X110310952Y-53166666D01*
X110453809Y-53166666D01*
X110644285Y-53214285D01*
X110739523Y-53261904D01*
X110834761Y-53357142D01*
X110882380Y-53500000D01*
X110882380Y-53738095D01*
X109882380Y-52261904D02*
X109882380Y-52738095D01*
X110358571Y-52785714D01*
X110310952Y-52738095D01*
X110263333Y-52642857D01*
X110263333Y-52404761D01*
X110310952Y-52309523D01*
X110358571Y-52261904D01*
X110453809Y-52214285D01*
X110691904Y-52214285D01*
X110787142Y-52261904D01*
X110834761Y-52309523D01*
X110882380Y-52404761D01*
X110882380Y-52642857D01*
X110834761Y-52738095D01*
X110787142Y-52785714D01*
%TO.C,D8*%
X144361904Y-66702380D02*
X144361904Y-65702380D01*
X144600000Y-65702380D01*
X144742857Y-65750000D01*
X144838095Y-65845238D01*
X144885714Y-65940476D01*
X144933333Y-66130952D01*
X144933333Y-66273809D01*
X144885714Y-66464285D01*
X144838095Y-66559523D01*
X144742857Y-66654761D01*
X144600000Y-66702380D01*
X144361904Y-66702380D01*
X145504761Y-66130952D02*
X145409523Y-66083333D01*
X145361904Y-66035714D01*
X145314285Y-65940476D01*
X145314285Y-65892857D01*
X145361904Y-65797619D01*
X145409523Y-65750000D01*
X145504761Y-65702380D01*
X145695238Y-65702380D01*
X145790476Y-65750000D01*
X145838095Y-65797619D01*
X145885714Y-65892857D01*
X145885714Y-65940476D01*
X145838095Y-66035714D01*
X145790476Y-66083333D01*
X145695238Y-66130952D01*
X145504761Y-66130952D01*
X145409523Y-66178571D01*
X145361904Y-66226190D01*
X145314285Y-66321428D01*
X145314285Y-66511904D01*
X145361904Y-66607142D01*
X145409523Y-66654761D01*
X145504761Y-66702380D01*
X145695238Y-66702380D01*
X145790476Y-66654761D01*
X145838095Y-66607142D01*
X145885714Y-66511904D01*
X145885714Y-66321428D01*
X145838095Y-66226190D01*
X145790476Y-66178571D01*
X145695238Y-66130952D01*
%TO.C,J1*%
X84816666Y-67642380D02*
X84816666Y-68356666D01*
X84769047Y-68499523D01*
X84673809Y-68594761D01*
X84530952Y-68642380D01*
X84435714Y-68642380D01*
X85816666Y-68642380D02*
X85245238Y-68642380D01*
X85530952Y-68642380D02*
X85530952Y-67642380D01*
X85435714Y-67785238D01*
X85340476Y-67880476D01*
X85245238Y-67928095D01*
%TO.C,J2*%
X133846666Y-58982380D02*
X133846666Y-59696666D01*
X133799047Y-59839523D01*
X133703809Y-59934761D01*
X133560952Y-59982380D01*
X133465714Y-59982380D01*
X134275238Y-59077619D02*
X134322857Y-59030000D01*
X134418095Y-58982380D01*
X134656190Y-58982380D01*
X134751428Y-59030000D01*
X134799047Y-59077619D01*
X134846666Y-59172857D01*
X134846666Y-59268095D01*
X134799047Y-59410952D01*
X134227619Y-59982380D01*
X134846666Y-59982380D01*
%TO.C,J5*%
X119452380Y-64333333D02*
X120166666Y-64333333D01*
X120309523Y-64380952D01*
X120404761Y-64476190D01*
X120452380Y-64619047D01*
X120452380Y-64714285D01*
X119452380Y-63380952D02*
X119452380Y-63857142D01*
X119928571Y-63904761D01*
X119880952Y-63857142D01*
X119833333Y-63761904D01*
X119833333Y-63523809D01*
X119880952Y-63428571D01*
X119928571Y-63380952D01*
X120023809Y-63333333D01*
X120261904Y-63333333D01*
X120357142Y-63380952D01*
X120404761Y-63428571D01*
X120452380Y-63523809D01*
X120452380Y-63761904D01*
X120404761Y-63857142D01*
X120357142Y-63904761D01*
%TO.C,J6*%
X124452380Y-64333333D02*
X125166666Y-64333333D01*
X125309523Y-64380952D01*
X125404761Y-64476190D01*
X125452380Y-64619047D01*
X125452380Y-64714285D01*
X124452380Y-63428571D02*
X124452380Y-63619047D01*
X124500000Y-63714285D01*
X124547619Y-63761904D01*
X124690476Y-63857142D01*
X124880952Y-63904761D01*
X125261904Y-63904761D01*
X125357142Y-63857142D01*
X125404761Y-63809523D01*
X125452380Y-63714285D01*
X125452380Y-63523809D01*
X125404761Y-63428571D01*
X125357142Y-63380952D01*
X125261904Y-63333333D01*
X125023809Y-63333333D01*
X124928571Y-63380952D01*
X124880952Y-63428571D01*
X124833333Y-63523809D01*
X124833333Y-63714285D01*
X124880952Y-63809523D01*
X124928571Y-63857142D01*
X125023809Y-63904761D01*
%TO.C,Q1*%
X122494761Y-100277619D02*
X122399523Y-100230000D01*
X122304285Y-100134761D01*
X122161428Y-99991904D01*
X122066190Y-99944285D01*
X121970952Y-99944285D01*
X122018571Y-100182380D02*
X121923333Y-100134761D01*
X121828095Y-100039523D01*
X121780476Y-99849047D01*
X121780476Y-99515714D01*
X121828095Y-99325238D01*
X121923333Y-99230000D01*
X122018571Y-99182380D01*
X122209047Y-99182380D01*
X122304285Y-99230000D01*
X122399523Y-99325238D01*
X122447142Y-99515714D01*
X122447142Y-99849047D01*
X122399523Y-100039523D01*
X122304285Y-100134761D01*
X122209047Y-100182380D01*
X122018571Y-100182380D01*
X123399523Y-100182380D02*
X122828095Y-100182380D01*
X123113809Y-100182380D02*
X123113809Y-99182380D01*
X123018571Y-99325238D01*
X122923333Y-99420476D01*
X122828095Y-99468095D01*
%TO.C,Q2*%
X133364761Y-109547619D02*
X133269523Y-109500000D01*
X133174285Y-109404761D01*
X133031428Y-109261904D01*
X132936190Y-109214285D01*
X132840952Y-109214285D01*
X132888571Y-109452380D02*
X132793333Y-109404761D01*
X132698095Y-109309523D01*
X132650476Y-109119047D01*
X132650476Y-108785714D01*
X132698095Y-108595238D01*
X132793333Y-108500000D01*
X132888571Y-108452380D01*
X133079047Y-108452380D01*
X133174285Y-108500000D01*
X133269523Y-108595238D01*
X133317142Y-108785714D01*
X133317142Y-109119047D01*
X133269523Y-109309523D01*
X133174285Y-109404761D01*
X133079047Y-109452380D01*
X132888571Y-109452380D01*
X133698095Y-108547619D02*
X133745714Y-108500000D01*
X133840952Y-108452380D01*
X134079047Y-108452380D01*
X134174285Y-108500000D01*
X134221904Y-108547619D01*
X134269523Y-108642857D01*
X134269523Y-108738095D01*
X134221904Y-108880952D01*
X133650476Y-109452380D01*
X134269523Y-109452380D01*
%TO.C,Q3*%
X126444761Y-104367619D02*
X126349523Y-104320000D01*
X126254285Y-104224761D01*
X126111428Y-104081904D01*
X126016190Y-104034285D01*
X125920952Y-104034285D01*
X125968571Y-104272380D02*
X125873333Y-104224761D01*
X125778095Y-104129523D01*
X125730476Y-103939047D01*
X125730476Y-103605714D01*
X125778095Y-103415238D01*
X125873333Y-103320000D01*
X125968571Y-103272380D01*
X126159047Y-103272380D01*
X126254285Y-103320000D01*
X126349523Y-103415238D01*
X126397142Y-103605714D01*
X126397142Y-103939047D01*
X126349523Y-104129523D01*
X126254285Y-104224761D01*
X126159047Y-104272380D01*
X125968571Y-104272380D01*
X126730476Y-103272380D02*
X127349523Y-103272380D01*
X127016190Y-103653333D01*
X127159047Y-103653333D01*
X127254285Y-103700952D01*
X127301904Y-103748571D01*
X127349523Y-103843809D01*
X127349523Y-104081904D01*
X127301904Y-104177142D01*
X127254285Y-104224761D01*
X127159047Y-104272380D01*
X126873333Y-104272380D01*
X126778095Y-104224761D01*
X126730476Y-104177142D01*
%TO.C,R1*%
X144463333Y-115232380D02*
X144130000Y-114756190D01*
X143891904Y-115232380D02*
X143891904Y-114232380D01*
X144272857Y-114232380D01*
X144368095Y-114280000D01*
X144415714Y-114327619D01*
X144463333Y-114422857D01*
X144463333Y-114565714D01*
X144415714Y-114660952D01*
X144368095Y-114708571D01*
X144272857Y-114756190D01*
X143891904Y-114756190D01*
X145415714Y-115232380D02*
X144844285Y-115232380D01*
X145130000Y-115232380D02*
X145130000Y-114232380D01*
X145034761Y-114375238D01*
X144939523Y-114470476D01*
X144844285Y-114518095D01*
%TO.C,R2*%
X140303333Y-118102380D02*
X139970000Y-117626190D01*
X139731904Y-118102380D02*
X139731904Y-117102380D01*
X140112857Y-117102380D01*
X140208095Y-117150000D01*
X140255714Y-117197619D01*
X140303333Y-117292857D01*
X140303333Y-117435714D01*
X140255714Y-117530952D01*
X140208095Y-117578571D01*
X140112857Y-117626190D01*
X139731904Y-117626190D01*
X140684285Y-117197619D02*
X140731904Y-117150000D01*
X140827142Y-117102380D01*
X141065238Y-117102380D01*
X141160476Y-117150000D01*
X141208095Y-117197619D01*
X141255714Y-117292857D01*
X141255714Y-117388095D01*
X141208095Y-117530952D01*
X140636666Y-118102380D01*
X141255714Y-118102380D01*
%TO.C,R3*%
X147103333Y-63582380D02*
X146770000Y-63106190D01*
X146531904Y-63582380D02*
X146531904Y-62582380D01*
X146912857Y-62582380D01*
X147008095Y-62630000D01*
X147055714Y-62677619D01*
X147103333Y-62772857D01*
X147103333Y-62915714D01*
X147055714Y-63010952D01*
X147008095Y-63058571D01*
X146912857Y-63106190D01*
X146531904Y-63106190D01*
X147436666Y-62582380D02*
X148055714Y-62582380D01*
X147722380Y-62963333D01*
X147865238Y-62963333D01*
X147960476Y-63010952D01*
X148008095Y-63058571D01*
X148055714Y-63153809D01*
X148055714Y-63391904D01*
X148008095Y-63487142D01*
X147960476Y-63534761D01*
X147865238Y-63582380D01*
X147579523Y-63582380D01*
X147484285Y-63534761D01*
X147436666Y-63487142D01*
%TO.C,R4*%
X94882380Y-57166666D02*
X94406190Y-57500000D01*
X94882380Y-57738095D02*
X93882380Y-57738095D01*
X93882380Y-57357142D01*
X93930000Y-57261904D01*
X93977619Y-57214285D01*
X94072857Y-57166666D01*
X94215714Y-57166666D01*
X94310952Y-57214285D01*
X94358571Y-57261904D01*
X94406190Y-57357142D01*
X94406190Y-57738095D01*
X94215714Y-56309523D02*
X94882380Y-56309523D01*
X93834761Y-56547619D02*
X94549047Y-56785714D01*
X94549047Y-56166666D01*
%TO.C,R5*%
X98882380Y-57166666D02*
X98406190Y-57500000D01*
X98882380Y-57738095D02*
X97882380Y-57738095D01*
X97882380Y-57357142D01*
X97930000Y-57261904D01*
X97977619Y-57214285D01*
X98072857Y-57166666D01*
X98215714Y-57166666D01*
X98310952Y-57214285D01*
X98358571Y-57261904D01*
X98406190Y-57357142D01*
X98406190Y-57738095D01*
X97882380Y-56261904D02*
X97882380Y-56738095D01*
X98358571Y-56785714D01*
X98310952Y-56738095D01*
X98263333Y-56642857D01*
X98263333Y-56404761D01*
X98310952Y-56309523D01*
X98358571Y-56261904D01*
X98453809Y-56214285D01*
X98691904Y-56214285D01*
X98787142Y-56261904D01*
X98834761Y-56309523D01*
X98882380Y-56404761D01*
X98882380Y-56642857D01*
X98834761Y-56738095D01*
X98787142Y-56785714D01*
%TO.C,R6*%
X102882380Y-57166666D02*
X102406190Y-57500000D01*
X102882380Y-57738095D02*
X101882380Y-57738095D01*
X101882380Y-57357142D01*
X101930000Y-57261904D01*
X101977619Y-57214285D01*
X102072857Y-57166666D01*
X102215714Y-57166666D01*
X102310952Y-57214285D01*
X102358571Y-57261904D01*
X102406190Y-57357142D01*
X102406190Y-57738095D01*
X101882380Y-56309523D02*
X101882380Y-56500000D01*
X101930000Y-56595238D01*
X101977619Y-56642857D01*
X102120476Y-56738095D01*
X102310952Y-56785714D01*
X102691904Y-56785714D01*
X102787142Y-56738095D01*
X102834761Y-56690476D01*
X102882380Y-56595238D01*
X102882380Y-56404761D01*
X102834761Y-56309523D01*
X102787142Y-56261904D01*
X102691904Y-56214285D01*
X102453809Y-56214285D01*
X102358571Y-56261904D01*
X102310952Y-56309523D01*
X102263333Y-56404761D01*
X102263333Y-56595238D01*
X102310952Y-56690476D01*
X102358571Y-56738095D01*
X102453809Y-56785714D01*
%TO.C,R7*%
X106882380Y-57166666D02*
X106406190Y-57500000D01*
X106882380Y-57738095D02*
X105882380Y-57738095D01*
X105882380Y-57357142D01*
X105930000Y-57261904D01*
X105977619Y-57214285D01*
X106072857Y-57166666D01*
X106215714Y-57166666D01*
X106310952Y-57214285D01*
X106358571Y-57261904D01*
X106406190Y-57357142D01*
X106406190Y-57738095D01*
X105882380Y-56833333D02*
X105882380Y-56166666D01*
X106882380Y-56595238D01*
%TO.C,R8*%
X110882380Y-57166666D02*
X110406190Y-57500000D01*
X110882380Y-57738095D02*
X109882380Y-57738095D01*
X109882380Y-57357142D01*
X109930000Y-57261904D01*
X109977619Y-57214285D01*
X110072857Y-57166666D01*
X110215714Y-57166666D01*
X110310952Y-57214285D01*
X110358571Y-57261904D01*
X110406190Y-57357142D01*
X110406190Y-57738095D01*
X110310952Y-56595238D02*
X110263333Y-56690476D01*
X110215714Y-56738095D01*
X110120476Y-56785714D01*
X110072857Y-56785714D01*
X109977619Y-56738095D01*
X109930000Y-56690476D01*
X109882380Y-56595238D01*
X109882380Y-56404761D01*
X109930000Y-56309523D01*
X109977619Y-56261904D01*
X110072857Y-56214285D01*
X110120476Y-56214285D01*
X110215714Y-56261904D01*
X110263333Y-56309523D01*
X110310952Y-56404761D01*
X110310952Y-56595238D01*
X110358571Y-56690476D01*
X110406190Y-56738095D01*
X110501428Y-56785714D01*
X110691904Y-56785714D01*
X110787142Y-56738095D01*
X110834761Y-56690476D01*
X110882380Y-56595238D01*
X110882380Y-56404761D01*
X110834761Y-56309523D01*
X110787142Y-56261904D01*
X110691904Y-56214285D01*
X110501428Y-56214285D01*
X110406190Y-56261904D01*
X110358571Y-56309523D01*
X110310952Y-56404761D01*
%TO.C,R11*%
X126017142Y-97192380D02*
X125683809Y-96716190D01*
X125445714Y-97192380D02*
X125445714Y-96192380D01*
X125826666Y-96192380D01*
X125921904Y-96240000D01*
X125969523Y-96287619D01*
X126017142Y-96382857D01*
X126017142Y-96525714D01*
X125969523Y-96620952D01*
X125921904Y-96668571D01*
X125826666Y-96716190D01*
X125445714Y-96716190D01*
X126969523Y-97192380D02*
X126398095Y-97192380D01*
X126683809Y-97192380D02*
X126683809Y-96192380D01*
X126588571Y-96335238D01*
X126493333Y-96430476D01*
X126398095Y-96478095D01*
X127921904Y-97192380D02*
X127350476Y-97192380D01*
X127636190Y-97192380D02*
X127636190Y-96192380D01*
X127540952Y-96335238D01*
X127445714Y-96430476D01*
X127350476Y-96478095D01*
%TO.C,R12*%
X145972380Y-112592857D02*
X145496190Y-112926190D01*
X145972380Y-113164285D02*
X144972380Y-113164285D01*
X144972380Y-112783333D01*
X145020000Y-112688095D01*
X145067619Y-112640476D01*
X145162857Y-112592857D01*
X145305714Y-112592857D01*
X145400952Y-112640476D01*
X145448571Y-112688095D01*
X145496190Y-112783333D01*
X145496190Y-113164285D01*
X145972380Y-111640476D02*
X145972380Y-112211904D01*
X145972380Y-111926190D02*
X144972380Y-111926190D01*
X145115238Y-112021428D01*
X145210476Y-112116666D01*
X145258095Y-112211904D01*
X145067619Y-111259523D02*
X145020000Y-111211904D01*
X144972380Y-111116666D01*
X144972380Y-110878571D01*
X145020000Y-110783333D01*
X145067619Y-110735714D01*
X145162857Y-110688095D01*
X145258095Y-110688095D01*
X145400952Y-110735714D01*
X145972380Y-111307142D01*
X145972380Y-110688095D01*
%TO.C,R13*%
X132292380Y-112332857D02*
X131816190Y-112666190D01*
X132292380Y-112904285D02*
X131292380Y-112904285D01*
X131292380Y-112523333D01*
X131340000Y-112428095D01*
X131387619Y-112380476D01*
X131482857Y-112332857D01*
X131625714Y-112332857D01*
X131720952Y-112380476D01*
X131768571Y-112428095D01*
X131816190Y-112523333D01*
X131816190Y-112904285D01*
X132292380Y-111380476D02*
X132292380Y-111951904D01*
X132292380Y-111666190D02*
X131292380Y-111666190D01*
X131435238Y-111761428D01*
X131530476Y-111856666D01*
X131578095Y-111951904D01*
X131292380Y-111047142D02*
X131292380Y-110428095D01*
X131673333Y-110761428D01*
X131673333Y-110618571D01*
X131720952Y-110523333D01*
X131768571Y-110475714D01*
X131863809Y-110428095D01*
X132101904Y-110428095D01*
X132197142Y-110475714D01*
X132244761Y-110523333D01*
X132292380Y-110618571D01*
X132292380Y-110904285D01*
X132244761Y-110999523D01*
X132197142Y-111047142D01*
%TO.C,R14*%
X132282380Y-116392857D02*
X131806190Y-116726190D01*
X132282380Y-116964285D02*
X131282380Y-116964285D01*
X131282380Y-116583333D01*
X131330000Y-116488095D01*
X131377619Y-116440476D01*
X131472857Y-116392857D01*
X131615714Y-116392857D01*
X131710952Y-116440476D01*
X131758571Y-116488095D01*
X131806190Y-116583333D01*
X131806190Y-116964285D01*
X132282380Y-115440476D02*
X132282380Y-116011904D01*
X132282380Y-115726190D02*
X131282380Y-115726190D01*
X131425238Y-115821428D01*
X131520476Y-115916666D01*
X131568095Y-116011904D01*
X131615714Y-114583333D02*
X132282380Y-114583333D01*
X131234761Y-114821428D02*
X131949047Y-115059523D01*
X131949047Y-114440476D01*
%TO.C,R20*%
X141517142Y-66502380D02*
X141183809Y-66026190D01*
X140945714Y-66502380D02*
X140945714Y-65502380D01*
X141326666Y-65502380D01*
X141421904Y-65550000D01*
X141469523Y-65597619D01*
X141517142Y-65692857D01*
X141517142Y-65835714D01*
X141469523Y-65930952D01*
X141421904Y-65978571D01*
X141326666Y-66026190D01*
X140945714Y-66026190D01*
X141898095Y-65597619D02*
X141945714Y-65550000D01*
X142040952Y-65502380D01*
X142279047Y-65502380D01*
X142374285Y-65550000D01*
X142421904Y-65597619D01*
X142469523Y-65692857D01*
X142469523Y-65788095D01*
X142421904Y-65930952D01*
X141850476Y-66502380D01*
X142469523Y-66502380D01*
X143088571Y-65502380D02*
X143183809Y-65502380D01*
X143279047Y-65550000D01*
X143326666Y-65597619D01*
X143374285Y-65692857D01*
X143421904Y-65883333D01*
X143421904Y-66121428D01*
X143374285Y-66311904D01*
X143326666Y-66407142D01*
X143279047Y-66454761D01*
X143183809Y-66502380D01*
X143088571Y-66502380D01*
X142993333Y-66454761D01*
X142945714Y-66407142D01*
X142898095Y-66311904D01*
X142850476Y-66121428D01*
X142850476Y-65883333D01*
X142898095Y-65692857D01*
X142945714Y-65597619D01*
X142993333Y-65550000D01*
X143088571Y-65502380D01*
%TO.C,SW1*%
X116666666Y-60174761D02*
X116809523Y-60222380D01*
X117047619Y-60222380D01*
X117142857Y-60174761D01*
X117190476Y-60127142D01*
X117238095Y-60031904D01*
X117238095Y-59936666D01*
X117190476Y-59841428D01*
X117142857Y-59793809D01*
X117047619Y-59746190D01*
X116857142Y-59698571D01*
X116761904Y-59650952D01*
X116714285Y-59603333D01*
X116666666Y-59508095D01*
X116666666Y-59412857D01*
X116714285Y-59317619D01*
X116761904Y-59270000D01*
X116857142Y-59222380D01*
X117095238Y-59222380D01*
X117238095Y-59270000D01*
X117571428Y-59222380D02*
X117809523Y-60222380D01*
X118000000Y-59508095D01*
X118190476Y-60222380D01*
X118428571Y-59222380D01*
X119333333Y-60222380D02*
X118761904Y-60222380D01*
X119047619Y-60222380D02*
X119047619Y-59222380D01*
X118952380Y-59365238D01*
X118857142Y-59460476D01*
X118761904Y-59508095D01*
%TO.C,SW3*%
X141694761Y-57063333D02*
X141742380Y-56920476D01*
X141742380Y-56682380D01*
X141694761Y-56587142D01*
X141647142Y-56539523D01*
X141551904Y-56491904D01*
X141456666Y-56491904D01*
X141361428Y-56539523D01*
X141313809Y-56587142D01*
X141266190Y-56682380D01*
X141218571Y-56872857D01*
X141170952Y-56968095D01*
X141123333Y-57015714D01*
X141028095Y-57063333D01*
X140932857Y-57063333D01*
X140837619Y-57015714D01*
X140790000Y-56968095D01*
X140742380Y-56872857D01*
X140742380Y-56634761D01*
X140790000Y-56491904D01*
X140742380Y-56158571D02*
X141742380Y-55920476D01*
X141028095Y-55730000D01*
X141742380Y-55539523D01*
X140742380Y-55301428D01*
X140742380Y-55015714D02*
X140742380Y-54396666D01*
X141123333Y-54730000D01*
X141123333Y-54587142D01*
X141170952Y-54491904D01*
X141218571Y-54444285D01*
X141313809Y-54396666D01*
X141551904Y-54396666D01*
X141647142Y-54444285D01*
X141694761Y-54491904D01*
X141742380Y-54587142D01*
X141742380Y-54872857D01*
X141694761Y-54968095D01*
X141647142Y-55015714D01*
%TO.C,SW4*%
X121666666Y-60174761D02*
X121809523Y-60222380D01*
X122047619Y-60222380D01*
X122142857Y-60174761D01*
X122190476Y-60127142D01*
X122238095Y-60031904D01*
X122238095Y-59936666D01*
X122190476Y-59841428D01*
X122142857Y-59793809D01*
X122047619Y-59746190D01*
X121857142Y-59698571D01*
X121761904Y-59650952D01*
X121714285Y-59603333D01*
X121666666Y-59508095D01*
X121666666Y-59412857D01*
X121714285Y-59317619D01*
X121761904Y-59270000D01*
X121857142Y-59222380D01*
X122095238Y-59222380D01*
X122238095Y-59270000D01*
X122571428Y-59222380D02*
X122809523Y-60222380D01*
X123000000Y-59508095D01*
X123190476Y-60222380D01*
X123428571Y-59222380D01*
X124238095Y-59555714D02*
X124238095Y-60222380D01*
X124000000Y-59174761D02*
X123761904Y-59889047D01*
X124380952Y-59889047D01*
%TO.C,U3*%
X137398095Y-109092380D02*
X137398095Y-109901904D01*
X137445714Y-109997142D01*
X137493333Y-110044761D01*
X137588571Y-110092380D01*
X137779047Y-110092380D01*
X137874285Y-110044761D01*
X137921904Y-109997142D01*
X137969523Y-109901904D01*
X137969523Y-109092380D01*
X138350476Y-109092380D02*
X138969523Y-109092380D01*
X138636190Y-109473333D01*
X138779047Y-109473333D01*
X138874285Y-109520952D01*
X138921904Y-109568571D01*
X138969523Y-109663809D01*
X138969523Y-109901904D01*
X138921904Y-109997142D01*
X138874285Y-110044761D01*
X138779047Y-110092380D01*
X138493333Y-110092380D01*
X138398095Y-110044761D01*
X138350476Y-109997142D01*
%TO.C,U4*%
X128742380Y-100061904D02*
X129551904Y-100061904D01*
X129647142Y-100014285D01*
X129694761Y-99966666D01*
X129742380Y-99871428D01*
X129742380Y-99680952D01*
X129694761Y-99585714D01*
X129647142Y-99538095D01*
X129551904Y-99490476D01*
X128742380Y-99490476D01*
X129075714Y-98585714D02*
X129742380Y-98585714D01*
X128694761Y-98823809D02*
X129409047Y-99061904D01*
X129409047Y-98442857D01*
%TO.C,U5*%
X99776238Y-81843734D02*
X100348658Y-82416154D01*
X100449673Y-82449826D01*
X100517017Y-82449826D01*
X100618032Y-82416154D01*
X100752719Y-82281467D01*
X100786391Y-82180452D01*
X100786391Y-82113108D01*
X100752719Y-82012093D01*
X100180299Y-81439673D01*
X100853734Y-80766238D02*
X100517017Y-81102956D01*
X100820063Y-81473345D01*
X100820063Y-81406002D01*
X100853734Y-81304986D01*
X101022093Y-81136628D01*
X101123108Y-81102956D01*
X101190452Y-81102956D01*
X101291467Y-81136628D01*
X101459826Y-81304986D01*
X101493498Y-81406002D01*
X101493498Y-81473345D01*
X101459826Y-81574360D01*
X101291467Y-81742719D01*
X101190452Y-81776391D01*
X101123108Y-81776391D01*
%TO.C,U6*%
X117588095Y-99522380D02*
X117588095Y-100331904D01*
X117635714Y-100427142D01*
X117683333Y-100474761D01*
X117778571Y-100522380D01*
X117969047Y-100522380D01*
X118064285Y-100474761D01*
X118111904Y-100427142D01*
X118159523Y-100331904D01*
X118159523Y-99522380D01*
X119064285Y-99522380D02*
X118873809Y-99522380D01*
X118778571Y-99570000D01*
X118730952Y-99617619D01*
X118635714Y-99760476D01*
X118588095Y-99950952D01*
X118588095Y-100331904D01*
X118635714Y-100427142D01*
X118683333Y-100474761D01*
X118778571Y-100522380D01*
X118969047Y-100522380D01*
X119064285Y-100474761D01*
X119111904Y-100427142D01*
X119159523Y-100331904D01*
X119159523Y-100093809D01*
X119111904Y-99998571D01*
X119064285Y-99950952D01*
X118969047Y-99903333D01*
X118778571Y-99903333D01*
X118683333Y-99950952D01*
X118635714Y-99998571D01*
X118588095Y-100093809D01*
%TO.C,R31*%
X128857142Y-103862380D02*
X128523809Y-103386190D01*
X128285714Y-103862380D02*
X128285714Y-102862380D01*
X128666666Y-102862380D01*
X128761904Y-102910000D01*
X128809523Y-102957619D01*
X128857142Y-103052857D01*
X128857142Y-103195714D01*
X128809523Y-103290952D01*
X128761904Y-103338571D01*
X128666666Y-103386190D01*
X128285714Y-103386190D01*
X129190476Y-102862380D02*
X129809523Y-102862380D01*
X129476190Y-103243333D01*
X129619047Y-103243333D01*
X129714285Y-103290952D01*
X129761904Y-103338571D01*
X129809523Y-103433809D01*
X129809523Y-103671904D01*
X129761904Y-103767142D01*
X129714285Y-103814761D01*
X129619047Y-103862380D01*
X129333333Y-103862380D01*
X129238095Y-103814761D01*
X129190476Y-103767142D01*
X130761904Y-103862380D02*
X130190476Y-103862380D01*
X130476190Y-103862380D02*
X130476190Y-102862380D01*
X130380952Y-103005238D01*
X130285714Y-103100476D01*
X130190476Y-103148095D01*
%TD*%
M02*
