M48
; DRILL file {KiCad (5.1.4)-1} date 20.12.2020 21:22:00
; FORMAT={-:-/ absolute / metric / decimal}
; #@! TF.CreationDate,2020-12-20T21:22:00+02:00
; #@! TF.GenerationSoftware,Kicad,Pcbnew,(5.1.4)-1
; #@! TF.FileFunction,Plated,1,2,PTH
FMAT,2
METRIC
T1C0.400
T2C0.762
T3C1.000
T4C1.040
%
G90
G05
T1
X82.19Y-54.97
X90.88Y-79.73
X91.56Y-52.12
X94.4Y-83.19
X98.17Y-86.77
X98.75Y-87.855
X99.928Y-84.878
X102.07Y-75.91
X103.23Y-77.23
X103.505Y-83.585
X104.3Y-84.68
X104.82Y-79.91
X104.94Y-76.56
X105.1Y-84.63
X105.44Y-82.4
X105.9Y-84.652
X106.679Y-84.471
X107.56Y-84.72
X107.62Y-75.13
X108.17Y-85.37
X108.42Y-75.151
X108.9Y-85.77
X110.147Y-85.67
X113.97Y-52.2
X114.93Y-88.19
X118.7Y-62.67
X120.04Y-64.87
X120.6Y-95.38
X120.62Y-55.08
X120.63Y-52.32
X123.16Y-99.92
X123.7Y-62.67
X125.77Y-53.87
X128.33Y-93.01
X129.34Y-103.08
X129.52Y-96.41
X130.375Y-104.84
X130.815Y-96.35
X130.885Y-100.17
X132.395Y-104.17
X132.635Y-100.17
X133.1Y-105.09
X133.14Y-54.98
X134.19Y-104.17
X134.2Y-53.6
X134.26Y-100.74
X134.46Y-107.45
X135.3Y-53.6
X135.96Y-111.19
X136.1Y-52.27
X137.2Y-97.86
X137.5Y-53.6
X138.16Y-113.045
X140.05Y-106.495
X141.345Y-116.22
X143.58Y-97.85
T2
X118.95Y-77.95
X118.95Y-80.49
X145.85Y-79.22
T3
X118.0Y-51.92
X118.0Y-54.46
X118.0Y-57.0
X123.0Y-51.92
X123.0Y-54.46
X123.0Y-57.0
X85.15Y-70.96
X85.15Y-73.5
X85.15Y-76.04
X85.15Y-78.58
X85.15Y-81.12
X85.15Y-83.66
X143.62Y-54.46
X143.62Y-57.0
X146.16Y-54.46
X146.16Y-57.0
T4
X101.03Y-107.682
X101.03Y-110.222
X103.57Y-107.682
X103.57Y-110.222
X106.11Y-107.682
X106.11Y-110.222
X108.65Y-107.682
X108.65Y-110.222
X111.19Y-107.682
X111.19Y-110.222
X113.73Y-107.682
X113.73Y-110.222
X116.27Y-107.682
X116.27Y-110.222
X118.81Y-107.682
X118.81Y-110.222
X121.35Y-107.682
X121.35Y-110.222
X123.89Y-107.682
X123.89Y-110.222
X126.43Y-107.682
X126.43Y-110.222
X128.97Y-107.682
X128.97Y-110.222
T0
M30
