%TF.GenerationSoftware,KiCad,Pcbnew,(5.1.4)-1*%
%TF.CreationDate,2020-12-20T21:21:53+02:00*%
%TF.ProjectId,Borta Dators,426f7274-6120-4446-9174-6f72732e6b69,rev?*%
%TF.SameCoordinates,Original*%
%TF.FileFunction,Soldermask,Bot*%
%TF.FilePolarity,Negative*%
%FSLAX46Y46*%
G04 Gerber Fmt 4.6, Leading zero omitted, Abs format (unit mm)*
G04 Created by KiCad (PCBNEW (5.1.4)-1) date 2020-12-20 21:21:53*
%MOMM*%
%LPD*%
G04 APERTURE LIST*
%ADD10C,1.624000*%
%ADD11C,1.740000*%
%ADD12C,0.100000*%
%ADD13C,1.050000*%
%ADD14R,1.800000X1.800000*%
%ADD15O,1.800000X1.800000*%
G04 APERTURE END LIST*
D10*
%TO.C,J4*%
X118950000Y-80490000D03*
X118950000Y-77950000D03*
X145850000Y-79220000D03*
%TD*%
D11*
%TO.C,J3*%
X128970000Y-110222000D03*
X128970000Y-107682000D03*
X126430000Y-110222000D03*
X126430000Y-107682000D03*
X123890000Y-110222000D03*
X123890000Y-107682000D03*
X121350000Y-110222000D03*
X121350000Y-107682000D03*
X118810000Y-110222000D03*
X118810000Y-107682000D03*
X116270000Y-110222000D03*
X116270000Y-107682000D03*
X113730000Y-110222000D03*
X113730000Y-107682000D03*
X111190000Y-110222000D03*
X111190000Y-107682000D03*
X108650000Y-110222000D03*
X108650000Y-107682000D03*
X106110000Y-110222000D03*
X106110000Y-107682000D03*
X103570000Y-110222000D03*
X103570000Y-107682000D03*
X101030000Y-110222000D03*
X101030000Y-107682000D03*
%TD*%
D12*
%TO.C,C3*%
G36*
X96738229Y-86171264D02*
G01*
X96763711Y-86175044D01*
X96788700Y-86181303D01*
X96812954Y-86189982D01*
X96836242Y-86200996D01*
X96858337Y-86214239D01*
X96879028Y-86229585D01*
X96898116Y-86246884D01*
X96915415Y-86265972D01*
X96930761Y-86286663D01*
X96944004Y-86308758D01*
X96955018Y-86332046D01*
X96963697Y-86356300D01*
X96969956Y-86381289D01*
X96973736Y-86406771D01*
X96975000Y-86432500D01*
X96975000Y-87057500D01*
X96973736Y-87083229D01*
X96969956Y-87108711D01*
X96963697Y-87133700D01*
X96955018Y-87157954D01*
X96944004Y-87181242D01*
X96930761Y-87203337D01*
X96915415Y-87224028D01*
X96898116Y-87243116D01*
X96879028Y-87260415D01*
X96858337Y-87275761D01*
X96836242Y-87289004D01*
X96812954Y-87300018D01*
X96788700Y-87308697D01*
X96763711Y-87314956D01*
X96738229Y-87318736D01*
X96712500Y-87320000D01*
X96187500Y-87320000D01*
X96161771Y-87318736D01*
X96136289Y-87314956D01*
X96111300Y-87308697D01*
X96087046Y-87300018D01*
X96063758Y-87289004D01*
X96041663Y-87275761D01*
X96020972Y-87260415D01*
X96001884Y-87243116D01*
X95984585Y-87224028D01*
X95969239Y-87203337D01*
X95955996Y-87181242D01*
X95944982Y-87157954D01*
X95936303Y-87133700D01*
X95930044Y-87108711D01*
X95926264Y-87083229D01*
X95925000Y-87057500D01*
X95925000Y-86432500D01*
X95926264Y-86406771D01*
X95930044Y-86381289D01*
X95936303Y-86356300D01*
X95944982Y-86332046D01*
X95955996Y-86308758D01*
X95969239Y-86286663D01*
X95984585Y-86265972D01*
X96001884Y-86246884D01*
X96020972Y-86229585D01*
X96041663Y-86214239D01*
X96063758Y-86200996D01*
X96087046Y-86189982D01*
X96111300Y-86181303D01*
X96136289Y-86175044D01*
X96161771Y-86171264D01*
X96187500Y-86170000D01*
X96712500Y-86170000D01*
X96738229Y-86171264D01*
X96738229Y-86171264D01*
G37*
D13*
X96450000Y-86745000D03*
D12*
G36*
X96738229Y-84421264D02*
G01*
X96763711Y-84425044D01*
X96788700Y-84431303D01*
X96812954Y-84439982D01*
X96836242Y-84450996D01*
X96858337Y-84464239D01*
X96879028Y-84479585D01*
X96898116Y-84496884D01*
X96915415Y-84515972D01*
X96930761Y-84536663D01*
X96944004Y-84558758D01*
X96955018Y-84582046D01*
X96963697Y-84606300D01*
X96969956Y-84631289D01*
X96973736Y-84656771D01*
X96975000Y-84682500D01*
X96975000Y-85307500D01*
X96973736Y-85333229D01*
X96969956Y-85358711D01*
X96963697Y-85383700D01*
X96955018Y-85407954D01*
X96944004Y-85431242D01*
X96930761Y-85453337D01*
X96915415Y-85474028D01*
X96898116Y-85493116D01*
X96879028Y-85510415D01*
X96858337Y-85525761D01*
X96836242Y-85539004D01*
X96812954Y-85550018D01*
X96788700Y-85558697D01*
X96763711Y-85564956D01*
X96738229Y-85568736D01*
X96712500Y-85570000D01*
X96187500Y-85570000D01*
X96161771Y-85568736D01*
X96136289Y-85564956D01*
X96111300Y-85558697D01*
X96087046Y-85550018D01*
X96063758Y-85539004D01*
X96041663Y-85525761D01*
X96020972Y-85510415D01*
X96001884Y-85493116D01*
X95984585Y-85474028D01*
X95969239Y-85453337D01*
X95955996Y-85431242D01*
X95944982Y-85407954D01*
X95936303Y-85383700D01*
X95930044Y-85358711D01*
X95926264Y-85333229D01*
X95925000Y-85307500D01*
X95925000Y-84682500D01*
X95926264Y-84656771D01*
X95930044Y-84631289D01*
X95936303Y-84606300D01*
X95944982Y-84582046D01*
X95955996Y-84558758D01*
X95969239Y-84536663D01*
X95984585Y-84515972D01*
X96001884Y-84496884D01*
X96020972Y-84479585D01*
X96041663Y-84464239D01*
X96063758Y-84450996D01*
X96087046Y-84439982D01*
X96111300Y-84431303D01*
X96136289Y-84425044D01*
X96161771Y-84421264D01*
X96187500Y-84420000D01*
X96712500Y-84420000D01*
X96738229Y-84421264D01*
X96738229Y-84421264D01*
G37*
D13*
X96450000Y-84995000D03*
%TD*%
D14*
%TO.C,J1*%
X85150000Y-70960000D03*
D15*
X85150000Y-73500000D03*
X85150000Y-76040000D03*
X85150000Y-78580000D03*
X85150000Y-81120000D03*
X85150000Y-83660000D03*
%TD*%
D12*
%TO.C,R15*%
G36*
X138448229Y-110721264D02*
G01*
X138473711Y-110725044D01*
X138498700Y-110731303D01*
X138522954Y-110739982D01*
X138546242Y-110750996D01*
X138568337Y-110764239D01*
X138589028Y-110779585D01*
X138608116Y-110796884D01*
X138625415Y-110815972D01*
X138640761Y-110836663D01*
X138654004Y-110858758D01*
X138665018Y-110882046D01*
X138673697Y-110906300D01*
X138679956Y-110931289D01*
X138683736Y-110956771D01*
X138685000Y-110982500D01*
X138685000Y-111607500D01*
X138683736Y-111633229D01*
X138679956Y-111658711D01*
X138673697Y-111683700D01*
X138665018Y-111707954D01*
X138654004Y-111731242D01*
X138640761Y-111753337D01*
X138625415Y-111774028D01*
X138608116Y-111793116D01*
X138589028Y-111810415D01*
X138568337Y-111825761D01*
X138546242Y-111839004D01*
X138522954Y-111850018D01*
X138498700Y-111858697D01*
X138473711Y-111864956D01*
X138448229Y-111868736D01*
X138422500Y-111870000D01*
X137897500Y-111870000D01*
X137871771Y-111868736D01*
X137846289Y-111864956D01*
X137821300Y-111858697D01*
X137797046Y-111850018D01*
X137773758Y-111839004D01*
X137751663Y-111825761D01*
X137730972Y-111810415D01*
X137711884Y-111793116D01*
X137694585Y-111774028D01*
X137679239Y-111753337D01*
X137665996Y-111731242D01*
X137654982Y-111707954D01*
X137646303Y-111683700D01*
X137640044Y-111658711D01*
X137636264Y-111633229D01*
X137635000Y-111607500D01*
X137635000Y-110982500D01*
X137636264Y-110956771D01*
X137640044Y-110931289D01*
X137646303Y-110906300D01*
X137654982Y-110882046D01*
X137665996Y-110858758D01*
X137679239Y-110836663D01*
X137694585Y-110815972D01*
X137711884Y-110796884D01*
X137730972Y-110779585D01*
X137751663Y-110764239D01*
X137773758Y-110750996D01*
X137797046Y-110739982D01*
X137821300Y-110731303D01*
X137846289Y-110725044D01*
X137871771Y-110721264D01*
X137897500Y-110720000D01*
X138422500Y-110720000D01*
X138448229Y-110721264D01*
X138448229Y-110721264D01*
G37*
D13*
X138160000Y-111295000D03*
D12*
G36*
X138448229Y-112471264D02*
G01*
X138473711Y-112475044D01*
X138498700Y-112481303D01*
X138522954Y-112489982D01*
X138546242Y-112500996D01*
X138568337Y-112514239D01*
X138589028Y-112529585D01*
X138608116Y-112546884D01*
X138625415Y-112565972D01*
X138640761Y-112586663D01*
X138654004Y-112608758D01*
X138665018Y-112632046D01*
X138673697Y-112656300D01*
X138679956Y-112681289D01*
X138683736Y-112706771D01*
X138685000Y-112732500D01*
X138685000Y-113357500D01*
X138683736Y-113383229D01*
X138679956Y-113408711D01*
X138673697Y-113433700D01*
X138665018Y-113457954D01*
X138654004Y-113481242D01*
X138640761Y-113503337D01*
X138625415Y-113524028D01*
X138608116Y-113543116D01*
X138589028Y-113560415D01*
X138568337Y-113575761D01*
X138546242Y-113589004D01*
X138522954Y-113600018D01*
X138498700Y-113608697D01*
X138473711Y-113614956D01*
X138448229Y-113618736D01*
X138422500Y-113620000D01*
X137897500Y-113620000D01*
X137871771Y-113618736D01*
X137846289Y-113614956D01*
X137821300Y-113608697D01*
X137797046Y-113600018D01*
X137773758Y-113589004D01*
X137751663Y-113575761D01*
X137730972Y-113560415D01*
X137711884Y-113543116D01*
X137694585Y-113524028D01*
X137679239Y-113503337D01*
X137665996Y-113481242D01*
X137654982Y-113457954D01*
X137646303Y-113433700D01*
X137640044Y-113408711D01*
X137636264Y-113383229D01*
X137635000Y-113357500D01*
X137635000Y-112732500D01*
X137636264Y-112706771D01*
X137640044Y-112681289D01*
X137646303Y-112656300D01*
X137654982Y-112632046D01*
X137665996Y-112608758D01*
X137679239Y-112586663D01*
X137694585Y-112565972D01*
X137711884Y-112546884D01*
X137730972Y-112529585D01*
X137751663Y-112514239D01*
X137773758Y-112500996D01*
X137797046Y-112489982D01*
X137821300Y-112481303D01*
X137846289Y-112475044D01*
X137871771Y-112471264D01*
X137897500Y-112470000D01*
X138422500Y-112470000D01*
X138448229Y-112471264D01*
X138448229Y-112471264D01*
G37*
D13*
X138160000Y-113045000D03*
%TD*%
D12*
%TO.C,R16*%
G36*
X138448229Y-107671264D02*
G01*
X138473711Y-107675044D01*
X138498700Y-107681303D01*
X138522954Y-107689982D01*
X138546242Y-107700996D01*
X138568337Y-107714239D01*
X138589028Y-107729585D01*
X138608116Y-107746884D01*
X138625415Y-107765972D01*
X138640761Y-107786663D01*
X138654004Y-107808758D01*
X138665018Y-107832046D01*
X138673697Y-107856300D01*
X138679956Y-107881289D01*
X138683736Y-107906771D01*
X138685000Y-107932500D01*
X138685000Y-108557500D01*
X138683736Y-108583229D01*
X138679956Y-108608711D01*
X138673697Y-108633700D01*
X138665018Y-108657954D01*
X138654004Y-108681242D01*
X138640761Y-108703337D01*
X138625415Y-108724028D01*
X138608116Y-108743116D01*
X138589028Y-108760415D01*
X138568337Y-108775761D01*
X138546242Y-108789004D01*
X138522954Y-108800018D01*
X138498700Y-108808697D01*
X138473711Y-108814956D01*
X138448229Y-108818736D01*
X138422500Y-108820000D01*
X137897500Y-108820000D01*
X137871771Y-108818736D01*
X137846289Y-108814956D01*
X137821300Y-108808697D01*
X137797046Y-108800018D01*
X137773758Y-108789004D01*
X137751663Y-108775761D01*
X137730972Y-108760415D01*
X137711884Y-108743116D01*
X137694585Y-108724028D01*
X137679239Y-108703337D01*
X137665996Y-108681242D01*
X137654982Y-108657954D01*
X137646303Y-108633700D01*
X137640044Y-108608711D01*
X137636264Y-108583229D01*
X137635000Y-108557500D01*
X137635000Y-107932500D01*
X137636264Y-107906771D01*
X137640044Y-107881289D01*
X137646303Y-107856300D01*
X137654982Y-107832046D01*
X137665996Y-107808758D01*
X137679239Y-107786663D01*
X137694585Y-107765972D01*
X137711884Y-107746884D01*
X137730972Y-107729585D01*
X137751663Y-107714239D01*
X137773758Y-107700996D01*
X137797046Y-107689982D01*
X137821300Y-107681303D01*
X137846289Y-107675044D01*
X137871771Y-107671264D01*
X137897500Y-107670000D01*
X138422500Y-107670000D01*
X138448229Y-107671264D01*
X138448229Y-107671264D01*
G37*
D13*
X138160000Y-108245000D03*
D12*
G36*
X138448229Y-105921264D02*
G01*
X138473711Y-105925044D01*
X138498700Y-105931303D01*
X138522954Y-105939982D01*
X138546242Y-105950996D01*
X138568337Y-105964239D01*
X138589028Y-105979585D01*
X138608116Y-105996884D01*
X138625415Y-106015972D01*
X138640761Y-106036663D01*
X138654004Y-106058758D01*
X138665018Y-106082046D01*
X138673697Y-106106300D01*
X138679956Y-106131289D01*
X138683736Y-106156771D01*
X138685000Y-106182500D01*
X138685000Y-106807500D01*
X138683736Y-106833229D01*
X138679956Y-106858711D01*
X138673697Y-106883700D01*
X138665018Y-106907954D01*
X138654004Y-106931242D01*
X138640761Y-106953337D01*
X138625415Y-106974028D01*
X138608116Y-106993116D01*
X138589028Y-107010415D01*
X138568337Y-107025761D01*
X138546242Y-107039004D01*
X138522954Y-107050018D01*
X138498700Y-107058697D01*
X138473711Y-107064956D01*
X138448229Y-107068736D01*
X138422500Y-107070000D01*
X137897500Y-107070000D01*
X137871771Y-107068736D01*
X137846289Y-107064956D01*
X137821300Y-107058697D01*
X137797046Y-107050018D01*
X137773758Y-107039004D01*
X137751663Y-107025761D01*
X137730972Y-107010415D01*
X137711884Y-106993116D01*
X137694585Y-106974028D01*
X137679239Y-106953337D01*
X137665996Y-106931242D01*
X137654982Y-106907954D01*
X137646303Y-106883700D01*
X137640044Y-106858711D01*
X137636264Y-106833229D01*
X137635000Y-106807500D01*
X137635000Y-106182500D01*
X137636264Y-106156771D01*
X137640044Y-106131289D01*
X137646303Y-106106300D01*
X137654982Y-106082046D01*
X137665996Y-106058758D01*
X137679239Y-106036663D01*
X137694585Y-106015972D01*
X137711884Y-105996884D01*
X137730972Y-105979585D01*
X137751663Y-105964239D01*
X137773758Y-105950996D01*
X137797046Y-105939982D01*
X137821300Y-105931303D01*
X137846289Y-105925044D01*
X137871771Y-105921264D01*
X137897500Y-105920000D01*
X138422500Y-105920000D01*
X138448229Y-105921264D01*
X138448229Y-105921264D01*
G37*
D13*
X138160000Y-106495000D03*
%TD*%
D12*
%TO.C,R17*%
G36*
X134483229Y-103646264D02*
G01*
X134508711Y-103650044D01*
X134533700Y-103656303D01*
X134557954Y-103664982D01*
X134581242Y-103675996D01*
X134603337Y-103689239D01*
X134624028Y-103704585D01*
X134643116Y-103721884D01*
X134660415Y-103740972D01*
X134675761Y-103761663D01*
X134689004Y-103783758D01*
X134700018Y-103807046D01*
X134708697Y-103831300D01*
X134714956Y-103856289D01*
X134718736Y-103881771D01*
X134720000Y-103907500D01*
X134720000Y-104432500D01*
X134718736Y-104458229D01*
X134714956Y-104483711D01*
X134708697Y-104508700D01*
X134700018Y-104532954D01*
X134689004Y-104556242D01*
X134675761Y-104578337D01*
X134660415Y-104599028D01*
X134643116Y-104618116D01*
X134624028Y-104635415D01*
X134603337Y-104650761D01*
X134581242Y-104664004D01*
X134557954Y-104675018D01*
X134533700Y-104683697D01*
X134508711Y-104689956D01*
X134483229Y-104693736D01*
X134457500Y-104695000D01*
X133832500Y-104695000D01*
X133806771Y-104693736D01*
X133781289Y-104689956D01*
X133756300Y-104683697D01*
X133732046Y-104675018D01*
X133708758Y-104664004D01*
X133686663Y-104650761D01*
X133665972Y-104635415D01*
X133646884Y-104618116D01*
X133629585Y-104599028D01*
X133614239Y-104578337D01*
X133600996Y-104556242D01*
X133589982Y-104532954D01*
X133581303Y-104508700D01*
X133575044Y-104483711D01*
X133571264Y-104458229D01*
X133570000Y-104432500D01*
X133570000Y-103907500D01*
X133571264Y-103881771D01*
X133575044Y-103856289D01*
X133581303Y-103831300D01*
X133589982Y-103807046D01*
X133600996Y-103783758D01*
X133614239Y-103761663D01*
X133629585Y-103740972D01*
X133646884Y-103721884D01*
X133665972Y-103704585D01*
X133686663Y-103689239D01*
X133708758Y-103675996D01*
X133732046Y-103664982D01*
X133756300Y-103656303D01*
X133781289Y-103650044D01*
X133806771Y-103646264D01*
X133832500Y-103645000D01*
X134457500Y-103645000D01*
X134483229Y-103646264D01*
X134483229Y-103646264D01*
G37*
D13*
X134145000Y-104170000D03*
D12*
G36*
X132733229Y-103646264D02*
G01*
X132758711Y-103650044D01*
X132783700Y-103656303D01*
X132807954Y-103664982D01*
X132831242Y-103675996D01*
X132853337Y-103689239D01*
X132874028Y-103704585D01*
X132893116Y-103721884D01*
X132910415Y-103740972D01*
X132925761Y-103761663D01*
X132939004Y-103783758D01*
X132950018Y-103807046D01*
X132958697Y-103831300D01*
X132964956Y-103856289D01*
X132968736Y-103881771D01*
X132970000Y-103907500D01*
X132970000Y-104432500D01*
X132968736Y-104458229D01*
X132964956Y-104483711D01*
X132958697Y-104508700D01*
X132950018Y-104532954D01*
X132939004Y-104556242D01*
X132925761Y-104578337D01*
X132910415Y-104599028D01*
X132893116Y-104618116D01*
X132874028Y-104635415D01*
X132853337Y-104650761D01*
X132831242Y-104664004D01*
X132807954Y-104675018D01*
X132783700Y-104683697D01*
X132758711Y-104689956D01*
X132733229Y-104693736D01*
X132707500Y-104695000D01*
X132082500Y-104695000D01*
X132056771Y-104693736D01*
X132031289Y-104689956D01*
X132006300Y-104683697D01*
X131982046Y-104675018D01*
X131958758Y-104664004D01*
X131936663Y-104650761D01*
X131915972Y-104635415D01*
X131896884Y-104618116D01*
X131879585Y-104599028D01*
X131864239Y-104578337D01*
X131850996Y-104556242D01*
X131839982Y-104532954D01*
X131831303Y-104508700D01*
X131825044Y-104483711D01*
X131821264Y-104458229D01*
X131820000Y-104432500D01*
X131820000Y-103907500D01*
X131821264Y-103881771D01*
X131825044Y-103856289D01*
X131831303Y-103831300D01*
X131839982Y-103807046D01*
X131850996Y-103783758D01*
X131864239Y-103761663D01*
X131879585Y-103740972D01*
X131896884Y-103721884D01*
X131915972Y-103704585D01*
X131936663Y-103689239D01*
X131958758Y-103675996D01*
X131982046Y-103664982D01*
X132006300Y-103656303D01*
X132031289Y-103650044D01*
X132056771Y-103646264D01*
X132082500Y-103645000D01*
X132707500Y-103645000D01*
X132733229Y-103646264D01*
X132733229Y-103646264D01*
G37*
D13*
X132395000Y-104170000D03*
%TD*%
D12*
%TO.C,R18*%
G36*
X140613229Y-97346264D02*
G01*
X140638711Y-97350044D01*
X140663700Y-97356303D01*
X140687954Y-97364982D01*
X140711242Y-97375996D01*
X140733337Y-97389239D01*
X140754028Y-97404585D01*
X140773116Y-97421884D01*
X140790415Y-97440972D01*
X140805761Y-97461663D01*
X140819004Y-97483758D01*
X140830018Y-97507046D01*
X140838697Y-97531300D01*
X140844956Y-97556289D01*
X140848736Y-97581771D01*
X140850000Y-97607500D01*
X140850000Y-98132500D01*
X140848736Y-98158229D01*
X140844956Y-98183711D01*
X140838697Y-98208700D01*
X140830018Y-98232954D01*
X140819004Y-98256242D01*
X140805761Y-98278337D01*
X140790415Y-98299028D01*
X140773116Y-98318116D01*
X140754028Y-98335415D01*
X140733337Y-98350761D01*
X140711242Y-98364004D01*
X140687954Y-98375018D01*
X140663700Y-98383697D01*
X140638711Y-98389956D01*
X140613229Y-98393736D01*
X140587500Y-98395000D01*
X139962500Y-98395000D01*
X139936771Y-98393736D01*
X139911289Y-98389956D01*
X139886300Y-98383697D01*
X139862046Y-98375018D01*
X139838758Y-98364004D01*
X139816663Y-98350761D01*
X139795972Y-98335415D01*
X139776884Y-98318116D01*
X139759585Y-98299028D01*
X139744239Y-98278337D01*
X139730996Y-98256242D01*
X139719982Y-98232954D01*
X139711303Y-98208700D01*
X139705044Y-98183711D01*
X139701264Y-98158229D01*
X139700000Y-98132500D01*
X139700000Y-97607500D01*
X139701264Y-97581771D01*
X139705044Y-97556289D01*
X139711303Y-97531300D01*
X139719982Y-97507046D01*
X139730996Y-97483758D01*
X139744239Y-97461663D01*
X139759585Y-97440972D01*
X139776884Y-97421884D01*
X139795972Y-97404585D01*
X139816663Y-97389239D01*
X139838758Y-97375996D01*
X139862046Y-97364982D01*
X139886300Y-97356303D01*
X139911289Y-97350044D01*
X139936771Y-97346264D01*
X139962500Y-97345000D01*
X140587500Y-97345000D01*
X140613229Y-97346264D01*
X140613229Y-97346264D01*
G37*
D13*
X140275000Y-97870000D03*
D12*
G36*
X138863229Y-97346264D02*
G01*
X138888711Y-97350044D01*
X138913700Y-97356303D01*
X138937954Y-97364982D01*
X138961242Y-97375996D01*
X138983337Y-97389239D01*
X139004028Y-97404585D01*
X139023116Y-97421884D01*
X139040415Y-97440972D01*
X139055761Y-97461663D01*
X139069004Y-97483758D01*
X139080018Y-97507046D01*
X139088697Y-97531300D01*
X139094956Y-97556289D01*
X139098736Y-97581771D01*
X139100000Y-97607500D01*
X139100000Y-98132500D01*
X139098736Y-98158229D01*
X139094956Y-98183711D01*
X139088697Y-98208700D01*
X139080018Y-98232954D01*
X139069004Y-98256242D01*
X139055761Y-98278337D01*
X139040415Y-98299028D01*
X139023116Y-98318116D01*
X139004028Y-98335415D01*
X138983337Y-98350761D01*
X138961242Y-98364004D01*
X138937954Y-98375018D01*
X138913700Y-98383697D01*
X138888711Y-98389956D01*
X138863229Y-98393736D01*
X138837500Y-98395000D01*
X138212500Y-98395000D01*
X138186771Y-98393736D01*
X138161289Y-98389956D01*
X138136300Y-98383697D01*
X138112046Y-98375018D01*
X138088758Y-98364004D01*
X138066663Y-98350761D01*
X138045972Y-98335415D01*
X138026884Y-98318116D01*
X138009585Y-98299028D01*
X137994239Y-98278337D01*
X137980996Y-98256242D01*
X137969982Y-98232954D01*
X137961303Y-98208700D01*
X137955044Y-98183711D01*
X137951264Y-98158229D01*
X137950000Y-98132500D01*
X137950000Y-97607500D01*
X137951264Y-97581771D01*
X137955044Y-97556289D01*
X137961303Y-97531300D01*
X137969982Y-97507046D01*
X137980996Y-97483758D01*
X137994239Y-97461663D01*
X138009585Y-97440972D01*
X138026884Y-97421884D01*
X138045972Y-97404585D01*
X138066663Y-97389239D01*
X138088758Y-97375996D01*
X138112046Y-97364982D01*
X138136300Y-97356303D01*
X138161289Y-97350044D01*
X138186771Y-97346264D01*
X138212500Y-97345000D01*
X138837500Y-97345000D01*
X138863229Y-97346264D01*
X138863229Y-97346264D01*
G37*
D13*
X138525000Y-97870000D03*
%TD*%
D12*
%TO.C,R19*%
G36*
X132973229Y-99646264D02*
G01*
X132998711Y-99650044D01*
X133023700Y-99656303D01*
X133047954Y-99664982D01*
X133071242Y-99675996D01*
X133093337Y-99689239D01*
X133114028Y-99704585D01*
X133133116Y-99721884D01*
X133150415Y-99740972D01*
X133165761Y-99761663D01*
X133179004Y-99783758D01*
X133190018Y-99807046D01*
X133198697Y-99831300D01*
X133204956Y-99856289D01*
X133208736Y-99881771D01*
X133210000Y-99907500D01*
X133210000Y-100432500D01*
X133208736Y-100458229D01*
X133204956Y-100483711D01*
X133198697Y-100508700D01*
X133190018Y-100532954D01*
X133179004Y-100556242D01*
X133165761Y-100578337D01*
X133150415Y-100599028D01*
X133133116Y-100618116D01*
X133114028Y-100635415D01*
X133093337Y-100650761D01*
X133071242Y-100664004D01*
X133047954Y-100675018D01*
X133023700Y-100683697D01*
X132998711Y-100689956D01*
X132973229Y-100693736D01*
X132947500Y-100695000D01*
X132322500Y-100695000D01*
X132296771Y-100693736D01*
X132271289Y-100689956D01*
X132246300Y-100683697D01*
X132222046Y-100675018D01*
X132198758Y-100664004D01*
X132176663Y-100650761D01*
X132155972Y-100635415D01*
X132136884Y-100618116D01*
X132119585Y-100599028D01*
X132104239Y-100578337D01*
X132090996Y-100556242D01*
X132079982Y-100532954D01*
X132071303Y-100508700D01*
X132065044Y-100483711D01*
X132061264Y-100458229D01*
X132060000Y-100432500D01*
X132060000Y-99907500D01*
X132061264Y-99881771D01*
X132065044Y-99856289D01*
X132071303Y-99831300D01*
X132079982Y-99807046D01*
X132090996Y-99783758D01*
X132104239Y-99761663D01*
X132119585Y-99740972D01*
X132136884Y-99721884D01*
X132155972Y-99704585D01*
X132176663Y-99689239D01*
X132198758Y-99675996D01*
X132222046Y-99664982D01*
X132246300Y-99656303D01*
X132271289Y-99650044D01*
X132296771Y-99646264D01*
X132322500Y-99645000D01*
X132947500Y-99645000D01*
X132973229Y-99646264D01*
X132973229Y-99646264D01*
G37*
D13*
X132635000Y-100170000D03*
D12*
G36*
X131223229Y-99646264D02*
G01*
X131248711Y-99650044D01*
X131273700Y-99656303D01*
X131297954Y-99664982D01*
X131321242Y-99675996D01*
X131343337Y-99689239D01*
X131364028Y-99704585D01*
X131383116Y-99721884D01*
X131400415Y-99740972D01*
X131415761Y-99761663D01*
X131429004Y-99783758D01*
X131440018Y-99807046D01*
X131448697Y-99831300D01*
X131454956Y-99856289D01*
X131458736Y-99881771D01*
X131460000Y-99907500D01*
X131460000Y-100432500D01*
X131458736Y-100458229D01*
X131454956Y-100483711D01*
X131448697Y-100508700D01*
X131440018Y-100532954D01*
X131429004Y-100556242D01*
X131415761Y-100578337D01*
X131400415Y-100599028D01*
X131383116Y-100618116D01*
X131364028Y-100635415D01*
X131343337Y-100650761D01*
X131321242Y-100664004D01*
X131297954Y-100675018D01*
X131273700Y-100683697D01*
X131248711Y-100689956D01*
X131223229Y-100693736D01*
X131197500Y-100695000D01*
X130572500Y-100695000D01*
X130546771Y-100693736D01*
X130521289Y-100689956D01*
X130496300Y-100683697D01*
X130472046Y-100675018D01*
X130448758Y-100664004D01*
X130426663Y-100650761D01*
X130405972Y-100635415D01*
X130386884Y-100618116D01*
X130369585Y-100599028D01*
X130354239Y-100578337D01*
X130340996Y-100556242D01*
X130329982Y-100532954D01*
X130321303Y-100508700D01*
X130315044Y-100483711D01*
X130311264Y-100458229D01*
X130310000Y-100432500D01*
X130310000Y-99907500D01*
X130311264Y-99881771D01*
X130315044Y-99856289D01*
X130321303Y-99831300D01*
X130329982Y-99807046D01*
X130340996Y-99783758D01*
X130354239Y-99761663D01*
X130369585Y-99740972D01*
X130386884Y-99721884D01*
X130405972Y-99704585D01*
X130426663Y-99689239D01*
X130448758Y-99675996D01*
X130472046Y-99664982D01*
X130496300Y-99656303D01*
X130521289Y-99650044D01*
X130546771Y-99646264D01*
X130572500Y-99645000D01*
X131197500Y-99645000D01*
X131223229Y-99646264D01*
X131223229Y-99646264D01*
G37*
D13*
X130885000Y-100170000D03*
%TD*%
D14*
%TO.C,SW1*%
X118000000Y-57000000D03*
D15*
X118000000Y-54460000D03*
X118000000Y-51920000D03*
%TD*%
D14*
%TO.C,SW3*%
X143620000Y-57000000D03*
D15*
X143620000Y-54460000D03*
X146160000Y-57000000D03*
X146160000Y-54460000D03*
%TD*%
%TO.C,SW4*%
X123000000Y-51920000D03*
X123000000Y-54460000D03*
D14*
X123000000Y-57000000D03*
%TD*%
M02*
