%TF.GenerationSoftware,KiCad,Pcbnew,(5.1.4)-1*%
%TF.CreationDate,2020-12-20T21:21:52+02:00*%
%TF.ProjectId,Borta Dators,426f7274-6120-4446-9174-6f72732e6b69,rev?*%
%TF.SameCoordinates,Original*%
%TF.FileFunction,Legend,Bot*%
%TF.FilePolarity,Positive*%
%FSLAX46Y46*%
G04 Gerber Fmt 4.6, Leading zero omitted, Abs format (unit mm)*
G04 Created by KiCad (PCBNEW (5.1.4)-1) date 2020-12-20 21:21:52*
%MOMM*%
%LPD*%
G04 APERTURE LIST*
%ADD10C,0.120000*%
%ADD11C,0.150000*%
G04 APERTURE END LIST*
D10*
%TO.C,C3*%
X96960000Y-86041267D02*
X96960000Y-85698733D01*
X95940000Y-86041267D02*
X95940000Y-85698733D01*
%TO.C,R15*%
X137650000Y-111998733D02*
X137650000Y-112341267D01*
X138670000Y-111998733D02*
X138670000Y-112341267D01*
%TO.C,R16*%
X138670000Y-107541267D02*
X138670000Y-107198733D01*
X137650000Y-107541267D02*
X137650000Y-107198733D01*
%TO.C,R17*%
X133098733Y-103660000D02*
X133441267Y-103660000D01*
X133098733Y-104680000D02*
X133441267Y-104680000D01*
%TO.C,R18*%
X139228733Y-97360000D02*
X139571267Y-97360000D01*
X139228733Y-98380000D02*
X139571267Y-98380000D01*
%TO.C,R19*%
X131931267Y-99660000D02*
X131588733Y-99660000D01*
X131931267Y-100680000D02*
X131588733Y-100680000D01*
%TO.C,C3*%
D11*
X98237142Y-85703333D02*
X98284761Y-85655714D01*
X98332380Y-85512857D01*
X98332380Y-85417619D01*
X98284761Y-85274761D01*
X98189523Y-85179523D01*
X98094285Y-85131904D01*
X97903809Y-85084285D01*
X97760952Y-85084285D01*
X97570476Y-85131904D01*
X97475238Y-85179523D01*
X97380000Y-85274761D01*
X97332380Y-85417619D01*
X97332380Y-85512857D01*
X97380000Y-85655714D01*
X97427619Y-85703333D01*
X97332380Y-86036666D02*
X97332380Y-86655714D01*
X97713333Y-86322380D01*
X97713333Y-86465238D01*
X97760952Y-86560476D01*
X97808571Y-86608095D01*
X97903809Y-86655714D01*
X98141904Y-86655714D01*
X98237142Y-86608095D01*
X98284761Y-86560476D01*
X98332380Y-86465238D01*
X98332380Y-86179523D01*
X98284761Y-86084285D01*
X98237142Y-86036666D01*
%TO.C,R15*%
X137182380Y-111527142D02*
X136706190Y-111193809D01*
X137182380Y-110955714D02*
X136182380Y-110955714D01*
X136182380Y-111336666D01*
X136230000Y-111431904D01*
X136277619Y-111479523D01*
X136372857Y-111527142D01*
X136515714Y-111527142D01*
X136610952Y-111479523D01*
X136658571Y-111431904D01*
X136706190Y-111336666D01*
X136706190Y-110955714D01*
X137182380Y-112479523D02*
X137182380Y-111908095D01*
X137182380Y-112193809D02*
X136182380Y-112193809D01*
X136325238Y-112098571D01*
X136420476Y-112003333D01*
X136468095Y-111908095D01*
X136182380Y-113384285D02*
X136182380Y-112908095D01*
X136658571Y-112860476D01*
X136610952Y-112908095D01*
X136563333Y-113003333D01*
X136563333Y-113241428D01*
X136610952Y-113336666D01*
X136658571Y-113384285D01*
X136753809Y-113431904D01*
X136991904Y-113431904D01*
X137087142Y-113384285D01*
X137134761Y-113336666D01*
X137182380Y-113241428D01*
X137182380Y-113003333D01*
X137134761Y-112908095D01*
X137087142Y-112860476D01*
%TO.C,R16*%
X140042380Y-106727142D02*
X139566190Y-106393809D01*
X140042380Y-106155714D02*
X139042380Y-106155714D01*
X139042380Y-106536666D01*
X139090000Y-106631904D01*
X139137619Y-106679523D01*
X139232857Y-106727142D01*
X139375714Y-106727142D01*
X139470952Y-106679523D01*
X139518571Y-106631904D01*
X139566190Y-106536666D01*
X139566190Y-106155714D01*
X140042380Y-107679523D02*
X140042380Y-107108095D01*
X140042380Y-107393809D02*
X139042380Y-107393809D01*
X139185238Y-107298571D01*
X139280476Y-107203333D01*
X139328095Y-107108095D01*
X139042380Y-108536666D02*
X139042380Y-108346190D01*
X139090000Y-108250952D01*
X139137619Y-108203333D01*
X139280476Y-108108095D01*
X139470952Y-108060476D01*
X139851904Y-108060476D01*
X139947142Y-108108095D01*
X139994761Y-108155714D01*
X140042380Y-108250952D01*
X140042380Y-108441428D01*
X139994761Y-108536666D01*
X139947142Y-108584285D01*
X139851904Y-108631904D01*
X139613809Y-108631904D01*
X139518571Y-108584285D01*
X139470952Y-108536666D01*
X139423333Y-108441428D01*
X139423333Y-108250952D01*
X139470952Y-108155714D01*
X139518571Y-108108095D01*
X139613809Y-108060476D01*
%TO.C,R17*%
X133912857Y-106052380D02*
X134246190Y-105576190D01*
X134484285Y-106052380D02*
X134484285Y-105052380D01*
X134103333Y-105052380D01*
X134008095Y-105100000D01*
X133960476Y-105147619D01*
X133912857Y-105242857D01*
X133912857Y-105385714D01*
X133960476Y-105480952D01*
X134008095Y-105528571D01*
X134103333Y-105576190D01*
X134484285Y-105576190D01*
X132960476Y-106052380D02*
X133531904Y-106052380D01*
X133246190Y-106052380D02*
X133246190Y-105052380D01*
X133341428Y-105195238D01*
X133436666Y-105290476D01*
X133531904Y-105338095D01*
X132627142Y-105052380D02*
X131960476Y-105052380D01*
X132389047Y-106052380D01*
%TO.C,R18*%
X140042857Y-99752380D02*
X140376190Y-99276190D01*
X140614285Y-99752380D02*
X140614285Y-98752380D01*
X140233333Y-98752380D01*
X140138095Y-98800000D01*
X140090476Y-98847619D01*
X140042857Y-98942857D01*
X140042857Y-99085714D01*
X140090476Y-99180952D01*
X140138095Y-99228571D01*
X140233333Y-99276190D01*
X140614285Y-99276190D01*
X139090476Y-99752380D02*
X139661904Y-99752380D01*
X139376190Y-99752380D02*
X139376190Y-98752380D01*
X139471428Y-98895238D01*
X139566666Y-98990476D01*
X139661904Y-99038095D01*
X138519047Y-99180952D02*
X138614285Y-99133333D01*
X138661904Y-99085714D01*
X138709523Y-98990476D01*
X138709523Y-98942857D01*
X138661904Y-98847619D01*
X138614285Y-98800000D01*
X138519047Y-98752380D01*
X138328571Y-98752380D01*
X138233333Y-98800000D01*
X138185714Y-98847619D01*
X138138095Y-98942857D01*
X138138095Y-98990476D01*
X138185714Y-99085714D01*
X138233333Y-99133333D01*
X138328571Y-99180952D01*
X138519047Y-99180952D01*
X138614285Y-99228571D01*
X138661904Y-99276190D01*
X138709523Y-99371428D01*
X138709523Y-99561904D01*
X138661904Y-99657142D01*
X138614285Y-99704761D01*
X138519047Y-99752380D01*
X138328571Y-99752380D01*
X138233333Y-99704761D01*
X138185714Y-99657142D01*
X138138095Y-99561904D01*
X138138095Y-99371428D01*
X138185714Y-99276190D01*
X138233333Y-99228571D01*
X138328571Y-99180952D01*
%TO.C,R19*%
X132402857Y-99192380D02*
X132736190Y-98716190D01*
X132974285Y-99192380D02*
X132974285Y-98192380D01*
X132593333Y-98192380D01*
X132498095Y-98240000D01*
X132450476Y-98287619D01*
X132402857Y-98382857D01*
X132402857Y-98525714D01*
X132450476Y-98620952D01*
X132498095Y-98668571D01*
X132593333Y-98716190D01*
X132974285Y-98716190D01*
X131450476Y-99192380D02*
X132021904Y-99192380D01*
X131736190Y-99192380D02*
X131736190Y-98192380D01*
X131831428Y-98335238D01*
X131926666Y-98430476D01*
X132021904Y-98478095D01*
X130974285Y-99192380D02*
X130783809Y-99192380D01*
X130688571Y-99144761D01*
X130640952Y-99097142D01*
X130545714Y-98954285D01*
X130498095Y-98763809D01*
X130498095Y-98382857D01*
X130545714Y-98287619D01*
X130593333Y-98240000D01*
X130688571Y-98192380D01*
X130879047Y-98192380D01*
X130974285Y-98240000D01*
X131021904Y-98287619D01*
X131069523Y-98382857D01*
X131069523Y-98620952D01*
X131021904Y-98716190D01*
X130974285Y-98763809D01*
X130879047Y-98811428D01*
X130688571Y-98811428D01*
X130593333Y-98763809D01*
X130545714Y-98716190D01*
X130498095Y-98620952D01*
%TD*%
M02*
