%TF.GenerationSoftware,KiCad,Pcbnew,(5.1.4)-1*%
%TF.CreationDate,2020-12-20T21:21:52+02:00*%
%TF.ProjectId,Borta Dators,426f7274-6120-4446-9174-6f72732e6b69,rev?*%
%TF.SameCoordinates,Original*%
%TF.FileFunction,Paste,Bot*%
%TF.FilePolarity,Positive*%
%FSLAX46Y46*%
G04 Gerber Fmt 4.6, Leading zero omitted, Abs format (unit mm)*
G04 Created by KiCad (PCBNEW (5.1.4)-1) date 2020-12-20 21:21:52*
%MOMM*%
%LPD*%
G04 APERTURE LIST*
%ADD10C,0.100000*%
%ADD11C,0.950000*%
G04 APERTURE END LIST*
D10*
%TO.C,C3*%
G36*
X96710779Y-86221144D02*
G01*
X96733834Y-86224563D01*
X96756443Y-86230227D01*
X96778387Y-86238079D01*
X96799457Y-86248044D01*
X96819448Y-86260026D01*
X96838168Y-86273910D01*
X96855438Y-86289562D01*
X96871090Y-86306832D01*
X96884974Y-86325552D01*
X96896956Y-86345543D01*
X96906921Y-86366613D01*
X96914773Y-86388557D01*
X96920437Y-86411166D01*
X96923856Y-86434221D01*
X96925000Y-86457500D01*
X96925000Y-87032500D01*
X96923856Y-87055779D01*
X96920437Y-87078834D01*
X96914773Y-87101443D01*
X96906921Y-87123387D01*
X96896956Y-87144457D01*
X96884974Y-87164448D01*
X96871090Y-87183168D01*
X96855438Y-87200438D01*
X96838168Y-87216090D01*
X96819448Y-87229974D01*
X96799457Y-87241956D01*
X96778387Y-87251921D01*
X96756443Y-87259773D01*
X96733834Y-87265437D01*
X96710779Y-87268856D01*
X96687500Y-87270000D01*
X96212500Y-87270000D01*
X96189221Y-87268856D01*
X96166166Y-87265437D01*
X96143557Y-87259773D01*
X96121613Y-87251921D01*
X96100543Y-87241956D01*
X96080552Y-87229974D01*
X96061832Y-87216090D01*
X96044562Y-87200438D01*
X96028910Y-87183168D01*
X96015026Y-87164448D01*
X96003044Y-87144457D01*
X95993079Y-87123387D01*
X95985227Y-87101443D01*
X95979563Y-87078834D01*
X95976144Y-87055779D01*
X95975000Y-87032500D01*
X95975000Y-86457500D01*
X95976144Y-86434221D01*
X95979563Y-86411166D01*
X95985227Y-86388557D01*
X95993079Y-86366613D01*
X96003044Y-86345543D01*
X96015026Y-86325552D01*
X96028910Y-86306832D01*
X96044562Y-86289562D01*
X96061832Y-86273910D01*
X96080552Y-86260026D01*
X96100543Y-86248044D01*
X96121613Y-86238079D01*
X96143557Y-86230227D01*
X96166166Y-86224563D01*
X96189221Y-86221144D01*
X96212500Y-86220000D01*
X96687500Y-86220000D01*
X96710779Y-86221144D01*
X96710779Y-86221144D01*
G37*
D11*
X96450000Y-86745000D03*
D10*
G36*
X96710779Y-84471144D02*
G01*
X96733834Y-84474563D01*
X96756443Y-84480227D01*
X96778387Y-84488079D01*
X96799457Y-84498044D01*
X96819448Y-84510026D01*
X96838168Y-84523910D01*
X96855438Y-84539562D01*
X96871090Y-84556832D01*
X96884974Y-84575552D01*
X96896956Y-84595543D01*
X96906921Y-84616613D01*
X96914773Y-84638557D01*
X96920437Y-84661166D01*
X96923856Y-84684221D01*
X96925000Y-84707500D01*
X96925000Y-85282500D01*
X96923856Y-85305779D01*
X96920437Y-85328834D01*
X96914773Y-85351443D01*
X96906921Y-85373387D01*
X96896956Y-85394457D01*
X96884974Y-85414448D01*
X96871090Y-85433168D01*
X96855438Y-85450438D01*
X96838168Y-85466090D01*
X96819448Y-85479974D01*
X96799457Y-85491956D01*
X96778387Y-85501921D01*
X96756443Y-85509773D01*
X96733834Y-85515437D01*
X96710779Y-85518856D01*
X96687500Y-85520000D01*
X96212500Y-85520000D01*
X96189221Y-85518856D01*
X96166166Y-85515437D01*
X96143557Y-85509773D01*
X96121613Y-85501921D01*
X96100543Y-85491956D01*
X96080552Y-85479974D01*
X96061832Y-85466090D01*
X96044562Y-85450438D01*
X96028910Y-85433168D01*
X96015026Y-85414448D01*
X96003044Y-85394457D01*
X95993079Y-85373387D01*
X95985227Y-85351443D01*
X95979563Y-85328834D01*
X95976144Y-85305779D01*
X95975000Y-85282500D01*
X95975000Y-84707500D01*
X95976144Y-84684221D01*
X95979563Y-84661166D01*
X95985227Y-84638557D01*
X95993079Y-84616613D01*
X96003044Y-84595543D01*
X96015026Y-84575552D01*
X96028910Y-84556832D01*
X96044562Y-84539562D01*
X96061832Y-84523910D01*
X96080552Y-84510026D01*
X96100543Y-84498044D01*
X96121613Y-84488079D01*
X96143557Y-84480227D01*
X96166166Y-84474563D01*
X96189221Y-84471144D01*
X96212500Y-84470000D01*
X96687500Y-84470000D01*
X96710779Y-84471144D01*
X96710779Y-84471144D01*
G37*
D11*
X96450000Y-84995000D03*
%TD*%
D10*
%TO.C,R15*%
G36*
X138420779Y-110771144D02*
G01*
X138443834Y-110774563D01*
X138466443Y-110780227D01*
X138488387Y-110788079D01*
X138509457Y-110798044D01*
X138529448Y-110810026D01*
X138548168Y-110823910D01*
X138565438Y-110839562D01*
X138581090Y-110856832D01*
X138594974Y-110875552D01*
X138606956Y-110895543D01*
X138616921Y-110916613D01*
X138624773Y-110938557D01*
X138630437Y-110961166D01*
X138633856Y-110984221D01*
X138635000Y-111007500D01*
X138635000Y-111582500D01*
X138633856Y-111605779D01*
X138630437Y-111628834D01*
X138624773Y-111651443D01*
X138616921Y-111673387D01*
X138606956Y-111694457D01*
X138594974Y-111714448D01*
X138581090Y-111733168D01*
X138565438Y-111750438D01*
X138548168Y-111766090D01*
X138529448Y-111779974D01*
X138509457Y-111791956D01*
X138488387Y-111801921D01*
X138466443Y-111809773D01*
X138443834Y-111815437D01*
X138420779Y-111818856D01*
X138397500Y-111820000D01*
X137922500Y-111820000D01*
X137899221Y-111818856D01*
X137876166Y-111815437D01*
X137853557Y-111809773D01*
X137831613Y-111801921D01*
X137810543Y-111791956D01*
X137790552Y-111779974D01*
X137771832Y-111766090D01*
X137754562Y-111750438D01*
X137738910Y-111733168D01*
X137725026Y-111714448D01*
X137713044Y-111694457D01*
X137703079Y-111673387D01*
X137695227Y-111651443D01*
X137689563Y-111628834D01*
X137686144Y-111605779D01*
X137685000Y-111582500D01*
X137685000Y-111007500D01*
X137686144Y-110984221D01*
X137689563Y-110961166D01*
X137695227Y-110938557D01*
X137703079Y-110916613D01*
X137713044Y-110895543D01*
X137725026Y-110875552D01*
X137738910Y-110856832D01*
X137754562Y-110839562D01*
X137771832Y-110823910D01*
X137790552Y-110810026D01*
X137810543Y-110798044D01*
X137831613Y-110788079D01*
X137853557Y-110780227D01*
X137876166Y-110774563D01*
X137899221Y-110771144D01*
X137922500Y-110770000D01*
X138397500Y-110770000D01*
X138420779Y-110771144D01*
X138420779Y-110771144D01*
G37*
D11*
X138160000Y-111295000D03*
D10*
G36*
X138420779Y-112521144D02*
G01*
X138443834Y-112524563D01*
X138466443Y-112530227D01*
X138488387Y-112538079D01*
X138509457Y-112548044D01*
X138529448Y-112560026D01*
X138548168Y-112573910D01*
X138565438Y-112589562D01*
X138581090Y-112606832D01*
X138594974Y-112625552D01*
X138606956Y-112645543D01*
X138616921Y-112666613D01*
X138624773Y-112688557D01*
X138630437Y-112711166D01*
X138633856Y-112734221D01*
X138635000Y-112757500D01*
X138635000Y-113332500D01*
X138633856Y-113355779D01*
X138630437Y-113378834D01*
X138624773Y-113401443D01*
X138616921Y-113423387D01*
X138606956Y-113444457D01*
X138594974Y-113464448D01*
X138581090Y-113483168D01*
X138565438Y-113500438D01*
X138548168Y-113516090D01*
X138529448Y-113529974D01*
X138509457Y-113541956D01*
X138488387Y-113551921D01*
X138466443Y-113559773D01*
X138443834Y-113565437D01*
X138420779Y-113568856D01*
X138397500Y-113570000D01*
X137922500Y-113570000D01*
X137899221Y-113568856D01*
X137876166Y-113565437D01*
X137853557Y-113559773D01*
X137831613Y-113551921D01*
X137810543Y-113541956D01*
X137790552Y-113529974D01*
X137771832Y-113516090D01*
X137754562Y-113500438D01*
X137738910Y-113483168D01*
X137725026Y-113464448D01*
X137713044Y-113444457D01*
X137703079Y-113423387D01*
X137695227Y-113401443D01*
X137689563Y-113378834D01*
X137686144Y-113355779D01*
X137685000Y-113332500D01*
X137685000Y-112757500D01*
X137686144Y-112734221D01*
X137689563Y-112711166D01*
X137695227Y-112688557D01*
X137703079Y-112666613D01*
X137713044Y-112645543D01*
X137725026Y-112625552D01*
X137738910Y-112606832D01*
X137754562Y-112589562D01*
X137771832Y-112573910D01*
X137790552Y-112560026D01*
X137810543Y-112548044D01*
X137831613Y-112538079D01*
X137853557Y-112530227D01*
X137876166Y-112524563D01*
X137899221Y-112521144D01*
X137922500Y-112520000D01*
X138397500Y-112520000D01*
X138420779Y-112521144D01*
X138420779Y-112521144D01*
G37*
D11*
X138160000Y-113045000D03*
%TD*%
D10*
%TO.C,R16*%
G36*
X138420779Y-107721144D02*
G01*
X138443834Y-107724563D01*
X138466443Y-107730227D01*
X138488387Y-107738079D01*
X138509457Y-107748044D01*
X138529448Y-107760026D01*
X138548168Y-107773910D01*
X138565438Y-107789562D01*
X138581090Y-107806832D01*
X138594974Y-107825552D01*
X138606956Y-107845543D01*
X138616921Y-107866613D01*
X138624773Y-107888557D01*
X138630437Y-107911166D01*
X138633856Y-107934221D01*
X138635000Y-107957500D01*
X138635000Y-108532500D01*
X138633856Y-108555779D01*
X138630437Y-108578834D01*
X138624773Y-108601443D01*
X138616921Y-108623387D01*
X138606956Y-108644457D01*
X138594974Y-108664448D01*
X138581090Y-108683168D01*
X138565438Y-108700438D01*
X138548168Y-108716090D01*
X138529448Y-108729974D01*
X138509457Y-108741956D01*
X138488387Y-108751921D01*
X138466443Y-108759773D01*
X138443834Y-108765437D01*
X138420779Y-108768856D01*
X138397500Y-108770000D01*
X137922500Y-108770000D01*
X137899221Y-108768856D01*
X137876166Y-108765437D01*
X137853557Y-108759773D01*
X137831613Y-108751921D01*
X137810543Y-108741956D01*
X137790552Y-108729974D01*
X137771832Y-108716090D01*
X137754562Y-108700438D01*
X137738910Y-108683168D01*
X137725026Y-108664448D01*
X137713044Y-108644457D01*
X137703079Y-108623387D01*
X137695227Y-108601443D01*
X137689563Y-108578834D01*
X137686144Y-108555779D01*
X137685000Y-108532500D01*
X137685000Y-107957500D01*
X137686144Y-107934221D01*
X137689563Y-107911166D01*
X137695227Y-107888557D01*
X137703079Y-107866613D01*
X137713044Y-107845543D01*
X137725026Y-107825552D01*
X137738910Y-107806832D01*
X137754562Y-107789562D01*
X137771832Y-107773910D01*
X137790552Y-107760026D01*
X137810543Y-107748044D01*
X137831613Y-107738079D01*
X137853557Y-107730227D01*
X137876166Y-107724563D01*
X137899221Y-107721144D01*
X137922500Y-107720000D01*
X138397500Y-107720000D01*
X138420779Y-107721144D01*
X138420779Y-107721144D01*
G37*
D11*
X138160000Y-108245000D03*
D10*
G36*
X138420779Y-105971144D02*
G01*
X138443834Y-105974563D01*
X138466443Y-105980227D01*
X138488387Y-105988079D01*
X138509457Y-105998044D01*
X138529448Y-106010026D01*
X138548168Y-106023910D01*
X138565438Y-106039562D01*
X138581090Y-106056832D01*
X138594974Y-106075552D01*
X138606956Y-106095543D01*
X138616921Y-106116613D01*
X138624773Y-106138557D01*
X138630437Y-106161166D01*
X138633856Y-106184221D01*
X138635000Y-106207500D01*
X138635000Y-106782500D01*
X138633856Y-106805779D01*
X138630437Y-106828834D01*
X138624773Y-106851443D01*
X138616921Y-106873387D01*
X138606956Y-106894457D01*
X138594974Y-106914448D01*
X138581090Y-106933168D01*
X138565438Y-106950438D01*
X138548168Y-106966090D01*
X138529448Y-106979974D01*
X138509457Y-106991956D01*
X138488387Y-107001921D01*
X138466443Y-107009773D01*
X138443834Y-107015437D01*
X138420779Y-107018856D01*
X138397500Y-107020000D01*
X137922500Y-107020000D01*
X137899221Y-107018856D01*
X137876166Y-107015437D01*
X137853557Y-107009773D01*
X137831613Y-107001921D01*
X137810543Y-106991956D01*
X137790552Y-106979974D01*
X137771832Y-106966090D01*
X137754562Y-106950438D01*
X137738910Y-106933168D01*
X137725026Y-106914448D01*
X137713044Y-106894457D01*
X137703079Y-106873387D01*
X137695227Y-106851443D01*
X137689563Y-106828834D01*
X137686144Y-106805779D01*
X137685000Y-106782500D01*
X137685000Y-106207500D01*
X137686144Y-106184221D01*
X137689563Y-106161166D01*
X137695227Y-106138557D01*
X137703079Y-106116613D01*
X137713044Y-106095543D01*
X137725026Y-106075552D01*
X137738910Y-106056832D01*
X137754562Y-106039562D01*
X137771832Y-106023910D01*
X137790552Y-106010026D01*
X137810543Y-105998044D01*
X137831613Y-105988079D01*
X137853557Y-105980227D01*
X137876166Y-105974563D01*
X137899221Y-105971144D01*
X137922500Y-105970000D01*
X138397500Y-105970000D01*
X138420779Y-105971144D01*
X138420779Y-105971144D01*
G37*
D11*
X138160000Y-106495000D03*
%TD*%
D10*
%TO.C,R17*%
G36*
X134455779Y-103696144D02*
G01*
X134478834Y-103699563D01*
X134501443Y-103705227D01*
X134523387Y-103713079D01*
X134544457Y-103723044D01*
X134564448Y-103735026D01*
X134583168Y-103748910D01*
X134600438Y-103764562D01*
X134616090Y-103781832D01*
X134629974Y-103800552D01*
X134641956Y-103820543D01*
X134651921Y-103841613D01*
X134659773Y-103863557D01*
X134665437Y-103886166D01*
X134668856Y-103909221D01*
X134670000Y-103932500D01*
X134670000Y-104407500D01*
X134668856Y-104430779D01*
X134665437Y-104453834D01*
X134659773Y-104476443D01*
X134651921Y-104498387D01*
X134641956Y-104519457D01*
X134629974Y-104539448D01*
X134616090Y-104558168D01*
X134600438Y-104575438D01*
X134583168Y-104591090D01*
X134564448Y-104604974D01*
X134544457Y-104616956D01*
X134523387Y-104626921D01*
X134501443Y-104634773D01*
X134478834Y-104640437D01*
X134455779Y-104643856D01*
X134432500Y-104645000D01*
X133857500Y-104645000D01*
X133834221Y-104643856D01*
X133811166Y-104640437D01*
X133788557Y-104634773D01*
X133766613Y-104626921D01*
X133745543Y-104616956D01*
X133725552Y-104604974D01*
X133706832Y-104591090D01*
X133689562Y-104575438D01*
X133673910Y-104558168D01*
X133660026Y-104539448D01*
X133648044Y-104519457D01*
X133638079Y-104498387D01*
X133630227Y-104476443D01*
X133624563Y-104453834D01*
X133621144Y-104430779D01*
X133620000Y-104407500D01*
X133620000Y-103932500D01*
X133621144Y-103909221D01*
X133624563Y-103886166D01*
X133630227Y-103863557D01*
X133638079Y-103841613D01*
X133648044Y-103820543D01*
X133660026Y-103800552D01*
X133673910Y-103781832D01*
X133689562Y-103764562D01*
X133706832Y-103748910D01*
X133725552Y-103735026D01*
X133745543Y-103723044D01*
X133766613Y-103713079D01*
X133788557Y-103705227D01*
X133811166Y-103699563D01*
X133834221Y-103696144D01*
X133857500Y-103695000D01*
X134432500Y-103695000D01*
X134455779Y-103696144D01*
X134455779Y-103696144D01*
G37*
D11*
X134145000Y-104170000D03*
D10*
G36*
X132705779Y-103696144D02*
G01*
X132728834Y-103699563D01*
X132751443Y-103705227D01*
X132773387Y-103713079D01*
X132794457Y-103723044D01*
X132814448Y-103735026D01*
X132833168Y-103748910D01*
X132850438Y-103764562D01*
X132866090Y-103781832D01*
X132879974Y-103800552D01*
X132891956Y-103820543D01*
X132901921Y-103841613D01*
X132909773Y-103863557D01*
X132915437Y-103886166D01*
X132918856Y-103909221D01*
X132920000Y-103932500D01*
X132920000Y-104407500D01*
X132918856Y-104430779D01*
X132915437Y-104453834D01*
X132909773Y-104476443D01*
X132901921Y-104498387D01*
X132891956Y-104519457D01*
X132879974Y-104539448D01*
X132866090Y-104558168D01*
X132850438Y-104575438D01*
X132833168Y-104591090D01*
X132814448Y-104604974D01*
X132794457Y-104616956D01*
X132773387Y-104626921D01*
X132751443Y-104634773D01*
X132728834Y-104640437D01*
X132705779Y-104643856D01*
X132682500Y-104645000D01*
X132107500Y-104645000D01*
X132084221Y-104643856D01*
X132061166Y-104640437D01*
X132038557Y-104634773D01*
X132016613Y-104626921D01*
X131995543Y-104616956D01*
X131975552Y-104604974D01*
X131956832Y-104591090D01*
X131939562Y-104575438D01*
X131923910Y-104558168D01*
X131910026Y-104539448D01*
X131898044Y-104519457D01*
X131888079Y-104498387D01*
X131880227Y-104476443D01*
X131874563Y-104453834D01*
X131871144Y-104430779D01*
X131870000Y-104407500D01*
X131870000Y-103932500D01*
X131871144Y-103909221D01*
X131874563Y-103886166D01*
X131880227Y-103863557D01*
X131888079Y-103841613D01*
X131898044Y-103820543D01*
X131910026Y-103800552D01*
X131923910Y-103781832D01*
X131939562Y-103764562D01*
X131956832Y-103748910D01*
X131975552Y-103735026D01*
X131995543Y-103723044D01*
X132016613Y-103713079D01*
X132038557Y-103705227D01*
X132061166Y-103699563D01*
X132084221Y-103696144D01*
X132107500Y-103695000D01*
X132682500Y-103695000D01*
X132705779Y-103696144D01*
X132705779Y-103696144D01*
G37*
D11*
X132395000Y-104170000D03*
%TD*%
D10*
%TO.C,R18*%
G36*
X140585779Y-97396144D02*
G01*
X140608834Y-97399563D01*
X140631443Y-97405227D01*
X140653387Y-97413079D01*
X140674457Y-97423044D01*
X140694448Y-97435026D01*
X140713168Y-97448910D01*
X140730438Y-97464562D01*
X140746090Y-97481832D01*
X140759974Y-97500552D01*
X140771956Y-97520543D01*
X140781921Y-97541613D01*
X140789773Y-97563557D01*
X140795437Y-97586166D01*
X140798856Y-97609221D01*
X140800000Y-97632500D01*
X140800000Y-98107500D01*
X140798856Y-98130779D01*
X140795437Y-98153834D01*
X140789773Y-98176443D01*
X140781921Y-98198387D01*
X140771956Y-98219457D01*
X140759974Y-98239448D01*
X140746090Y-98258168D01*
X140730438Y-98275438D01*
X140713168Y-98291090D01*
X140694448Y-98304974D01*
X140674457Y-98316956D01*
X140653387Y-98326921D01*
X140631443Y-98334773D01*
X140608834Y-98340437D01*
X140585779Y-98343856D01*
X140562500Y-98345000D01*
X139987500Y-98345000D01*
X139964221Y-98343856D01*
X139941166Y-98340437D01*
X139918557Y-98334773D01*
X139896613Y-98326921D01*
X139875543Y-98316956D01*
X139855552Y-98304974D01*
X139836832Y-98291090D01*
X139819562Y-98275438D01*
X139803910Y-98258168D01*
X139790026Y-98239448D01*
X139778044Y-98219457D01*
X139768079Y-98198387D01*
X139760227Y-98176443D01*
X139754563Y-98153834D01*
X139751144Y-98130779D01*
X139750000Y-98107500D01*
X139750000Y-97632500D01*
X139751144Y-97609221D01*
X139754563Y-97586166D01*
X139760227Y-97563557D01*
X139768079Y-97541613D01*
X139778044Y-97520543D01*
X139790026Y-97500552D01*
X139803910Y-97481832D01*
X139819562Y-97464562D01*
X139836832Y-97448910D01*
X139855552Y-97435026D01*
X139875543Y-97423044D01*
X139896613Y-97413079D01*
X139918557Y-97405227D01*
X139941166Y-97399563D01*
X139964221Y-97396144D01*
X139987500Y-97395000D01*
X140562500Y-97395000D01*
X140585779Y-97396144D01*
X140585779Y-97396144D01*
G37*
D11*
X140275000Y-97870000D03*
D10*
G36*
X138835779Y-97396144D02*
G01*
X138858834Y-97399563D01*
X138881443Y-97405227D01*
X138903387Y-97413079D01*
X138924457Y-97423044D01*
X138944448Y-97435026D01*
X138963168Y-97448910D01*
X138980438Y-97464562D01*
X138996090Y-97481832D01*
X139009974Y-97500552D01*
X139021956Y-97520543D01*
X139031921Y-97541613D01*
X139039773Y-97563557D01*
X139045437Y-97586166D01*
X139048856Y-97609221D01*
X139050000Y-97632500D01*
X139050000Y-98107500D01*
X139048856Y-98130779D01*
X139045437Y-98153834D01*
X139039773Y-98176443D01*
X139031921Y-98198387D01*
X139021956Y-98219457D01*
X139009974Y-98239448D01*
X138996090Y-98258168D01*
X138980438Y-98275438D01*
X138963168Y-98291090D01*
X138944448Y-98304974D01*
X138924457Y-98316956D01*
X138903387Y-98326921D01*
X138881443Y-98334773D01*
X138858834Y-98340437D01*
X138835779Y-98343856D01*
X138812500Y-98345000D01*
X138237500Y-98345000D01*
X138214221Y-98343856D01*
X138191166Y-98340437D01*
X138168557Y-98334773D01*
X138146613Y-98326921D01*
X138125543Y-98316956D01*
X138105552Y-98304974D01*
X138086832Y-98291090D01*
X138069562Y-98275438D01*
X138053910Y-98258168D01*
X138040026Y-98239448D01*
X138028044Y-98219457D01*
X138018079Y-98198387D01*
X138010227Y-98176443D01*
X138004563Y-98153834D01*
X138001144Y-98130779D01*
X138000000Y-98107500D01*
X138000000Y-97632500D01*
X138001144Y-97609221D01*
X138004563Y-97586166D01*
X138010227Y-97563557D01*
X138018079Y-97541613D01*
X138028044Y-97520543D01*
X138040026Y-97500552D01*
X138053910Y-97481832D01*
X138069562Y-97464562D01*
X138086832Y-97448910D01*
X138105552Y-97435026D01*
X138125543Y-97423044D01*
X138146613Y-97413079D01*
X138168557Y-97405227D01*
X138191166Y-97399563D01*
X138214221Y-97396144D01*
X138237500Y-97395000D01*
X138812500Y-97395000D01*
X138835779Y-97396144D01*
X138835779Y-97396144D01*
G37*
D11*
X138525000Y-97870000D03*
%TD*%
D10*
%TO.C,R19*%
G36*
X132945779Y-99696144D02*
G01*
X132968834Y-99699563D01*
X132991443Y-99705227D01*
X133013387Y-99713079D01*
X133034457Y-99723044D01*
X133054448Y-99735026D01*
X133073168Y-99748910D01*
X133090438Y-99764562D01*
X133106090Y-99781832D01*
X133119974Y-99800552D01*
X133131956Y-99820543D01*
X133141921Y-99841613D01*
X133149773Y-99863557D01*
X133155437Y-99886166D01*
X133158856Y-99909221D01*
X133160000Y-99932500D01*
X133160000Y-100407500D01*
X133158856Y-100430779D01*
X133155437Y-100453834D01*
X133149773Y-100476443D01*
X133141921Y-100498387D01*
X133131956Y-100519457D01*
X133119974Y-100539448D01*
X133106090Y-100558168D01*
X133090438Y-100575438D01*
X133073168Y-100591090D01*
X133054448Y-100604974D01*
X133034457Y-100616956D01*
X133013387Y-100626921D01*
X132991443Y-100634773D01*
X132968834Y-100640437D01*
X132945779Y-100643856D01*
X132922500Y-100645000D01*
X132347500Y-100645000D01*
X132324221Y-100643856D01*
X132301166Y-100640437D01*
X132278557Y-100634773D01*
X132256613Y-100626921D01*
X132235543Y-100616956D01*
X132215552Y-100604974D01*
X132196832Y-100591090D01*
X132179562Y-100575438D01*
X132163910Y-100558168D01*
X132150026Y-100539448D01*
X132138044Y-100519457D01*
X132128079Y-100498387D01*
X132120227Y-100476443D01*
X132114563Y-100453834D01*
X132111144Y-100430779D01*
X132110000Y-100407500D01*
X132110000Y-99932500D01*
X132111144Y-99909221D01*
X132114563Y-99886166D01*
X132120227Y-99863557D01*
X132128079Y-99841613D01*
X132138044Y-99820543D01*
X132150026Y-99800552D01*
X132163910Y-99781832D01*
X132179562Y-99764562D01*
X132196832Y-99748910D01*
X132215552Y-99735026D01*
X132235543Y-99723044D01*
X132256613Y-99713079D01*
X132278557Y-99705227D01*
X132301166Y-99699563D01*
X132324221Y-99696144D01*
X132347500Y-99695000D01*
X132922500Y-99695000D01*
X132945779Y-99696144D01*
X132945779Y-99696144D01*
G37*
D11*
X132635000Y-100170000D03*
D10*
G36*
X131195779Y-99696144D02*
G01*
X131218834Y-99699563D01*
X131241443Y-99705227D01*
X131263387Y-99713079D01*
X131284457Y-99723044D01*
X131304448Y-99735026D01*
X131323168Y-99748910D01*
X131340438Y-99764562D01*
X131356090Y-99781832D01*
X131369974Y-99800552D01*
X131381956Y-99820543D01*
X131391921Y-99841613D01*
X131399773Y-99863557D01*
X131405437Y-99886166D01*
X131408856Y-99909221D01*
X131410000Y-99932500D01*
X131410000Y-100407500D01*
X131408856Y-100430779D01*
X131405437Y-100453834D01*
X131399773Y-100476443D01*
X131391921Y-100498387D01*
X131381956Y-100519457D01*
X131369974Y-100539448D01*
X131356090Y-100558168D01*
X131340438Y-100575438D01*
X131323168Y-100591090D01*
X131304448Y-100604974D01*
X131284457Y-100616956D01*
X131263387Y-100626921D01*
X131241443Y-100634773D01*
X131218834Y-100640437D01*
X131195779Y-100643856D01*
X131172500Y-100645000D01*
X130597500Y-100645000D01*
X130574221Y-100643856D01*
X130551166Y-100640437D01*
X130528557Y-100634773D01*
X130506613Y-100626921D01*
X130485543Y-100616956D01*
X130465552Y-100604974D01*
X130446832Y-100591090D01*
X130429562Y-100575438D01*
X130413910Y-100558168D01*
X130400026Y-100539448D01*
X130388044Y-100519457D01*
X130378079Y-100498387D01*
X130370227Y-100476443D01*
X130364563Y-100453834D01*
X130361144Y-100430779D01*
X130360000Y-100407500D01*
X130360000Y-99932500D01*
X130361144Y-99909221D01*
X130364563Y-99886166D01*
X130370227Y-99863557D01*
X130378079Y-99841613D01*
X130388044Y-99820543D01*
X130400026Y-99800552D01*
X130413910Y-99781832D01*
X130429562Y-99764562D01*
X130446832Y-99748910D01*
X130465552Y-99735026D01*
X130485543Y-99723044D01*
X130506613Y-99713079D01*
X130528557Y-99705227D01*
X130551166Y-99699563D01*
X130574221Y-99696144D01*
X130597500Y-99695000D01*
X131172500Y-99695000D01*
X131195779Y-99696144D01*
X131195779Y-99696144D01*
G37*
D11*
X130885000Y-100170000D03*
%TD*%
M02*
